<?xml version="1.0" encoding="utf-8"?>
<!-- Generator: Adobe Illustrator 24.0.1, SVG Export Plug-In . SVG Version: 6.00 Build 0)  -->
<svg version="1.1" id="圖層_1" xmlns="http://www.w3.org/2000/svg" xmlns:xlink="http://www.w3.org/1999/xlink" x="0px" y="0px"
	 viewBox="0 0 1920 829.2" style="enable-background:new 0 0 1920 829.2;" xml:space="preserve">
<style type="text/css">
	.st0{fill:url(#SVGID_1_);}
	.st1{fill:url(#SVGID_2_);}
	.st2{fill:url(#SVGID_3_);}
	.st3{fill:url(#SVGID_4_);}
	.st4{fill:url(#SVGID_5_);}
	.st5{fill:url(#SVGID_6_);}
</style>
<g>
	<linearGradient id="SVGID_1_" gradientUnits="userSpaceOnUse" x1="462.45" y1="793.9" x2="462.45" y2="164">
		<stop  offset="0" style="stop-color:#F5F5F5"/>
		<stop  offset="1" style="stop-color:#EBEBEB"/>
	</linearGradient>
	<path class="st0" d="M669.8,404.5H495.3v-70.1c0-24.4-2-41-6-49.7s-11.3-13.1-22-13.1s-17.9,3.8-21.5,11.5
		c-3.7,7.6-5.5,24.7-5.5,51.3v286.7c0,21.7,2.7,37.9,8.2,48.8c5.5,10.8,13.6,16.3,24.3,16.3c12.5,0,21-5.6,25.4-16.9
		c4.4-11.3,6.6-32.7,6.6-64.1v-72.4h164.9c-0.3,48.6-2.1,85-5.3,109.2c-3.2,24.3-13.4,49.2-30.7,74.7s-39.8,44.7-67.6,57.7
		S504,793.9,463,793.9c-52.2,0-93.6-8.9-124.1-26.8c-30.5-17.9-52.1-42.9-64.8-75.1c-12.7-32.2-19-77.9-19-137.2V382
		c0-51.6,5.2-90.5,15.6-116.8s32.5-49.7,66.4-70.3S412.2,164,460.8,164c48.2,0,89.5,10.2,123.7,30.7s56.9,46.3,68.2,77.4
		C664.1,303.3,669.8,347.4,669.8,404.5z"/>
	<linearGradient id="SVGID_2_" gradientUnits="userSpaceOnUse" x1="826.65" y1="782.8" x2="826.65" y2="160.9">
		<stop  offset="0" style="stop-color:#F5F5F5"/>
		<stop  offset="1" style="stop-color:#EBEBEB"/>
	</linearGradient>
	<path class="st1" d="M910.5,160.9v95.7h49.9v96.2h-49.9V611c0,40,2.1,62.3,6.2,66.9c4.1,4.6,21.3,6.9,51.5,6.9v98h-74.7
		c-42.1,0-72.2-1.8-90.2-5.3s-33.9-11.6-47.6-24.3C742,740.5,733.4,726,730,709.7s-5-54.7-5-115.2V352.8h-39.9v-96.2H725v-95.7
		L910.5,160.9L910.5,160.9z"/>
	<linearGradient id="SVGID_3_" gradientUnits="userSpaceOnUse" x1="1087.1" y1="782.8" x2="1087.1" y2="161.1">
		<stop  offset="0" style="stop-color:#F5F5F5"/>
		<stop  offset="1" style="stop-color:#EBEBEB"/>
	</linearGradient>
	<path class="st2" d="M1182.4,161.1v191.4H991.8V161.1H1182.4z M1182.4,389.6v393.2H991.8V389.6H1182.4z"/>
	<linearGradient id="SVGID_4_" gradientUnits="userSpaceOnUse" x1="1446" y1="793.9" x2="1446" y2="163.9">
		<stop  offset="0" style="stop-color:#F5F5F5"/>
		<stop  offset="1" style="stop-color:#EBEBEB"/>
	</linearGradient>
	<path class="st3" d="M1658.1,388.5v148.9c0,54.7-2.7,94.7-8.2,120.2s-17.3,49.3-35.3,71.5c-18,22.1-41.2,38.5-69.4,49
		c-28.2,10.5-60.7,15.8-97.3,15.8c-40.9,0-75.6-4.5-104-13.5s-50.5-22.6-66.2-40.8s-27-40.2-33.7-66s-10.1-64.5-10.1-116.1V401.7
		c0-56.5,6.1-100.6,18.3-132.4c12.2-31.8,34.2-57.3,66-76.5s72.4-28.9,121.8-28.9c41.5,0,77.2,6.2,107,18.6
		c29.8,12.4,52.7,28.5,68.9,48.3c16.2,19.9,27.3,40.3,33.2,61.4C1655.1,313.3,1658.1,345.4,1658.1,388.5z M1473,342.7
		c0-31.1-1.7-50.8-5-58.9c-3.4-8.1-10.5-12.1-21.5-12.1s-18.3,4.1-22,12.1c-3.7,8.1-5.5,27.7-5.5,58.9V617c0,28.7,1.8,47.4,5.5,56.1
		c3.7,8.7,10.8,13.1,21.5,13.1c11,0,18.2-4,21.8-11.9c3.5-7.9,5.3-25,5.3-51.3V342.7H1473z"/>
	<linearGradient id="SVGID_5_" gradientUnits="userSpaceOnUse" x1="121.9" y1="783" x2="121.9" y2="41.3">
		<stop  offset="0" style="stop-color:#F5F5F5"/>
		<stop  offset="1" style="stop-color:#EBEBEB"/>
	</linearGradient>
	<path class="st4" d="M132.6,41.3H1v165.5v-0.1c9.8,123.7,19.6,227.5,29.4,311.5H1v131.5h34.4L45.7,783h197.1L132.6,41.3z"/>
	<linearGradient id="SVGID_6_" gradientUnits="userSpaceOnUse" x1="1814.75" y1="782.8" x2="1814.75" y2="159.8">
		<stop  offset="0" style="stop-color:#F5F5F5"/>
		<stop  offset="1" style="stop-color:#EBEBEB"/>
	</linearGradient>
	<path class="st5" d="M1920,198.8c-9.4,9-17.8,19.7-25.4,32.2v-71.2h-185.1v623h185.1V372c0-45.8,1.7-74,5-84.5
		c3-9.3,9.7-14.5,20.3-15.6L1920,198.8L1920,198.8z"/>
</g>
</svg>
