<?xml version="1.0" encoding="utf-8"?>
<!-- Generator: Adobe Illustrator 24.2.1, SVG Export Plug-In . SVG Version: 6.00 Build 0)  -->
<svg version="1.1" xmlns="http://www.w3.org/2000/svg" xmlns:xlink="http://www.w3.org/1999/xlink" x="0px" y="0px"
	 viewBox="0 0 30 30" style="enable-background:new 0 0 30 30;" xml:space="preserve">
<style type="text/css">
	.st0{display:none;}
	.st1{display:inline;fill:#505050;}
	.st2{fill:#505050;}
</style>
<g id="page" class="st0">
	<path class="st1" d="M8,22.5C8,22.23,7.77,22,7.5,22c-1.33,0-2.67,0-4,0C3.23,22,3,22.23,3,22.5c0,1.33,0,2.67,0,4
		C3,26.77,3.23,27,3.5,27c1.33,0,2.67,0,4,0c0.14,0,0.24-0.05,0.32-0.12c0.01-0.01,0.02-0.02,0.03-0.03
		c0.01-0.01,0.02-0.02,0.02-0.03C7.95,26.74,8,26.64,8,26.5C8,25.17,8,23.83,8,22.5z M7,26c-1,0-2,0-3,0c0-1,0-2,0-3c1,0,2,0,3,0
		C7,24,7,25,7,26z"/>
	<path class="st1" d="M27,22.5c0-0.27-0.23-0.5-0.5-0.5c-1.33,0-2.67,0-4,0c-0.27,0-0.5,0.23-0.5,0.5c0,1.33,0,2.67,0,4
		c0,0.27,0.23,0.5,0.5,0.5c1.33,0,2.67,0,4,0c0.14,0,0.24-0.05,0.32-0.12c0.01-0.01,0.02-0.02,0.03-0.03
		c0.01-0.01,0.02-0.02,0.02-0.03C26.95,26.74,27,26.64,27,26.5C27,25.17,27,23.83,27,22.5z M26,26c-1,0-2,0-3,0c0-1,0-2,0-3
		c1,0,2,0,3,0C26,24,26,25,26,26z"/>
	<path class="st1" d="M17.5,22.5c0-0.27-0.23-0.5-0.5-0.5c-1.33,0-2.67,0-4,0c-0.27,0-0.5,0.23-0.5,0.5c0,1.33,0,2.67,0,4
		c0,0.27,0.23,0.5,0.5,0.5c1.33,0,2.67,0,4,0c0.14,0,0.24-0.05,0.32-0.12c0.01-0.01,0.02-0.02,0.03-0.03
		c0.01-0.01,0.02-0.02,0.02-0.03c0.07-0.08,0.12-0.18,0.12-0.32C17.5,25.17,17.5,23.83,17.5,22.5z M16.5,26c-1,0-2,0-3,0
		c0-1,0-2,0-3c1,0,2,0,3,0C16.5,24,16.5,25,16.5,26z"/>
	<path class="st1" d="M8,3.5C8,3.23,7.77,3,7.5,3c-1.33,0-2.67,0-4,0C3.23,3,3,3.23,3,3.5c0,1.33,0,2.67,0,4C3,7.77,3.23,8,3.5,8
		c1.33,0,2.67,0,4,0c0.14,0,0.24-0.05,0.32-0.12c0.01-0.01,0.02-0.02,0.03-0.03c0.01-0.01,0.02-0.02,0.02-0.03
		C7.95,7.74,8,7.64,8,7.5C8,6.17,8,4.83,8,3.5z M7,7C6,7,5,7,4,7c0-1,0-2,0-3c1,0,2,0,3,0C7,5,7,6,7,7z"/>
	<path class="st1" d="M27,3.5C27,3.23,26.77,3,26.5,3c-1.33,0-2.67,0-4,0C22.23,3,22,3.23,22,3.5c0,1.33,0,2.67,0,4
		C22,7.77,22.23,8,22.5,8c1.33,0,2.67,0,4,0c0.14,0,0.24-0.05,0.32-0.12c0.01-0.01,0.02-0.02,0.03-0.03
		c0.01-0.01,0.02-0.02,0.02-0.03C26.95,7.74,27,7.64,27,7.5C27,6.17,27,4.83,27,3.5z M26,7c-1,0-2,0-3,0c0-1,0-2,0-3c1,0,2,0,3,0
		C26,5,26,6,26,7z"/>
	<path class="st1" d="M17.5,3.5C17.5,3.23,17.27,3,17,3c-1.33,0-2.67,0-4,0c-0.27,0-0.5,0.23-0.5,0.5c0,1.33,0,2.67,0,4
		C12.5,7.77,12.73,8,13,8c1.33,0,2.67,0,4,0c0.14,0,0.24-0.05,0.32-0.12c0.01-0.01,0.02-0.02,0.03-0.03
		c0.01-0.01,0.02-0.02,0.02-0.03c0.07-0.08,0.12-0.18,0.12-0.32C17.5,6.17,17.5,4.83,17.5,3.5z M16.5,7c-1,0-2,0-3,0c0-1,0-2,0-3
		c1,0,2,0,3,0C16.5,5,16.5,6,16.5,7z"/>
	<path class="st1" d="M8,13c0-0.27-0.23-0.5-0.5-0.5c-1.33,0-2.67,0-4,0C3.23,12.5,3,12.73,3,13c0,1.33,0,2.67,0,4
		c0,0.27,0.23,0.5,0.5,0.5c1.33,0,2.67,0,4,0c0.14,0,0.24-0.05,0.32-0.12c0.01-0.01,0.02-0.02,0.03-0.03
		c0.01-0.01,0.02-0.02,0.02-0.03C7.95,17.24,8,17.14,8,17C8,15.67,8,14.33,8,13z M7,16.5c-1,0-2,0-3,0c0-1,0-2,0-3c1,0,2,0,3,0
		C7,14.5,7,15.5,7,16.5z"/>
	<path class="st1" d="M27,13c0-0.27-0.23-0.5-0.5-0.5c-1.33,0-2.67,0-4,0c-0.27,0-0.5,0.23-0.5,0.5c0,1.33,0,2.67,0,4
		c0,0.27,0.23,0.5,0.5,0.5c1.33,0,2.67,0,4,0c0.14,0,0.24-0.05,0.32-0.12c0.01-0.01,0.02-0.02,0.03-0.03
		c0.01-0.01,0.02-0.02,0.02-0.03C26.95,17.24,27,17.14,27,17C27,15.67,27,14.33,27,13z M26,16.5c-1,0-2,0-3,0c0-1,0-2,0-3
		c1,0,2,0,3,0C26,14.5,26,15.5,26,16.5z"/>
	<path class="st1" d="M17.5,13c0-0.27-0.23-0.5-0.5-0.5c-1.33,0-2.67,0-4,0c-0.27,0-0.5,0.23-0.5,0.5c0,1.33,0,2.67,0,4
		c0,0.27,0.23,0.5,0.5,0.5c1.33,0,2.67,0,4,0c0.14,0,0.24-0.05,0.32-0.12c0.01-0.01,0.02-0.02,0.03-0.03
		c0.01-0.01,0.02-0.02,0.02-0.03c0.07-0.08,0.12-0.18,0.12-0.32C17.5,15.67,17.5,14.33,17.5,13z M16.5,16.5c-1,0-2,0-3,0
		c0-1,0-2,0-3c1,0,2,0,3,0C16.5,14.5,16.5,15.5,16.5,16.5z"/>
</g>
<g id="arrow">
	<path class="st2" d="M27,15.02c0,0,0-0.01,0-0.01c0-0.01,0-0.01,0-0.02c0,0,0-0.01,0-0.01c0-0.04-0.01-0.08-0.02-0.12
		c0-0.01,0-0.02-0.01-0.03c-0.03-0.09-0.08-0.16-0.16-0.22c-5.31-5.31-2.39-2.39-7.75-7.75c-0.46-0.45-1.16,0.25-0.71,0.71
		c5.06,5.06,2.74,2.74,6.94,6.94c-7.21,0-14.6,0-21.79,0c-0.64,0-0.64,1,0,1c7.19,0,14.58,0,21.79,0c-4.2,4.2-1.88,1.88-6.94,6.94
		c-0.46,0.46,0.25,1.16,0.71,0.71c5.36-5.36,2.44-2.44,7.75-7.75c0.07-0.06,0.13-0.13,0.16-0.22c0-0.01,0-0.03,0.01-0.04
		C26.99,15.1,27,15.06,27,15.02z"/>
</g>
<g id="down" class="st0">
	<path class="st1" d="M26.13,9.36c-1.8,1.82-3.61,3.64-5.41,5.46c-1.38,1.39-2.76,2.78-4.14,4.18c-0.26,0.26-1.22,1.12-1.55,1.59
		c-0.31-0.46-1.32-1.33-1.57-1.58c-1.28-1.28-2.56-2.56-3.84-3.84c-1.92-1.92-3.84-3.84-5.76-5.76C3.4,8.95,2.69,9.67,3.15,10.13
		c3.84,3.84,7.68,7.68,11.52,11.52c0.19,0.19,0.52,0.2,0.72,0c3.82-3.86,7.64-7.71,11.47-11.57C27.31,9.61,26.59,8.89,26.13,9.36z"
		/>
</g>
<g id="參考線" class="st0">
</g>
</svg>
