<?xml version="1.0" encoding="utf-8"?>
<!-- Generator: Adobe Illustrator 23.0.6, SVG Export Plug-In . SVG Version: 6.00 Build 0)  -->
<svg version="1.1" id="圖層_1" xmlns="http://www.w3.org/2000/svg" xmlns:xlink="http://www.w3.org/1999/xlink" x="0px" y="0px"
	 viewBox="0 0 600 600" style="enable-background:new 0 0 600 600;" xml:space="preserve">
<style type="text/css">
	.st0{display:none;}
	.st1{display:inline;fill:#F5F5F5;}
	.st2{display:inline;fill:#2D46F0;}
	.st3{display:inline;}
	.st4{fill:#2D46F0;}
	.st5{fill:#FFD205;}
	.st6{fill:#F5F5F5;}
	.st7{display:inline;fill:#FFD205;}
</style>
<g id="互動方塊" class="st0">
	<path class="st1" d="M317.7,32.5l13.8,9.6c5.7,3.7,9.2,10.1,9.2,16.9v96.4c0,14.1-14,25.6-28.1,25.6h-81.9
		c-4.5,0-15.6,1.1-22.8-6.1l-11.2-15.4"/>
	<path class="st1" d="M304.1,170.5h-86.4c-14.1,0-25.6-11.5-25.6-25.6V54.1c0-14.1,11.5-25.6,25.6-25.6h86.4
		c14.1,0,25.6,11.5,25.6,25.6V145C329.7,159.1,318.2,170.5,304.1,170.5z"/>
	<path class="st1" d="M246.4,283.5H209c-6.8,0-12.3-5.5-12.3-12.3v-37.3c0-6.8,5.5-12.3,12.3-12.3h37.3c6.8,0,12.3,5.5,12.3,12.3
		v37.3C258.7,278,253.2,283.5,246.4,283.5z"/>
	<circle class="st1" cx="187.7" cy="335.5" r="17"/>
	<path class="st2" d="M295.5,88.9L270.2,50c-3.8-5.9-12.5-5.9-16.3,0l-27,41.5c-3.1,4.8,0.3,11.1,6,11.1h7.7v39.2
		c0,7.3,6,13.3,13.3,13.3h16.2c7.3,0,13.3-6,13.3-13.3v-39.2h4.6C295.1,102.6,299.3,94.8,295.5,88.9z"/>
	<g id="互動方塊_1_" class="st3">
		<g>
			<path class="st4" d="M304.1,167.5c-4.3,0-8.6,0-12.9,0c-9.5,0-19,0-28.6,0c-9.8,0-19.7,0-29.5,0c-5.1,0-10.2,0-15.3,0
				c-2.2,0-3.7-0.2-5.7-0.7c-1.8-0.5-3.1-1-4.6-1.7c-0.7-0.4-1.4-0.8-2.1-1.2c-0.4-0.2-0.7-0.5-1.1-0.7c-0.4-0.3-0.4-0.3-0.7-0.5
				c-5.3-4.3-8.4-10.5-8.5-17.2c-0.1-4.2,0-8.4,0-12.5c0-9.3,0-18.6,0-27.9c0-10.1,0-20.1,0-30.2c0-6.4,0-12.7,0-19.1
				c0-2.9,0.1-5.3,0.9-8.1c1.9-6.3,6.4-11.3,12.4-14.2c3.1-1.4,6.6-1.9,10.2-1.9c2.3,0,4.5,0,6.8,0c8.7,0,17.4,0,26.1,0
				c10.2,0,20.4,0,30.6,0c6.7,0,13.4,0,20.2,0c2.7,0,5.1,0.1,7.6,0.8c6.4,1.7,11.6,6.1,14.6,12.2c1.3,2.7,2.1,6.2,2.1,9.3
				c0,0.4,0,0.8,0,1.2c0,2.1,0,4.2,0,6.3c0,8.4,0,16.8,0,25.2c0,10.3,0,20.6,0,31c0,7.7,0,15.4,0,23c0,1.5,0,2.9,0,4.4
				c0,5.6-2,11-5.7,15.1C316.6,164.8,310.6,167.5,304.1,167.5c-3.9,0-3.9,6,0,6c7.7-0.1,15.2-3.2,20.5-8.7c5.1-5.3,8-12.5,8-19.9
				c0-4.4,0-8.8,0-13.2c0-9.7,0-19.3,0-29c0-10.1,0-20.2,0-30.3c0-5.9,0-11.7,0-17.6c0-4.6-0.9-9.1-2.9-13.3
				c-3.2-6.8-9.3-12-16.3-14.5c-5.8-2-12-1.6-18.1-1.6c-9.1,0-18.3,0-27.4,0c-10.3,0-20.6,0-30.8,0c-6.2,0-12.4,0-18.6,0
				c-4.4,0-8.6,0.8-12.7,2.6c-6.9,3.1-12.3,9-15,16c-2.2,5.8-1.8,12-1.8,18c0,8.8,0,17.7,0,26.5c0,10.4,0,20.8,0,31.2
				c0,7.4,0,14.7,0,22.1c0,1.5,0,3,0,4.5c0.4,7.6,3.9,15,9.6,20c5.3,4.6,11.9,7.1,18.9,7.1c1.5,0,2.9,0,4.4,0c8,0,16.1,0,24.1,0
				c10.5,0,21,0,31.4,0c7.7,0,15.4,0,23.1,0c1.1,0,2.3,0,3.4,0C308,173.5,308,167.5,304.1,167.5z"/>
		</g>
		<g>
			<path class="st4" d="M316.2,35.1c3.8,2.7,7.7,5.4,11.5,8c1.8,1.3,3.6,2.4,5.1,4c2.9,3,4.7,7.1,4.8,11.2c0.2,5.4,0,10.8,0,16.2
				c0,11.5,0,23,0,34.5c0,11.1,0,22.3,0,33.4c0,3.4,0,6.8,0,10.2c0,2.7,0,5.1-0.6,7.7c-2.1,7.8-8.9,13.9-16.5,16.4
				c-3.5,1.2-6.6,1.3-10.3,1.3c-9,0-18.1,0-27.1,0c-11.9,0-23.8,0-35.7,0c-6,0-11.9-0.1-17.9,0c-1.5,0-3,0.1-4.4,0
				c-2,0-3.7-0.2-5.3-0.5c-1.9-0.4-4-1-5.5-1.7c-1-0.5-1.9-1-2.7-1.7c-0.3-0.2-0.6-0.5-1-0.8c-0.8-0.6,0,0.2-0.1,0
				c-1.2-1.4-2.2-3-3.3-4.5c-1.8-2.4-3.5-4.8-5.3-7.3c-0.9-1.2-1.7-2.4-2.6-3.6c-1-1.3-2.6-2-4.1-1.1c-1.3,0.8-2,2.8-1.1,4.1
				c2.7,3.8,5.5,7.5,8.2,11.3c1,1.4,2,2.8,3,4.1c2.8,3.7,7.9,5.8,12.3,6.8c4.6,1,9.2,0.8,13.9,0.8c2.9,0,5.9,0,8.8,0
				c11.3,0,22.7,0,34,0c10.7,0,21.4,0,32.1,0c2.1,0,4.1,0,6.2,0c8.5,0,16.8-3.6,22.8-9.6c5.2-5.1,8.3-12,8.3-19.3c0-2.2,0-4.3,0-6.5
				c0-10.2,0-20.4,0-30.6c0-12.2,0-24.3,0-36.5c0-7.2,0-14.5,0-21.7c0-6.4-2.2-12.6-6.9-17.2c-1.8-1.8-4-3.2-6.1-4.6
				c-2.4-1.7-4.9-3.4-7.3-5.1c-1.4-1-2.8-2-4.2-2.9c-1.3-0.9-3.3-0.2-4.1,1.1C314.2,32.5,314.9,34.2,316.2,35.1L316.2,35.1z"/>
		</g>
		<g>
			<path class="st4" d="M246.4,280.5c-5.9,0-11.8,0-17.7,0c-6.5,0-13,0-19.5,0c-4.5,0-8.4-3-9.3-7.6c-0.1-0.7-0.2-1.7-0.2-2.7
				c0-1.1,0-2.3,0-3.4c0-8.2,0-16.4,0-24.6c0-2.7,0-5.3,0-8c0-1.5,0.1-2.5,0.7-4c0.3-0.9,1.2-2.2,1.9-2.9c1-1,1.8-1.6,3.3-2.2
				c1.1-0.4,2.4-0.6,3.9-0.6c0.9,0,1.9,0,2.8,0c3.7,0,7.4,0,11.1,0c7.3,0,14.7,0,22,0c0.3,0,0.6,0,0.8,0h0.1c0.2,0,0.4,0,0.5,0
				c0.2,0,0.3,0,0.5,0c0.4,0,0.1,0,0.4,0.1c2.5,0.5,4.8,1.8,6.2,3.8c1.3,1.8,1.7,3.5,1.7,5.6c0,0.7,0,1.5,0,2.2c0,7.9,0,15.8,0,23.7
				c0,3.2,0,6.5,0,9.7c0,0.5,0,1.1,0,1.6c0,2.5-0.9,4.7-2.6,6.5C251.3,279.5,248.9,280.5,246.4,280.5c-3.9,0.1-3.9,6.1,0,6
				c7.1-0.1,13.7-5.2,15-12.3c0.5-2.5,0.3-5,0.3-7.5c0-8.5,0-17.1,0-25.6c0-2.4,0-4.7,0-7.1c-0.1-6.5-4-12.2-10-14.5
				c-2.8-1.1-5.7-1-8.7-1c-3.9,0-7.9,0-11.8,0c-7.2,0-14.5,0-21.7,0c-5.6,0-10.7,2.7-13.6,7.6c-1.9,3.2-2.1,6.7-2.1,10.2
				c0,8.2,0,16.4,0,24.7c0,3.1,0,6.2,0,9.3c0,4.8,1.6,9.4,5.3,12.5c2.8,2.4,6.3,3.7,10,3.7c0.5,0,1.1,0,1.6,0c3.4,0,6.8,0,10.2,0
				c8,0,16,0,24,0c0.5,0,1,0,1.5,0C250.2,286.5,250.2,280.5,246.4,280.5z"/>
		</g>
		<g>
			<path class="st4" d="M201.7,335.5c-0.1,5.8-3.7,11.2-9.1,13.1c-5.8,2-11.8,0.4-15.8-4.3c-1.7-1.9-2.9-5-3.1-7.6
				c-0.2-3.1,0.4-5.8,1.9-8.4c3-5,9-7.8,14.7-6.6C197,323.1,201.6,328.8,201.7,335.5c0,3.9,6,3.9,6,0c-0.1-8.4-5.3-15.8-13.2-18.8
				c-7.6-2.9-16.8-0.4-22,5.9c-5.4,6.5-6.3,15.9-1.9,23.3c4.4,7.2,12.9,10.9,21.2,9.3c9.2-1.8,15.8-10.3,15.9-19.6
				C207.7,331.7,201.7,331.7,201.7,335.5z"/>
		</g>
		<g>
			<path class="st4" d="M298,87.3c-4.6-7-9.1-14-13.7-21c-2.9-4.5-5.9-9-8.8-13.5c-2-3-3.8-6.4-6.9-8.4c-3.7-2.3-8.5-2.4-12.4-0.5
				c-2.3,1.1-4,2.9-5.3,5c-1.9,3-3.9,6-5.8,9c-6.1,9.3-12.1,18.7-18.2,28c-1.9,2.9-4.2,5.7-4.3,9.4c-0.1,4.5,3,8.6,7.2,9.9
				c2.5,0.8,5.5,0.4,8.2,0.4c0.8,0,1.7,0,2.5,0c-1-1-2-2-3-3c0,8.2,0,16.4,0,24.6c0,4.4,0,8.7,0,13.1c0,1.4,0,2.7,0.2,4.1
				c0.6,4.1,2.9,7.9,6.2,10.4c2.9,2.2,6.4,3.3,10.1,3.4c1.9,0,3.9,0,5.8,0c2.6,0,5.3,0,7.9,0c2.2,0,4.4,0,6.6-0.6
				c7.2-2,11.9-8.7,12-16c0-3.5,0-6.9,0-10.4c0-9.3,0-18.6,0-28c0-0.2,0-0.4,0-0.6c-1,1-2,2-3,3c1.5,0,3,0,4.5,0
				c2.8,0,5.5-0.9,7.7-2.7C300.2,99.2,301.2,92.3,298,87.3c-2-3.3-7.2-0.3-5.2,3c0.6,1,0.8,1.3,1,2.6c0.1,0.3,0-0.3,0,0.2
				c0,0.3,0,0.6,0,0.9c0,0.1-0.1,0.8,0,0.5c0.1-0.4-0.1,0.4-0.1,0.5c-0.4,1.6-1.3,2.9-2.6,3.7c-1.3,0.8-2.1,0.9-3.8,0.9
				c-1.3,0-2.6,0-4,0c-1.6,0-3,1.4-3,3c0,7.8,0,15.6,0,23.5c0,4.5,0,8.9,0,13.4c0,0.8,0,1.6,0,2.4c0,3-1.2,5.7-3.6,7.8
				c-1.1,1-2.6,1.7-4.1,2.1c-1.1,0.3-1.7,0.3-2.8,0.3c-2,0-3.9,0-5.9,0c-2.5,0-5.1,0-7.6,0c-0.7,0-1.5,0-2.2,0c-1.2,0-1.8,0-3-0.4
				c-4.9-1.3-7.6-5.7-7.6-10.7c0-3.7,0-7.4,0-11.1c0-9,0-17.9,0-26.9c0-0.2,0-0.4,0-0.5c0-1.6-1.4-3-3-3c-2.2,0-4.4,0-6.5,0
				c-1.2,0-1.6,0-2.5-0.2c-0.5-0.2-0.3-0.1-0.1,0c-0.2-0.1-0.4-0.2-0.5-0.3c0.1,0-0.7-0.5-0.4-0.2c0.3,0.2-0.2-0.2-0.3-0.2
				c-0.1-0.1-0.8-0.9-0.6-0.6c-0.2-0.3-0.5-0.7-0.6-1.1c-0.2-0.5,0.2,0.6-0.1-0.2c0-0.2-0.1-0.4-0.1-0.6c0-0.1-0.1-0.6,0-0.1
				c0-0.2,0-0.4,0-0.6c0-0.1,0.1-1.2,0-0.7c0-0.2,0.1-0.5,0.2-0.7c0-0.1,0.2-0.6,0.1-0.3c0.2-0.4,0.4-0.8,0.7-1.1
				c0.6-0.9,1.2-1.9,1.8-2.8c5.7-8.8,11.4-17.5,17.1-26.3c2.3-3.5,4.5-7,6.8-10.4c0.4-0.5,0.7-1.1,1.1-1.6c0.2-0.4,0.9-1.1,1.4-1.6
				c-0.3,0.2,0.1-0.1,0.1-0.1c0.2-0.1,0.3-0.2,0.5-0.3s0.4-0.2,0.7-0.4c0.3-0.1-0.2,0.1,0.3-0.1c1-0.3,1.6-0.4,2.1-0.5
				c0.4,0,0.8,0,1.2,0c0.1,0,0.6,0.1,0.1,0c0.3,0,0.6,0.1,0.9,0.2c1,0.3,1,0.3,1.8,0.7c0.4,0.2,0.7,0.5,0.8,0.5
				c0.4,0.3,0.8,0.7,1.1,1.1c0,0.1,0.2,0.4,0.4,0.6c0.6,1,1.3,2,1.9,3c2.7,4.1,5.3,8.2,8,12.3c5,7.6,9.9,15.2,14.9,22.9
				c0.1,0.1,0.2,0.3,0.3,0.4c0.9,1.4,2.7,1.9,4.1,1.1C298.3,90.7,298.9,88.7,298,87.3z"/>
		</g>
		<g>
			<path class="st4" d="M217.6,172.6c3.2,2.9,6.4,5.8,9.6,8.7c0.5,0.4,0.9,0.8,1.4,1.3c1.2,1.1,3.1,1.2,4.2,0c1.1-1.2,1.2-3.1,0-4.2
				c-3.2-2.9-6.4-5.8-9.6-8.7c-0.5-0.4-0.9-0.8-1.4-1.3c-1.2-1.1-3.1-1.2-4.2,0C216.5,169.6,216.3,171.5,217.6,172.6L217.6,172.6z"
				/>
		</g>
		<g>
			<path class="st4" d="M235.6,172.6c3.2,2.9,6.4,5.8,9.6,8.7c0.5,0.4,0.9,0.8,1.4,1.3c1.2,1.1,3.1,1.2,4.2,0c1.1-1.2,1.2-3.1,0-4.2
				c-3.2-2.9-6.4-5.8-9.6-8.7c-0.5-0.4-0.9-0.8-1.4-1.3c-1.2-1.1-3.1-1.2-4.2,0C234.5,169.6,234.3,171.5,235.6,172.6L235.6,172.6z"
				/>
		</g>
		<g>
			<path class="st4" d="M253.2,172.6c3.2,2.9,6.4,5.8,9.6,8.7c0.5,0.4,0.9,0.8,1.4,1.3c1.2,1.1,3.1,1.2,4.2,0s1.2-3.1,0-4.2
				c-3.2-2.9-6.4-5.8-9.6-8.7c-0.5-0.4-0.9-0.8-1.4-1.3c-1.2-1.1-3.1-1.2-4.2,0S251.9,171.5,253.2,172.6L253.2,172.6z"/>
		</g>
		<g>
			<path class="st4" d="M271.2,172.6c3.2,2.9,6.4,5.8,9.6,8.7c0.5,0.4,0.9,0.8,1.4,1.3c1.2,1.1,3.1,1.2,4.2,0s1.2-3.1,0-4.2
				c-3.2-2.9-6.4-5.8-9.6-8.7c-0.5-0.4-0.9-0.8-1.4-1.3c-1.2-1.1-3.1-1.2-4.2,0S269.9,171.5,271.2,172.6L271.2,172.6z"/>
		</g>
		<g>
			<path class="st4" d="M289.2,172.6c3.2,2.9,6.4,5.8,9.6,8.7c0.5,0.4,0.9,0.8,1.4,1.3c1.2,1.1,3.1,1.2,4.2,0s1.2-3.1,0-4.2
				c-3.2-2.9-6.4-5.8-9.6-8.7c-0.5-0.4-0.9-0.8-1.4-1.3c-1.2-1.1-3.1-1.2-4.2,0S287.9,171.5,289.2,172.6L289.2,172.6z"/>
		</g>
		<g>
			<path class="st4" d="M308.2,171.6c3.2,2.9,6.4,5.8,9.6,8.7c0.5,0.4,0.9,0.8,1.4,1.3c1.2,1.1,3.1,1.2,4.2,0s1.2-3.1,0-4.2
				c-3.2-2.9-6.4-5.8-9.6-8.7c-0.5-0.4-0.9-0.8-1.4-1.3c-1.2-1.1-3.1-1.2-4.2,0S306.9,170.5,308.2,171.6L308.2,171.6z"/>
		</g>
		<g>
			<path class="st4" d="M321.2,164.6c2.9,2.6,5.8,5.3,8.8,7.9c0.4,0.4,0.8,0.7,1.2,1.1c1.2,1,3.1,1.2,4.2,0c1.1-1.1,1.2-3.1,0-4.2
				c-2.9-2.6-5.8-5.3-8.8-7.9c-0.4-0.4-0.8-0.7-1.2-1.1c-1.2-1-3.1-1.2-4.2,0C320.1,161.5,319.9,163.5,321.2,164.6L321.2,164.6z"/>
		</g>
		<g>
			<path class="st4" d="M327.7,152.1c2.9,2.6,5.8,5.3,8.8,7.9c0.4,0.4,0.8,0.7,1.2,1.1c1.2,1,3.1,1.2,4.2,0c1.1-1.1,1.2-3.1,0-4.2
				c-2.9-2.6-5.8-5.3-8.8-7.9c-0.4-0.4-0.8-0.7-1.2-1.1c-1.2-1-3.1-1.2-4.2,0C326.6,149,326.4,151,327.7,152.1L327.7,152.1z"/>
		</g>
		<g>
			<path class="st4" d="M327.7,134.1c2.9,2.6,5.8,5.3,8.8,7.9c0.4,0.4,0.8,0.7,1.2,1.1c1.2,1,3.1,1.2,4.2,0c1.1-1.1,1.2-3.1,0-4.2
				c-2.9-2.6-5.8-5.3-8.8-7.9c-0.4-0.4-0.8-0.7-1.2-1.1c-1.2-1-3.1-1.2-4.2,0C326.6,131,326.4,133,327.7,134.1L327.7,134.1z"/>
		</g>
		<g>
			<path class="st4" d="M327.7,117.1c2.9,2.6,5.8,5.3,8.8,7.9c0.4,0.4,0.8,0.7,1.2,1.1c1.2,1,3.1,1.2,4.2,0c1.1-1.1,1.2-3.1,0-4.2
				c-2.9-2.6-5.8-5.3-8.8-7.9c-0.4-0.4-0.8-0.7-1.2-1.1c-1.2-1-3.1-1.2-4.2,0C326.6,114,326.4,116,327.7,117.1L327.7,117.1z"/>
		</g>
		<g>
			<path class="st4" d="M327.7,99.1c2.9,2.6,5.8,5.3,8.8,7.9c0.4,0.4,0.8,0.7,1.2,1.1c1.2,1,3.1,1.2,4.2,0c1.1-1.1,1.2-3.1,0-4.2
				c-2.9-2.6-5.8-5.3-8.8-7.9c-0.4-0.4-0.8-0.7-1.2-1.1c-1.2-1-3.1-1.2-4.2,0C326.6,96,326.4,98,327.7,99.1L327.7,99.1z"/>
		</g>
		<g>
			<path class="st4" d="M327.7,83.1c2.9,2.6,5.8,5.3,8.8,7.9c0.4,0.4,0.8,0.7,1.2,1.1c1.2,1,3.1,1.2,4.2,0c1.1-1.1,1.2-3.1,0-4.2
				c-2.9-2.6-5.8-5.3-8.8-7.9c-0.4-0.4-0.8-0.7-1.2-1.1c-1.2-1-3.1-1.2-4.2,0C326.6,80,326.4,82,327.7,83.1L327.7,83.1z"/>
		</g>
		<g>
			<path class="st4" d="M327.7,66.1c2.9,2.6,5.8,5.3,8.8,7.9c0.4,0.4,0.8,0.7,1.2,1.1c1.2,1,3.1,1.2,4.2,0c1.1-1.1,1.2-3.1,0-4.2
				c-2.9-2.6-5.8-5.3-8.8-7.9c-0.4-0.4-0.8-0.7-1.2-1.1c-1.2-1-3.1-1.2-4.2,0C326.6,63,326.4,65,327.7,66.1L327.7,66.1z"/>
		</g>
	</g>
</g>
<g id="梯子" class="st0">
	<g id="梯子_3_" class="st3">
		<path class="st5" d="M235.6,504.8L235.6,504.8c-4.6-2.8-6-8.7-3.3-13.3l218.3-359.3c2.8-4.6,8.7-6,13.3-3.3l0,0
			c4.6,2.8,6,8.7,3.3,13.3L248.9,501.6C246.1,506.2,240.2,507.6,235.6,504.8z"/>
		<path class="st5" d="M337.1,566.5L337.1,566.5c-4.6-2.8-6-8.7-3.3-13.3l218.3-359.3c2.8-4.6,8.7-6,13.3-3.3l0,0
			c4.6,2.8,6,8.7,3.3,13.3L350.4,563.2C347.6,567.8,341.6,569.3,337.1,566.5z"/>
		
			<rect x="481.9" y="148.9" transform="matrix(0.5193 -0.8546 0.8546 0.5193 66.3742 515.1353)" class="st5" width="18.3" height="99.3"/>
		
			<rect x="459.7" y="185.6" transform="matrix(0.5193 -0.8546 0.8546 0.5193 24.3272 513.7939)" class="st5" width="18.3" height="99.3"/>
		
			<rect x="437.5" y="222.2" transform="matrix(0.5193 -0.8546 0.8546 0.5193 -17.6185 512.3577)" class="st5" width="18.3" height="99.3"/>
		
			<rect x="415.2" y="258.8" transform="matrix(0.5193 -0.8546 0.8546 0.5193 -59.6621 510.9184)" class="st5" width="18.3" height="99.3"/>
		
			<rect x="393" y="295.5" transform="matrix(0.5193 -0.8546 0.8546 0.5193 -101.6111 509.5803)" class="st5" width="18.3" height="99.3"/>
		
			<rect x="370.7" y="332.1" transform="matrix(0.5193 -0.8546 0.8546 0.5193 -143.6548 508.141)" class="st5" width="18.3" height="99.3"/>
		
			<rect x="348.5" y="368.7" transform="matrix(0.5193 -0.8546 0.8546 0.5193 -185.6004 506.7049)" class="st5" width="18.3" height="99.3"/>
		
			<rect x="326.2" y="405.3" transform="matrix(0.5193 -0.8546 0.8546 0.5193 -227.6441 505.2655)" class="st5" width="18.3" height="99.3"/>
		
			<rect x="304" y="442" transform="matrix(0.5193 -0.8546 0.8546 0.5193 -269.5931 503.9275)" class="st5" width="18.3" height="99.3"/>
	</g>
	<g id="梯子_1_" class="st3">
		<g>
			<path class="st4" d="M237.1,502.2c-3.3-2-4-6.1-2.1-9.3c0.2-0.4,0.5-0.8,0.7-1.2c1.2-2,2.5-4.1,3.7-6.1
				c5.1-8.4,10.2-16.8,15.3-25.3c7.9-13,15.8-25.9,23.6-38.9c9.8-16.1,19.6-32.2,29.4-48.3c10.7-17.6,21.4-35.3,32.2-52.9
				c10.9-17.9,21.8-35.9,32.7-53.8c10.1-16.6,20.2-33.3,30.3-49.9c8.4-13.8,16.8-27.6,25.2-41.4c5.9-9.7,11.8-19.4,17.7-29.1
				c2.4-4,4.8-8.1,7.3-12c2.1-3.3,6.5-4.4,9.7-2c2.9,2.2,3.4,6,1.6,9.1c-0.7,1.3-1.5,2.5-2.3,3.8c-4.3,7.1-8.7,14.2-13,21.4
				c-7.3,12-14.5,23.9-21.8,35.9c-9.4,15.5-18.8,31-28.2,46.5c-10.6,17.4-21.2,34.9-31.8,52.3c-10.9,18-21.8,35.9-32.7,53.9
				c-10.4,17.1-20.8,34.2-31.1,51.3c-8.9,14.6-17.8,29.2-26.6,43.8c-6.6,10.9-13.2,21.7-19.8,32.6c-3.4,5.5-6.7,11-10.1,16.6
				c-0.2,0.4-0.4,0.8-0.7,1.1C244.3,503.2,240.4,504.1,237.1,502.2c-3.4-1.9-6.4,3.3-3,5.2c6.1,3.5,13.7,1.6,17.4-4.3
				c0.2-0.3,0.4-0.6,0.6-0.9c1.1-1.9,2.3-3.8,3.4-5.7c5-8.3,10.1-16.6,15.1-24.9c7.9-13,15.8-26.1,23.8-39.1
				c9.9-16.3,19.8-32.5,29.6-48.8c10.9-18,21.8-35.9,32.7-53.9c11-18.1,22-36.3,33-54.4c10.2-16.8,20.4-33.6,30.6-50.4
				c8.5-13.9,16.9-27.8,25.4-41.8c5.8-9.5,11.6-19.1,17.4-28.6c2.2-3.6,4.5-7.2,6.6-10.9c3.6-6.3,1.4-14.7-5.3-17.9
				c-6-2.9-13-0.7-16.5,4.9c-0.7,1.1-1.3,2.2-2,3.2c-4.2,6.9-8.4,13.9-12.6,20.8c-7.3,12-14.6,24.1-21.9,36.1
				c-9.5,15.6-19,31.2-28.5,46.9c-10.7,17.7-21.5,35.4-32.2,53.1c-11.1,18.2-22.1,36.5-33.2,54.7c-10.5,17.2-21,34.5-31.4,51.7
				c-8.9,14.7-17.9,29.4-26.8,44.1c-6.5,10.7-13.1,21.5-19.6,32.2c-3.2,5.2-6.3,10.4-9.5,15.6c-3.8,6.2-2.6,14.3,3.9,18.2
				C237.4,509.4,240.4,504.3,237.1,502.2z"/>
		</g>
		<g>
			<path class="st4" d="M338.6,563.9c-3.3-2-4-6.1-2.1-9.3c0.2-0.4,0.5-0.8,0.7-1.2c1.2-2,2.5-4.1,3.7-6.1
				c5.1-8.4,10.2-16.8,15.3-25.3c7.9-13,15.8-25.9,23.6-38.9c9.8-16.1,19.6-32.2,29.4-48.3c10.7-17.6,21.4-35.3,32.2-52.9
				c10.9-17.9,21.8-35.9,32.7-53.8c10.1-16.6,20.2-33.3,30.3-49.9c8.4-13.8,16.8-27.6,25.2-41.4c5.9-9.7,11.8-19.4,17.7-29.1
				c2.4-4,4.8-8.1,7.3-12c2.1-3.3,6.5-4.4,9.7-2c2.9,2.2,3.4,6,1.6,9.1c-0.7,1.3-1.5,2.5-2.3,3.8c-4.3,7.1-8.7,14.2-13,21.4
				c-7.3,12-14.5,23.9-21.8,35.9c-9.4,15.5-18.8,31-28.2,46.5c-10.6,17.4-21.2,34.9-31.8,52.3c-10.9,18-21.8,35.9-32.7,53.9
				c-10.4,17.1-20.8,34.2-31.1,51.3c-8.9,14.6-17.8,29.2-26.6,43.8c-6.6,10.9-13.2,21.7-19.8,32.6c-3.4,5.5-6.7,11-10.1,16.6
				c-0.2,0.4-0.4,0.8-0.7,1.1C345.8,564.8,341.9,565.8,338.6,563.9c-3.4-1.9-6.4,3.3-3,5.2c6.1,3.5,13.7,1.6,17.4-4.3
				c0.2-0.3,0.4-0.6,0.6-0.9c1.1-1.9,2.3-3.8,3.4-5.7c5-8.3,10.1-16.6,15.1-24.9c7.9-13,15.8-26.1,23.8-39.1
				c9.9-16.3,19.8-32.5,29.6-48.8c10.9-18,21.8-35.9,32.7-53.9c11-18.1,22-36.3,33-54.4c10.2-16.8,20.4-33.6,30.6-50.4
				c8.5-13.9,16.9-27.8,25.4-41.8c5.8-9.5,11.6-19.1,17.4-28.6c2.2-3.6,4.5-7.2,6.6-10.9c3.6-6.3,1.4-14.7-5.3-17.9
				c-6-2.9-13-0.7-16.5,4.9c-0.7,1.1-1.3,2.2-2,3.2c-4.2,6.9-8.4,13.9-12.6,20.8c-7.3,12-14.6,24.1-21.9,36.1
				c-9.5,15.6-19,31.2-28.5,46.9c-10.7,17.7-21.5,35.4-32.2,53.1c-11.1,18.2-22.1,36.5-33.2,54.7c-10.5,17.2-21,34.5-31.4,51.7
				c-8.9,14.7-17.9,29.4-26.8,44.1c-6.5,10.7-13.1,21.5-19.6,32.2c-3.2,5.2-6.3,10.4-9.5,15.6c-3.8,6.2-2.6,14.3,3.9,18.2
				C338.9,571.1,341.9,565.9,338.6,563.9z"/>
		</g>
		<g>
			<path class="st4" d="M446.5,182.1c3.2-5.2,6.3-10.4,9.5-15.6c-1.4,0.4-2.7,0.7-4.1,1.1c2.8,1.7,5.6,3.4,8.4,5.1
				c6.8,4.1,13.5,8.2,20.3,12.3c8.2,5,16.3,9.9,24.5,14.9c7.1,4.3,14.1,8.6,21.2,12.9c2.3,1.4,4.6,2.8,7,4.2c1.1,0.7,2.2,1.4,3.3,2
				c0.1,0,0.1,0.1,0.1,0.1c-0.4-1.4-0.7-2.7-1.1-4.1c-3.2,5.2-6.3,10.4-9.5,15.6c1.4-0.4,2.7-0.7,4.1-1.1c-2.8-1.7-5.6-3.4-8.4-5.1
				c-6.8-4.1-13.5-8.2-20.3-12.3c-8.2-5-16.3-9.9-24.5-14.9c-7.1-4.3-14.1-8.6-21.2-12.9c-3.4-2.1-6.8-4.3-10.3-6.3
				c-0.1,0-0.1-0.1-0.1-0.1c-3.3-2-6.3,3.2-3,5.2c2.8,1.7,5.6,3.4,8.4,5.1c6.8,4.1,13.5,8.2,20.3,12.3c8.2,5,16.3,9.9,24.5,14.9
				c7.1,4.3,14.1,8.6,21.2,12.9c3.4,2.1,6.8,4.3,10.3,6.3c0.1,0,0.1,0.1,0.1,0.1c1.4,0.9,3.3,0.3,4.1-1.1c3.2-5.2,6.3-10.4,9.5-15.6
				c0.9-1.4,0.3-3.3-1.1-4.1c-2.8-1.7-5.6-3.4-8.4-5.1c-6.8-4.1-13.5-8.2-20.3-12.3c-8.2-5-16.3-9.9-24.5-14.9
				c-7.1-4.3-14.1-8.6-21.2-12.9c-3.4-2.1-6.8-4.3-10.3-6.3c-0.1,0-0.1-0.1-0.1-0.1c-1.4-0.9-3.3-0.3-4.1,1.1
				c-3.2,5.2-6.3,10.4-9.5,15.6C439.3,182.4,444.5,185.4,446.5,182.1z"/>
		</g>
		<g>
			<path class="st4" d="M424.3,218.8c3.2-5.2,6.3-10.4,9.5-15.6c-1.4,0.4-2.7,0.7-4.1,1.1c2.8,1.7,5.6,3.4,8.4,5.1
				c6.8,4.1,13.5,8.2,20.3,12.3c8.2,5,16.3,9.9,24.5,14.9c7.1,4.3,14.1,8.6,21.2,12.9c2.3,1.4,4.6,2.8,7,4.2c1.1,0.7,2.2,1.4,3.3,2
				c0.1,0,0.1,0.1,0.1,0.1c-0.4-1.4-0.7-2.7-1.1-4.1c-3.2,5.2-6.3,10.4-9.5,15.6c1.4-0.4,2.7-0.7,4.1-1.1c-2.8-1.7-5.6-3.4-8.4-5.1
				c-6.8-4.1-13.5-8.2-20.3-12.3c-8.2-5-16.3-9.9-24.5-14.9c-7.1-4.3-14.1-8.6-21.2-12.9c-3.4-2.1-6.8-4.3-10.3-6.3
				c-0.1,0-0.1-0.1-0.1-0.1c-3.3-2-6.3,3.2-3,5.2c2.8,1.7,5.6,3.4,8.4,5.1c6.8,4.1,13.5,8.2,20.3,12.3c8.2,5,16.3,9.9,24.5,14.9
				c7.1,4.3,14.1,8.6,21.2,12.9c3.4,2.1,6.8,4.3,10.3,6.3c0.1,0,0.1,0.1,0.1,0.1c1.4,0.9,3.3,0.3,4.1-1.1c3.2-5.2,6.3-10.4,9.5-15.6
				c0.9-1.4,0.3-3.3-1.1-4.1c-2.8-1.7-5.6-3.4-8.4-5.1c-6.8-4.1-13.5-8.2-20.3-12.3c-8.2-5-16.3-9.9-24.5-14.9
				c-7.1-4.3-14.1-8.6-21.2-12.9c-3.4-2.1-6.8-4.3-10.3-6.3c-0.1,0-0.1-0.1-0.1-0.1c-1.4-0.9-3.3-0.3-4.1,1.1
				c-3.2,5.2-6.3,10.4-9.5,15.6C417.1,219,422.3,222.1,424.3,218.8z"/>
		</g>
		<g>
			<path class="st4" d="M402,255.4c3.2-5.2,6.3-10.4,9.5-15.6c-1.4,0.4-2.7,0.7-4.1,1.1c2.8,1.7,5.6,3.4,8.4,5.1
				c6.8,4.1,13.5,8.2,20.3,12.3c8.2,5,16.3,9.9,24.5,14.9c7.1,4.3,14.1,8.6,21.2,12.9c2.3,1.4,4.6,2.8,7,4.2c1.1,0.7,2.2,1.4,3.3,2
				c0.1,0,0.1,0.1,0.1,0.1c-0.4-1.4-0.7-2.7-1.1-4.1c-3.2,5.2-6.3,10.4-9.5,15.6c1.4-0.4,2.7-0.7,4.1-1.1c-2.8-1.7-5.6-3.4-8.4-5.1
				c-6.8-4.1-13.5-8.2-20.3-12.3c-8.2-5-16.3-9.9-24.5-14.9c-7.1-4.3-14.1-8.6-21.2-12.9c-3.4-2.1-6.8-4.3-10.3-6.3
				c-0.1,0-0.1-0.1-0.1-0.1c-3.3-2-6.3,3.2-3,5.2c2.8,1.7,5.6,3.4,8.4,5.1c6.8,4.1,13.5,8.2,20.3,12.3c8.2,5,16.3,9.9,24.5,14.9
				c7.1,4.3,14.1,8.6,21.2,12.9c3.4,2.1,6.8,4.3,10.3,6.3c0.1,0,0.1,0.1,0.1,0.1c1.4,0.9,3.3,0.3,4.1-1.1c3.2-5.2,6.3-10.4,9.5-15.6
				c0.9-1.4,0.3-3.3-1.1-4.1c-2.8-1.7-5.6-3.4-8.4-5.1c-6.8-4.1-13.5-8.2-20.3-12.3c-8.2-5-16.3-9.9-24.5-14.9
				c-7.1-4.3-14.1-8.6-21.2-12.9c-3.4-2.1-6.8-4.3-10.3-6.3c-0.1,0-0.1-0.1-0.1-0.1c-1.4-0.9-3.3-0.3-4.1,1.1
				c-3.2,5.2-6.3,10.4-9.5,15.6C394.8,255.7,400,258.7,402,255.4z"/>
		</g>
		<g>
			<path class="st4" d="M379.8,292c3.2-5.2,6.3-10.4,9.5-15.6c-1.4,0.4-2.7,0.7-4.1,1.1c2.8,1.7,5.6,3.4,8.4,5.1
				c6.8,4.1,13.5,8.2,20.3,12.3c8.2,5,16.3,9.9,24.5,14.9c7.1,4.3,14.1,8.6,21.2,12.9c2.3,1.4,4.6,2.8,7,4.2c1.1,0.7,2.2,1.4,3.3,2
				c0.1,0,0.1,0.1,0.1,0.1c-0.4-1.4-0.7-2.7-1.1-4.1c-3.2,5.2-6.3,10.4-9.5,15.6c1.4-0.4,2.7-0.7,4.1-1.1c-2.8-1.7-5.6-3.4-8.4-5.1
				c-6.8-4.1-13.5-8.2-20.3-12.3c-8.2-5-16.3-9.9-24.5-14.9c-7.1-4.3-14.1-8.6-21.2-12.9c-3.4-2.1-6.8-4.3-10.3-6.3
				c-0.1,0-0.1-0.1-0.1-0.1c-3.3-2-6.3,3.2-3,5.2c2.8,1.7,5.6,3.4,8.4,5.1c6.8,4.1,13.5,8.2,20.3,12.3c8.2,5,16.3,9.9,24.5,14.9
				c7.1,4.3,14.1,8.6,21.2,12.9c3.4,2.1,6.8,4.3,10.3,6.3c0.1,0,0.1,0.1,0.1,0.1c1.4,0.9,3.3,0.3,4.1-1.1c3.2-5.2,6.3-10.4,9.5-15.6
				c0.9-1.4,0.3-3.3-1.1-4.1c-2.8-1.7-5.6-3.4-8.4-5.1c-6.8-4.1-13.5-8.2-20.3-12.3c-8.2-5-16.3-9.9-24.5-14.9
				c-7.1-4.3-14.1-8.6-21.2-12.9c-3.4-2.1-6.8-4.3-10.3-6.3c-0.1,0-0.1-0.1-0.1-0.1c-1.4-0.9-3.3-0.3-4.1,1.1
				c-3.2,5.2-6.3,10.4-9.5,15.6C372.6,292.3,377.8,295.3,379.8,292z"/>
		</g>
		<g>
			<path class="st4" d="M357.5,328.6c3.2-5.2,6.3-10.4,9.5-15.6c-1.4,0.4-2.7,0.7-4.1,1.1c2.8,1.7,5.6,3.4,8.4,5.1
				c6.8,4.1,13.5,8.2,20.3,12.3c8.2,5,16.3,9.9,24.5,14.9c7.1,4.3,14.1,8.6,21.2,12.9c2.3,1.4,4.6,2.8,7,4.2c1.1,0.7,2.2,1.4,3.3,2
				c0.1,0,0.1,0.1,0.1,0.1c-0.4-1.4-0.7-2.7-1.1-4.1c-3.2,5.2-6.3,10.4-9.5,15.6c1.4-0.4,2.7-0.7,4.1-1.1c-2.8-1.7-5.6-3.4-8.4-5.1
				c-6.8-4.1-13.5-8.2-20.3-12.3c-8.2-5-16.3-9.9-24.5-14.9c-7.1-4.3-14.1-8.6-21.2-12.9c-3.4-2.1-6.8-4.3-10.3-6.3
				c-0.1,0-0.1-0.1-0.1-0.1c-3.3-2-6.3,3.2-3,5.2c2.8,1.7,5.6,3.4,8.4,5.1c6.8,4.1,13.5,8.2,20.3,12.3c8.2,5,16.3,9.9,24.5,14.9
				c7.1,4.3,14.1,8.6,21.2,12.9c3.4,2.1,6.8,4.3,10.3,6.3c0.1,0,0.1,0.1,0.1,0.1c1.4,0.9,3.3,0.3,4.1-1.1c3.2-5.2,6.3-10.4,9.5-15.6
				c0.9-1.4,0.3-3.3-1.1-4.1c-2.8-1.7-5.6-3.4-8.4-5.1c-6.8-4.1-13.5-8.2-20.3-12.3c-8.2-5-16.3-9.9-24.5-14.9
				c-7.1-4.3-14.1-8.6-21.2-12.9c-3.4-2.1-6.8-4.3-10.3-6.3c-0.1,0-0.1-0.1-0.1-0.1c-1.4-0.9-3.3-0.3-4.1,1.1
				c-3.2,5.2-6.3,10.4-9.5,15.6C350.3,328.9,355.5,331.9,357.5,328.6z"/>
		</g>
		<g>
			<path class="st4" d="M335.2,365.3c3.2-5.2,6.3-10.4,9.5-15.6c-1.4,0.4-2.7,0.7-4.1,1.1c2.8,1.7,5.6,3.4,8.4,5.1
				c6.8,4.1,13.5,8.2,20.3,12.3c8.2,5,16.3,9.9,24.5,14.9c7.1,4.3,14.1,8.6,21.2,12.9c2.3,1.4,4.6,2.8,7,4.2c1.1,0.7,2.2,1.4,3.3,2
				c0.1,0,0.1,0.1,0.1,0.1c-0.4-1.4-0.7-2.7-1.1-4.1c-3.2,5.2-6.3,10.4-9.5,15.6c1.4-0.4,2.7-0.7,4.1-1.1c-2.8-1.7-5.6-3.4-8.4-5.1
				c-6.8-4.1-13.5-8.2-20.3-12.3c-8.2-5-16.3-9.9-24.5-14.9c-7.1-4.3-14.1-8.6-21.2-12.9c-3.4-2.1-6.8-4.3-10.3-6.3
				c-0.1,0-0.1-0.1-0.1-0.1c-3.3-2-6.3,3.2-3,5.2c2.8,1.7,5.6,3.4,8.4,5.1c6.8,4.1,13.5,8.2,20.3,12.3c8.2,5,16.3,9.9,24.5,14.9
				c7.1,4.3,14.1,8.6,21.2,12.9c3.4,2.1,6.8,4.3,10.3,6.3c0.1,0,0.1,0.1,0.1,0.1c1.4,0.9,3.3,0.3,4.1-1.1c3.2-5.2,6.3-10.4,9.5-15.6
				c0.9-1.4,0.3-3.3-1.1-4.1c-2.8-1.7-5.6-3.4-8.4-5.1c-6.8-4.1-13.5-8.2-20.3-12.3c-8.2-5-16.3-9.9-24.5-14.9
				c-7.1-4.3-14.1-8.6-21.2-12.9c-3.4-2.1-6.8-4.3-10.3-6.3c-0.1,0-0.1-0.1-0.1-0.1c-1.4-0.9-3.3-0.3-4.1,1.1
				c-3.2,5.2-6.3,10.4-9.5,15.6C328.1,365.6,333.2,368.6,335.2,365.3z"/>
		</g>
		<g>
			<path class="st4" d="M313,401.9c3.2-5.2,6.3-10.4,9.5-15.6c-1.4,0.4-2.7,0.7-4.1,1.1c2.8,1.7,5.6,3.4,8.4,5.1
				c6.8,4.1,13.5,8.2,20.3,12.3c8.2,5,16.3,9.9,24.5,14.9c7.1,4.3,14.1,8.6,21.2,12.9c2.3,1.4,4.6,2.8,7,4.2c1.1,0.7,2.2,1.4,3.3,2
				c0.1,0,0.1,0.1,0.1,0.1c-0.4-1.4-0.7-2.7-1.1-4.1c-3.2,5.2-6.3,10.4-9.5,15.6c1.4-0.4,2.7-0.7,4.1-1.1c-2.8-1.7-5.6-3.4-8.4-5.1
				c-6.8-4.1-13.5-8.2-20.3-12.3c-8.2-5-16.3-9.9-24.5-14.9c-7.1-4.3-14.1-8.6-21.2-12.9c-3.4-2.1-6.8-4.3-10.3-6.3
				c-0.1,0-0.1-0.1-0.1-0.1c-3.3-2-6.3,3.2-3,5.2c2.8,1.7,5.6,3.4,8.4,5.1c6.8,4.1,13.5,8.2,20.3,12.3c8.2,5,16.3,9.9,24.5,14.9
				c7.1,4.3,14.1,8.6,21.2,12.9c3.4,2.1,6.8,4.3,10.3,6.3c0.1,0,0.1,0.1,0.1,0.1c1.4,0.9,3.3,0.3,4.1-1.1c3.2-5.2,6.3-10.4,9.5-15.6
				c0.9-1.4,0.3-3.3-1.1-4.1c-2.8-1.7-5.6-3.4-8.4-5.1c-6.8-4.1-13.5-8.2-20.3-12.3c-8.2-5-16.3-9.9-24.5-14.9
				c-7.1-4.3-14.1-8.6-21.2-12.9c-3.4-2.1-6.8-4.3-10.3-6.3c-0.1,0-0.1-0.1-0.1-0.1c-1.4-0.9-3.3-0.3-4.1,1.1
				c-3.2,5.2-6.3,10.4-9.5,15.6C305.8,402.2,311,405.2,313,401.9z"/>
		</g>
		<g>
			<path class="st4" d="M290.7,438.5c3.2-5.2,6.3-10.4,9.5-15.6c-1.4,0.4-2.7,0.7-4.1,1.1c2.8,1.7,5.6,3.4,8.4,5.1
				c6.8,4.1,13.5,8.2,20.3,12.3c8.2,5,16.3,9.9,24.5,14.9c7.1,4.3,14.1,8.6,21.2,12.9c2.3,1.4,4.6,2.8,7,4.2c1.1,0.7,2.2,1.4,3.3,2
				c0.1,0,0.1,0.1,0.1,0.1c-0.4-1.4-0.7-2.7-1.1-4.1c-3.2,5.2-6.3,10.4-9.5,15.6c1.4-0.4,2.7-0.7,4.1-1.1c-2.8-1.7-5.6-3.4-8.4-5.1
				c-6.8-4.1-13.5-8.2-20.3-12.3c-8.2-5-16.3-9.9-24.5-14.9c-7.1-4.3-14.1-8.6-21.2-12.9c-3.4-2.1-6.8-4.3-10.3-6.3
				c-0.1,0-0.1-0.1-0.1-0.1c-3.3-2-6.3,3.2-3,5.2c2.8,1.7,5.6,3.4,8.4,5.1c6.8,4.1,13.5,8.2,20.3,12.3c8.2,5,16.3,9.9,24.5,14.9
				c7.1,4.3,14.1,8.6,21.2,12.9c3.4,2.1,6.8,4.3,10.3,6.3c0.1,0,0.1,0.1,0.1,0.1c1.4,0.9,3.3,0.3,4.1-1.1c3.2-5.2,6.3-10.4,9.5-15.6
				c0.9-1.4,0.3-3.3-1.1-4.1c-2.8-1.7-5.6-3.4-8.4-5.1c-6.8-4.1-13.5-8.2-20.3-12.3c-8.2-5-16.3-9.9-24.5-14.9
				c-7.1-4.3-14.1-8.6-21.2-12.9c-3.4-2.1-6.8-4.3-10.3-6.3c-0.1,0-0.1-0.1-0.1-0.1c-1.4-0.9-3.3-0.3-4.1,1.1
				c-3.2,5.2-6.3,10.4-9.5,15.6C283.5,438.8,288.7,441.8,290.7,438.5z"/>
		</g>
		<g>
			<path class="st4" d="M268.5,475.1c3.2-5.2,6.3-10.4,9.5-15.6c-1.4,0.4-2.7,0.7-4.1,1.1c2.8,1.7,5.6,3.4,8.4,5.1
				c6.8,4.1,13.5,8.2,20.3,12.3c8.2,5,16.3,9.9,24.5,14.9c7.1,4.3,14.1,8.6,21.2,12.9c2.3,1.4,4.6,2.8,7,4.2c1.1,0.7,2.2,1.4,3.3,2
				c0.1,0,0.1,0.1,0.1,0.1c-0.4-1.4-0.7-2.7-1.1-4.1c-3.2,5.2-6.3,10.4-9.5,15.6c1.4-0.4,2.7-0.7,4.1-1.1c-2.8-1.7-5.6-3.4-8.4-5.1
				c-6.8-4.1-13.5-8.2-20.3-12.3c-8.2-5-16.3-9.9-24.5-14.9c-7.1-4.3-14.1-8.6-21.2-12.9c-3.4-2.1-6.8-4.3-10.3-6.3
				c-0.1,0-0.1-0.1-0.1-0.1c-3.3-2-6.3,3.2-3,5.2c2.8,1.7,5.6,3.4,8.4,5.1c6.8,4.1,13.5,8.2,20.3,12.3c8.2,5,16.3,9.9,24.5,14.9
				c7.1,4.3,14.1,8.6,21.2,12.9c3.4,2.1,6.8,4.3,10.3,6.3c0.1,0,0.1,0.1,0.1,0.1c1.4,0.9,3.3,0.3,4.1-1.1c3.2-5.2,6.3-10.4,9.5-15.6
				c0.9-1.4,0.3-3.3-1.1-4.1c-2.8-1.7-5.6-3.4-8.4-5.1c-6.8-4.1-13.5-8.2-20.3-12.3c-8.2-5-16.3-9.9-24.5-14.9
				c-7.1-4.3-14.1-8.6-21.2-12.9c-3.4-2.1-6.8-4.3-10.3-6.3c-0.1,0-0.1-0.1-0.1-0.1c-1.4-0.9-3.3-0.3-4.1,1.1
				c-3.2,5.2-6.3,10.4-9.5,15.6C261.3,475.4,266.5,478.4,268.5,475.1z"/>
		</g>
	</g>
</g>
<g id="齒輪">
	<g id="齒輪_3_">
		<path class="st6" d="M459.5,436.9h-12.6c-0.9-3.1-2.2-6.1-3.7-8.9l8.9-8.9c3.6-3.6,3.6-9.5,0-13.1l-6.9-6.9
			c-3.6-3.6-9.5-3.6-13.1,0l-8.9,8.9c-2.8-1.5-5.8-2.7-8.9-3.7v-12.6c0-5.1-4.1-9.3-9.3-9.3h-9.8c-5.1,0-9.3,4.1-9.3,9.3v12.6
			c-3.1,0.9-6.1,2.2-8.9,3.7l-8.9-8.9c-3.6-3.6-9.5-3.6-13.1,0l-6.9,6.9c-3.6,3.6-3.6,9.5,0,13.1l8.9,8.9c-1.5,2.8-2.7,5.8-3.7,8.9
			H341c-5.1,0-9.3,4.1-9.3,9.3v9.8c0,5.1,4.1,9.3,9.3,9.3h12.6c0.9,3.1,2.2,6.1,3.7,8.9l-8.9,8.9c-3.6,3.6-3.6,9.5,0,13.1l6.9,6.9
			c3.6,3.6,9.5,3.6,13.1,0l8.9-8.9c2.8,1.5,5.8,2.7,8.9,3.7v12.6c0,5.1,4.1,9.3,9.3,9.3h9.8c5.1,0,9.3-4.1,9.3-9.3v-12.6
			c3.1-0.9,6.1-2.2,8.9-3.7l8.9,8.9c3.6,3.6,9.5,3.6,13.1,0l6.9-6.9c3.6-3.6,3.6-9.5,0-13.1l-8.9-8.9c1.5-2.8,2.7-5.8,3.7-8.9h12.6
			c5.1,0,9.3-4.1,9.3-9.3v-9.8C468.8,441,464.6,436.9,459.5,436.9z"/>
	</g>
	<g id="齒輪_2_">
		<g>
			<path class="st4" d="M418.5,451c0,3.9-1.1,7.4-3.5,10.8c-0.7,1-2.5,2.8-3.4,3.6c-1.5,1.2-3.4,2.2-4.9,2.7
				c-7.5,2.7-15.5,0.5-20.6-5.6c-4.7-5.7-5.3-14.4-1.4-20.8c3.9-6.5,11.8-10,19.1-8.5C412.3,434.9,418.4,442.4,418.5,451
				c0,3.9,6,3.9,6,0c-0.1-10.2-6.5-19.3-16.1-22.8c-9.4-3.5-20.5-0.4-26.8,7.4c-6.4,7.9-7.4,19.1-2.2,27.9
				c5.3,8.8,15.7,13.3,25.7,11.3c11.2-2.2,19.2-12.5,19.3-23.7C424.5,447.2,418.5,447.2,418.5,451z"/>
		</g>
		<path class="st4" d="M400.2,415.6c4.7-1.4,9.8-1.3,14.6,0.2c4.8,1.4,9.3,4.1,12.9,7.7s6.3,8.1,7.8,12.9c1.4,4.8,1.6,10,0.2,14.6
			c-1.5-4.6-3.1-8.8-5.2-12.5c-2.1-3.8-4.7-7.1-7.6-10.1c-3-3-6.3-5.5-10.1-7.6C409,418.7,404.9,417,400.2,415.6z"/>
		<g>
			<path class="st4" d="M459.5,433.9c-4.2,0-8.4,0-12.6,0c1,0.7,1.9,1.5,2.9,2.2c-1-3.3-2.4-6.5-4-9.6c-0.2,1.2-0.3,2.4-0.5,3.6
				c2.6-2.6,5.3-5.3,7.9-7.9c1.7-1.7,3.2-3.5,4-5.9c1.3-3.7,0.5-8-1.8-11.1c-1.2-1.6-2.7-2.9-4-4.3c-1.3-1.3-2.7-2.7-4-4
				c-5-4.9-12.8-4.7-17.7,0.2c-2.9,2.9-5.7,5.7-8.6,8.6c1.2-0.2,2.4-0.3,3.6-0.5c-3.1-1.6-6.3-3-9.6-4c0.7,1,1.5,1.9,2.2,2.9
				c0-3.8,0-7.5,0-11.3c0-2.4-0.3-4.8-1.4-7c-1.8-3.4-5.3-5.9-9.1-6.4c-1.9-0.3-3.8-0.2-5.7-0.2c-1.9,0-3.9,0-5.8,0
				c-7,0.1-12.3,5.7-12.3,12.6c0,4.1,0,8.2,0,12.2c0.7-1,1.5-1.9,2.2-2.9c-3.3,1-6.5,2.4-9.6,4c1.2,0.2,2.4,0.3,3.6,0.5
				c-2.6-2.6-5.3-5.3-7.9-7.9c-1.7-1.7-3.5-3.2-5.9-4c-3.7-1.3-8-0.5-11.1,1.8c-1.6,1.2-2.9,2.7-4.3,4c-1.3,1.3-2.7,2.7-4,4
				c-4.9,5-4.7,12.8,0.2,17.7c2.9,2.9,5.7,5.7,8.6,8.6c-0.2-1.2-0.3-2.4-0.5-3.6c-1.6,3.1-3,6.3-4,9.6c1-0.7,1.9-1.5,2.9-2.2
				c-3.8,0-7.5,0-11.3,0c-2.4,0-4.8,0.3-7,1.4c-3.4,1.8-5.9,5.3-6.4,9.1c-0.3,1.9-0.2,3.8-0.2,5.7c0,1.9,0,3.9,0,5.8
				c0.1,7,5.7,12.3,12.6,12.3c4.1,0,8.2,0,12.2,0c-1-0.7-1.9-1.5-2.9-2.2c1,3.3,2.4,6.5,4,9.6c0.2-1.2,0.3-2.4,0.5-3.6
				c-2.6,2.6-5.3,5.3-7.9,7.9c-1.7,1.7-3.2,3.5-4,5.9c-1.3,3.7-0.5,8,1.8,11.1c1.2,1.6,2.7,2.9,4,4.3c1.3,1.3,2.7,2.7,4,4
				c5,4.9,12.8,4.7,17.7-0.2c2.9-2.9,5.7-5.7,8.6-8.6c-1.2,0.2-2.4,0.3-3.6,0.5c3.1,1.6,6.3,3,9.6,4c-0.7-1-1.5-1.9-2.2-2.9
				c0,3.8,0,7.5,0,11.3c0,2.4,0.3,4.8,1.4,7c1.8,3.4,5.3,5.9,9.1,6.4c1.9,0.3,3.8,0.2,5.7,0.2c1.9,0,3.9,0,5.8,0
				c7-0.1,12.3-5.7,12.3-12.6c0-4.1,0-8.2,0-12.2c-0.7,1-1.5,1.9-2.2,2.9c3.3-1,6.5-2.4,9.6-4c-1.2-0.2-2.4-0.3-3.6-0.5
				c2.6,2.6,5.3,5.3,7.9,7.9c1.7,1.7,3.5,3.2,5.9,4c3.7,1.3,8,0.5,11.1-1.8c1.6-1.2,2.9-2.7,4.3-4c1.3-1.3,2.7-2.7,4-4
				c4.9-5,4.7-12.8-0.2-17.7c-2.9-2.9-5.7-5.7-8.6-8.6c0.2,1.2,0.3,2.4,0.5,3.6c1.6-3.1,3-6.3,4-9.6c-1,0.7-1.9,1.5-2.9,2.2
				c2.7,0,5.5,0,8.2,0c3.6,0,7.1,0.2,10.3-1.6c2.6-1.4,4.5-3.8,5.5-6.6c0.6-1.7,0.7-3.4,0.7-5.1c0-2.9,0-5.8,0-8.7
				C471.6,439.4,466.3,434,459.5,433.9c-3.9-0.1-3.9,5.9,0,6c3.5,0.1,6.2,2.8,6.3,6.3c0,2.7,0,5.5,0,8.2c0,1.1,0,2.2-0.2,3
				c-0.5,1.8-1.6,3.1-3.2,4c-0.9,0.5-2,0.7-3.3,0.7c-1.2,0-2.5,0-3.7,0c-2.8,0-5.6,0-8.4,0c-1.4,0-2.5,0.9-2.9,2.2
				c-0.9,2.8-2,5.5-3.4,8.1c-0.6,1.2-0.5,2.7,0.5,3.6c2.4,2.4,4.8,4.8,7.2,7.2c1.1,1.1,2.2,2,2.9,3.3c1.1,2.1,0.8,4.9-0.8,6.8
				c-2.2,2.5-4.7,4.8-7.1,7.1c-0.6,0.6-1.3,1.2-2.1,1.5c-0.1,0-0.5,0.2-0.8,0.3c-0.1,0-1,0.2-0.7,0.2c-0.3,0-0.7,0.1-1,0.1
				c-0.2,0-1.1-0.1-0.9,0c-1.9-0.3-2.9-1.2-4.3-2.5c-2.7-2.7-5.4-5.4-8.1-8.1c-1-1-2.5-1.1-3.6-0.5c-2.6,1.4-5.3,2.5-8.1,3.4
				c-1.3,0.4-2.2,1.5-2.2,2.9c0,3.5,0,6.9,0,10.4c0,1.7,0.1,3-0.4,4.3c-0.7,2.1-3,3.9-5.2,4c-3.4,0.3-6.9,0-10.3,0
				c-2.1,0-4.1-0.9-5.2-2.5c-0.2-0.3-0.4-0.5-0.5-0.8c-0.2-0.4-0.3-0.5-0.3-0.6c-0.3-0.8-0.4-1.3-0.4-2c0-0.4,0-0.9,0-1.3
				c0-3.9,0-7.7,0-11.6c0-1.4-0.9-2.5-2.2-2.9c-2.8-0.9-5.5-2-8.1-3.4c-1.2-0.6-2.7-0.5-3.6,0.5c-2.4,2.4-4.8,4.8-7.2,7.2
				c-1.1,1.1-2,2.2-3.3,2.9c-2.1,1.1-4.9,0.8-6.8-0.8c-2.5-2.2-4.8-4.7-7.1-7.1c-0.6-0.6-1.2-1.3-1.5-2.1c0-0.1-0.2-0.5-0.3-0.8
				c0-0.1-0.2-1-0.2-0.7c0-0.3-0.1-0.7-0.1-1c0-0.2,0.1-1.1,0-0.9c0.3-1.9,1.2-2.9,2.5-4.3c2.7-2.7,5.4-5.4,8.1-8.1
				c1-1,1.1-2.5,0.5-3.6c-1.4-2.6-2.5-5.3-3.4-8.1c-0.4-1.3-1.5-2.2-2.9-2.2c-3.5,0-6.9,0-10.4,0c-1.7,0-3,0.1-4.3-0.4
				c-2.1-0.7-3.9-3-4-5.2c-0.3-3.4,0-6.9,0-10.3c0-2.1,0.9-4.1,2.5-5.2c0.3-0.2,0.5-0.4,0.8-0.5c0.4-0.2,0.5-0.3,0.6-0.3
				c0.8-0.3,1.3-0.4,2-0.4c0.4,0,0.9,0,1.3,0c3.9,0,7.7,0,11.6,0c1.4,0,2.5-0.9,2.9-2.2c0.9-2.8,2-5.5,3.4-8.1
				c0.6-1.2,0.5-2.7-0.5-3.6c-2.4-2.4-4.8-4.8-7.2-7.2c-1.1-1.1-2.2-2-2.9-3.3c-1.1-2.1-0.8-4.9,0.8-6.8c2.2-2.5,4.7-4.8,7.1-7.1
				c0.6-0.6,1.3-1.2,2.1-1.5c0.1,0,0.5-0.2,0.8-0.3c0.1,0,1-0.2,0.7-0.2c0.3,0,0.7-0.1,1-0.1c0.2,0,1.1,0.1,0.9,0
				c1.9,0.3,2.9,1.2,4.3,2.5c2.7,2.7,5.4,5.4,8.1,8.1c1,1,2.5,1.1,3.6,0.5c2.6-1.4,5.3-2.5,8.1-3.4c1.3-0.4,2.2-1.5,2.2-2.9
				c0-3.5,0-6.9,0-10.4c0-1.7-0.1-3,0.4-4.3c0.7-2.1,3-3.9,5.2-4c3.4-0.3,6.9,0,10.3,0c2.1,0,4.1,0.9,5.2,2.5
				c0.2,0.3,0.4,0.5,0.5,0.8c0.2,0.4,0.3,0.5,0.3,0.6c0.3,0.8,0.4,1.3,0.4,2c0,0.4,0,0.9,0,1.3c0,3.9,0,7.7,0,11.6
				c0,1.4,0.9,2.5,2.2,2.9c2.8,0.9,5.5,2,8.1,3.4c1.2,0.6,2.7,0.5,3.6-0.5c2.4-2.4,4.8-4.8,7.2-7.2c1.1-1.1,2-2.2,3.3-2.9
				c2.1-1.1,4.9-0.8,6.8,0.8c2.5,2.2,4.8,4.7,7.1,7.1c0.6,0.6,1.2,1.3,1.5,2.1c0,0.1,0.2,0.5,0.3,0.8c0,0.1,0.2,1,0.2,0.7
				c0,0.3,0.1,0.7,0.1,1c0,0.2-0.1,1.1,0,0.9c-0.3,1.9-1.2,2.9-2.5,4.3c-2.7,2.7-5.4,5.4-8.1,8.1c-1,1-1.1,2.5-0.5,3.6
				c1.4,2.6,2.5,5.3,3.4,8.1c0.4,1.3,1.5,2.2,2.9,2.2c4.2,0,8.4,0,12.6,0C463.4,439.9,463.4,433.9,459.5,433.9z"/>
		</g>
	</g>
</g>
<g id="手" class="st0">
	<path class="st7" d="M170.7,546.5c0,0-73-79-96-106s-43-58-43-58s56-79,62-89s7-19,6-25s-4-18-3-28s1-15,11-28s17-10,23-12
		s8-10,10-15s8-8,8-8c30-4,19,21,19,21s-19,43-22,49s0,15,0,15s14-2,27-2s14,8,14,13s-5,9-11,12s-16,3-37,3s-29,16-29,16l-54,76
		c0,0,8,10,19,22s138,144,138,144H170.7z"/>
	<path class="st1" d="M75.1,321.2l12.4,13.5l21.7-30.7c0,0,10-15,24.5-15.5s42.4,5.1,48.4-6.2s6.9-15.2,0-20.3
		c-6.9-5-27.5-0.1-28.7-0.6s-12.1,4.3-10.1-5.1c1.9-9.4,20.3-43.4,20.3-43.4s12.6-28.8,1.1-34.9c-11.5-6.1-23.5,0.9-24.5,6.9
		s-7,15-10,15s-26.6,2.7-30.3,24.9s-3.8,26.3-2.3,37.7c1.5,11.4,3.5,15.4-4.5,30.4S75.1,321.2,75.1,321.2z"/>
	<g id="手_3_" class="st3">
		<g>
			<path class="st4" d="M214.8,544.4c-6.2-6.8-12.5-13.4-18.8-20c-10.1-10.6-20.2-21.1-30.3-31.6c-10.4-10.8-20.8-21.6-31.2-32.3
				c-7.2-7.4-14.3-14.8-21.5-22.2c-15.8-16.2-31.1-33-46.3-49.7c-2.2-2.4-4.4-4.8-6.6-7.2c-1.1-1.2-3.1-1.1-4.2,0
				c-1.2,1.2-1.1,3,0,4.2c17,18.6,33.8,37.4,51.5,55.4c6.6,6.7,13.1,13.4,19.6,20.2c10.2,10.5,20.4,21.1,30.5,31.7
				c10.4,10.8,20.7,21.5,31,32.4c6.9,7.3,13.9,14.5,20.7,21.9c0.5,0.5,0.9,1,1.4,1.5c1.1,1.2,3.1,1.1,4.2,0
				C216,547.4,215.9,545.6,214.8,544.4L214.8,544.4z"/>
		</g>
		<g>
			<path class="st4" d="M172.8,544.4c-15.7-16.4-30.9-33.4-46-50.4c-18.4-20.7-36.5-41.6-54.3-62.8c-7.9-9.5-15.8-19-23.5-28.6
				c-3.2-4-6.4-8.1-9.5-12.2c-1.4-1.9-2.8-3.7-4.2-5.6c-0.6-0.8-1.1-1.9-1.8-2.5s0.1,2,0.1,1.9c0,0.3-0.5,0.8-0.1,0.4
				c9.4-13.7,19.3-27,29.1-40.4c4.4-6,8.6-12.2,13-18.3c9.3-12.9,20.3-25,25.8-40.2c1.4-3.9,2.2-7.9,1.8-12
				c-0.4-3.9-1.5-7.6-2.5-11.3c-2.2-8.2-2.4-16.7-0.9-25c1.5-8.1,4.6-16.2,9.7-22.7c2.4-3.1,5.4-5.8,8.7-7.9
				c3.6-2.2,7.4-2.8,11.4-3.7c2.8-0.7,5.5-1.8,7.5-3.8c2.3-2.3,3.4-5.3,4.5-8.3c2.1-6,6.7-11.9,13.6-11.9c2.9,0,5.9,1.1,8,3.1
				c2.7,2.6,3.3,6.1,2.7,9.7c-0.7,4.6-2.8,8.9-4.6,13.1c-1.9,4.5-3.8,9-5.7,13.5c-3.8,8.9-7.4,17.9-11.3,26.7
				c-1.7,3.9-3.8,8-3.4,12.4c0.3,3.3,1.8,6.9,5.4,7.6c1.4,0.3,2.8,0,4.2-0.3c1.9-0.4,3.9-0.8,5.8-1.1c4.6-0.7,9.4-1,14.1-0.7
				c4.4,0.3,11.2,1.5,12.7,6.1c0.8,2.5-0.4,5.6-1.8,7.9c-1.5,2.7-3.7,4.7-6.5,6.1c-5.4,2.7-12,2.4-17.9,2.3
				c-11.7-0.3-24.5-1.3-35.5,3.2c-2.8,1.2-5.5,2.7-7.7,4.8c-2.6,2.5-4.4,5.9-6.4,8.9c-4.8,7.2-9.8,14.3-15,21.3
				c-10.4,14.2-21.3,28.2-31,42.9c-4.7,7.1-9.1,14.3-13.1,21.8c-1.8,3.4,3.4,6.4,5.2,3c16.9-31.7,41.2-58.5,60.7-88.5
				c1.7-2.7,3.3-5.1,6-6.9c2.4-1.5,5.1-2.5,7.8-3.2c6-1.5,12.4-1.7,18.6-1.6c11.8,0.1,26.7,2.6,36.2-6.2c4.7-4.3,8.4-12.1,5.8-18.4
				c-2.4-5.9-9-8.3-14.8-9.1c-4.4-0.6-8.8-0.5-13.2-0.1c-4.2,0.4-8.2,1.3-12.3,1.9c-0.7,0.1,0.6,0-0.4,0.1c-0.9,0.1,0.2-0.1-0.3,0
				c-0.3,0.1,0.1-0.1,0.2,0.1c0.1,0.3-0.2-0.3-0.2-0.3c0-0.7-0.5-1.5-0.6-2.2c-0.1-1.2,0.2-2.4,0.5-3.5c1.3-4.2,3.4-8.3,5.2-12.4
				c3.9-9.2,7.8-18.4,11.7-27.6c1.9-4.6,4-9.1,5.7-13.7c1.6-4.4,2.7-9.1,1.9-13.8c-1.4-7.4-8.2-12.2-15.4-12.8
				c-7.5-0.6-14.2,4-17.9,10.3c-1.8,3.1-2.5,6.6-4.2,9.7c-1.2,2.1-2.9,3.2-5.2,3.9c-4,1.1-7.9,1.6-11.7,3.4c-3.8,1.8-7.2,4.5-10,7.6
				c-11.9,12.6-16.3,31.7-14.1,48.6c1,7.7,5.2,15.5,3.4,23.4C95,288,90.5,295.3,86,301.9c-4.6,6.8-9.8,13.1-14.6,19.7
				c-2.5,3.4-4.7,6.9-7.1,10.3c-10.6,14.7-21.7,29.1-32.1,43.9c-1.4,1.9-2.9,3.9-4,6c-0.9,1.8-0.5,3.1,0.7,4.7
				c1.4,1.9,2.8,3.7,4.2,5.6c6.8,9,13.9,17.8,21,26.6c17.5,21.4,35.5,42.4,53.7,63.2c16.8,19.2,33.7,38.2,51.1,56.8
				c3.2,3.4,6.4,6.8,9.6,10.2C171.3,551.4,175.5,547.2,172.8,544.4L172.8,544.4z"/>
		</g>
		<path class="st4" d="M139.8,195.6c-0.5,4.1-2.1,7.3-3.5,10.4c-0.7,1.5-1.5,3-2.1,4.5l-2,4.6c-2.7,6.2-5.6,12.2-8.9,18
			c2.3-6.3,4-12.7,5.6-19.1l1.1-4.9c0.4-1.7,0.9-3.3,1.3-4.9c0.9-3.2,1.6-6.2,1.4-8.9L139.8,195.6z"/>
		<path class="st4" d="M137.1,196.4c8.7,3.3,16.2,8.7,21.8,15.4c-7.2-4.9-15.4-7.8-23.5-8.6L137.1,196.4z"/>
		<path class="st4" d="M132.6,209.8c0.2,0.3,0.6,0.6,1.6,0.7c0.4,0.1,1,0.1,1.6,0.2c0.6,0,1.3,0.1,1.9,0.2c2.4,0.4,4.7,0.9,7,1.6
			c4.5,1.3,8.8,3.2,12.7,5.6c-4.4-1.3-8.9-2-13.3-2.2c-2.2-0.1-4.4,0-6.6,0.2c-0.6,0-1,0.1-1.5,0.2c-0.5,0.1-1.1,0.2-1.8,0.3
			s-1.5,0.1-2.3,0c-0.9-0.1-1.8-0.3-2.7-0.8L132.6,209.8z"/>
		<path class="st4" d="M106.1,212.1c1.2,0.7,2.9,1,4.8,1.2c1.9,0.1,4.1,0.2,6.2,0.6c4.2,0.7,8.1,2.2,11.5,4.3
			c-3.9-1-7.9-1.3-11.7-0.8c-1.9,0.2-3.7,0.7-5.7,1.1c-2,0.4-4.5,0.8-7.1,0.3L106.1,212.1z"/>
		<path class="st4" d="M98.3,233.1c3.8-1.8,7.9-2.7,12.2-3c2.1-0.1,4.2,0,6.3,0.2c2.2,0.2,4.1,0.8,5.8,0.6c0.9,0,1.9-0.2,3-0.3
			s2.2-0.1,3.3-0.1c2.2,0.1,4.3,0.4,6.4,1c4.1,1.2,7.9,3.5,10.7,6.6c-3.6-2.1-7.3-3.6-11.2-4.3c-1.9-0.3-3.9-0.5-5.8-0.5
			c-2,0-3.8,0.4-6.1,0.5c-1.2,0.1-2.3-0.1-3.4-0.3l-3-0.5c-2-0.4-3.9-0.5-5.9-0.6C106.4,232.3,102.4,232.6,98.3,233.1z"/>
		<path class="st4" d="M98.6,237.4c2-0.9,4.3-1.2,6.6-1.3c2.3,0,4.5,0.3,6.7,0.8c4.3,1,8.5,2.1,12.6,3.7c4.1,1.6,8.1,3.7,11.7,6.5
			c3.5,2.8,6.6,6.3,8.2,10.4c-3.1-3.2-6.4-5.7-10-7.8s-7.4-3.8-11.3-5.4c-3.9-1.5-8-3-12-4.5C107,238.5,103,237.2,98.6,237.4z"/>
		<path class="st4" d="M96.7,257.4c6.5-2.3,13.2-4.1,19.9-5.4c3.4-0.7,6.7-1.2,10.1-1.6c1.7-0.2,3.4-0.4,5.1-0.5
			c1.7-0.1,3.5,0,5.1,0.6c-1.7-0.3-3.3-0.1-5,0.3c-1.6,0.4-3.2,0.9-4.8,1.4c-3.2,1-6.4,2.1-9.5,3.3c-6.2,2.4-12.3,5.2-18,8.4
			L96.7,257.4z"/>
		<path class="st4" d="M99.5,276.2c0.6,0.1,0.9,0.2,1.4,0s1.3-0.7,2.2-1.3c2-1.5,4.2-2.6,6.3-3.5c4.1-1.9,8.4-3.5,12.7-4.7
			c8.7-2.5,17.6-3.8,26.5-3.7c-8.8,1.1-17.3,3.5-25.3,7c-4,1.8-7.8,3.8-11.5,6.1c-1.8,1.1-3.5,2.3-4.9,3.6c-0.8,0.7-1.7,1.7-3.2,2.5
			s-3.4,1.2-5,1.1L99.5,276.2z"/>
		<path class="st4" d="M172.2,260.5c-0.7,3.8-2.2,7.4-4.2,10.4c-2,3.1-4.4,5.8-7.1,8c-5.4,4.5-11.7,7.5-18,9.8
			c5.8-3.4,11.4-7.3,15.5-12.3c2.1-2.5,3.8-5.2,4.9-8c1.2-2.8,1.8-5.8,1.8-8.7L172.2,260.5z"/>
		<path class="st4" d="M95.7,291.1l9.3,4c3.1,1.3,6.4,2.7,9,4.8c-3.2-1.1-6.5-1.2-9.8-1.4L94,297.9L95.7,291.1z"/>
		<path class="st4" d="M86.1,304.3c5.9,3.1,11,7.3,15,12.1c-5.5-3-11.3-4.8-17.1-5.4L86.1,304.3z"/>
		<path class="st4" d="M84.9,336.7c-4.2-4.2-7.4-9.2-9.5-14.3c4,3.8,8.6,6.7,13.4,8.5L84.9,336.7z"/>
	</g>
</g>
<g id="雲" class="st0">
	<path class="st1" d="M412,495.7c0-13.5-10.9-24.4-24.4-24.4c-1.6,0-3.1,0.2-4.6,0.4c-8.1-26.8-33-46.4-62.5-46.4
		c0-28.7-23.2-45.9-51.9-45.9S202,397.5,202,439.7l0,0c0,0.1,0,0.1,0,0.2c-28.7,0-51.9,23.2-51.9,51.9c-22.2,0-40.3,18-40.3,40.3
		c0,22.2,18,40.3,40.3,40.3c0,0,171.9,0,174.2,0h73.1c0.1,0,0.1,0,0.2,0l0,0c31,0,46.5-19,46.5-40.5C444,515,428.9,495.7,412,495.7z
		"/>
	<g class="st3">
		<g>
			<path class="st4" d="M397.5,575.5c9.4,0,18.8-1.7,27.2-6c6.8-3.5,12.7-8.9,16.6-15.6c3.8-6.4,5.7-13.9,5.8-21.4
				c0.1-9.2-3.5-18.2-9.1-25.4c-6.2-8.1-15.4-14.4-25.9-14.5c1,1,2,2,3,3c-0.1-12.3-8.6-23.5-20.6-26.5c-4-1-8.1-1-12.2-0.3
				c1.2,0.7,2.5,1.4,3.7,2.1c-6.7-21.8-24.1-39.2-45.9-45.8c-6.3-1.9-12.9-2.8-19.5-2.8c1,1,2,2,3,3c-0.1-13.2-6.3-25.3-16.1-33.8
				c-9.3-8.1-21.1-13.3-33.3-14.7c-5.4-0.6-10.8-0.3-16.1,0.5c-5.3,0.7-10.6,2-15.6,3.8c-10.8,3.9-21,10-28.7,18.7
				c-8.6,9.7-13.4,21.9-14.4,34.8c-0.1,1.7-0.2,3.5-0.2,5.3c0,3.9,6,3.9,6,0c0-12.1,3.3-23.5,10.7-33.2c0.3-0.4-0.1,0.1,0.3-0.3
				c0.2-0.3,0.4-0.5,0.6-0.8c0.5-0.6,0.9-1.1,1.4-1.7c0.9-1,1.8-2,2.8-2.9s2-1.8,3-2.7c0.5-0.4,1-0.9,1.6-1.3c0,0,0.4-0.3,0.1-0.1
				c-0.3,0.2,0.2-0.2,0.3-0.2c0.3-0.2,0.5-0.4,0.8-0.6c2.2-1.6,4.5-3.1,6.9-4.4c1.2-0.6,2.3-1.3,3.5-1.8c0.6-0.3,1.2-0.6,1.8-0.8
				c0.3-0.1,0.5-0.2,0.8-0.3c0.2-0.1,0.3-0.2,0.5-0.2c0.4-0.2-0.4,0.2,0.1,0c4.8-2,9.9-3.5,15.1-4.5c1.2-0.2,2.5-0.4,3.7-0.6
				c0.2,0,0.4-0.1,0.5-0.1c0,0-0.5,0.1-0.1,0c0.3,0,0.6-0.1,0.9-0.1c0.6-0.1,1.2-0.1,1.8-0.2c2.4-0.2,4.9-0.3,7.4-0.3
				c1.3,0,2.6,0.1,3.8,0.2c0.3,0,0.6,0.1,1,0.1c0.6,0.1-0.3,0,0.3,0c0.7,0.1,1.4,0.2,2.1,0.4c2.8,0.5,5.5,1.2,8.1,2.1
				c0.6,0.2,1.2,0.4,1.8,0.7c0.3,0.1,0.7,0.3,1,0.4c0.1,0.1,1.1,0.4,0.7,0.3c1.3,0.6,2.6,1.2,3.9,1.8c2.6,1.3,5.1,2.8,7.4,4.5
				c2.1,1.5,4.3,3.4,6.4,5.5c1,1,2,2.1,2.9,3.2c0.8,0.9,1.5,1.9,2.3,3.1s1.5,2.5,2.2,3.8c0.3,0.6,0.7,1.3,1,2s0.4,0.8,0.7,1.8
				c0.5,1.4,1,2.8,1.3,4.3c0.2,0.7,0.3,1.4,0.5,2.1c0.1,0.4,0.1,0.8,0.2,1.1c0,0.2,0.1,0.3,0.1,0.5s0,0.2,0,0c0,0.1,0,0.2,0,0.3
				c0.2,1.6,0.3,3.1,0.3,4.7s1.4,3,3,3c20.9,0.1,40.8,10.8,52.2,28.3c3.3,5.1,5.7,10.2,7.4,15.9c0.5,1.7,2.1,2.4,3.7,2.1
				c3.7-0.7,7-0.4,10.4,0.7c2.6,0.8,5.4,2.4,7.5,4.2c4.7,4.2,7.3,9.9,7.3,16.1c0,1.6,1.4,3,3,3c2.1,0,3.3,0.2,5.3,0.7s3.4,1.1,5.1,2
				c3.6,1.9,6.5,4.4,9.2,7.5c5.2,5.9,8.9,13.9,9.3,21.5c0.1,1.8,0,3.5-0.1,5.3c0,0.4-0.1,0.8-0.1,1.3c0,0.2,0,0.4-0.1,0.6
				c0.1-0.6,0-0.1,0,0c-0.1,0.9-0.3,1.7-0.5,2.6c-0.4,1.6-0.8,3.2-1.3,4.8c-0.1,0.4-0.3,0.8-0.4,1.2c-0.1,0.2-0.4,1.1-0.2,0.6
				c-0.3,0.8-0.7,1.6-1.1,2.4c-3.1,6-7.6,10.6-13.3,14c-3.8,2.2-7.2,3.6-11.5,4.7c-4.9,1.3-9.7,1.7-14.8,1.7
				C393.6,569.5,393.6,575.5,397.5,575.5L397.5,575.5z"/>
		</g>
		<g>
			<path class="st4" d="M400.3,510.4c-0.1-7.8-3.4-15.5-9.4-20.6c-6.5-5.6-15-7.7-23.4-6.2c1.2,0.7,2.5,1.4,3.7,2.1
				c-6.7-21.8-24-39.2-45.9-45.8c-6.3-1.9-12.9-2.8-19.5-2.8c1,1,2,2,3,3c-0.1-23-14.7-43.8-36.3-51.7c-21.4-7.8-46.3-1-60.8,16.5
				c-8.2,9.9-12.7,22.3-12.7,35.1c1-1,2-2,3-3c-22.8,0.1-43.5,14.5-51.5,35.9c-2.3,6.1-3.4,12.6-3.4,19c1-1,2-2,3-3
				c-12.2,0.1-24.2,5.3-32.3,14.5c-8.2,9.3-12.2,21.8-10.6,34.1c1.6,12.2,8.1,23.1,18.2,30.2c7.3,5.2,16.2,7.8,25.2,7.8
				c7.8,0,15.5,0,23.3,0c15.6,0,31.2,0,46.8,0c17.4,0,34.7,0,52.1,0c13.4,0,26.7,0,40.1,0c4.9,0,9.9,0,14.8,0c15,0,30,0,45,0
				c6.8,0,13.6,0,20.3,0c1.4,0,2.9,0,4.3,0c4.8,0,9.5-1.1,13.9-3.1c11.4-5.2,19.1-17,19.9-29.4s-5.7-24.5-16.3-30.9
				c-5.2-3.1-11.2-4.7-17.3-4.8c-3.9,0-3.9,6,0,6c11,0.1,21.3,6.7,25.6,17c4.4,10.6,1.6,23.1-6.4,31.1c-3.9,3.9-8.8,6.5-14.2,7.6
				c-2.1,0.4-4.2,0.5-6.4,0.5c-5.3,0-10.6,0-16,0c-15.7,0-31.4,0-47,0c-5,0-10,0-14.9,0c-11.3,0-22.7,0-34,0c-16.5,0-32.9,0-49.4,0
				c-16.2,0-32.5,0-48.7,0c-10.5,0-21,0-31.5,0c-2,0-4.1,0-6.1,0c-11-0.5-21.5-6-28-14.8c-6.8-9.1-9.1-21-6.2-32
				c2.8-10.7,10.4-19.6,20.4-24.3c4.9-2.3,10.2-3.4,15.6-3.4c1.6,0,3-1.4,3-3c0.1-20.2,12.8-38.9,31.9-45.9c5.5-2,11.2-3,17.1-3
				c1.6,0,3-1.4,3-3c0.1-20.2,12.8-38.9,31.9-45.9c19.4-7.1,41.4-1.2,54.7,14.7c7.3,8.7,11.2,19.9,11.2,31.2c0,1.6,1.4,3,3,3
				c20.9,0.1,40.8,10.7,52.2,28.3c3.2,4.9,5.7,10.2,7.4,15.9c0.5,1.7,2.1,2.4,3.7,2.1c13-2.4,25.1,7.9,25.2,21
				C394.3,514.2,400.3,514.2,400.3,510.4z"/>
		</g>
		<path class="st4" d="M145.7,553.5c10.8-1.4,21.5-2.2,32.2-2.7c10.8-0.5,21.5-0.8,32.2-0.8c10.8,0,21.5,0.2,32.2,0.7
			c10.8,0.5,21.5,1.3,32.2,2.8c-10.8,1.5-21.5,2.2-32.2,2.8c-10.8,0.5-21.5,0.8-32.2,0.7c-10.8,0-21.5-0.2-32.2-0.8
			C167.2,555.7,156.5,555,145.7,553.5z"/>
		<path class="st4" d="M341,475.4c-0.8-0.9-1.4-1.9-2.2-2.7c-0.7-0.9-1.6-1.7-2.4-2.4c-1.8-1.5-3.5-2.8-5.5-3.9
			c-1.9-1.1-3.9-2.1-6-3c-2-0.9-4.2-1.6-6.3-2.2c-2.1-0.6-4.3-1.1-6.5-1.5c-1.1-0.2-2.2-0.4-3.3-0.5c-1.2-0.2-2-0.2-3-0.2
			c-1.9,0.1-4.1,0.4-6.5,0.8c-2.4,0.3-5.1,0.6-8.1,0c-1.5-0.3-3.2-1-4.5-2c-1.4-1-2.5-2.4-3.2-3.7c-1.5-2.8-1.9-5.4-2.2-8
			c-0.5-5,0-9.8-0.1-14.1c0-1.1-0.1-2-0.3-3.1c-0.2-1.1-0.4-2.2-0.6-3.2c-0.5-2.1-1.2-4.2-2.2-6.1s-2.3-3.6-3.9-5.1
			c-1.7-1.5-3.7-2.5-5.9-3.3c0.6,0,1.2,0.1,1.8,0.1l1.8,0.3c0.6,0.2,1.2,0.3,1.8,0.5c0.6,0.2,1.2,0.4,1.7,0.7
			c2.2,1.1,4.2,2.9,5.8,4.8c1.6,2,2.8,4.3,3.7,6.6c0.5,1.2,0.9,2.3,1.2,3.5c0.3,1.1,0.7,2.5,0.8,3.8c0.3,2.5,0.5,4.9,0.6,7.2
			c0.2,2.3,0.3,4.5,0.6,6.6c0.3,2.1,0.8,4.1,1.6,5.4c0.8,1.4,1.6,1.9,3.1,2.3c1.6,0.4,3.6,0.3,5.8,0c2.2-0.2,4.7-0.6,7.4-0.5
			c0.7,0,1.4,0.1,2.1,0.2c0.8,0.1,1.3,0.2,1.9,0.3c1.2,0.2,2.4,0.5,3.6,0.8c2.4,0.7,4.7,1.4,6.9,2.4c2.3,1,4.5,2,6.6,3.3
			c1.1,0.6,2.1,1.3,3.1,2c0.5,0.4,1,0.7,1.5,1.1s1,0.7,1.4,1.2c1.9,1.6,3.5,3.4,4.9,5.4C339.2,470.9,340.3,473.1,341,475.4z"/>
		<path class="st4" d="M172,471.8c-1.2,1.2-2.4,2.4-3.2,3.7c-0.8,1.3-1.5,2.7-1.9,4.2s-0.7,3-0.9,4.5s-0.1,3-0.1,4.6
			c0.1,1.6,0.2,3.2,0.3,5c0,0.9,0,1.8,0,2.7c-0.1,0.9-0.1,1.7-0.2,2.7c-0.1,0.9-0.3,1.9-0.5,2.9c-0.1,0.5-0.3,1.1-0.5,1.6
			c-0.2,0.6-0.5,1.1-0.9,1.7c-0.8,1.2-2,2.1-3.1,2.7s-2.2,0.9-3.2,1.2c-2,0.4-3.8,0.5-5.1,0.7c-1.5,0.2-3,0.5-4.4,1
			c-2.9,0.8-5.7,2-8.2,3.6s-4.7,3.7-6.6,6.3c-1.8,2.5-3.2,5.5-3.9,8.8c-0.8-3.3-0.4-7.1,0.8-10.4c1.3-3.4,3.4-6.5,6.2-9
			s6-4.4,9.5-5.6c1.7-0.6,3.5-1.1,5.3-1.5c1.9-0.3,3.5-0.4,4.8-0.8c0.6-0.1,1.2-0.3,1.5-0.5c0.4-0.2,0.5-0.4,0.7-0.5
			c0.1,0,0.2-0.3,0.3-0.5s0.2-0.5,0.3-0.8c0.2-0.6,0.3-1.2,0.5-2c0.1-0.7,0.3-1.6,0.4-2.3c0.1-0.7,0.2-1.5,0.3-2.3
			c0.1-1.6,0.2-3.3,0.4-5s0.5-3.6,1.1-5.4c0.5-1.7,1.3-3.4,2.2-5c1-1.6,2.2-3,3.6-4.1C168.8,473.1,170.4,472.3,172,471.8z"/>
		<path class="st4" d="M381.4,505.8c0.3,2.9,0.8,5.7,1.8,8.1c0.9,2.4,2.4,4.3,4.2,5.1c1.8,0.9,4.1,1,7,1.2c1.4,0.1,3,0.2,4.6,0.5
			s3.2,0.8,4.7,1.4c3,1.3,5.8,3.2,8,5.7s3.8,5.6,4.4,8.9c0.6,3.3,0.2,6.6-1,9.6c-1.2,2.9-3.4,5.4-6.1,6.7c3.3-4.8,3.4-10.4,1.8-14.9
			c-1.7-4.4-5.5-7.7-9.9-9.6c-1.1-0.5-2.2-0.9-3.4-1.1c-1.1-0.3-2.4-0.5-3.8-0.7s-2.9-0.4-4.5-0.9c-0.8-0.2-1.6-0.5-2.4-0.9
			s-1.6-0.9-2.3-1.4c-1.5-1.1-2.6-2.6-3.4-4.2c-0.7-1.6-1.1-3.2-1.2-4.8s0-3.1,0.3-4.6C380.4,508.6,380.8,507.2,381.4,505.8z"/>
		<path class="st4" d="M304.2,554c8-1.4,15.9-2.2,23.9-2.7s15.9-0.8,23.9-0.8s15.9,0.2,23.9,0.7s15.9,1.3,23.9,2.8
			c-8,1.5-15.9,2.2-23.9,2.8c-8,0.5-15.9,0.8-23.9,0.7c-8,0-15.9-0.2-23.9-0.8C320.1,556.2,312.2,555.5,304.2,554z"/>
		<g>
			<path class="st4" d="M378.1,508.9c-4.7,4.7-9.5,9.5-14.2,14.2c-7.5,7.5-15,15-22.6,22.6c-1.7,1.7-3.5,3.5-5.2,5.2
				c-2.7,2.7,1.5,7,4.2,4.2c4.7-4.7,9.5-9.5,14.2-14.2c7.5-7.5,15-15,22.6-22.6c1.7-1.7,3.5-3.5,5.2-5.2
				C385.1,510.4,380.8,506.2,378.1,508.9L378.1,508.9z"/>
		</g>
		<g>
			<path class="st4" d="M384.6,520.4c-3.4,3.4-6.9,6.9-10.3,10.3c-5.5,5.5-10.9,10.9-16.4,16.4c-1.3,1.3-2.5,2.5-3.8,3.8
				c-2.7,2.7,1.5,7,4.2,4.2c3.4-3.4,6.9-6.9,10.3-10.3c5.5-5.5,10.9-10.9,16.4-16.4c1.3-1.3,2.5-2.5,3.8-3.8
				C391.6,521.9,387.3,517.7,384.6,520.4L384.6,520.4z"/>
		</g>
		<g>
			<path class="st4" d="M397.6,524.4c-7.7,7.7-15.5,15.5-23.2,23.2c-1.1,1.1-2.2,2.2-3.3,3.3c-2.7,2.7,1.5,7,4.2,4.2
				c7.7-7.7,15.5-15.5,23.2-23.2c1.1-1.1,2.2-2.2,3.3-3.3C404.6,525.9,400.3,521.7,397.6,524.4L397.6,524.4z"/>
		</g>
		<g>
			<path class="st4" d="M409.1,530.9c-5.8,5.8-11.7,11.7-17.5,17.5c-0.8,0.8-1.7,1.7-2.5,2.5c-1.1,1.1-1.1,3.1,0,4.2
				c1.1,1.1,3.1,1.1,4.2,0c5.8-5.8,11.7-11.7,17.5-17.5c0.8-0.8,1.7-1.7,2.5-2.5c1.1-1.1,1.1-3.1,0-4.2S410.2,529.8,409.1,530.9
				L409.1,530.9z"/>
		</g>
		<g>
			<path class="st4" d="M426.7,551.5c4.1,0,8.2,0,12.3,0c0.6,0,1.2,0,1.7,0c1.6,0,3.1-1.4,3-3s-1.3-3-3-3c-4.1,0-8.2,0-12.3,0
				c-0.6,0-1.2,0-1.7,0c-1.6,0-3.1,1.4-3,3C423.8,550.1,425,551.5,426.7,551.5L426.7,551.5z"/>
		</g>
		<g>
			<path class="st4" d="M428.7,537.5c4.1,0,8.2,0,12.3,0c0.6,0,1.2,0,1.7,0c1.6,0,3.1-1.4,3-3s-1.3-3-3-3c-4.1,0-8.2,0-12.3,0
				c-0.6,0-1.2,0-1.7,0c-1.6,0-3.1,1.4-3,3C425.8,536.1,427,537.5,428.7,537.5L428.7,537.5z"/>
		</g>
		<g>
			<path class="st4" d="M422.7,524.5c5.5,0,11.1,0,16.6,0c0.8,0,1.6,0,2.4,0c1.6,0,3.1-1.4,3-3s-1.3-3-3-3c-5.5,0-11.1,0-16.6,0
				c-0.8,0-1.6,0-2.4,0c-1.6,0-3.1,1.4-3,3C419.8,523.1,421,524.5,422.7,524.5L422.7,524.5z"/>
		</g>
		<g>
			<path class="st4" d="M399.7,511.5c10.5,0,21,0,31.5,0c1.5,0,3,0,4.5,0c3.9,0,3.9-6,0-6c-10.5,0-21,0-31.5,0c-1.5,0-3,0-4.5,0
				C395.8,505.5,395.8,511.5,399.7,511.5L399.7,511.5z"/>
		</g>
		<g>
			<path class="st4" d="M393.7,500.5c8.2,0,16.3,0,24.5,0c1.2,0,2.3,0,3.5,0c3.9,0,3.9-6,0-6c-8.2,0-16.3,0-24.5,0
				c-1.2,0-2.3,0-3.5,0C389.8,494.5,389.8,500.5,393.7,500.5L393.7,500.5z"/>
		</g>
		<g>
			<path class="st4" d="M378.7,489.5c8.5,0,16.9,0,25.4,0c1.2,0,2.4,0,3.6,0c3.9,0,3.9-6,0-6c-8.5,0-16.9,0-25.4,0
				c-1.2,0-2.4,0-3.6,0C374.8,483.5,374.8,489.5,378.7,489.5L378.7,489.5z"/>
		</g>
		<g>
			<path class="st4" d="M363.7,478.5c10.8,0,21.6,0,32.4,0c1.5,0,3.1,0,4.6,0c3.9,0,3.9-6,0-6c-10.8,0-21.6,0-32.4,0
				c-1.5,0-3.1,0-4.6,0C359.8,472.5,359.8,478.5,363.7,478.5L363.7,478.5z"/>
		</g>
		<g>
			<path class="st4" d="M356.7,467.5c6.7,0,13.4,0,20.2,0c0.9,0,1.9,0,2.8,0c3.9,0,3.9-6,0-6c-6.7,0-13.4,0-20.2,0
				c-0.9,0-1.9,0-2.8,0C352.8,461.5,352.8,467.5,356.7,467.5L356.7,467.5z"/>
		</g>
		<g>
			<path class="st4" d="M345.7,456.5c8.2,0,16.3,0,24.5,0c1.2,0,2.3,0,3.5,0c3.9,0,3.9-6,0-6c-8.2,0-16.3,0-24.5,0
				c-1.2,0-2.3,0-3.5,0C341.8,450.5,341.8,456.5,345.7,456.5L345.7,456.5z"/>
		</g>
		<g>
			<path class="st4" d="M324.7,445.5c11.4,0,22.8,0,34.2,0c1.6,0,3.2,0,4.8,0c3.9,0,3.9-6,0-6c-11.4,0-22.8,0-34.2,0
				c-1.6,0-3.2,0-4.8,0C320.8,439.5,320.8,445.5,324.7,445.5L324.7,445.5z"/>
		</g>
		<g>
			<path class="st4" d="M304.7,433.5c11.7,0,23.3,0,35,0c1.7,0,3.3,0,5,0c3.9,0,3.9-6,0-6c-11.7,0-23.3,0-35,0c-1.7,0-3.3,0-5,0
				C300.8,427.5,300.8,433.5,304.7,433.5L304.7,433.5z"/>
		</g>
		<g>
			<path class="st4" d="M300.7,419.5c5.3,0,10.5,0,15.8,0c0.7,0,1.5,0,2.2,0c1.6,0,3.1-1.4,3-3s-1.3-3-3-3c-5.3,0-10.5,0-15.8,0
				c-0.7,0-1.5,0-2.2,0c-1.6,0-3.1,1.4-3,3C297.8,418.1,299,419.5,300.7,419.5L300.7,419.5z"/>
		</g>
		<g>
			<path class="st4" d="M291.7,407.5c6.7,0,13.4,0,20.2,0c0.9,0,1.9,0,2.8,0c3.9,0,3.9-6,0-6c-6.7,0-13.4,0-20.2,0
				c-0.9,0-1.9,0-2.8,0C287.8,401.5,287.8,407.5,291.7,407.5L291.7,407.5z"/>
		</g>
		<g>
			<path class="st4" d="M274.7,395.5c7.9,0,15.7,0,23.6,0c1.1,0,2.3,0,3.4,0c3.9,0,3.9-6,0-6c-7.9,0-15.7,0-23.6,0
				c-1.1,0-2.3,0-3.4,0C270.8,389.5,270.8,395.5,274.7,395.5L274.7,395.5z"/>
		</g>
		<g>
			<path class="st4" d="M247.7,385.5c11.1,0,22.2,0,33.3,0c1.6,0,3.1,0,4.7,0c3.9,0,3.9-6,0-6c-11.1,0-22.2,0-33.3,0
				c-1.6,0-3.1,0-4.7,0C243.8,379.5,243.8,385.5,247.7,385.5L247.7,385.5z"/>
		</g>
	</g>
</g>
</svg>
