<?xml version="1.0" encoding="utf-8"?>
<!-- Generator: Adobe Illustrator 23.0.6, SVG Export Plug-In . SVG Version: 6.00 Build 0)  -->
<svg version="1.1" xmlns="http://www.w3.org/2000/svg" xmlns:xlink="http://www.w3.org/1999/xlink" x="0px" y="0px"
	 viewBox="0 0 600 600" style="enable-background:new 0 0 600 600;" xml:space="preserve">
<style type="text/css">
	.st0{display:none;}
	.st1{display:inline;fill:#F5F5F5;}
	.st2{display:inline;}
	.st3{fill:#F5F5F5;}
	.st4{fill:#2D46F0;}
	.st5{fill:#FFD205;}
	.st6{display:inline;fill:#FFD205;}
</style>
<g id="圓餅" class="st0">
	<path class="st1" d="M343.6,266.4c0,0-8.7-0.9-19.5,4.3c-8.7,4.2-19.4,13.7-23.4,20.1c-9.1,14.6-12.4,33.6-6.4,43.1
		c6,9.5,11.9,30.9,33.9,34.8c22,4,33.3,2.9,33.3,2.9s19.8-0.8,28.1-7.5c8.3-6.7,21.6-21.4,22-33s0.8-25.2-6.4-38.5
		s-11.3-19.2-29.3-23.8C357.7,264.3,343.6,266.4,343.6,266.4z"/>
	<g class="st2">
		<g>
			<path class="st3" d="M344,266.4c27.9,0,50.6,23.6,50.6,52.6c0,29-22.7,52.6-50.6,52.6c-27.9,0-50.6-23.6-50.6-52.6
				C293.4,290,316.1,266.4,344,266.4z"/>
		</g>
	</g>
	<g class="st2">
		<g>
			<g>
				<path class="st4" d="M343.6,269.4c4.1,0,8.1,0,12.2,0c1.8,0,3.6,0,5.4,0c3.2,0,6,0.2,8.8,0.8c14.3,2.8,26.2,12.1,33,24.9
					c3.4,6.4,5.5,13.9,5.8,21.1c0.4,7.8-0.8,15.1-3.7,22.4c-1.2,2.9-3.1,6.4-5,9.3c-1.9,2.9-4.2,5.5-6.9,8
					c-5,4.8-11.3,8.6-17.9,10.6c-5.5,1.7-10.4,2.2-16.1,2.2c-4.8,0-9.6,0-14.4,0c-0.4,0-0.8,0-1.1,0c-3.9,0-3.9,6,0,6
					c4.3,0,8.5,0,12.8,0c5.5,0,10.9-0.1,16.2-1.2c15.3-3.3,28.5-13.9,35.8-27.7c7.7-14.6,8.7-32.5,2.6-47.8
					c-5.9-14.7-17.8-26.6-32.9-31.8c-10.7-3.7-22.1-2.8-33.2-2.8c-0.4,0-0.8,0-1.2,0C339.7,263.4,339.7,269.4,343.6,269.4
					L343.6,269.4z"/>
			</g>
		</g>
		<g>
			<g>
				<path class="st4" d="M344,269.4c10,0,19.5,3.2,27.7,9.3c7.6,5.7,13.8,14.3,17,23.3c3.4,10,3.8,20.6,1,30.7
					c-2.7,9.6-8,18.2-15.7,24.7c-7.2,6.2-16.8,10.3-26.3,11c-10.1,0.8-19.9-1.6-28.4-7c-17.2-10.8-25.9-32.3-22-52.1
					c3.9-19.8,19.3-36,39.3-39.3C338.8,269.6,341.4,269.4,344,269.4c3.9,0,3.9-6,0-6c-11.1,0-22,3.6-30.9,10.2
					c-9,6.7-15.8,15.9-19.5,26.5c-7.6,21.6-1.2,46.9,16.3,61.8c8.5,7.2,18.9,11.6,30,12.6c11.1,0.9,22.4-1.9,31.8-7.8
					c9.3-5.8,16.7-14.5,21.1-24.6c4.7-10.8,6-22.8,3.7-34.4c-4.2-21.7-21.8-40-43.9-43.6c-2.8-0.5-5.7-0.7-8.6-0.7
					C340.1,263.4,340.1,269.4,344,269.4z"/>
			</g>
		</g>
		<g>
			<g>
				<path class="st4" d="M380.4,359.5c4.8,0,9.5,0,14.3,0c0.7,0,1.3,0,2,0c1.6,0,3.1-1.4,3-3c-0.1-1.6-1.3-3-3-3
					c-4.8,0-9.5,0-14.3,0c-0.7,0-1.3,0-2,0c-1.6,0-3.1,1.4-3,3C377.5,358.1,378.8,359.5,380.4,359.5L380.4,359.5z"/>
			</g>
		</g>
		<g>
			<g>
				<path class="st4" d="M388.6,348.1c4.8,0,9.5,0,14.3,0c0.7,0,1.3,0,2,0c1.6,0,3.1-1.4,3-3c-0.1-1.6-1.3-3-3-3
					c-4.8,0-9.5,0-14.3,0c-0.7,0-1.3,0-2,0c-1.6,0-3.1,1.4-3,3C385.7,346.7,386.9,348.1,388.6,348.1L388.6,348.1z"/>
			</g>
		</g>
		<g>
			<g>
				<path class="st4" d="M393.2,335.9c4.8,0,9.5,0,14.3,0c0.7,0,1.3,0,2,0c1.6,0,3.1-1.4,3-3c-0.1-1.6-1.3-3-3-3
					c-4.8,0-9.5,0-14.3,0c-0.7,0-1.3,0-2,0c-1.6,0-3.1,1.4-3,3C390.3,334.5,391.5,335.9,393.2,335.9L393.2,335.9z"/>
			</g>
		</g>
		<g>
			<g>
				<path class="st4" d="M395.4,323.7c4.8,0,9.5,0,14.3,0c0.7,0,1.3,0,2,0c1.6,0,3.1-1.4,3-3c-0.1-1.6-1.3-3-3-3
					c-4.8,0-9.5,0-14.3,0c-0.7,0-1.3,0-2,0c-1.6,0-3.1,1.4-3,3C392.4,322.3,393.7,323.7,395.4,323.7L395.4,323.7z"/>
			</g>
		</g>
		<g>
			<g>
				<path class="st4" d="M394.3,310.7c4.8,0,9.5,0,14.3,0c0.7,0,1.3,0,2,0c1.6,0,3.1-1.4,3-3c-0.1-1.6-1.3-3-3-3
					c-4.8,0-9.5,0-14.3,0c-0.7,0-1.3,0-2,0c-1.6,0-3.1,1.4-3,3C391.4,309.3,392.6,310.7,394.3,310.7L394.3,310.7z"/>
			</g>
		</g>
		<g>
			<g>
				<path class="st4" d="M388.9,297.6c4.8,0,9.5,0,14.3,0c0.7,0,1.3,0,2,0c1.6,0,3.1-1.4,3-3c-0.1-1.6-1.3-3-3-3
					c-4.8,0-9.5,0-14.3,0c-0.7,0-1.3,0-2,0c-1.6,0-3.1,1.4-3,3C385.9,296.3,387.2,297.6,388.9,297.6L388.9,297.6z"/>
			</g>
		</g>
		<g>
			<g>
				<path class="st4" d="M380.4,284.6c4.8,0,9.5,0,14.3,0c0.7,0,1.3,0,2,0c1.6,0,3.1-1.4,3-3c-0.1-1.6-1.3-3-3-3
					c-4.8,0-9.5,0-14.3,0c-0.7,0-1.3,0-2,0c-1.6,0-3.1,1.4-3,3C377.5,283.3,378.8,284.6,380.4,284.6L380.4,284.6z"/>
			</g>
		</g>
	</g>
</g>
<g id="方形" class="st0">
	<polygon class="st1" points="257.1,25.9 176.9,106 176.9,130.9 255.7,209.7 335.9,128.2 337.2,106 	"/>
	<g class="st2">
		<g>
			<path class="st4" d="M179,108.7c2.7-2.7,5.3-5.3,8-8c6.4-6.4,12.8-12.8,19.2-19.2c7.8-7.8,15.5-15.5,23.3-23.3
				c6.7-6.7,13.4-13.4,20.1-20.1c2.2-2.2,4.4-4.4,6.6-6.6c1-1,2.2-2,3.1-3.1c0,0,0.1-0.1,0.1-0.1c-1.4,0-2.8,0-4.2,0
				c2.7,2.7,5.3,5.3,8,8c6.4,6.4,12.8,12.8,19.2,19.2c7.8,7.8,15.5,15.5,23.3,23.3c6.7,6.7,13.4,13.4,20.1,20.1
				c2.2,2.2,4.4,4.4,6.6,6.6c1,1,2,2.2,3.1,3.1c0,0,0.1,0.1,0.1,0.1c0-1.4,0-2.8,0-4.2c-2.7,2.7-5.3,5.3-8,8
				c-6.4,6.4-12.8,12.8-19.2,19.2c-7.8,7.8-15.5,15.5-23.3,23.3c-6.7,6.7-13.4,13.4-20.1,20.1c-2.2,2.2-4.4,4.4-6.6,6.6
				c-1,1-2.2,2-3.1,3.1c0,0-0.1,0.1-0.1,0.1c1.4,0,2.8,0,4.2,0c-2.7-2.7-5.3-5.3-8-8c-6.4-6.4-12.8-12.8-19.2-19.2
				c-7.8-7.8-15.5-15.5-23.3-23.3c-6.7-6.7-13.4-13.4-20.1-20.1c-3.3-3.3-6.4-6.6-9.8-9.8c0,0-0.1-0.1-0.1-0.1
				c-2.7-2.7-7,1.5-4.2,4.2c2.7,2.7,5.3,5.3,8,8c6.4,6.4,12.8,12.8,19.2,19.2c7.8,7.8,15.5,15.5,23.3,23.3
				c6.7,6.7,13.4,13.4,20.1,20.1c3.3,3.3,6.4,6.6,9.8,9.8c0,0,0.1,0.1,0.1,0.1c1.1,1.1,3.1,1.1,4.2,0c2.7-2.7,5.3-5.3,8-8
				c6.4-6.4,12.8-12.8,19.2-19.2c7.8-7.8,15.5-15.5,23.3-23.3c6.7-6.7,13.4-13.4,20.1-20.1c3.3-3.3,6.6-6.4,9.8-9.8
				c0,0,0.1-0.1,0.1-0.1c1.1-1.1,1.1-3.1,0-4.2c-2.7-2.7-5.3-5.3-8-8c-6.4-6.4-12.8-12.8-19.2-19.2c-7.8-7.8-15.5-15.5-23.3-23.3
				c-6.7-6.7-13.4-13.4-20.1-20.1c-3.3-3.3-6.4-6.6-9.8-9.8c0,0-0.1-0.1-0.1-0.1c-1.1-1.1-3.1-1.1-4.2,0c-2.7,2.7-5.3,5.3-8,8
				c-6.4,6.4-12.8,12.8-19.2,19.2c-7.8,7.8-15.5,15.5-23.3,23.3c-6.7,6.7-13.4,13.4-20.1,20.1c-3.3,3.3-6.6,6.4-9.8,9.8
				c0,0-0.1,0.1-0.1,0.1C172.1,107.2,176.3,111.4,179,108.7z"/>
		</g>
	</g>
	<g class="st2">
		<g>
			
				<rect x="200.5" y="49.6" transform="matrix(0.7071 -0.7071 0.7071 0.7071 4.682381e-02 213.2382)" class="st4" width="113.8" height="113.8"/>
		</g>
		<g>
			<g>
				<path class="st4" d="M254.4,187.1c-0.6,6.5-1.3,13-1.9,19.4c-0.1,0.9-0.2,1.9-0.3,2.8c1.7-0.7,3.4-1.4,5.1-2.1
					c-2.6-2.6-5.2-5.2-7.8-7.8c-6.2-6.2-12.4-12.4-18.6-18.6c-7.6-7.5-15.1-15.1-22.7-22.6c-6.5-6.5-13-13-19.5-19.5
					c-2.1-2.1-4.3-4.3-6.4-6.4c-1-1-2-2.1-3.1-3.1c0,0-0.1-0.1-0.1-0.1c0.3,0.7,0.6,1.4,0.9,2.1c0-7.2,0-14.4,0-21.6
					c0-1,0-2.1,0-3.1c-1.7,0.7-3.4,1.4-5.1,2.1c2.6,2.7,5.3,5.4,8,8.1c6.4,6.4,12.7,12.9,19.1,19.3c7.7,7.8,15.5,15.6,23.3,23.4
					c6.7,6.7,13.4,13.4,20.1,20.1c2.2,2.2,4.4,4.4,6.7,6.5c1.2,1.1,2.4,2.6,3.8,3.4c0.5,0.3,1.1,0.5,1.7,0.5c1.6,0.2,3-1.5,3-3
					c0-1.7-1.4-2.8-3-3c0.5,0,1.1,0.2,1.5,0.4c0,0,0,0-0.1,0c-0.4-0.2,0.7,0.6,0.4,0.3c-0.2-0.2-0.4-0.3-0.5-0.5
					c-0.6-0.5-1.2-1.1-1.8-1.7c-2.1-2-4.1-4-6.1-6c-6.5-6.4-12.9-12.8-19.3-19.3c-7.7-7.7-15.4-15.4-23-23.2
					c-6.6-6.7-13.2-13.3-19.8-20c-3.2-3.2-6.2-6.6-9.5-9.7c0,0-0.1-0.1-0.1-0.1c-1.8-1.9-5.1-0.5-5.1,2.1c0,4.6,0,9.1,0,13.7
					c0,2.8,0,5.7,0,8.5c0,1.6-0.3,3.3,0.9,4.6c1.2,1.3,2.4,2.4,3.7,3.6c2.9,2.9,5.8,5.8,8.7,8.7c8.6,8.5,17.2,17.1,25.7,25.6
					c8.7,8.7,17.5,17.4,26.2,26.1c4.6,4.6,9.1,9.3,13.8,13.8c0.1,0.1,0.1,0.1,0.2,0.2c2,2,4.9,0.4,5.1-2.1c0.6-6.5,1.3-13,1.9-19.4
					c0.1-0.9,0.2-1.9,0.3-2.8c0.2-1.6-1.5-3-3-3C255.7,184.1,254.6,185.4,254.4,187.1z"/>
			</g>
		</g>
		<g>
			<g>
				<path class="st4" d="M258.1,211.4c3.7-3.7,7.4-7.4,11-11.2c8.3-8.4,16.7-16.9,25-25.3c9-9,17.9-18.1,26.9-27.1
					c5.5-5.6,11-11.1,16.5-16.7c0.4-0.4,0.7-0.7,1.1-1.1c1.1-1.3,1-3.3,1.1-4.9c0.4-5.7,0.7-11.4,1.1-17.2c0-0.5,0.1-0.9,0.1-1.4
					c0.2-2.7-3.4-3.9-5.1-2.1c-3.7,3.7-7.5,7.5-11.2,11.2c-8.4,8.4-16.9,16.9-25.3,25.3c-9,9-17.9,17.9-26.9,26.9
					c-5.3,5.3-10.6,10.6-15.9,15.9c-0.3,0.3-0.6,0.5-0.8,0.8c-1.3,1.4-1.1,4.3-1.2,6.1c-0.5,5.8-0.9,11.5-1.4,17.3
					c0,0.4-0.1,0.9-0.1,1.3c-0.1,1.6,1.5,3,3,3c1.7,0,2.9-1.4,3-3c0.5-6.6,1.1-13.2,1.6-19.8c0.1-0.9,0.2-1.9,0.2-2.8
					c-0.3,0.7-0.6,1.4-0.9,2.1c2.7-2.7,5.3-5.3,8-8c6.4-6.4,12.7-12.7,19.1-19.1c7.7-7.7,15.4-15.4,23.1-23.1
					c6.7-6.7,13.4-13.4,20.1-20.1c2.2-2.2,4.4-4.4,6.6-6.6c1-1,2.2-2,3.2-3.2c0,0,0.1-0.1,0.1-0.1c-1.7-0.7-3.4-1.4-5.1-2.1
					c-0.4,6.2-0.8,12.4-1.2,18.6c-0.1,0.9-0.1,1.8-0.2,2.7c0.3-0.7,0.6-1.4,0.9-2.1c-2.7,2.7-5.4,5.4-8,8.1
					c-6.4,6.5-12.8,12.9-19.2,19.4c-7.8,7.9-15.5,15.7-23.3,23.6c-6.7,6.8-13.4,13.5-20.1,20.3c-3.3,3.3-6.6,6.5-9.8,9.9
					c0,0-0.1,0.1-0.1,0.1C251.1,209.9,255.3,214.2,258.1,211.4z"/>
			</g>
		</g>
		<g>
			<g>
				<path class="st4" d="M189.1,121.3c0,7.3,0,14.5,0,21.8c0,1,0,2.1,0,3.1c0,3.9,6,3.9,6,0c0-7.3,0-14.5,0-21.8c0-1,0-2.1,0-3.1
					C195.1,117.4,189.1,117.4,189.1,121.3L189.1,121.3z"/>
			</g>
		</g>
		<g>
			<g>
				<path class="st4" d="M204.3,136.5c0,7.3,0,14.5,0,21.8c0,1,0,2.1,0,3.1c0,3.9,6,3.9,6,0c0-7.3,0-14.5,0-21.8c0-1,0-2.1,0-3.1
					C210.3,132.6,204.3,132.6,204.3,136.5L204.3,136.5z"/>
			</g>
		</g>
		<g>
			<g>
				<path class="st4" d="M219.5,151.7c0,7.3,0,14.5,0,21.8c0,1,0,2.1,0,3.1c0,3.9,6,3.9,6,0c0-7.3,0-14.5,0-21.8c0-1,0-2.1,0-3.1
					C225.5,147.8,219.5,147.8,219.5,151.7L219.5,151.7z"/>
			</g>
		</g>
		<g>
			<g>
				<path class="st4" d="M234,167.5c0,6.7,0,13.4,0,20c0,0.9,0,1.9,0,2.8c0,3.9,6,3.9,6,0c0-6.7,0-13.4,0-20c0-0.9,0-1.9,0-2.8
					C240,163.7,234,163.7,234,167.5L234,167.5z"/>
			</g>
		</g>
		<g>
			<g>
				<path class="st4" d="M319.7,122.3c0,5.8,0,11.5,0,17.3c0,0.8,0,1.6,0,2.4c0,1.6,1.4,3.1,3,3c1.6-0.1,3-1.3,3-3
					c0-5.8,0-11.5,0-17.3c0-0.8,0-1.6,0-2.4c0-1.6-1.4-3.1-3-3C321.1,119.3,319.7,120.6,319.7,122.3L319.7,122.3z"/>
			</g>
		</g>
		<g>
			<g>
				<path class="st4" d="M304.5,136.5c0,6.1,0,12.1,0,18.2c0,0.9,0,1.7,0,2.6c0,1.6,1.4,3,3,3c1.6,0,3-1.4,3-3c0-6.1,0-12.1,0-18.2
					c0-0.9,0-1.7,0-2.6c0-1.6-1.4-3-3-3C305.9,133.5,304.5,134.8,304.5,136.5L304.5,136.5z"/>
			</g>
		</g>
		<g>
			<g>
				<path class="st4" d="M289.3,151.7c0,6.1,0,12.1,0,18.2c0,0.9,0,1.7,0,2.6c0,1.6,1.4,3,3,3c1.6,0,3-1.4,3-3c0-6.1,0-12.1,0-18.2
					c0-0.9,0-1.7,0-2.6c0-1.6-1.4-3-3-3C290.7,148.7,289.3,150,289.3,151.7L289.3,151.7z"/>
			</g>
		</g>
		<g>
			<g>
				<path class="st4" d="M274.8,167.5c0,5.5,0,10.9,0,16.4c0,0.8,0,1.5,0,2.3c0,1.6,1.4,3.1,3,3c1.6-0.1,3-1.3,3-3
					c0-5.5,0-10.9,0-16.4c0-0.8,0-1.5,0-2.3c0-1.6-1.4-3.1-3-3C276.2,164.6,274.8,165.9,274.8,167.5L274.8,167.5z"/>
			</g>
		</g>
	</g>
</g>
<g id="三角">
	<polygon class="st3" points="76.1,170.8 103.8,162.5 207.8,259.8 37.4,311.2 	"/>
	<g>
		<polygon class="st5" points="76.1,170.8 37.6,311.9 180.3,268.9 		"/>
	</g>
	<g>
		<g>
			<g>
				<path class="st4" d="M73.2,170c-1.3,4.7-2.6,9.4-3.9,14.1c-3.1,11.2-6.1,22.4-9.2,33.7c-3.7,13.6-7.4,27.1-11.1,40.7
					c-3.2,11.8-6.4,23.6-9.7,35.4c-1.5,5.7-3.3,11.3-4.7,17.1c0,0.1,0,0.2-0.1,0.2c-0.6,2.2,1.5,4.4,3.7,3.7
					c4.7-1.4,9.5-2.9,14.2-4.3c11.4-3.4,22.8-6.9,34.2-10.3c13.7-4.1,27.4-8.3,41.1-12.4c11.9-3.6,23.8-7.2,35.7-10.8
					c5.8-1.7,11.6-3.3,17.3-5.2c0.1,0,0.2,0,0.2-0.1c2.1-0.6,3-3.4,1.3-5c-3.5-3.3-6.9-6.5-10.4-9.8c-8.3-7.8-16.6-15.6-24.9-23.4
					c-10-9.4-20.1-18.9-30.1-28.3c-8.7-8.2-17.4-16.4-26.1-24.5c-4.2-4-8.3-8-12.6-11.9c-0.1-0.1-0.1-0.1-0.2-0.2
					c-2.8-2.6-7.1,1.6-4.2,4.2c3.5,3.3,6.9,6.5,10.4,9.8c8.3,7.8,16.6,15.6,24.9,23.4c10,9.4,20.1,18.9,30.1,28.3
					c8.7,8.2,17.4,16.4,26.1,24.5c2.9,2.7,5.7,5.4,8.6,8.1c1.3,1.3,2.6,2.6,4,3.8c0.1,0.1,0.1,0.1,0.2,0.2c0.4-1.7,0.9-3.3,1.3-5
					c-4.7,1.4-9.5,2.9-14.2,4.3c-11.4,3.4-22.8,6.9-34.2,10.3c-13.7,4.1-27.4,8.3-41.1,12.4c-11.9,3.6-23.8,7.2-35.7,10.8
					c-3.9,1.2-7.8,2.4-11.7,3.5c-1.9,0.6-3.8,1-5.6,1.7c-0.1,0-0.2,0-0.2,0.1c1.2,1.2,2.5,2.5,3.7,3.7c1.3-4.7,2.6-9.4,3.9-14.1
					c3.1-11.2,6.1-22.4,9.2-33.7c3.7-13.6,7.4-27.1,11.1-40.7c3.2-11.8,6.4-23.6,9.7-35.4c1.5-5.7,3.3-11.3,4.7-17.1
					c0-0.1,0-0.2,0.1-0.2C80,167.9,74.2,166.3,73.2,170z"/>
			</g>
		</g>
		<g>
			<g>
				<path class="st4" d="M210.1,258.5c-3.5-3.3-6.9-6.5-10.4-9.8c-8.3-7.8-16.6-15.6-24.9-23.4c-10-9.4-20.1-18.9-30.1-28.3
					c-8.7-8.2-17.4-16.4-26.1-24.5c-4.2-4-8.3-8-12.6-11.9c-0.1-0.1-0.1-0.1-0.2-0.2c-0.8-0.7-1.9-1.1-2.9-0.8
					c-8.1,2.4-16.1,4.9-24.2,7.3c-1.2,0.3-2.3,0.7-3.5,1c-2.1,0.6-3,3.4-1.3,5c3.5,3.3,6.9,6.5,10.4,9.8
					c8.3,7.8,16.6,15.6,24.9,23.4c10,9.4,20.1,18.9,30.1,28.3c8.7,8.2,17.4,16.4,26.1,24.5c4.2,4,8.3,8,12.6,11.9
					c0.1,0.1,0.1,0.1,0.2,0.2c0.8,0.7,1.9,1.1,2.9,0.8c8.1-2.4,16.1-4.9,24.2-7.3c1.2-0.3,2.3-0.7,3.5-1c3.7-1.1,2.1-6.9-1.6-5.8
					c-8.1,2.4-16.1,4.9-24.2,7.3c-1.2,0.3-2.3,0.7-3.5,1c1,0.3,1.9,0.5,2.9,0.8c-3.5-3.3-6.9-6.5-10.4-9.8
					c-8.3-7.8-16.6-15.6-24.9-23.4c-10-9.4-20.1-18.9-30.1-28.3c-8.7-8.2-17.4-16.4-26.1-24.5c-2.9-2.7-5.7-5.4-8.6-8.1
					c-1.3-1.3-2.6-2.6-4-3.8c-0.1-0.1-0.1-0.1-0.2-0.2c-0.4,1.7-0.9,3.3-1.3,5c8.1-2.4,16.1-4.9,24.2-7.3c1.2-0.3,2.3-0.7,3.5-1
					c-1-0.3-1.9-0.5-2.9-0.8c3.5,3.3,6.9,6.5,10.4,9.8c8.3,7.8,16.6,15.6,24.9,23.4c10,9.4,20.1,18.9,30.1,28.3
					c8.7,8.2,17.4,16.4,26.1,24.5c4.2,4,8.3,8,12.6,11.9c0.1,0.1,0.1,0.1,0.2,0.2C208.7,265.3,213,261.1,210.1,258.5z"/>
			</g>
		</g>
		<g>
			<g>
				<path class="st4" d="M91.9,186.7c7.2-2.2,14.4-4.3,21.6-6.5c1-0.3,2.1-0.6,3.1-0.9c3.7-1.1,2.1-6.9-1.6-5.8
					c-7.2,2.2-14.4,4.3-21.6,6.5c-1,0.3-2.1,0.6-3.1,0.9C86.7,182,88.2,187.8,91.9,186.7L91.9,186.7z"/>
			</g>
		</g>
		<g>
			<g>
				<path class="st4" d="M107,199.6c7.6-2.3,15.3-4.6,22.9-6.9c1.1-0.3,2.2-0.7,3.3-1c3.7-1.1,2.1-6.9-1.6-5.8
					c-7.6,2.3-15.3,4.6-22.9,6.9c-1.1,0.3-2.2,0.7-3.3,1C101.7,194.9,103.3,200.7,107,199.6L107,199.6z"/>
			</g>
		</g>
		<g>
			<g>
				<path class="st4" d="M121.5,213.5c7.6-2.3,15.3-4.6,22.9-6.9c1.1-0.3,2.2-0.7,3.3-1c3.7-1.1,2.1-6.9-1.6-5.8
					c-7.6,2.3-15.3,4.6-22.9,6.9c-1.1,0.3-2.2,0.7-3.3,1C116.2,208.8,117.8,214.6,121.5,213.5L121.5,213.5z"/>
			</g>
		</g>
		<g>
			<g>
				<path class="st4" d="M136.9,227.9c7.6-2.3,15.3-4.6,22.9-6.9c1.1-0.3,2.2-0.7,3.3-1c3.7-1.1,2.1-6.9-1.6-5.8
					c-7.6,2.3-15.3,4.6-22.9,6.9c-1.1,0.3-2.2,0.7-3.3,1C131.7,223.2,133.2,229,136.9,227.9L136.9,227.9z"/>
			</g>
		</g>
		<g>
			<g>
				<path class="st4" d="M153.4,242.8c6.8-2,13.6-4.1,20.3-6.1c1-0.3,2-0.6,3-0.9c3.7-1.1,2.1-6.9-1.6-5.8c-6.8,2-13.6,4.1-20.3,6.1
					c-1,0.3-2,0.6-3,0.9C148.1,238.2,149.6,244,153.4,242.8L153.4,242.8z"/>
			</g>
		</g>
		<g>
			<g>
				<path class="st4" d="M168.8,257.2c6.8-2,13.6-4.1,20.3-6.1c1-0.3,2-0.6,3-0.9c3.7-1.1,2.1-6.9-1.6-5.8c-6.8,2-13.6,4.1-20.3,6.1
					c-1,0.3-2,0.6-3,0.9C163.5,252.6,165.1,258.4,168.8,257.2L168.8,257.2z"/>
			</g>
		</g>
	</g>
</g>
<g id="手" class="st0">
	<path class="st6" d="M179.5,244.8c0,0,10.2,11.1,7.3,18.6c-2.9,7.5-15.5,23.6-19.7,27c-4.2,3.4-18.1,18.7-19.1,23.1
		c-1,4.4-3.6,26-2.8,32.7c0.8,6.7,8.3,48.2,8.3,48.2s-2.5,9.5,13,25s99.5,102.5,99.5,102.5h-40l-18.3-18.6c0,0-52.7-52.4-59.7-67.4
		s-13-27-15-46s-11-51-20-57s-37-6-47-10s-13-15-15-16s-5-9-5-9s-9-4-10-13s7-15,23-10s29,16,54,8s33-18,33-18
		S166,232.8,179.5,244.8z"/>
	<path class="st6" d="M286.9,201.9c0,0-17-12-24-6s-11,15-9,20s21,18,40,30s34,26,48,57s21,39,21,47s-11,153-11,153h31
		c0,0,3-158,0-167s-32-69-32-69s-7-18-4-37s5-49-2-62s-25-25-25-25s-9-8-13-13s-15-17-29-10s0,26,0,26s16,26,16,31
		S297.9,196.9,286.9,201.9z"/>
	<path class="st1" d="M271.8,125.7c0,0,2.8,18.2,8.4,26.2c5.6,8,14.4,29.4,13.5,37.2c-0.9,7.8-6.9,12.8-6.9,12.8s-17-12-24-6
		s-13,14-9,20s4.9,10.6,20.4,18.8c15.6,8.2,32.2,17.9,41.4,27c9.2,9.2,18.6,25.3,18.6,25.3l14.4,25.3c0,0,14.3-7.4,17.7-10.4
		c3.5-3.1-15.5-35.1-15.5-35.1s-6-16-4-37s5.6-43.3,1.8-52.6c-3.8-9.4-15.8-24.4-28.8-34.4s-13-10-13-10S299.7,103.6,271.8,125.7z"
		/>
	<path class="st1" d="M112.9,282.9c0,0-20.4,2.3-33.7,1.6c-13.3-0.6-20.3-9.6-20.3-9.6s-18.1-10.7-21.1-1.3
		c-2.9,9.3-10.9-3.7-2.9,9.3s8,13,8,13s3.9,13,8.4,16.5s19,12.9,31.3,12.7c12.3-0.2,22.3-2.2,30.3,7.8s13.3,22.4,16.2,30.2
		c2.8,7.8,2.5,14.4,2.5,14.4s15.2,1.6,17.7,0.5c2.6-1.1-4.4-32.1-4.4-32.1s-2-22,3-32s19-23,19-23s21-23,20-27s-1-17-7-19
		s-18.7,1.6-18.7,1.6S136.9,280.9,112.9,282.9z"/>
	<g class="st2">
		<g>
			<g>
				<path class="st4" d="M385.9,502.9c-0.2-5.3,0-10.7,0.1-16.1c0.1-12,0.2-23.9,0.3-35.9c0.1-14.3,0.2-28.5,0.3-42.8
					c0.1-12.1,0.2-24.1,0.3-36.2c0-3.8,0.1-7.6,0.1-11.4c0-5.1,0.1-10.2-0.4-15.2c-0.6-6-2.1-11.4-4.2-17
					c-8.4-21.6-20.4-41.5-28.2-63.3c-1.9-5.3-3.7-10.7-4.3-16.3c-0.7-5.5-0.6-11.1-0.2-16.6c0.8-11.2,3-22.2,3.4-33.4
					c0.4-10.9-1.3-21.8-6-31.7c-3.7-7.8-9.5-14.3-16-20c-6.4-5.7-13.8-10.5-19.3-17.2c-4.7-5.7-8.8-12.2-16.2-14.5
					c-8.6-2.7-20.2,0.6-24.7,8.7c-4.4,7.9,0.7,17,4.8,23.8c5.2,8.5,9.9,17.3,13.1,26.8c1.8,5.2,3.3,10.8,2.7,16.3
					c-0.2,2.4-1,5-2.5,7c-0.2,0.3-0.4,0.5-0.7,0.7c0.1-0.1-0.5,0.3-0.1,0.1c-0.4,0.2,0.1,0.1-0.4,0c0.4,0-0.4-0.1-0.6-0.2
					c-1.5-0.5-3-1.5-4.5-2.2c-1.9-1-3.9-1.8-6-2.5c-3.9-1.4-8.2-2.2-12.4-1.4c-8.2,1.4-13.5,10.1-13.3,18c0.1,7,4.5,13,9.5,17.5
					c5.5,4.9,12,8.7,18.6,12.2c7,3.8,14,7.4,20.4,12c7.9,5.7,14.9,12.5,21.1,20c6.2,7.5,11.6,15.8,16.2,24.4
					c5.1,9.4,9.8,19.2,14.2,28.9c2.3,5.1,4.5,10.3,6.1,15.7c1.3,4.3,2.5,8.8,2.7,13.3c0.1,1.9-0.1,3.8-0.2,5.7
					c-0.6,9.2-1.3,18.3-2,27.5c-1,13.1-2.1,26.1-3.1,39.1c-1.1,13.3-2.1,26.6-3.2,39.9c-0.7,9.7-1.5,19.5-2.1,29.2
					c-0.1,2.3-0.3,4.6-0.3,6.9c0,1.6,1.4,3,3,3c10.3,0,20.7,0,31,0c3.9,0,3.9-6,0-6c-10.3,0-20.7,0-31,0c1,1,2,2,3,3
					c0-6.6,0.7-13.2,1.2-19.8c0.9-11.8,1.8-23.7,2.7-35.5c2-25,4.1-50,5.9-75c0.4-5.9,1.2-11.9,1.1-17.8c-0.2-9.3-3.8-18.7-7.4-27.2
					c-4.1-9.8-8.9-19.4-13.7-28.9c-8.8-17.3-20.2-33.6-35.2-46.2c-6.8-5.7-14.2-10.5-22-14.6c-6.2-3.2-12.4-6.5-18.1-10.5
					c-5-3.5-10.5-8.2-12-14.3c-1.4-5.8,2.1-14,8.9-14.7c3.7-0.4,7.5,0.8,10.9,2.3c3.3,1.4,6.6,4.1,10.2,4.3c4.5,0.3,7.1-4,8.6-7.7
					c2-5.2,1.7-11,0.6-16.4c-1.1-5.5-3.2-10.8-5.4-15.9c-2-4.6-4-9.4-6.6-13.7c-2.1-3.7-4.6-7.2-6.5-11c-1.6-3.1-3.5-6.9-3-10.6
					c0.5-4.1,4.6-7,8.2-8.2c3.6-1.2,7.8-1.4,11.4,0c6.4,2.5,10,9.7,14.3,14.6c5.8,6.4,13.4,11.3,19.7,17.1
					c6.1,5.7,11.3,12.2,14.3,20.1c8.2,21.2,0.6,43.2,0.1,64.9c-0.1,5.6,0.3,11.2,1.4,16.7c1.2,5.6,3.2,11,5.3,16.3
					c4.1,10.5,9,20.7,13.9,30.9c5,10.3,10,20.7,13.9,31.5c3.3,9.1,3.2,18.7,3.1,28.2c-0.1,23.3-0.3,46.6-0.5,69.9
					c-0.2,22.3-0.4,44.6-0.5,67c0,1.4-0.1,2.9,0,4.3C380.1,506.7,386.1,506.8,385.9,502.9z"/>
			</g>
		</g>
		<g>
			<path class="st4" d="M309.4,127c3.4,4,5.7,8.6,7.5,13.1c1.9,4.6,3.2,9.2,4.5,13.8c0.6,2.3,1.3,4.7,1.7,7.1
				c0.4,2.4,0.8,4.8,0.9,7.2c0.3,4.8,0.1,9.7-0.6,14.4c0.2-4.8,0-9.5-0.8-14.2c-0.4-2.3-1-4.6-1.6-6.9c-0.7-2.2-1.5-4.4-2.4-6.7
				c-1.7-4.4-3.5-8.8-5.7-12.9c-2.2-4.1-4.7-7.9-7.8-10.9L309.4,127z"/>
		</g>
		<g>
			<path class="st4" d="M278,148c1.4-1.7,3.2-2.9,4.9-3.9c1.8-0.9,3.6-1.6,5.4-2c3.7-0.8,7.3-0.9,10.8-0.6c3.5,0.4,7,1.1,10.2,2.4
				c3.2,1.2,6.4,2.9,8.7,5.4c-2.7-2-6-3.1-9.2-3.7c-3.2-0.6-6.6-0.8-9.8-0.5c-3.2,0.3-6.4,0.9-9.2,2.1c-2.8,1.2-5.2,2.9-6.3,5
				L278,148z"/>
		</g>
		<g>
			<path class="st4" d="M289.6,162.7c5.6-1.1,11.3-1.6,16.9-1.4c2.8,0.1,5.6,0.3,8.4,0.6c1.4,0.2,2.7,0.4,4.1,0.6
				c0.7,0.1,1.4,0.3,2.1,0.5c0.7,0.3,1.3,0.8,1.5,1.4c-0.4-0.6-1-0.9-1.6-1c-0.6-0.1-1.3-0.1-2-0.1c-1.4,0.1-2.7,0.1-4.1,0.2
				c-2.7,0.2-5.4,0.6-8,1.1c-5.3,1-10.4,2.6-15.2,4.7L289.6,162.7z"/>
		</g>
		<g>
			<path class="st4" d="M293.8,175.7c9.8-3,20.2-2.1,28.7,1.9c-9.2-1.8-18.7,0-25.9,4.5L293.8,175.7z"/>
		</g>
		<g>
			<path class="st4" d="M323.7,167c5.1,0.8,9.9,2.9,13.8,5.8c4,2.9,7.2,6.4,9.8,10.2c-3.5-3-7.4-5.6-11.5-7.2
				c-4.1-1.6-8.4-2.3-12.5-1.9L323.7,167z"/>
		</g>
		<g>
			<path class="st4" d="M292.3,194.6c4.6-0.7,9.3-1.6,14.1-2.2c4.8-0.6,9.7-1,14.6-0.7c5,0.3,9.9,1.7,14.2,3.9
				c4.3,2.2,8.2,5,11.8,8.1c-4-2.6-8.1-4.9-12.5-6.5c-4.4-1.6-9-2.3-13.5-2c-4.6,0.3-9.1,1.2-13.6,2.4c-4.5,1.2-9,2.6-13.7,3.9
				L292.3,194.6z"/>
		</g>
		<g>
			<path class="st4" d="M272.8,230.6c1.3-1.6,3-2.8,4.5-3.6c1.6-0.8,3.1-1.4,4.6-1.9c2.9-1,5.8-1.9,8.7-2.7
				c5.9-1.6,11.8-2.7,17.8-3.4c12-1.4,24.1-1.1,35.9,0.8c-11.9-0.8-23.8,0.1-35.3,2.6c-5.7,1.3-11.4,2.9-16.8,5
				c-2.7,1-5.4,2.2-8.1,3.4c-2.6,1.2-4.9,2.5-5.8,4L272.8,230.6z"/>
		</g>
		<g>
			<path class="st4" d="M309.3,252.7c11.9-3.4,24.2-4.7,36.1-4c-11.9,1.6-23.3,5.2-33.5,10.5L309.3,252.7z"/>
		</g>
		<g>
			<path class="st4" d="M321.9,268.2c6.9-4.9,14.6-8.1,22.4-9.5c-7.1,3.6-13.1,8.6-17.6,14.5L321.9,268.2z"/>
		</g>
		<g>
			<path class="st4" d="M332.7,281.8c8-2.3,16.3-2.1,23.5,0.3c-7.6-0.1-14.9,2.2-20.6,6L332.7,281.8z"/>
		</g>
		<g>
			<path class="st4" d="M348.5,308.1l4.6-0.7c1.5-0.2,3-0.4,4.5-0.7c1.4-0.3,2.8-0.7,4.1-1.4c1.3-0.6,2.5-1.5,3.5-2.8
				c-0.4,1.5-1.3,3-2.4,4.2c-1.1,1.2-2.5,2.3-3.8,3.2c-1.4,0.9-2.8,1.7-4.1,2.5l-4.1,2.3L348.5,308.1z"/>
		</g>
	</g>
	<g class="st2">
		<g>
			<g>
				<path class="st4" d="M228.5,520.4c-1.7-2.4-3.9-4.5-5.9-6.6c-3.4-3.5-6.9-7-10.3-10.5c-6.9-7-14-13.9-20.9-20.8
					c-3.2-3.3-6.3-6.7-9.4-10.1c-6.2-6.8-12.5-13.6-18.3-20.7c-10.4-12.6-19.9-26.7-23.9-42.7c-1.9-7.6-2.4-15.6-3.5-23.3
					c-1.2-8-2.6-16-4.7-23.8c-2.1-7.5-4.8-15.1-9.1-21.6c-4-6-9.6-10.3-16.2-13c-12.7-5-26.5-3.6-39.3-8c-6-2.1-10.5-5.8-14.1-11.2
					c-2.2-3.4-3.5-7.2-5.6-10.7c-1.9-3.2-4.5-5.5-7.1-8.1c-0.9-0.9-1.6-1.8-2-2.7c-0.5-1.4-0.6-2.8-0.3-4.3c0.3-1.6,0.7-2.7,1.5-4
					c0.1-0.1,0.1-0.2,0.4-0.5c0.2-0.2,0.4-0.4,0.7-0.6c0.2-0.2,0.8-0.5,1.4-0.9c0.1,0,0.5-0.2,0.1-0.1c0.1-0.1,0.3-0.1,0.4-0.2
					c0.3-0.1,0.6-0.2,0.9-0.3c0.7-0.2,0.8-0.2,1.7-0.2c1.6-0.1,2.7,0.1,4.3,0.5c3.9,1,7.6,2.7,11.3,4.2c6.9,2.8,13.7,6,21,7.8
					c8.2,2.1,16.5,2.1,24.7,0.4c15.9-3.2,30.9-11,42.6-22.1c2.9-2.7,5.5-5.7,8-8.7c2.4-2.9,4.8-5.8,7.6-8.3c2.4-2,5.2-3.6,8.3-3.6
					c2.9,0,5.5,1.5,7.4,3.9c4.5,5.7,3.5,13.3,0.3,19.5c-3.6,6.9-8.8,12.7-14.3,18.1c-5.4,5.3-11,10.5-15.6,16.6
					c-4.5,5.9-7.2,12.6-8.3,20c-2.3,15.9,0.9,32.2,3.9,47.8c1.5,7.4,3.1,14.8,4.2,22.3c0.7,4.4,1.3,8.9,2.9,13.1
					c1.7,4.3,4.4,8,7.5,11.5c6.3,7,13,13.6,19.6,20.4c8.5,8.7,17,17.4,25.5,26.2c9,9.3,18.1,18.5,27.1,27.8
					c7.6,7.8,15.2,15.6,22.8,23.4c2.6,2.7,5.1,5.3,7.7,8c0.7-1.7,1.4-3.4,2.1-5.1c-11.6-0.1-23.2-0.1-34.9-0.2c-1.6,0-3.3,0-4.9,0
					c-3.9,0-3.9,6,0,6c11.6,0.1,23.2,0.1,34.9,0.2c1.6,0,3.3,0,4.9,0c2.6,0,3.9-3.3,2.1-5.1c-6.2-6.5-12.4-12.9-18.7-19.3
					c-8.7-9-17.5-17.9-26.2-26.8c-9.1-9.3-18.1-18.6-27.2-27.8c-7.4-7.6-14.8-15.2-22.2-22.8c-3.6-3.7-7.3-7.3-10.5-11.3
					c-2.8-3.5-4.5-7.4-5.5-11.7c-0.9-4-1.3-8-2-12c-2.8-15.7-6.8-31.2-7.8-47.2c-0.5-7.4-0.3-14.9,1.7-22c2-6.9,6.4-12.6,11.3-17.8
					c5.1-5.4,10.8-10.3,15.7-15.9c5.5-6.3,11-13.8,12.5-22.2c1.3-7.7-1.1-15.8-7.5-20.5c-3.1-2.3-6.9-3.1-10.6-2.6
					c-3.9,0.5-7.3,2.6-10.2,5.1c-2.9,2.4-5.3,5.4-7.6,8.3c-2.6,3.1-5.2,6.1-8.1,8.9c-5.8,5.5-12.4,10-19.6,13.6
					c-7.2,3.6-14.9,6.2-22.9,7.5c-7.6,1.2-15.3,0.4-22.6-1.9c-7.4-2.3-14.4-5.7-21.6-8.5c-6.3-2.5-14.1-5.3-20.4-1
					c-5.8,4-7.9,13.3-3.9,19.2c1.9,2.7,4.6,4.6,6.6,7.1c2.6,3.1,3.8,7,5.7,10.5c3.4,6.1,8.4,11.6,14.7,14.6
					c6.6,3.1,13.8,4.3,20.9,5.3c12.3,1.6,26.6,2.6,34.6,13.4c4.5,6.1,7.1,13.5,9.1,20.7c2.3,7.9,3.7,16,4.9,24.2
					c1.1,7.8,1.6,15.9,3.5,23.5c2.1,8.2,5.5,16.1,9.8,23.4c8.9,15.4,21.1,28.6,33,41.7c3.4,3.7,6.7,7.5,10.2,11.1
					c3,3.1,6.1,6.1,9.2,9.1c7.4,7.4,14.9,14.7,22.2,22.3c1.2,1.2,2.4,2.5,3.6,3.8c0.4,0.4,0.8,0.9,1.2,1.3c0.1,0.2,0.3,0.4,0.4,0.5
					c0.5,0.5-0.5-0.6-0.1-0.1c0.9,1.3,2.6,1.9,4.1,1.1C228.7,523.7,229.5,521.7,228.5,520.4z"/>
			</g>
		</g>
		<g>
			<path class="st4" d="M40.1,289.1c5.2,5.1,11.7,9.1,18.6,12.3c6.9,3.1,14.4,5.3,22.1,6c-7.7,0.4-15.6-0.9-23.1-3.1
				c-3.8-1.1-7.5-2.6-11.1-4.3c-3.6-1.7-7.1-3.8-10.4-6.2L40.1,289.1z"/>
		</g>
		<g>
			<path class="st4" d="M150.1,260.2c9.2,6.1,19.8,10.7,31,13.3c-11.5-0.2-23.2-2.6-34.2-7.1L150.1,260.2z"/>
		</g>
		<g>
			<path class="st4" d="M147.7,267.3c3.6,9.1,8.7,17.8,15.1,25.6c-8.1-6.2-15.3-13.7-21.3-22.3L147.7,267.3z"/>
		</g>
		<g>
			<path class="st4" d="M132.4,274.6c2.4,6,4.6,11.9,7.3,17.6c2.7,5.7,6,11.1,10.2,15.9c-5.1-3.9-9.4-8.8-13.2-14.1
				c-3.8-5.3-7.1-10.9-10.5-16.2L132.4,274.6z"/>
		</g>
		<g>
			<path class="st4" d="M73.8,281.6c-0.8,4.5-2.5,8.5-4.6,12.2c-2.1,3.6-4.4,6.9-6.8,10.2c1.4-3.8,2.7-7.6,3.5-11.5
				c0.9-3.8,1.3-7.7,0.8-11.2L73.8,281.6z"/>
		</g>
		<g>
			<path class="st4" d="M87.9,284c1.2,2.8,3.3,5.7,4.9,9.1c0.4,0.9,0.8,1.8,1.1,2.7c0.3,0.9,0.6,1.8,0.8,2.7c0.5,1.8,0.8,3.6,1,5.4
				c0.5,3.6,0.5,7.2,0.4,10.7c-0.2,3.5-0.5,7-1.2,10.5l0,0.2l-0.2-0.1l-1.6-0.9l1.7,0.6l-0.2,0.1c0.1-3.5-0.1-7-0.5-10.4
				c-0.4-3.4-1-6.8-2-10c-0.5-1.6-1-3.2-1.7-4.7c-0.3-0.8-0.7-1.5-1-2.2c-0.4-0.7-0.8-1.3-1.2-2c-1.8-2.6-4.3-5.1-6.4-8.4L87.9,284z
				"/>
		</g>
		<g>
			<path class="st4" d="M75.8,307.5c-1.4,2.1-2.5,4.5-2.7,7.1c-0.2,2.7,0.5,5.6,1.7,8.4c-2.1-2.1-4-4.6-5.1-7.8
				c-0.6-1.6-0.8-3.3-0.9-5c0-1.7,0.1-3.5,0.5-5.1L75.8,307.5z"/>
		</g>
		<g>
			<path class="st4" d="M107.1,284.8c2.7,3.5,4.4,7.4,5.5,11.3c1.2,3.9,1.8,7.8,2.1,11.7c0.3,3.9,0.4,7.8,0.2,11.7
				c-0.2,3.9-0.5,7.7-1.1,11.5c-0.1-7.7-0.8-15.3-2.6-22.6c-0.9-3.6-2.1-7.2-3.6-10.5c-1.5-3.3-3.5-6.2-5.9-8.5L107.1,284.8z"/>
		</g>
		<g>
			<path class="st4" d="M109.3,285.5c1.7,3.8,4,7.3,6.9,10.5c2.9,3.2,6.2,6.2,9.6,9.2c3.4,3,6.8,6,10,9.2c3.2,3.2,6.2,6.6,9,10.2
				c-3.2-3.2-6.6-6.1-10.1-8.9c-3.5-2.8-7.2-5.3-11-7.8c-3.8-2.5-7.6-5.1-11.1-8.2c-3.6-3.1-6.8-6.7-9.4-10.9L109.3,285.5z"/>
		</g>
		<g>
			<path class="st4" d="M119.4,341.9c7.6-2,15.1-5.3,22-10c-5.3,6.4-11.8,12-19.2,16.5L119.4,341.9z"/>
		</g>
		<g>
			<path class="st4" d="M146.6,359.7c-2.1,0.8-4.1,1-5.9,0.9c-1.8,0-3.6-0.3-5.3-0.6c-3.4-0.7-6.5-1.7-9.6-2.9
				c3.3,0,6.6-0.1,9.7-0.6c1.5-0.3,3.1-0.6,4.4-1.1c1.3-0.5,2.6-1.1,3.3-1.9L146.6,359.7z"/>
		</g>
		<g>
			<path class="st4" d="M133.8,372.1c5.5,3.2,11.8,5.6,18.5,6.8c-6.7,1.2-13.8,1.1-20.9-0.2L133.8,372.1z"/>
		</g>
	</g>
</g>
<g id="尺" class="st0">
	<g class="st2">
		<polygon class="st3" points="487.7,302.4 291.9,554.4 403.9,554.9 570.9,343.9 503.9,297.9 		"/>
	</g>
	<g class="st2">
		<g>
			<g>
				<path class="st4" d="M485.6,300.7c-1.8,2.3-3.5,4.5-5.3,6.8c-4.7,6.1-9.5,12.2-14.2,18.3c-7,9.1-14.1,18.1-21.1,27.2
					c-8.6,11-17.1,22.1-25.7,33.1c-9.4,12.1-18.8,24.2-28.2,36.2c-9.5,12.2-18.9,24.4-28.4,36.6c-8.8,11.4-17.7,22.7-26.5,34.1
					c-7.5,9.6-15,19.3-22.4,28.9c-5.3,6.9-10.7,13.8-16,20.7c-2.5,3.3-5.1,6.6-7.6,9.8c-0.1,0.1-0.2,0.3-0.3,0.4
					c-0.8,1-1.2,2.1-0.6,3.3c0.5,1.1,1.5,1.8,2.7,1.8c2.8,0,5.6,0,8.4,0c6.9,0,13.7,0,20.6,0c8.7,0,17.3,0,26,0c8.1,0,16.2,0,24.3,0
					c5.3,0,10.6,0,15.9,0c1.9,0,3.9,0.3,5.2-1.4c1.3-1.6,2.5-3.2,3.8-4.8c2.5-3.1,4.9-6.2,7.4-9.3c3.5-4.3,6.9-8.7,10.4-13
					c4.3-5.3,8.5-10.7,12.8-16c4.9-6.1,9.7-12.2,14.6-18.3c5.3-6.6,10.5-13.2,15.8-19.8c5.5-6.9,11-13.8,16.5-20.6
					c5.5-6.9,10.9-13.7,16.4-20.6c5.3-6.6,10.5-13.2,15.8-19.8c4.9-6.1,9.8-12.2,14.7-18.4c4.3-5.4,8.6-10.8,12.9-16.2
					c3.5-4.4,7.1-8.8,10.6-13.3c2.5-3.2,5.1-6.3,7.6-9.5c1.3-1.7,2.7-3.4,4-5.1c0.2-0.2,0.3-0.4,0.5-0.6c1.3-1.6,1.1-3.5-0.6-4.7
					c-7.5-5.3-14.9-10.5-22.4-15.8c-11.8-8.3-23.6-16.6-35.5-25c-2.7-1.9-5.5-3.9-8.2-5.8c-1.3-0.9-3.3-0.2-4.1,1.1
					c-0.9,1.5-0.3,3.2,1.1,4.1c7.5,5.3,14.9,10.5,22.4,15.8c11.8,8.3,23.6,16.6,35.5,25c2.7,1.9,5.5,3.9,8.2,5.8
					c-0.2-1.6-0.4-3.1-0.6-4.7c-1.5,1.8-2.9,3.7-4.4,5.5c-4,5-8,10-12,15c-5.9,7.4-11.8,14.7-17.6,22.1c-7.2,9-14.3,18-21.5,27
					c-7.9,9.9-15.8,19.8-23.6,29.6c-7.9,9.9-15.9,19.9-23.8,29.8c-7.4,9.3-14.8,18.5-22.2,27.8c-6.2,7.8-12.5,15.7-18.7,23.5
					c-4.5,5.6-9,11.3-13.5,16.9c-2.1,2.7-4.4,5.3-6.4,8c-0.1,0.1-0.2,0.2-0.3,0.3c0.7-0.3,1.4-0.6,2.1-0.9c-3.2,0-6.5,0-9.7,0
					c-7.8,0-15.6,0-23.4,0c-9.4,0-18.9,0-28.3,0c-8.2,0-16.3,0-24.5,0c-2.7,0-5.4,0-8,0c-1.3,0-2.6-0.1-3.9,0c-0.1,0-0.1,0-0.2,0
					c0.7,1.7,1.4,3.4,2.1,5.1c1.8-2.3,3.5-4.5,5.3-6.8c4.7-6.1,9.5-12.2,14.2-18.3c7-9.1,14.1-18.1,21.1-27.2
					c8.6-11,17.1-22.1,25.7-33.1c9.4-12.1,18.8-24.2,28.2-36.2c9.5-12.2,18.9-24.4,28.4-36.6c8.8-11.4,17.7-22.7,26.5-34.1
					c7.5-9.6,15-19.3,22.4-28.9c5.3-6.9,10.7-13.8,16-20.7c2.5-3.3,5.1-6.6,7.6-9.8c0.1-0.1,0.2-0.3,0.3-0.4c1-1.3,1.2-3,0-4.2
					C488.8,299.7,486.6,299.4,485.6,300.7z"/>
			</g>
		</g>
		<g>
			<g>
				<path class="st4" d="M486.2,305.4c3.2,2.3,6.4,4.5,9.6,6.8c7.2,5,14.3,10.1,21.5,15.1c7.5,5.3,14.9,10.5,22.4,15.8
					c4.1,2.9,8.1,5.9,12.3,8.7c2.1,1.3,4.9-0.3,7-0.9c4-1.3,8-2.7,11.9-4c0.3-0.1,0.6-0.2,0.8-0.3c2.5-0.8,2.9-4,0.7-5.5
					c-3.2-2.1-6.4-4.3-9.5-6.4c-7.1-4.8-14.2-9.5-21.3-14.3c-7.5-5-15-10.1-22.5-15.1c-4.3-2.9-8.7-5.8-13-8.7
					c-0.9-0.6-1.7-0.9-2.8-0.6c-1.1,0.2-2.2,0.6-3.4,0.8c-4,1-8.1,2-12.1,3c-0.3,0.1-0.6,0.1-0.9,0.2c-3.7,0.9-2.2,6.7,1.6,5.8
					c5.4-1.4,10.9-2.7,16.3-4.1c-0.8-0.1-1.5-0.2-2.3-0.3c7.5,5.1,15.1,10.1,22.6,15.2c12,8.1,24,16.1,36,24.2
					c2.7,1.8,5.5,3.7,8.2,5.5c0.2-1.8,0.5-3.7,0.7-5.5c-5.7,1.9-11.4,3.8-17.1,5.7c0.8,0.1,1.5,0.2,2.3,0.3
					c-7.5-5.3-15-10.5-22.5-15.8c-11.8-8.3-23.7-16.7-35.5-25c-2.7-1.9-5.4-3.8-8.1-5.7c-1.3-0.9-3.3-0.2-4.1,1.1
					C484.2,302.8,484.9,304.5,486.2,305.4z"/>
			</g>
		</g>
		<g>
			<g>
				<path class="st4" d="M551.7,347.2c-1.5,1.8-2.9,3.7-4.4,5.5c-4,5-7.9,10-11.9,14.9c-5.9,7.4-11.8,14.7-17.6,22.1
					c-7.2,9-14.3,18-21.5,27c-7.9,9.9-15.8,19.8-23.7,29.7c-7.9,9.9-15.9,19.9-23.8,29.8c-7.4,9.3-14.8,18.5-22.2,27.8
					c-6.2,7.8-12.5,15.7-18.7,23.5c-4.5,5.6-9,11.3-13.5,16.9c-2.1,2.7-4.3,5.3-6.4,8c-0.1,0.1-0.2,0.2-0.3,0.3
					c-0.8,1-1.1,2.1-0.6,3.3c0.5,1.1,1.5,1.8,2.7,1.8c4.6,0,9.3,0.3,13.9,0c1.8-0.1,2.4-1.2,3.3-2.4c3.1-3.9,6.2-7.8,9.2-11.7
					c5.5-7,11.1-14,16.6-21c7.3-9.2,14.6-18.5,21.9-27.7c8.3-10.5,16.5-20.9,24.8-31.4c8.5-10.8,17.1-21.6,25.6-32.4
					c8.1-10.3,16.3-20.6,24.4-30.9c6.9-8.7,13.8-17.5,20.8-26.2c5-6.3,10-12.7,15.1-19c2.4-3,4.8-6.1,7.2-9.1
					c0.1-0.1,0.2-0.3,0.3-0.4c0.8-1.1,1.2-2.4,0.5-3.6c-0.6-1.1-2.1-1.8-3.4-1.4c-5.7,1.9-11.4,3.8-17.1,5.7
					c-1.5,0.5-2.5,2.1-2.1,3.7c0.4,1.5,2.1,2.6,3.7,2.1c5.7-1.9,11.4-3.8,17.1-5.7c-1-1.7-1.9-3.3-2.9-5c-1.5,1.9-3,3.8-4.5,5.7
					c-4.1,5.1-8.1,10.3-12.2,15.4c-6,7.6-12,15.2-18,22.8c-7.3,9.3-14.7,18.5-22,27.8c-8,10.1-16,20.2-24,30.3
					c-8.1,10.2-16.1,20.4-24.2,30.6c-7.6,9.5-15.1,19.1-22.7,28.6c-6.4,8.1-12.8,16.1-19.1,24.2c-4.6,5.8-9.2,11.6-13.8,17.4
					c-2.2,2.7-4.4,5.4-6.5,8.2c-0.1,0.1-0.2,0.2-0.3,0.3c0.7-0.3,1.4-0.6,2.1-0.9c-4.6,0-9.2,0-13.9,0c0.7,1.7,1.4,3.4,2.1,5.1
					c1.5-1.8,2.9-3.7,4.4-5.5c4-5,7.9-10,11.9-14.9c5.9-7.4,11.8-14.7,17.6-22.1c7.2-9,14.3-18,21.5-27c7.9-9.9,15.8-19.8,23.7-29.7
					c7.9-9.9,15.9-19.9,23.8-29.8c7.4-9.3,14.8-18.5,22.2-27.8c6.2-7.8,12.5-15.7,18.7-23.5c4.5-5.6,9-11.3,13.5-16.9
					c2.1-2.7,4.3-5.3,6.4-8c0.1-0.1,0.2-0.2,0.3-0.3c1-1.3,1.2-3,0-4.2C554.9,346.1,552.7,345.9,551.7,347.2z"/>
			</g>
		</g>
		<g>
			<g>
				<path class="st4" d="M435.4,501.4c3.7,0,7.3,0,11,0c0.5,0,1,0,1.5,0c1.6,0,3.1-1.4,3-3c-0.1-1.6-1.3-3-3-3c-3.7,0-7.3,0-11,0
					c-0.5,0-1,0-1.5,0c-1.6,0-3.1,1.4-3,3C432.5,500,433.7,501.4,435.4,501.4L435.4,501.4z"/>
			</g>
		</g>
		<g>
			<g>
				<path class="st4" d="M443.9,489.9c3.9,0,7.9,0,11.8,0c0.6,0,1.1,0,1.7,0c1.6,0,3.1-1.4,3-3c-0.1-1.6-1.3-3-3-3
					c-3.9,0-7.9,0-11.8,0c-0.6,0-1.1,0-1.7,0c-1.6,0-3.1,1.4-3,3C441,488.5,442.2,489.9,443.9,489.9L443.9,489.9z"/>
			</g>
		</g>
		<g>
			<g>
				<path class="st4" d="M454.9,478.9c3.4,0,6.7,0,10.1,0c0.5,0,0.9,0,1.4,0c1.6,0,3.1-1.4,3-3c-0.1-1.6-1.3-3-3-3
					c-3.4,0-6.7,0-10.1,0c-0.5,0-0.9,0-1.4,0c-1.6,0-3.1,1.4-3,3C452,477.5,453.2,478.9,454.9,478.9L454.9,478.9z"/>
			</g>
		</g>
		<g>
			<g>
				<path class="st4" d="M463.4,468.4c3.1,0,6.1,0,9.2,0c0.4,0,0.9,0,1.3,0c1.6,0,3.1-1.4,3-3c-0.1-1.6-1.3-3-3-3
					c-3.1,0-6.1,0-9.2,0c-0.4,0-0.9,0-1.3,0c-1.6,0-3.1,1.4-3,3C460.5,467,461.7,468.4,463.4,468.4L463.4,468.4z"/>
			</g>
		</g>
		<g>
			<g>
				<path class="st4" d="M471.4,457.4c3.4,0,6.7,0,10.1,0c0.5,0,0.9,0,1.4,0c1.6,0,3.1-1.4,3-3c-0.1-1.6-1.3-3-3-3
					c-3.4,0-6.7,0-10.1,0c-0.5,0-0.9,0-1.4,0c-1.6,0-3.1,1.4-3,3C468.5,456,469.7,457.4,471.4,457.4L471.4,457.4z"/>
			</g>
		</g>
		<g>
			<g>
				<path class="st4" d="M479.4,446.4c3.4,0,6.7,0,10.1,0c0.5,0,0.9,0,1.4,0c1.6,0,3.1-1.4,3-3c-0.1-1.6-1.3-3-3-3
					c-3.4,0-6.7,0-10.1,0c-0.5,0-0.9,0-1.4,0c-1.6,0-3.1,1.4-3,3C476.5,445,477.7,446.4,479.4,446.4L479.4,446.4z"/>
			</g>
		</g>
		<g>
			<g>
				<path class="st4" d="M489.4,435.4c3.1,0,6.1,0,9.2,0c0.4,0,0.9,0,1.3,0c1.6,0,3.1-1.4,3-3c-0.1-1.6-1.3-3-3-3
					c-3.1,0-6.1,0-9.2,0c-0.4,0-0.9,0-1.3,0c-1.6,0-3.1,1.4-3,3C486.5,434,487.7,435.4,489.4,435.4L489.4,435.4z"/>
			</g>
		</g>
		<g>
			<g>
				<path class="st4" d="M497.9,424.9c3.1,0,6.1,0,9.2,0c0.4,0,0.9,0,1.3,0c1.6,0,3.1-1.4,3-3c-0.1-1.6-1.3-3-3-3
					c-3.1,0-6.1,0-9.2,0c-0.4,0-0.9,0-1.3,0c-1.6,0-3.1,1.4-3,3C495,423.5,496.2,424.9,497.9,424.9L497.9,424.9z"/>
			</g>
		</g>
		<g>
			<g>
				<path class="st4" d="M506.4,414.4c3.1,0,6.1,0,9.2,0c0.4,0,0.9,0,1.3,0c1.6,0,3.1-1.4,3-3c-0.1-1.6-1.3-3-3-3
					c-3.1,0-6.1,0-9.2,0c-0.4,0-0.9,0-1.3,0c-1.6,0-3.1,1.4-3,3C503.5,413,504.7,414.4,506.4,414.4L506.4,414.4z"/>
			</g>
		</g>
		<g>
			<g>
				<path class="st4" d="M515.4,403.4c3.1,0,6.1,0,9.2,0c0.4,0,0.9,0,1.3,0c1.6,0,3.1-1.4,3-3c-0.1-1.6-1.3-3-3-3
					c-3.1,0-6.1,0-9.2,0c-0.4,0-0.9,0-1.3,0c-1.6,0-3.1,1.4-3,3C512.5,402,513.7,403.4,515.4,403.4L515.4,403.4z"/>
			</g>
		</g>
		<g>
			<g>
				<path class="st4" d="M523.9,391.9c3.1,0,6.1,0,9.2,0c0.4,0,0.9,0,1.3,0c1.6,0,3.1-1.4,3-3c-0.1-1.6-1.3-3-3-3
					c-3.1,0-6.1,0-9.2,0c-0.4,0-0.9,0-1.3,0c-1.6,0-3.1,1.4-3,3C521,390.5,522.2,391.9,523.9,391.9L523.9,391.9z"/>
			</g>
		</g>
		<g>
			<g>
				<path class="st4" d="M532.9,380.9c3.1,0,6.1,0,9.2,0c0.4,0,0.9,0,1.3,0c1.6,0,3.1-1.4,3-3c-0.1-1.6-1.3-3-3-3
					c-3.1,0-6.1,0-9.2,0c-0.4,0-0.9,0-1.3,0c-1.6,0-3.1,1.4-3,3C530,379.5,531.2,380.9,532.9,380.9L532.9,380.9z"/>
			</g>
		</g>
		<g>
			<g>
				<path class="st4" d="M541.9,369.9c3.1,0,6.1,0,9.2,0c0.4,0,0.9,0,1.3,0c1.6,0,3.1-1.4,3-3c-0.1-1.6-1.3-3-3-3
					c-3.1,0-6.1,0-9.2,0c-0.4,0-0.9,0-1.3,0c-1.6,0-3.1,1.4-3,3C539,368.5,540.2,369.9,541.9,369.9L541.9,369.9z"/>
			</g>
		</g>
		<g>
			<g>
				<path class="st4" d="M549.9,358.9c3.1,0,6.1,0,9.2,0c0.4,0,0.9,0,1.3,0c1.6,0,3.1-1.4,3-3c-0.1-1.6-1.3-3-3-3
					c-3.1,0-6.1,0-9.2,0c-0.4,0-0.9,0-1.3,0c-1.6,0-3.1,1.4-3,3C547,357.5,548.2,358.9,549.9,358.9L549.9,358.9z"/>
			</g>
		</g>
	</g>
	<g class="st2">
		<g>
			<path class="st4" d="M388.4,436.4c4.8,0,9.6,0,14.5,0c0.7,0,1.4,0,2,0c1.6,0,3.1-1.4,3-3c-0.1-1.6-1.3-3-3-3c-4.8,0-9.6,0-14.5,0
				c-0.7,0-1.4,0-2,0c-1.6,0-3.1,1.4-3,3C385.5,435,386.7,436.4,388.4,436.4L388.4,436.4z"/>
		</g>
	</g>
	<g class="st2">
		<g>
			<path class="st4" d="M378.4,448.9c5.1,0,10.2,0,15.3,0c0.7,0,1.4,0,2.2,0c1.6,0,3.1-1.4,3-3c-0.1-1.6-1.3-3-3-3
				c-5.1,0-10.2,0-15.3,0c-0.7,0-1.4,0-2.2,0c-1.6,0-3.1,1.4-3,3C375.5,447.5,376.7,448.9,378.4,448.9L378.4,448.9z"/>
		</g>
	</g>
	<g class="st2">
		<g>
			<path class="st4" d="M384.5,462.9c7.2,0,14.3,0,21.5,0c1,0,2,0,3,0c3.9,0,3.9-6,0-6c-7.2,0-14.3,0-21.5,0c-1,0-2,0-3,0
				C380.6,456.9,380.6,462.9,384.5,462.9L384.5,462.9z"/>
		</g>
	</g>
	<g class="st2">
		<g>
			<path class="st4" d="M396.8,475.9c7.2,0,14.3,0,21.5,0c1,0,2,0,3,0c3.9,0,3.9-6,0-6c-7.2,0-14.3,0-21.5,0c-1,0-2,0-3,0
				C393,469.9,392.9,475.9,396.8,475.9L396.8,475.9z"/>
		</g>
	</g>
	<g class="st2">
		<g>
			<path class="st4" d="M406.8,488.9c7.2,0,14.3,0,21.5,0c1,0,2,0,3,0c3.9,0,3.9-6,0-6c-7.2,0-14.3,0-21.5,0c-1,0-2,0-3,0
				C403,482.9,402.9,488.9,406.8,488.9L406.8,488.9z"/>
		</g>
	</g>
</g>
<g id="量角器" class="st0">
	<g class="st2">
		<path class="st3" d="M452.9,574.9c0-73.4-59.5-133-133-133s-133,59.5-133,133H452.9z"/>
	</g>
	<g class="st2">
		<g>
			<g>
				<path class="st4" d="M455.9,574.9c0-14.2-2.2-28.4-6.6-41.9c-4.2-13-10.4-25.4-18.4-36.6c-8-11.2-17.6-21.2-28.6-29.6
					c-10.9-8.3-23-14.9-35.8-19.7c-13.2-4.9-27.3-7.6-41.4-8.1c-14.3-0.6-28.6,1.1-42.4,5c-13.2,3.7-25.9,9.5-37.4,17.1
					c-11.3,7.5-21.6,16.6-30.2,27c-8.8,10.7-15.9,22.5-21.2,35.3c-5.4,13-8.6,26.9-9.7,41c-0.3,3.5-0.4,6.9-0.4,10.4
					c0,1.6,1.4,3,3,3c2.4,0,4.8,0,7.2,0c6.4,0,12.9,0,19.3,0c9.5,0,19.1,0,28.6,0c11.6,0,23.3,0,34.9,0c12.7,0,25.4,0,38.1,0
					c12.9,0,25.8,0,38.8,0c12,0,23.9,0,35.9,0c10.1,0,20.3,0,30.4,0c7.3,0,14.6,0,21.9,0c3.4,0,6.9,0.1,10.3,0c0.2,0,0.3,0,0.5,0
					c3.9,0,3.9-6,0-6c-2.4,0-4.8,0-7.2,0c-6.4,0-12.9,0-19.3,0c-9.5,0-19.1,0-28.6,0c-11.6,0-23.3,0-34.9,0c-12.7,0-25.4,0-38.1,0
					c-12.9,0-25.8,0-38.8,0c-12,0-23.9,0-35.9,0c-10.1,0-20.3,0-30.4,0c-7.3,0-14.6,0-21.9,0c-3.4,0-6.9-0.1-10.3,0
					c-0.2,0-0.3,0-0.5,0c1,1,2,2,3,3c0-13.8,2.1-27.2,6.4-40.3c4-12.5,10-24.2,17.7-35c7.3-10.3,16.8-20.1,26.8-27.8
					c10.4-8,22.2-14.5,34.3-18.9c12.8-4.7,26.1-7.3,39.6-7.8c13.9-0.5,27.4,1,40.8,4.8c12.8,3.6,24.6,9.1,35.8,16.4
					c10.9,7.1,20.7,15.9,29,26.1c8.1,9.7,15.1,21.4,19.9,33.1c5.1,12.5,8.3,25.9,9.3,39.3c0.3,3.4,0.4,6.8,0.4,10.2
					C449.9,578.8,455.9,578.8,455.9,574.9z"/>
			</g>
		</g>
		<g>
			<path class="st4" d="M319.9,441.9c1.4,10.9,2.2,21.9,2.7,32.8c0.5,10.9,0.8,21.9,0.8,32.8c0,10.9-0.2,21.9-0.7,32.8
				c-0.5,10.9-1.3,21.9-2.8,32.8c-1.5-10.9-2.2-21.9-2.8-32.8c-0.5-10.9-0.8-21.9-0.7-32.8c0-10.9,0.2-21.9,0.8-32.8
				C317.7,463.8,318.5,452.8,319.9,441.9z"/>
		</g>
		<g>
			<polygon class="st4" points="272.7,451 283.5,486.1 266.2,453.7 			"/>
		</g>
		<g>
			<path class="st4" d="M227.2,480.5c8.8,6.7,17,13.9,25.1,21.3c8.1,7.4,16,14.9,23.7,22.7c7.7,7.7,15.3,15.6,22.7,23.7
				c7.3,8.1,14.5,16.4,21.2,25.1c-8.8-6.7-17-13.9-25.1-21.2c-8.1-7.4-16-14.9-23.7-22.7c-7.7-7.7-15.3-15.6-22.7-23.7
				C241.1,497.5,233.9,489.2,227.2,480.5z"/>
		</g>
		<g>
			<polygon class="st4" points="197.7,523.1 233.6,540.5 195.2,529.7 			"/>
		</g>
		<g>
			<polygon class="st4" points="373.7,453.8 356.3,486.1 367.2,451.1 			"/>
		</g>
		<g>
			<path class="st4" d="M412.7,480.5c-6.7,8.8-13.9,17-21.3,25.1c-7.4,8.1-14.9,16-22.7,23.7c-7.7,7.7-15.6,15.3-23.7,22.7
				c-8.1,7.3-16.4,14.5-25.1,21.2c6.7-8.8,13.9-17,21.2-25.1c7.4-8.1,14.9-16,22.7-23.7c7.7-7.7,15.6-15.3,23.7-22.7
				C395.7,494.4,404,487.2,412.7,480.5z"/>
		</g>
		<g>
			<polygon class="st4" points="444.7,529.7 406.3,540.5 442.2,523.1 			"/>
		</g>
		<g>
			<path class="st4" d="M413.5,479.7c-6.8,8.8-14,17.2-21.5,25.3c-7.4,8.2-15.1,16.1-22.9,23.9c-7.8,7.8-15.8,15.4-23.9,22.9
				c-8.2,7.4-16.5,14.7-25.3,21.5c6.8-8.8,14-17.2,21.5-25.3c7.4-8.2,15.1-16.1,22.9-23.9c7.8-7.8,15.8-15.4,23.9-22.9
				C396.4,493.7,404.7,486.4,413.5,479.7z"/>
		</g>
		<g>
			<path class="st4" d="M379.1,574.1c-0.8-7.7-2.7-15.2-6.1-22c-3.2-6.8-7.8-12.9-13.2-17.9c-5.4-5-11.7-9-18.5-11.7
				c-6.8-2.7-14.1-4.1-21.4-4.1c-7.3,0-14.6,1.4-21.4,4.1c-6.8,2.7-13.1,6.7-18.5,11.7c-2.7,2.5-5.2,5.3-7.4,8.3
				c-2.2,3-4.2,6.2-5.8,9.6c-3.3,6.8-5.3,14.2-6.1,22c-0.8-7.7,0.3-15.8,2.9-23.3c1.3-3.8,3.1-7.4,5.1-10.8c2.1-3.4,4.6-6.6,7.3-9.6
				c5.5-5.9,12.3-10.7,19.8-14c3.8-1.6,7.7-2.8,11.7-3.7c4-0.8,8.1-1.2,12.2-1.2c4.1,0,8.2,0.4,12.2,1.2c4,0.8,7.9,2.1,11.7,3.7
				c7.5,3.2,14.3,8,19.8,14c2.8,3,5.3,6.2,7.3,9.6c2.1,3.4,3.8,7.1,5.2,10.8C378.8,558.3,379.8,566.3,379.1,574.1z"/>
		</g>
		<g>
			<path class="st4" d="M358.5,572.8c-1.4-10.1-6.2-19.1-13.2-25.3c-7-6.3-16.1-9.8-25.3-9.7c-9.2,0-18.3,3.5-25.3,9.7
				c-7,6.3-11.8,15.2-13.2,25.3c-0.8-5.1-0.3-10.4,1.3-15.4c1.6-5,4.4-9.8,8-13.8c3.6-4,8.2-7.3,13.2-9.5c1.3-0.5,2.5-1,3.9-1.5
				c1.3-0.4,2.6-0.8,4-1.1c1.4-0.2,2.7-0.5,4.1-0.6l4.1-0.2c5.5,0,11,1.2,16,3.4c5,2.2,9.5,5.5,13.2,9.5c3.6,4,6.4,8.8,8,13.8
				C358.8,562.5,359.3,567.8,358.5,572.8z"/>
		</g>
		<g>
			<polygon class="st4" points="465.3,331.4 507.4,362.4 461.5,337.3 			"/>
		</g>
		<g>
			<polygon class="st4" points="436.3,365.4 478.4,396.4 432.5,371.3 			"/>
		</g>
		<g>
			<polygon class="st4" points="413.3,397.4 455.4,428.4 409.5,403.3 			"/>
		</g>
	</g>
</g>
</svg>
