<?xml version="1.0" encoding="utf-8"?>
<!-- Generator: Adobe Illustrator 23.0.6, SVG Export Plug-In . SVG Version: 6.00 Build 0)  -->
<svg version="1.1" id="圖層_1" xmlns="http://www.w3.org/2000/svg" xmlns:xlink="http://www.w3.org/1999/xlink" x="0px" y="0px"
	 viewBox="0 0 600 600" style="enable-background:new 0 0 600 600;" xml:space="preserve">
<style type="text/css">
	.st0{display:none;}
	.st1{display:inline;}
	.st2{fill:#F5F5F5;}
	.st3{fill:#2D46F0;}
	.st4{fill:none;stroke:#2D46F0;stroke-width:6.5;stroke-miterlimit:10;}
	.st5{display:inline;fill:#2D46F0;}
	.st6{fill:#FFD205;}
	.st7{display:inline;fill:#F5F5F5;}
	.st8{display:inline;fill:#FFD205;}
</style>
<g id="塗鴉路徑" class="st0">
	<g class="st1">
		<g>
			<g>
				<path class="st2" d="M247.2,527.1"/>
			</g>
			<g>
				<path class="st2" d="M258.2,502.4c-23,0-16.3,24.7-2.3,24.7h46.9c8.1,0,13.3,4.5,15.6,10.3c7.6,17.2-4,35.8-21,35.8
					c-10.2,0-178.2,0-251.5,0c-13.7,0-26-11.1-22.9-29.2c0.1-3.2,1-6.4,2.6-9.1c2.7-4.5,7.5-7.8,14.4-7.8c0,0,105.9,0,108.8,0
					c22.7,0,22.7-35.3,0-35.3c-2.9,0-65.4,0-65.4,0c-22.7,0-22.7-35.3,0-35.3c17.3,0,138.5,0,141.9,0c22.7,0,22.7-35.3,0-35.3
					c-3.4,0-26,0-33.8,0c-22.7,0-22.7-35.3,0-35.3c8.4,0,144.7,0,204.4,0c22.7,0,22.7,35.3,0,35.3c-8.4,0-50,0-54.4,0
					c-22.7,0-22.7,35.3,0,35.3c4.4,0,113.8,0,161,0c2.1,0,4.1,0.3,5.8,0.9c24.1,5.1,25.5,45-10.8,45
					C481.3,502.4,261.7,502.4,258.2,502.4z"/>
			</g>
		</g>
	</g>
	<g class="st1">
		<g>
			<path class="st3" d="M39.9,524.1c-9,0.1-16.7,5.5-19.2,14.3c-2.2,7.6-0.3,16.8,5.8,22.1c6.8,6,16,4.8,24.4,4.8
				c9.2,0,18.3,0,27.5,0c21.8,0,43.6,0,65.5,0c22.6,0,45.2,0,67.9,0c19,0,37.9,0,56.9,0c10.6,0,21.2,0,31.8,0c5.9,0,11.6-1,16.1-5.2
				c5.9-5.6,7.7-14.9,5.2-22.5c-2.8-8.4-10.2-13.5-19-13.6c-5.8-0.1-11.6,0-17.4,0c-9.7,0-19.4,0-29.1,0c-6.9,0-15,1.2-19.8-4.9
				c-4.3-5.4-4.3-13.8-0.2-19.3c3.1-4.1,7.7-5.2,12.6-5.2c8.1,0,16.2,0,24.4,0c15,0,30,0,45,0c18.5,0,37,0,55.5,0
				c18.6,0,37.2,0,55.7,0c15.3,0,30.6,0,45.8,0c8.6,0,17.2,0,25.8,0c7.1,0,13.5-2.3,17.7-8.3c4.6-6.6,4.8-15.9,1.1-22.9
				c-1.9-3.6-5-6.6-8.7-8.2c-4.3-1.9-8.7-1.8-13.3-1.8c-9.8,0-19.6,0-29.3,0c-22.8,0-45.5,0-68.3,0c-17.1,0-34.1,0-51.2,0
				c-3.6,0-7.7,0.4-11.2-0.4c-7.4-1.7-11.1-9.1-10.3-16.2c0.8-7.4,6.5-12.6,14.1-12.7c7.2-0.1,14.4,0,21.6,0c9.5,0,18.9,0,28.4,0
				c3.5,0,7.1,0.2,10.5-0.9c4.2-1.3,7.6-3.9,10.1-7.4c4.6-6.6,4.8-15.9,1.1-22.9c-1.9-3.6-5-6.6-8.7-8.2c-4.3-1.9-8.7-1.8-13.3-1.8
				c-20.6,0-41.2,0-61.9,0c-23,0-46.1,0-69.1,0c-17.8,0-35.6,0-53.4,0c-10.3,0-23.5-2.1-30.8,6.9c-5.2,6.5-6.1,15.8-2.6,23.3
				c1.7,3.7,4.5,6.9,8.1,8.7c4.1,2.2,8.4,2.4,12.9,2.4c9.7,0,19.5,0,29.2,0c3.6,0,7,0.3,9.9,2.5c2.8,2,4.5,5,5.2,8.2
				c1.6,6.6-0.9,14.7-7.7,17.5c-3.5,1.5-7.5,1.1-11.1,1.1c-14.4,0-28.7,0-43.1,0c-19.1,0-38.3,0-57.4,0c-7.7,0-15.3,0-23,0
				c-4.8,0-9.6-0.2-14.4,0c-8.8,0.5-16,6.4-18.1,15c-1.9,7.8,0.3,16.9,6.8,22c4.8,3.8,10.5,4.2,16.3,4.2c7.3,0,14.5,0,21.8,0
				c8.8,0,17.6,0,26.4,0c4.9,0,10-0.3,14.9,0.1c16.3,1.1,16.8,27.1,0.7,29.1c-3.4,0.4-7.1,0.1-10.5,0.1c-6.8,0-13.7,0-20.5,0
				c-17.6,0-35.3,0-52.9,0C58,524.1,48.9,524.1,39.9,524.1c-3.9,0-3.9,6,0,6c9.4,0,18.9,0,28.3,0c17.5,0,35,0,52.5,0
				c6.7,0,13.4,0,20.1,0c3.4,0,6.9,0.2,10.3-0.1c8.7-1,15.5-7.3,17.2-15.9c1.5-8-1-16.7-7.7-21.7c-5-3.7-11-3.6-16.9-3.6
				c-7.6,0-15.2,0-22.8,0c-8.6,0-17.2,0-25.8,0c-4.2,0-8.5,0.2-12.7,0c-16.2-0.8-17.6-26.4-1.7-29.1c4.6-0.8,9.8-0.2,14.5-0.2
				c7.4,0,14.8,0,22.2,0c18.9,0,37.8,0,56.8,0c14.8,0,29.6,0,44.4,0c3.4,0,7,0.2,10.4-0.3c8.4-1.3,14.6-8,16-16.3
				c1.4-8.1-1.5-16.8-8.5-21.5c-6.8-4.6-16.2-3.2-23.9-3.2c-5.3,0-10.7,0-16,0c-3.9,0-7.9,0.4-11.5-1.3c-6.5-3.1-8.8-11.1-7-17.6
				c1.8-6.7,7.3-10.3,14.1-10.3c3.7,0,7.4,0,11.1,0c16.6,0,33.2,0,49.8,0c22.6,0,45.3,0,67.9,0c21.2,0,42.4,0,63.5,0
				c7.4,0,16.9-1.7,22.2,4.7c4.3,5.2,4.4,13.4,0.7,19c-4.2,6.3-11.6,5.6-18.2,5.6c-9.6,0-19.3,0-28.9,0c-6.8,0-13.8-0.5-20.6,0.1
				c-8.7,0.8-15.7,6.9-17.6,15.5c-1.7,7.9,0.7,16.7,7.2,21.7c4.6,3.6,10,4,15.6,4c14.6,0,29.2,0,43.8,0c22.4,0,44.9,0,67.3,0
				c10.5,0,21,0,31.5,0c4.4,0,8.7,0,13.1,0c3.8,0,7.5,0.3,10.7,2.7c5.5,4.2,6.7,12.4,4.1,18.5c-2.5,5.9-7.9,8.1-14,8.1
				c-8.4,0-16.8,0-25.1,0c-15,0-30.1,0-45.1,0c-18.4,0-36.7,0-55.1,0s-36.8,0-55.2,0c-15.1,0-30.2,0-45.2,0c-8.6,0-17.2,0-25.8,0
				c-4.7,0-9.5,0.4-13.5,3.2c-7,4.7-9.8,13.4-8.5,21.5c1.4,8.3,7.6,15,16,16.3c3.5,0.5,7.1,0.3,10.6,0.3c4.5,0,9,0,13.4,0
				c9.3,0,18.6,0,28,0c5.1,0,10.9-0.7,15.3,2.4c5.8,4,7.1,12.3,4.7,18.5c-2.3,5.9-7.7,8.5-13.8,8.5c-9.3,0-18.7,0-28,0
				c-17.9,0-35.8,0-53.6,0c-22.2,0-44.4,0-66.6,0c-22,0-44.1,0-66.1,0c-9.5,0-19.1,0-28.6,0c-4.2,0-8.3,0-12.5,0
				c-3.9,0-8.2,0.5-11.9-0.9c-6.5-2.4-9.3-9.6-8.4-16c1-7.2,6.5-12.2,13.9-12.3C43.8,530.1,43.8,524.1,39.9,524.1z"/>
		</g>
		<path class="st4" d="M25.5,534.9c-9.5,23.4,4.4,38.3,20.3,38.3c73.3,0,241.3,0,251.5,0c17.9,0,29.8-20.5,19.8-38.3"/>
		<g>
			<path class="st3" d="M255.9,524.1c-0.4,0-0.8,0-1.2-0.1c-0.2,0-0.5-0.2,0.2,0c-0.2-0.1-0.4-0.1-0.6-0.1c-0.7-0.1-1.4-0.4-2-0.6
				c0.8,0.3-0.1-0.1-0.3-0.2c-0.3-0.2-0.6-0.3-0.9-0.5c-0.2-0.1-1.1-0.8-0.4-0.2c-0.3-0.2-0.6-0.5-0.9-0.7c-0.5-0.4-0.9-0.9-1.3-1.4
				c-0.4-0.5,0.4,0.6,0,0c-0.1-0.1-0.2-0.3-0.3-0.4c-0.2-0.3-0.4-0.7-0.7-1c-0.2-0.3-0.3-0.6-0.4-0.8c-0.1-0.1-0.1-0.2-0.2-0.3
				c-0.3-0.6,0.2,0.7,0,0s-0.4-1.3-0.6-2c0-0.2-0.2-1.2-0.1-0.7c0.1,0.5,0-0.5-0.1-0.7c0-0.7,0-1.3,0.1-2c-0.1,1,0,0,0.1-0.3
				s0.2-0.6,0.3-1c0-0.1,0.1-0.3,0.1-0.4c0.2-0.6-0.3,0.6,0,0c0.2-0.3,0.3-0.7,0.5-1s0.3-0.5,0.5-0.8c-0.5,0.7,0.1-0.1,0.3-0.3
				c0.3-0.3,0.5-0.5,0.8-0.7c0.1-0.1,0.5-0.4-0.1,0c0.2-0.2,0.5-0.3,0.7-0.5c0.3-0.2,0.6-0.4,0.9-0.5c0.2-0.1,1.2-0.6,0.5-0.3
				c0.9-0.3,1.8-0.6,2.7-0.8c0.3-0.1,0.5-0.1,0.8-0.2c0,0,0.9-0.1,0.5-0.1c-0.4,0.1,0.5-0.1,0.5-0.1c0.3,0,0.6-0.1,0.9-0.1
				c0.7,0,1.4-0.1,2.1-0.1c0.2,0,0.5,0,0.7,0c0.8,0,1.6,0,2.5,0c2.9,0,5.9,0,8.8,0c10.1,0,20.2,0,30.3,0c13.9,0,27.9,0,41.8,0
				c15.6,0,31.3,0,46.9,0c15.2,0,30.3,0,45.5,0c12.6,0,25.1,0,37.7,0c7.8,0,15.6,0,23.4,0c6.9,0,13.9-0.9,20-4.5
				c5.6-3.3,9.9-8.6,11.6-14.9c3.4-12.3-3.1-25.7-15-30.4c-3.1-1.2-6.4-1.7-9.8-1.8c-3.9,0-3.9,6,0,6c0.9,0,1.7,0,2.6,0.1
				c0.2,0,0.3,0,0.5,0c0.8,0.1-0.7-0.1,0.1,0c0.4,0.1,0.9,0.1,1.3,0.2c0.7,0.2,1.5,0.3,2.2,0.6c0.4,0.1,0.7,0.2,1.1,0.4
				c0.1,0,0.3,0.1,0.4,0.2c0.5,0.2-0.5-0.3,0.2,0.1c1.4,0.6,2.6,1.4,3.8,2.2c0.1,0.1,0.4,0.4-0.1-0.1c0.2,0.1,0.3,0.2,0.5,0.4
				c0.3,0.2,0.5,0.4,0.7,0.6c0.5,0.5,1,1,1.5,1.5c0.2,0.3,0.5,0.5,0.7,0.8c0.1,0.1,0.2,0.2,0.3,0.4c-0.5-0.7-0.1-0.1,0,0
				c0.4,0.6,0.8,1.2,1.2,1.8c0.3,0.6,0.7,1.2,0.9,1.8c0.1,0.2,0.5,1.3,0.2,0.4c0.1,0.4,0.3,0.7,0.4,1.1c0.5,1.3,0.8,2.7,1,4
				c0.1,0.8,0-0.5,0,0.3c0,0.3,0.1,0.6,0.1,0.9c0,0.7,0.1,1.4,0.1,2.1s-0.1,1.4-0.1,2.1c-0.1,0.9,0.1-0.5,0,0.3
				c-0.1,0.4-0.1,0.8-0.2,1.1c-0.1,0.7-0.3,1.3-0.5,1.9c-0.1,0.3-0.2,0.7-0.3,1c0,0.1-0.1,0.2-0.1,0.4c-0.3,0.8,0.2-0.3-0.1,0.2
				c-0.6,1.3-1.3,2.5-2.1,3.7c-0.1,0.1-0.2,0.3-0.3,0.4c-0.4,0.6,0.4-0.5,0,0c-0.2,0.3-0.4,0.5-0.7,0.8c-0.5,0.6-1,1.1-1.6,1.6
				c-0.3,0.3-0.6,0.5-0.9,0.8c-0.1,0.1-0.3,0.2-0.4,0.3c0.6-0.5,0,0-0.1,0.1c-0.7,0.5-1.3,0.9-2.1,1.3c-0.7,0.4-1.4,0.8-2.2,1.1
				c-0.2,0.1-0.4,0.2-0.5,0.2c0.7-0.3-0.1,0-0.2,0.1c-0.5,0.2-0.9,0.4-1.4,0.5c-1.8,0.6-3.7,1-5.6,1.3c-0.1,0-0.8,0.1-0.2,0
				c-0.3,0-0.6,0.1-0.9,0.1c-0.5,0.1-1,0.1-1.5,0.1c-1.1,0.1-2.1,0.1-3.2,0.1c-7.2,0-14.3,0-21.5,0c-12.2,0-24.3,0-36.5,0
				c-15,0-30,0-45,0c-15.7,0-31.4,0-47.1,0c-14.2,0-28.4,0-42.7,0c-10.6,0-21.2,0-31.8,0c-4.8,0-9.7,0-14.5,0
				c-7.4,0-15.8,2.9-17.7,10.9c-1.5,6.4,1.5,13.1,6.6,16.9c2.5,1.9,5.6,2.9,8.8,2.9C259.7,530.1,259.7,524.1,255.9,524.1
				L255.9,524.1z"/>
		</g>
		<path class="st3" d="M233.6,480.4c-2.5,2.1-4.6,3.9-6.5,5.8s-3.6,3.8-5.2,5.8c-1.6,2-3,4.1-4.4,6.4s-2.6,4.8-4.1,7.7
			c-1.5-2.9-1.7-6.3-1.1-9.5c0.6-3.2,2-6.3,4-8.9s4.6-4.7,7.6-6.1C227.1,480.3,230.4,479.7,233.6,480.4z"/>
		<path class="st3" d="M269.5,551.1c-10.8,1.4-21.7,2.2-32.5,2.7s-21.7,0.8-32.5,0.8s-21.7-0.2-32.5-0.7s-21.7-1.3-32.5-2.8
			c10.8-1.5,21.7-2.2,32.5-2.8c10.8-0.5,21.7-0.8,32.5-0.7c10.8,0,21.7,0.2,32.5,0.8C247.8,548.9,258.7,549.7,269.5,551.1z"/>
		<path class="st3" d="M97.5,551.1c-3.9,1.5-7.8,2.2-11.8,2.7c-3.9,0.5-7.8,0.8-11.8,0.8c-3.9,0-7.8-0.2-11.8-0.7
			c-3.9-0.5-7.8-1.3-11.8-2.8c3.9-1.5,7.8-2.2,11.8-2.8c3.9-0.5,7.8-0.8,11.8-0.7c3.9,0,7.8,0.2,11.8,0.8
			C89.7,548.9,93.6,549.6,97.5,551.1z"/>
		<path class="st3" d="M231.9,410.3c2.8-1.2,5.9-1.1,8.8-0.3c2.9,0.9,5.6,2.5,7.7,4.6c2.1,2.1,3.7,4.8,4.5,7.7
			c0.8,2.9,0.8,6.1-0.5,8.8c-1.6-2.5-3-4.6-4.5-6.4c-1.5-1.9-3-3.6-4.5-5.2c-1.6-1.6-3.3-3.1-5.1-4.6
			C236.4,413.3,234.4,411.9,231.9,410.3z"/>
		<path class="st3" d="M268.5,413.4c3.7-0.8,7.3-1.1,10.8-1.3c3.5-0.2,6.9-0.3,10.3-0.3s6.9,0,10.3,0.2c3.5,0.2,7,0.4,10.8,1.2
			c-3.2,2.1-6.7,3.4-10.2,4.3c-3.6,0.9-7.2,1.3-10.8,1.3c-3.6,0-7.3-0.4-10.9-1.2C275.2,416.7,271.7,415.5,268.5,413.4z"/>
		<g>
			<path class="st3" d="M510.9,491.7c1.5,1.5,2.9,2.9,4.4,4.4c0.2,0.2,0.4,0.4,0.6,0.6c0.5,0.5,1.4,0.9,2.1,0.9
				c0.7,0,1.6-0.3,2.1-0.9s0.9-1.3,0.9-2.1c0-0.8-0.3-1.5-0.9-2.1c-1.5-1.5-2.9-2.9-4.4-4.4c-0.2-0.2-0.4-0.4-0.6-0.6
				c-0.5-0.5-1.4-0.9-2.1-0.9c-0.7,0-1.6,0.3-2.1,0.9s-0.9,1.3-0.9,2.1C510,490.4,510.3,491.2,510.9,491.7L510.9,491.7z"/>
		</g>
		<g>
			<path class="st3" d="M498.4,494.2c2.3,2.3,4.7,4.7,7,7c0.3,0.3,0.7,0.7,1,1c1.1,1.1,3.1,1.2,4.2,0s1.2-3.1,0-4.2
				c-2.3-2.3-4.7-4.7-7-7c-0.3-0.3-0.7-0.7-1-1c-1.1-1.1-3.1-1.2-4.2,0S497.2,493,498.4,494.2L498.4,494.2z"/>
		</g>
		<g>
			<path class="st3" d="M484.4,494.2c2.8,2.8,5.5,5.5,8.3,8.3c0.4,0.4,0.8,0.8,1.2,1.2c1.1,1.1,3.1,1.2,4.2,0s1.2-3.1,0-4.2
				c-2.8-2.8-5.5-5.5-8.3-8.3c-0.4-0.4-0.8-0.8-1.2-1.2c-1.1-1.1-3.1-1.2-4.2,0S483.2,493,484.4,494.2L484.4,494.2z"/>
		</g>
		<g>
			<path class="st3" d="M470.4,494.2c2.8,2.8,5.5,5.5,8.3,8.3c0.4,0.4,0.8,0.8,1.2,1.2c1.1,1.1,3.1,1.2,4.2,0s1.2-3.1,0-4.2
				c-2.8-2.8-5.5-5.5-8.3-8.3c-0.4-0.4-0.8-0.8-1.2-1.2c-1.1-1.1-3.1-1.2-4.2,0S469.2,493,470.4,494.2L470.4,494.2z"/>
		</g>
		<g>
			<path class="st3" d="M456.4,494.2c2.8,2.8,5.5,5.5,8.3,8.3c0.4,0.4,0.8,0.8,1.2,1.2c1.1,1.1,3.1,1.2,4.2,0s1.2-3.1,0-4.2
				c-2.8-2.8-5.5-5.5-8.3-8.3c-0.4-0.4-0.8-0.8-1.2-1.2c-1.1-1.1-3.1-1.2-4.2,0S455.2,493,456.4,494.2L456.4,494.2z"/>
		</g>
		<g>
			<path class="st3" d="M442.2,494.2c2.8,2.8,5.5,5.5,8.3,8.3c0.4,0.4,0.8,0.8,1.2,1.2c1.1,1.1,3.1,1.2,4.2,0s1.2-3.1,0-4.2
				c-2.8-2.8-5.5-5.5-8.3-8.3c-0.4-0.4-0.8-0.8-1.2-1.2c-1.1-1.1-3.1-1.2-4.2,0S441,493,442.2,494.2L442.2,494.2z"/>
		</g>
		<g>
			<path class="st3" d="M427.5,494.2c2.8,2.8,5.5,5.5,8.3,8.3c0.4,0.4,0.8,0.8,1.2,1.2c1.1,1.1,3.1,1.2,4.2,0s1.2-3.1,0-4.2
				c-2.8-2.8-5.5-5.5-8.3-8.3c-0.4-0.4-0.8-0.8-1.2-1.2c-1.1-1.1-3.1-1.2-4.2,0S426.3,493,427.5,494.2L427.5,494.2z"/>
		</g>
		<g>
			<path class="st3" d="M412.5,494.2c2.8,2.8,5.5,5.5,8.3,8.3c0.4,0.4,0.8,0.8,1.2,1.2c1.1,1.1,3.1,1.2,4.2,0s1.2-3.1,0-4.2
				c-2.8-2.8-5.5-5.5-8.3-8.3c-0.4-0.4-0.8-0.8-1.2-1.2c-1.1-1.1-3.1-1.2-4.2,0S411.3,493,412.5,494.2L412.5,494.2z"/>
		</g>
		<g>
			<path class="st3" d="M397.5,494.2c2.8,2.8,5.5,5.5,8.3,8.3c0.4,0.4,0.8,0.8,1.2,1.2c1.1,1.1,3.1,1.2,4.2,0s1.2-3.1,0-4.2
				c-2.8-2.8-5.5-5.5-8.3-8.3c-0.4-0.4-0.8-0.8-1.2-1.2c-1.1-1.1-3.1-1.2-4.2,0S396.3,493,397.5,494.2L397.5,494.2z"/>
		</g>
		<g>
			<path class="st3" d="M382.5,494.2c2.8,2.8,5.5,5.5,8.3,8.3c0.4,0.4,0.8,0.8,1.2,1.2c1.1,1.1,3.1,1.2,4.2,0s1.2-3.1,0-4.2
				c-2.8-2.8-5.5-5.5-8.3-8.3c-0.4-0.4-0.8-0.8-1.2-1.2c-1.1-1.1-3.1-1.2-4.2,0S381.3,493,382.5,494.2L382.5,494.2z"/>
		</g>
		<g>
			<path class="st3" d="M367.5,494.2c2.8,2.8,5.5,5.5,8.3,8.3c0.4,0.4,0.8,0.8,1.2,1.2c1.1,1.1,3.1,1.2,4.2,0s1.2-3.1,0-4.2
				c-2.8-2.8-5.5-5.5-8.3-8.3c-0.4-0.4-0.8-0.8-1.2-1.2c-1.1-1.1-3.1-1.2-4.2,0S366.3,493,367.5,494.2L367.5,494.2z"/>
		</g>
		<g>
			<path class="st3" d="M353.5,494.2c2.8,2.8,5.5,5.5,8.3,8.3c0.4,0.4,0.8,0.8,1.2,1.2c1.1,1.1,3.1,1.2,4.2,0s1.2-3.1,0-4.2
				c-2.8-2.8-5.5-5.5-8.3-8.3c-0.4-0.4-0.8-0.8-1.2-1.2c-1.1-1.1-3.1-1.2-4.2,0S352.3,493,353.5,494.2L353.5,494.2z"/>
		</g>
		<g>
			<path class="st3" d="M339.5,494.2c2.8,2.8,5.5,5.5,8.3,8.3c0.4,0.4,0.8,0.8,1.2,1.2c1.1,1.1,3.1,1.2,4.2,0s1.2-3.1,0-4.2
				c-2.8-2.8-5.5-5.5-8.3-8.3c-0.4-0.4-0.8-0.8-1.2-1.2c-1.1-1.1-3.1-1.2-4.2,0S338.3,493,339.5,494.2L339.5,494.2z"/>
		</g>
		<g>
			<path class="st3" d="M324.5,494.2c2.8,2.8,5.5,5.5,8.3,8.3c0.4,0.4,0.8,0.8,1.2,1.2c1.1,1.1,3.1,1.2,4.2,0s1.2-3.1,0-4.2
				c-2.8-2.8-5.5-5.5-8.3-8.3c-0.4-0.4-0.8-0.8-1.2-1.2c-1.1-1.1-3.1-1.2-4.2,0S323.3,493,324.5,494.2L324.5,494.2z"/>
		</g>
		<g>
			<path class="st3" d="M309.6,494.2c2.8,2.8,5.5,5.5,8.3,8.3c0.4,0.4,0.8,0.8,1.2,1.2c1.1,1.1,3.1,1.2,4.2,0s1.2-3.1,0-4.2
				c-2.8-2.8-5.5-5.5-8.3-8.3c-0.4-0.4-0.8-0.8-1.2-1.2c-1.1-1.1-3.1-1.2-4.2,0S308.4,493,309.6,494.2L309.6,494.2z"/>
		</g>
		<g>
			<path class="st3" d="M294.1,494.2c2.8,2.8,5.5,5.5,8.3,8.3c0.4,0.4,0.8,0.8,1.2,1.2c1.1,1.1,3.1,1.2,4.2,0s1.2-3.1,0-4.2
				c-2.8-2.8-5.5-5.5-8.3-8.3c-0.4-0.4-0.8-0.8-1.2-1.2c-1.1-1.1-3.1-1.2-4.2,0S292.9,493,294.1,494.2L294.1,494.2z"/>
		</g>
		<g>
			<path class="st3" d="M278.4,494.2c2.8,2.8,5.5,5.5,8.3,8.3c0.4,0.4,0.8,0.8,1.2,1.2c1.1,1.1,3.1,1.2,4.2,0s1.2-3.1,0-4.2
				c-2.8-2.8-5.5-5.5-8.3-8.3c-0.4-0.4-0.8-0.8-1.2-1.2c-1.1-1.1-3.1-1.2-4.2,0S277.2,493,278.4,494.2L278.4,494.2z"/>
		</g>
		<g>
			<path class="st3" d="M263.4,494.2c2.8,2.8,5.5,5.5,8.3,8.3c0.4,0.4,0.8,0.8,1.2,1.2c1.1,1.1,3.1,1.2,4.2,0s1.2-3.1,0-4.2
				c-2.8-2.8-5.5-5.5-8.3-8.3c-0.4-0.4-0.8-0.8-1.2-1.2c-1.1-1.1-3.1-1.2-4.2,0S262.2,493,263.4,494.2L263.4,494.2z"/>
		</g>
		<g>
			<path class="st3" d="M248.4,494.2c2.8,2.8,5.5,5.5,8.3,8.3c0.4,0.4,0.8,0.8,1.2,1.2c1.1,1.1,3.1,1.2,4.2,0s1.2-3.1,0-4.2
				c-2.8-2.8-5.5-5.5-8.3-8.3c-0.4-0.4-0.8-0.8-1.2-1.2c-1.1-1.1-3.1-1.2-4.2,0C247.3,491.2,247.2,493,248.4,494.2L248.4,494.2z"/>
		</g>
		<g>
			<path class="st3" d="M235.9,496.7c2.9,2.9,5.8,5.8,8.8,8.8c0.4,0.4,0.8,0.8,1.2,1.2c1.1,1.1,3.1,1.2,4.2,0c1.1-1.2,1.2-3.1,0-4.2
				c-2.9-2.9-5.8-5.8-8.8-8.8c-0.4-0.4-0.8-0.8-1.2-1.2c-1.1-1.1-3.1-1.2-4.2,0S234.7,495.5,235.9,496.7L235.9,496.7z"/>
		</g>
		<g>
			<path class="st3" d="M230.9,506.5c2.9,2.9,5.8,5.8,8.8,8.8c0.4,0.4,0.8,0.8,1.2,1.2c1.1,1.1,3.1,1.2,4.2,0c1.1-1.2,1.2-3.1,0-4.2
				c-2.9-2.9-5.8-5.8-8.8-8.8c-0.4-0.4-0.8-0.8-1.2-1.2c-1.1-1.1-3.1-1.2-4.2,0C229.8,503.4,229.7,505.3,230.9,506.5L230.9,506.5z"
				/>
		</g>
		<g>
			<path class="st3" d="M291.9,565.7c2.5,2.5,5,4.9,7.5,7.4c0.4,0.3,0.7,0.7,1.1,1c1.1,1.1,3.1,1.2,4.2,0s1.2-3.1,0-4.2
				c-2.5-2.5-5-4.9-7.5-7.4c-0.4-0.3-0.7-0.7-1.1-1c-1.1-1.1-3.1-1.2-4.2,0S290.7,564.5,291.9,565.7L291.9,565.7z"/>
		</g>
		<g>
			<path class="st3" d="M275.9,565.7c2.5,2.5,5,4.9,7.5,7.4c0.4,0.3,0.7,0.7,1.1,1c1.1,1.1,3.1,1.2,4.2,0s1.2-3.1,0-4.2
				c-2.5-2.5-5-4.9-7.5-7.4c-0.4-0.3-0.7-0.7-1.1-1c-1.1-1.1-3.1-1.2-4.2,0S274.7,564.5,275.9,565.7L275.9,565.7z"/>
		</g>
		<g>
			<path class="st3" d="M259.9,565.7c2.5,2.5,5,4.9,7.5,7.4c0.4,0.3,0.7,0.7,1.1,1c1.1,1.1,3.1,1.2,4.2,0s1.2-3.1,0-4.2
				c-2.5-2.5-5-4.9-7.5-7.4c-0.4-0.3-0.7-0.7-1.1-1c-1.1-1.1-3.1-1.2-4.2,0S258.7,564.5,259.9,565.7L259.9,565.7z"/>
		</g>
		<g>
			<path class="st3" d="M244.7,565.7c2.5,2.5,5,4.9,7.5,7.4c0.4,0.3,0.7,0.7,1.1,1c1.1,1.1,3.1,1.2,4.2,0s1.2-3.1,0-4.2
				c-2.5-2.5-5-4.9-7.5-7.4c-0.4-0.3-0.7-0.7-1.1-1c-1.1-1.1-3.1-1.2-4.2,0S243.5,564.5,244.7,565.7L244.7,565.7z"/>
		</g>
		<g>
			<path class="st3" d="M228.7,565.7c2.5,2.5,5,4.9,7.5,7.4c0.4,0.3,0.7,0.7,1.1,1c1.1,1.1,3.1,1.2,4.2,0c1.1-1.2,1.2-3.1,0-4.2
				c-2.5-2.5-5-4.9-7.5-7.4c-0.4-0.3-0.7-0.7-1.1-1c-1.1-1.1-3.1-1.2-4.2,0S227.5,564.5,228.7,565.7L228.7,565.7z"/>
		</g>
		<g>
			<path class="st3" d="M212.7,565.7c2.5,2.5,5,4.9,7.5,7.4c0.4,0.3,0.7,0.7,1.1,1c1.1,1.1,3.1,1.2,4.2,0c1.1-1.2,1.2-3.1,0-4.2
				c-2.5-2.5-5-4.9-7.5-7.4c-0.4-0.3-0.7-0.7-1.1-1c-1.1-1.1-3.1-1.2-4.2,0S211.5,564.5,212.7,565.7L212.7,565.7z"/>
		</g>
		<g>
			<path class="st3" d="M196.7,565.7c2.5,2.5,5,4.9,7.5,7.4c0.4,0.3,0.7,0.7,1.1,1c1.1,1.1,3.1,1.2,4.2,0c1.1-1.2,1.2-3.1,0-4.2
				c-2.5-2.5-5-4.9-7.5-7.4c-0.4-0.3-0.7-0.7-1.1-1c-1.1-1.1-3.1-1.2-4.2,0S195.5,564.5,196.7,565.7L196.7,565.7z"/>
		</g>
		<g>
			<path class="st3" d="M180.7,565.7c2.5,2.5,5,4.9,7.5,7.4c0.4,0.3,0.7,0.7,1.1,1c1.1,1.1,3.1,1.2,4.2,0c1.1-1.2,1.2-3.1,0-4.2
				c-2.5-2.5-5-4.9-7.5-7.4c-0.4-0.3-0.7-0.7-1.1-1c-1.1-1.1-3.1-1.2-4.2,0S179.5,564.5,180.7,565.7L180.7,565.7z"/>
		</g>
		<g>
			<path class="st3" d="M163.7,565.7c2.5,2.5,5,4.9,7.5,7.4c0.4,0.3,0.7,0.7,1.1,1c1.1,1.1,3.1,1.2,4.2,0c1.1-1.2,1.2-3.1,0-4.2
				c-2.5-2.5-5-4.9-7.5-7.4c-0.4-0.3-0.7-0.7-1.1-1c-1.1-1.1-3.1-1.2-4.2,0S162.5,564.5,163.7,565.7L163.7,565.7z"/>
		</g>
		<g>
			<path class="st3" d="M146.7,565.7c2.5,2.5,5,4.9,7.5,7.4c0.4,0.3,0.7,0.7,1.1,1c1.1,1.1,3.1,1.2,4.2,0c1.1-1.2,1.2-3.1,0-4.2
				c-2.5-2.5-5-4.9-7.5-7.4c-0.4-0.3-0.7-0.7-1.1-1c-1.1-1.1-3.1-1.2-4.2,0S145.5,564.5,146.7,565.7L146.7,565.7z"/>
		</g>
		<g>
			<path class="st3" d="M130.7,565.7c2.5,2.5,5,4.9,7.5,7.4c0.4,0.3,0.7,0.7,1.1,1c1.1,1.1,3.1,1.2,4.2,0c1.1-1.2,1.2-3.1,0-4.2
				c-2.5-2.5-5-4.9-7.5-7.4c-0.4-0.3-0.7-0.7-1.1-1c-1.1-1.1-3.1-1.2-4.2,0S129.5,564.5,130.7,565.7L130.7,565.7z"/>
		</g>
		<g>
			<path class="st3" d="M113.7,565.7c2.5,2.5,5,4.9,7.5,7.4c0.4,0.3,0.7,0.7,1.1,1c1.1,1.1,3.1,1.2,4.2,0s1.2-3.1,0-4.2
				c-2.5-2.5-5-4.9-7.5-7.4c-0.4-0.3-0.7-0.7-1.1-1c-1.1-1.1-3.1-1.2-4.2,0S112.5,564.5,113.7,565.7L113.7,565.7z"/>
		</g>
		<g>
			<path class="st3" d="M96.7,565.7c2.5,2.5,5,4.9,7.5,7.4c0.4,0.3,0.7,0.7,1.1,1c1.1,1.1,3.1,1.2,4.2,0s1.2-3.1,0-4.2
				c-2.5-2.5-5-4.9-7.5-7.4c-0.4-0.3-0.7-0.7-1.1-1c-1.1-1.1-3.1-1.2-4.2,0S95.5,564.5,96.7,565.7L96.7,565.7z"/>
		</g>
		<g>
			<path class="st3" d="M79.7,565.7c2.5,2.5,5,4.9,7.5,7.4c0.4,0.3,0.7,0.7,1.1,1c1.1,1.1,3.1,1.2,4.2,0s1.2-3.1,0-4.2
				c-2.5-2.5-5-4.9-7.5-7.4c-0.4-0.3-0.7-0.7-1.1-1c-1.1-1.1-3.1-1.2-4.2,0S78.5,564.5,79.7,565.7L79.7,565.7z"/>
		</g>
		<g>
			<path class="st3" d="M62.7,565.7c2.5,2.5,5,4.9,7.5,7.4c0.4,0.3,0.7,0.7,1.1,1c1.1,1.1,3.1,1.2,4.2,0s1.2-3.1,0-4.2
				c-2.5-2.5-5-4.9-7.5-7.4c-0.4-0.3-0.7-0.7-1.1-1c-1.1-1.1-3.1-1.2-4.2,0C61.6,562.7,61.5,564.5,62.7,565.7L62.7,565.7z"/>
		</g>
		<g>
			<path class="st3" d="M46.7,565.7c2.5,2.5,5,4.9,7.5,7.4c0.4,0.3,0.7,0.7,1.1,1c1.1,1.1,3.1,1.2,4.2,0c1.1-1.2,1.2-3.1,0-4.2
				c-2.5-2.5-5-4.9-7.5-7.4c-0.4-0.3-0.7-0.7-1.1-1c-1.1-1.1-3.1-1.2-4.2,0S45.5,564.5,46.7,565.7L46.7,565.7z"/>
		</g>
		<g>
			<path class="st3" d="M32.7,565.7c2.5,2.5,5,4.9,7.5,7.4c0.4,0.3,0.7,0.7,1.1,1c1.1,1.1,3.1,1.2,4.2,0c1.1-1.2,1.2-3.1,0-4.2
				c-2.5-2.5-5-4.9-7.5-7.4c-0.4-0.3-0.7-0.7-1.1-1c-1.1-1.1-3.1-1.2-4.2,0C31.6,562.7,31.5,564.5,32.7,565.7L32.7,565.7z"/>
		</g>
	</g>
</g>
<g id="小路徑" class="st0">
	<path class="st5" d="M554.2,565.4c4.1,0,8.3-1.1,11.7-3.5c3.2-2.3,5.4-5.4,6.9-9c2.6-6.6,1.9-14.8-2.3-20.7c-2.3-3.3-5.5-5.7-9.3-7
		c-2-0.7-4.1-1-6.2-1.1c-3.7-0.1-7.5,0-11.3,0c-15.8,0-31.6,0-47.4,0c-31.4,0-62.9,0-94.3,0c-7.9,0-15.8,0-23.7,0
		c-5.3,0-10.5-0.3-15.5,2c-6.9,3.2-10.7,10.6-11,18c-0.2,7.4,3.2,15,9.8,18.7c3.6,2,7.6,2.6,11.6,2.6c7.6,0,15.1,0,22.7,0
		c13.8,0,27.6,0,41.5,0c16,0,32,0,48,0c14.1,0,28.1,0,42.2,0c8.2,0,16.4,0,24.7,0C552.9,565.4,553.5,565.4,554.2,565.4
		c3.9,0,3.9-6,0-6c-5.9,0-11.8,0-17.7,0c-12.6,0-25.1,0-37.7,0c-15.5,0-30.9,0-46.4,0c-14.6,0-29.2,0-43.8,0c-10,0-20,0-30,0
		c-2.1,0-4.2,0-6.3,0c-0.1,0-0.3,0-0.4,0c-0.3,0-0.6,0-0.8,0c-0.5,0-0.9-0.1-1.4-0.1s0.7,0.1-0.1,0c-0.3-0.1-0.6-0.1-1-0.2
		c-0.8-0.2-1.7-0.4-2.5-0.7c-0.1,0-0.8-0.4-0.1,0c-0.2-0.1-0.4-0.2-0.6-0.3c-0.4-0.2-0.8-0.4-1.1-0.6c-0.4-0.2-0.7-0.5-1.1-0.7
		c-0.4-0.3,0,0,0.1,0.1c-0.2-0.1-0.3-0.3-0.5-0.4c-0.6-0.5-1.2-1.2-1.8-1.8c-0.1-0.1-0.5-0.7,0,0c-0.1-0.2-0.2-0.3-0.4-0.5
		c-0.2-0.3-0.4-0.6-0.6-0.9c-0.2-0.4-0.4-0.7-0.6-1.1c-0.1-0.2-0.6-1.4-0.3-0.6c-0.3-0.7-0.5-1.4-0.7-2.2c-0.1-0.4-0.2-0.8-0.3-1.2
		c0-0.2-0.1-0.4-0.1-0.6c0-0.1-0.1-0.9-0.1-0.4c0.1,0.4-0.1-0.7-0.1-0.9c0-0.4,0-0.8-0.1-1.3c0-0.8,0.1-1.7,0.1-2.5
		c0-0.2,0.1-0.6,0,0.2c0-0.2,0.1-0.4,0.1-0.6c0.1-0.4,0.2-0.8,0.3-1.2c0.2-0.8,0.5-1.6,0.7-2.4c0.3-0.8-0.2,0.3,0.2-0.4
		c0.2-0.4,0.4-0.7,0.6-1.1c0.2-0.3,0.3-0.6,0.5-0.9c0.1-0.2,0.2-0.3,0.3-0.5c0.1-0.1,0.7-0.9,0.1-0.2c0.5-0.6,1-1.2,1.5-1.7
		c0.3-0.3,0.6-0.5,0.9-0.8s-0.6,0.4,0,0c0.2-0.2,0.5-0.3,0.7-0.5c0.7-0.4,1.4-0.8,2.1-1.1c-0.7,0.3,0.5-0.2,0.8-0.3
		c0.4-0.1,0.9-0.3,1.4-0.4c0.5-0.1,1-0.2,1.4-0.3c0.6-0.1,0.1,0-0.1,0c0.3,0,0.5-0.1,0.8-0.1c1.5-0.1,3-0.1,4.5-0.1
		c30.7,0,61.4,0,92.1,0c15.5,0,30.9,0,46.4,0c7.7,0,15.3,0,23,0c3.8,0,7.7,0,11.5,0c1.8,0,3.7,0,5.5,0c0.7,0,1.4,0,2.1,0
		c0.2,0,0.3,0,0.5,0c0.1,0,1.2,0.1,0.5,0c0.9,0.1,1.7,0.3,2.6,0.6c0.4,0.1,0.9,0.3,1.3,0.5c0.7,0.2-0.5-0.3,0.1,0
		c0.2,0.1,0.4,0.2,0.6,0.3c0.7,0.4,1.4,0.8,2,1.2s-0.5-0.4,0.1,0c0.2,0.1,0.3,0.3,0.5,0.4c0.3,0.3,0.6,0.6,0.9,0.9
		c0.3,0.3,0.5,0.6,0.8,0.9c0.5,0.5-0.4-0.5,0,0c0.1,0.1,0.2,0.3,0.3,0.4c0.5,0.7,0.9,1.4,1.2,2.1c0.1,0.2,0.1,0.3,0.2,0.5
		c0.3,0.6-0.2-0.6,0,0c0.1,0.4,0.3,0.8,0.4,1.2c0.3,0.8,0.5,1.6,0.6,2.4c0,0.2,0.2,1.4,0.1,0.4c0,0.4,0.1,0.8,0.1,1.3
		c0.1,0.8,0.1,1.7,0,2.5c0,0.3-0.1,0.7-0.1,1c-0.1,0.7,0.1-0.7,0,0c0,0.2-0.1,0.4-0.1,0.6c-0.2,0.8-0.4,1.6-0.6,2.4
		c-0.1,0.3-0.2,0.7-0.3,1c-0.1,0.2-0.4,0.8,0,0.1c-0.1,0.2-0.2,0.4-0.3,0.6c-0.4,0.7-0.8,1.5-1.2,2.2c-0.1,0.2-0.2,0.3-0.4,0.5
		c-0.4,0.6,0.3-0.4,0,0c-0.2,0.3-0.5,0.6-0.7,0.9c-0.3,0.3-0.6,0.6-0.9,0.9c-0.2,0.2-1.2,0.9-0.5,0.5c-0.6,0.5-1.3,0.9-2,1.3
		c-0.2,0.1-1.4,0.7-0.7,0.4c-0.4,0.1-0.7,0.3-1.1,0.4c-0.8,0.3-1.7,0.5-2.5,0.6c-0.1,0-0.9,0.1-0.2,0c-0.3,0-0.5,0.1-0.8,0.1
		c-0.5,0-1.1,0.1-1.6,0.1C550.3,559.4,550.3,565.4,554.2,565.4z"/>
	<g class="st1">
		<path class="st4" d="M356.9,535.5c-6.9,21.4,1,37.7,15,37.7c0,0,157.4,0,182.3,0c11.4,0,24.5-15.8,15-37.7"/>
		<path class="st3" d="M390.5,551.1c-1,1.4-2,2.2-3,2.7s-2,0.7-3,0.8c-1,0-2-0.2-3-0.7s-2-1.3-3-2.8c1-1.5,2-2.2,3-2.8
			c1-0.5,2-0.7,3-0.7s2,0.2,3,0.8C388.5,548.9,389.5,549.7,390.5,551.1z"/>
		<path class="st3" d="M449.5,551.1c-3.9,1.5-7.8,2.2-11.8,2.7c-3.9,0.5-7.8,0.8-11.8,0.8c-3.9,0-7.8-0.2-11.8-0.7
			c-3.9-0.5-7.8-1.3-11.8-2.8c3.9-1.5,7.8-2.2,11.8-2.8c3.9-0.5,7.8-0.8,11.8-0.7c3.9,0,7.8,0.2,11.8,0.8
			C441.7,548.9,445.6,549.6,449.5,551.1z"/>
		<path class="st3" d="M365.4,564.2c3.2,3.2,6.4,6.4,9.7,9.7c0.5,0.5,0.9,0.9,1.4,1.4c1.1,1.1,3.1,1.2,4.2,0s1.2-3.1,0-4.2
			c-3.2-3.2-6.4-6.4-9.7-9.7c-0.5-0.5-0.9-0.9-1.4-1.4c-1.1-1.1-3.1-1.2-4.2,0S364.2,563,365.4,564.2L365.4,564.2z"/>
		<path class="st3" d="M382.4,565.2c2.9,2.9,5.9,5.9,8.8,8.8c0.4,0.4,0.8,0.8,1.2,1.2c1.1,1.1,3.1,1.2,4.2,0s1.2-3.1,0-4.2
			c-2.9-2.9-5.9-5.9-8.8-8.8c-0.4-0.4-0.8-0.8-1.2-1.2c-1.1-1.1-3.1-1.2-4.2,0S381.2,564,382.4,565.2L382.4,565.2z"/>
		<path class="st3" d="M398.4,565.2c2.9,2.9,5.9,5.9,8.8,8.8c0.4,0.4,0.8,0.8,1.2,1.2c1.1,1.1,3.1,1.2,4.2,0s1.2-3.1,0-4.2
			c-2.9-2.9-5.9-5.9-8.8-8.8c-0.4-0.4-0.8-0.8-1.2-1.2c-1.1-1.1-3.1-1.2-4.2,0S397.2,564,398.4,565.2L398.4,565.2z"/>
		<path class="st3" d="M414.4,565.2c2.9,2.9,5.9,5.9,8.8,8.8c0.4,0.4,0.8,0.8,1.2,1.2c1.1,1.1,3.1,1.2,4.2,0s1.2-3.1,0-4.2
			c-2.9-2.9-5.9-5.9-8.8-8.8c-0.4-0.4-0.8-0.8-1.2-1.2c-1.1-1.1-3.1-1.2-4.2,0S413.2,564,414.4,565.2L414.4,565.2z"/>
		<path class="st3" d="M429.2,565.2c2.9,2.9,5.9,5.9,8.8,8.8c0.4,0.4,0.8,0.8,1.2,1.2c1.1,1.1,3.1,1.2,4.2,0s1.2-3.1,0-4.2
			c-2.9-2.9-5.9-5.9-8.8-8.8c-0.4-0.4-0.8-0.8-1.2-1.2c-1.1-1.1-3.1-1.2-4.2,0S428,564,429.2,565.2L429.2,565.2z"/>
		<path class="st3" d="M444.2,565.2c2.9,2.9,5.9,5.9,8.8,8.8c0.4,0.4,0.8,0.8,1.2,1.2c1.1,1.1,3.1,1.2,4.2,0s1.2-3.1,0-4.2
			c-2.9-2.9-5.9-5.9-8.8-8.8c-0.4-0.4-0.8-0.8-1.2-1.2c-1.1-1.1-3.1-1.2-4.2,0S443,564,444.2,565.2L444.2,565.2z"/>
		<path class="st3" d="M459.8,565.2c2.9,2.9,5.9,5.9,8.8,8.8c0.4,0.4,0.8,0.8,1.2,1.2c1.1,1.1,3.1,1.2,4.2,0s1.2-3.1,0-4.2
			c-2.9-2.9-5.9-5.9-8.8-8.8c-0.4-0.4-0.8-0.8-1.2-1.2c-1.1-1.1-3.1-1.2-4.2,0C458.7,562.2,458.7,564,459.8,565.2L459.8,565.2z"/>
		<path class="st3" d="M474.8,565.2c2.9,2.9,5.9,5.9,8.8,8.8c0.4,0.4,0.8,0.8,1.2,1.2c1.1,1.1,3.1,1.2,4.2,0s1.2-3.1,0-4.2
			c-2.9-2.9-5.9-5.9-8.8-8.8c-0.4-0.4-0.8-0.8-1.2-1.2c-1.1-1.1-3.1-1.2-4.2,0C473.7,562.2,473.7,564,474.8,565.2L474.8,565.2z"/>
		<path class="st3" d="M490.8,565.2c2.9,2.9,5.9,5.9,8.8,8.8c0.4,0.4,0.8,0.8,1.2,1.2c1.1,1.1,3.1,1.2,4.2,0s1.2-3.1,0-4.2
			c-2.9-2.9-5.9-5.9-8.8-8.8c-0.4-0.4-0.8-0.8-1.2-1.2c-1.1-1.1-3.1-1.2-4.2,0C489.7,562.2,489.7,564,490.8,565.2L490.8,565.2z"/>
		<path class="st3" d="M506.8,565.2c2.9,2.9,5.9,5.9,8.8,8.8c0.4,0.4,0.8,0.8,1.2,1.2c1.1,1.1,3.1,1.2,4.2,0c1.1-1.2,1.2-3.1,0-4.2
			c-2.9-2.9-5.9-5.9-8.8-8.8c-0.4-0.4-0.8-0.8-1.2-1.2c-1.1-1.1-3.1-1.2-4.2,0C505.7,562.2,505.7,564,506.8,565.2L506.8,565.2z"/>
		<path class="st3" d="M522.8,565.2c2.9,2.9,5.9,5.9,8.8,8.8c0.4,0.4,0.8,0.8,1.2,1.2c1.1,1.1,3.1,1.2,4.2,0c1.1-1.2,1.2-3.1,0-4.2
			c-2.9-2.9-5.9-5.9-8.8-8.8c-0.4-0.4-0.8-0.8-1.2-1.2c-1.1-1.1-3.1-1.2-4.2,0C521.7,562.2,521.7,564,522.8,565.2L522.8,565.2z"/>
		<path class="st3" d="M538.8,565.2c2.9,2.9,5.9,5.9,8.8,8.8c0.4,0.4,0.8,0.8,1.2,1.2c1.1,1.1,3.1,1.2,4.2,0c1.1-1.2,1.2-3.1,0-4.2
			c-2.9-2.9-5.9-5.9-8.8-8.8c-0.4-0.4-0.8-0.8-1.2-1.2c-1.1-1.1-3.1-1.2-4.2,0C537.7,562.2,537.7,564,538.8,565.2L538.8,565.2z"/>
		<path class="st3" d="M554.8,565.2c1.7,1.7,3.4,3.4,5.1,5.1c0.2,0.2,0.5,0.5,0.7,0.7c0.5,0.5,1.4,0.9,2.1,0.9
			c0.7,0,1.6-0.3,2.1-0.9c0.5-0.6,0.9-1.3,0.9-2.1s-0.3-1.5-0.9-2.1c-1.7-1.7-3.4-3.4-5.1-5.1c-0.2-0.2-0.5-0.5-0.7-0.7
			c-0.5-0.5-1.4-0.9-2.1-0.9c-0.7,0-1.6,0.3-2.1,0.9c-0.5,0.6-0.9,1.3-0.9,2.1C554,563.9,554.3,564.6,554.8,565.2L554.8,565.2z"/>
		<path class="st3" d="M475.5,551.1c-0.8,1.4-1.7,2.2-2.5,2.7s-1.7,0.7-2.5,0.8c-0.8,0-1.7-0.2-2.5-0.7s-1.7-1.3-2.5-2.8
			c0.8-1.5,1.7-2.2,2.5-2.8c0.8-0.5,1.7-0.7,2.5-0.7s1.7,0.2,2.5,0.8C473.8,548.9,474.7,549.7,475.5,551.1z"/>
	</g>
</g>
<g id="手">
	<path class="st6" d="M417,306.3c0,0,20.5,61.5,19.6,73.6s-11.2,109-11.2,109h36.3c0,0-6.5-95.9-5.6-105.3
		c0.9-9.3-0.9-28.9-2.8-35.4s-15.8-47.5-15.8-47.5S418.9,309.1,417,306.3z"/>
	<path class="st2" d="M377.9,200.1c0,0-9.3-6.5-16.8-6.5s-14.9,0.9-15.8,6.5s-0.9,11.2,2.8,14c3.7,2.8,17.7,7.5,29.8,18.6
		s14.9,14.9,21.4,25.2s12.1,31.7,12.1,31.7l6.5,18.6c0,0,8.4-2.8,12.1-4.7c3.7-1.9,7.5-4.7,7.5-4.7s-9.3-24.2-7.5-33.5
		c1.9-9.3,5.6-30.7,5.6-30.7s5.6-27,0.9-50.3s-11.2-30.7-18.6-31.7c-7.5-0.9-14,0.9-14,0.9s-0.9-22.4-2.8-27
		c-1.9-4.7-6.5-19.6-17.7-18.6c-11.2,0.9-18.6,9.3-17.7,17.7s4.7,23.3,8.4,33.5s5.6,19.6,7.5,27c1.9,7.5,0.9,14,0.9,14L377.9,200.1
		L377.9,200.1z"/>
	<g>
		<g>
			<path class="st3" d="M428.4,489.2c0.9-32,8.5-63.4,9.9-95.4c0.7-15.6-0.4-31-4.5-46.2c-4-15.1-10.1-29.7-15-44.5
				c-4.4-13.1-6.8-26.7-12.7-39.3c-5.2-11.2-12.6-21.5-21.7-29.9c-4.6-4.3-9.6-8.1-14.9-11.4c-2.8-1.8-5.6-3.4-8.6-4.9
				c-2.7-1.3-5.5-2.4-8.1-3.8c-2.4-1.4-4.7-3.2-5.3-6.1c-0.5-2.6,0.4-5.2,2-7.2s3.9-3.7,6.5-4.3c3.1-0.7,6.5,0.3,9.3,1.4
				c5.1,2,10.1,8.6,16.1,4.7c4.1-2.7,3.7-8.5,3.1-12.8c-0.6-4-1.9-7.9-2.7-11.9c-1.5-8.1-3.2-16.1-5.4-24c-1.1-3.9-2.3-7.7-3.7-11.5
				c-1.1-2.9-2.2-5.8-2.8-8.9c-0.9-5-0.6-10.5,2-14.9c2.5-4.3,7.6-7.8,12.7-6.6c5.4,1.3,9.3,6.1,11.8,10.8c3.3,6.2,3.6,13.7,4,20.6
				c0.2,3.5-1.4,7.7,1.3,10.7c2.1,2.3,5,1.5,7.7,1.2c6.5-0.7,12.6,5.1,16.3,9.8c4.6,6,6.5,13.1,7.6,20.4c1.2,8,2.1,16.2,2.3,24.4
				c0.2,8.5-1,16.7-3,24.9c-1.9,8.1-4.2,16.2-5,24.5c-0.7,7.9,0.2,15.8,2.1,23.5c4.1,16.5,9,32.8,14.1,49c2.3,7.4,5.1,14.6,7.1,22.1
				c2.1,7.4,3,14.7,2.8,22.3c-0.9,30.9,1.7,61.8,4.1,92.6c0.6,7.2,1.2,14.4,1.7,21.6c0.3,3.8,6.3,3.9,6,0
				c-2.4-31.3-5.4-62.6-5.9-94.1c-0.1-7.6,0-15.1,0.2-22.6c0.2-7.8-1.3-15.5-3.5-22.9c-2.3-7.7-5.1-15.3-7.5-23
				c-2.6-8.2-5-16.5-7.4-24.8c-4.5-15.8-10.1-31.9-7.2-48.5c1.5-8.3,4-16.5,5.6-24.8c1.7-8.5,2.1-17,1.5-25.6
				c-0.6-8.2-1.4-16.6-3-24.7c-1.5-7.5-4.6-14.3-9.6-20.1c-4.5-5.2-11.1-10.1-18.3-10.1c-1.3,0-2.6,0.3-3.9,0.5
				c-0.1,0-1-0.1-0.6,0.1c1.4,0.5,0.1,0.3,0.3,0.1c0.1,0-0.1-1.5-0.1-1.8c0.1-2,0.3-3.8,0.2-5.8c-0.1-2.1-0.3-4.3-0.5-6.4
				c-0.7-6.9-2.1-13.4-6.1-19.2c-3.3-4.8-8.1-9.4-14-10.6c-6.2-1.3-12.5,1.4-16.6,6.1c-3.9,4.5-5.6,10.3-5.6,16.2
				c0,6.7,2.4,12.4,4.5,18.5c2.7,7.9,4.7,16,6.4,24.1c1.1,5.3,2.2,10.6,3.5,15.9c0.5,2.1,0.9,4.3,1,6.5c0,0.8,0,2.2-0.1,2.6
				c0,0.2-0.4,1.3-0.2,0.9c-0.1,0.2-0.2,0.4-0.3,0.5c-0.3,0.5,0.3-0.2-0.2,0.2c0.2-0.2,0.1,0-0.1,0c-0.5,0.1-0.8,0.1-1.3,0
				c-1.4-0.3-2.6-1.5-3.8-2.3c-2.8-2-5.9-3.4-9.3-4.3c-6.7-1.7-13.4-0.2-18,5.1c-4.3,4.9-5.9,12.1-2,17.8c3.7,5.3,10,7,15.5,9.9
				c11.3,5.9,21.3,13.8,29.4,23.6c8,9.7,13.7,21,17.4,33c2.2,7.1,3.7,14.4,6,21.4c2.4,7.5,5.1,14.8,7.8,22.2
				c5.3,14.7,10.6,29.8,12.1,45.5c3.1,32.4-4.3,64.7-7.8,96.8c-0.8,7.7-1.4,15.4-1.7,23.2C422.3,493,428.3,493,428.4,489.2
				L428.4,489.2z"/>
		</g>
		<path class="st3" d="M379,197.5c1.6,2.6,3.7,5.2,5.8,8c1,1.4,2,2.9,2.9,4.4c0.8,1.5,1.5,3.2,1.9,4.8c-2-2.8-4.5-4.9-7.2-6.7
			s-5.7-3.5-8.6-5.9L379,197.5z"/>
		<path class="st3" d="M407.8,150.7v10.5c0,1.8,0,3.5,0.1,5.3l0.1,5.3c0,7.1-0.1,14.1-0.8,21.1c-0.5-7-1.5-13.9-2.7-20.8l-0.9-5.2
			c-0.3-1.7-0.6-3.4-0.9-5.2l-1.7-10.4L407.8,150.7z"/>
		<path class="st3" d="M369.2,148.1c2.1-2.6,4.6-4.5,7.1-6c2.6-1.5,5.2-2.7,7.9-3.6c2.7-0.9,5.5-1.6,8.2-2c2.8-0.4,5.5-0.6,8.3-0.5
			c-2.7,0.5-5.3,1.2-7.8,2.2s-4.9,2.1-7.2,3.5c-2.3,1.4-4.4,2.9-6.3,4.6c-1.8,1.7-3.4,3.6-4.4,5.6L369.2,148.1z"/>
		<path class="st3" d="M376.9,170.4c0.1,0,0,0.2,0.3,0s0.9-0.9,1.6-1.6c1.4-1.2,2.7-1.8,3.7-2.3c2.4-1.4,4.9-2.4,7.1-3.5
			c2.4-1.2,4.9-2.2,7.3-3c2.5-0.8,5-1.6,7.5-2.1c-2.3,1.1-4.6,2.4-6.8,3.7c-2.2,1.4-4.2,2.8-6.2,4.4c-2.1,1.6-4.2,3.2-5.9,4.8
			c-1.1,1-2,1.7-2.4,2.4c-0.2,0.3-0.4,0.7-0.9,1.4c-0.5,0.8-1.6,1.8-2.7,2.3L376.9,170.4z"/>
		<path class="st3" d="M434.1,190.6c-1.6-1.7-3.5-3.4-5.6-4.7c-2.1-1.4-4.4-2.6-6.8-3.6s-4.9-1.9-7.5-2.5c-1.3-0.3-2.6-0.8-3.9-1.1
			s-2.6-0.6-3.9-0.2c1.2-0.6,2.7-0.7,4-0.7c1.4,0,2.7,0.2,4,0.2c2.7,0.1,5.5,0.4,8.2,0.9s5.5,1.3,8.1,2.3c2.7,1,5.3,2.4,7.8,4.1
			L434.1,190.6z"/>
		<path class="st3" d="M363,220.2c1.5-2.4,3.4-3.9,5.3-5c0.9-0.6,1.9-1.1,2.8-1.5s1.7-0.9,2.5-1.3c1.6-0.9,3.1-2,4.4-3.4
			s2.3-3.1,3.1-4.9c-0.2,2-0.7,4-1.6,5.9s-2.2,3.6-3.7,5.1c-0.7,0.8-1.5,1.5-2.2,2.2s-1.4,1.3-2,2c-1.2,1.3-2,2.7-2.3,3.9L363,220.2
			z"/>
		<path class="st3" d="M382.3,235.7c2-1.9,4.1-3.5,6.3-5c2.2-1.5,4.4-2.8,6.7-3.9c4.6-2.3,9.3-4.3,13.9-6l7-2.6
			c2.3-0.8,4.7-1.7,7.1-2.5c4.8-1.6,9.8-2.7,14.8-2.5c-5,0.4-9.7,2.1-14.1,4.1c-2.2,1-4.4,2.2-6.7,3.3l-6.6,3.4
			c-4.4,2.3-8.7,4.7-12.7,7.4c-2,1.4-3.9,2.8-5.7,4.3c-1.8,1.5-3.4,3.2-4.9,4.9L382.3,235.7z"/>
		<path class="st3" d="M397.5,252.6c5.9-3.3,11.9-6.3,18-9.1c3-1.4,6.1-2.7,9.2-4c1.5-0.6,3.1-1.3,4.6-1.9c0.8-0.3,1.5-0.6,2.3-0.9
			c0.4-0.2,0.9-0.1,1.3-0.1s0.8-0.1,1.2-0.2c-0.4,0.2-0.7,0.4-1.2,0.4c-0.4,0-0.8,0.1-1.1,0.3c-0.7,0.4-1.4,0.9-2.1,1.3
			c-1.4,0.9-2.8,1.8-4.2,2.7c-2.8,1.8-5.5,3.6-8.2,5.5c-5.4,3.8-10.7,7.7-15.8,11.9L397.5,252.6z"/>
		<path class="st3" d="M403.6,264.8c1.4-0.7,2.9-1.1,4.3-1.2s2.6,0,3.8,0.1c2.3,0.3,4.4,0.9,6.3,1.2c2,0.3,4,0.5,6.1,0.3
			c2-0.2,4-0.7,5.9-1.7c-1.5,1.5-3.4,2.7-5.5,3.4c-2.1,0.8-4.3,1.2-6.5,1.5c-2.3,0.3-4.4,0.2-6.3,0.5c-1.9,0.2-3.5,0.9-4.1,1.7
			L403.6,264.8z"/>
		<path class="st3" d="M412.8,286.7c3.6,1,7.4,1.6,11.1,1.3c1.9-0.2,3.7-0.6,5.4-1.4c0.4-0.2,0.9-0.4,1.2-0.7
			c0.4-0.3,0.8-0.5,1.2-0.9c0.7-0.6,1.3-1.5,2-2.2c-0.5,0.9-0.7,1.9-1.3,2.8c-0.3,0.5-0.6,0.9-1,1.3c-0.3,0.4-0.7,0.8-1.1,1.2
			c-1.6,1.5-3.5,2.6-5.6,3.4c-4.1,1.6-8.5,2.2-12.9,2.3L412.8,286.7z"/>
		<path class="st3" d="M415.4,305.6c1.3-0.7,2.4-1.1,3.4-1.3c1-0.2,2-0.3,2.8-0.4c0.9-0.1,1.7-0.1,2.4-0.2c0.6-0.1,1.6-0.4,2.4-0.6
			c1.7-0.4,3.4-0.8,5-1.3s3.2-1.2,4.6-2.2c-1,1.4-2.4,2.7-3.8,3.7c-1.5,1.1-3,2-4.4,3c-0.8,0.5-1.3,0.9-2.3,1.5
			c-0.9,0.5-1.8,0.9-2.6,1.2c-0.8,0.4-1.5,0.7-2.2,1.1c-0.6,0.4-1.1,0.8-1.2,1L415.4,305.6z"/>
		<path class="st3" d="M377.6,197.8c1.7-0.1,3.5,0.2,4.9,0.7s2.6,1,3.6,1.5c2,0.8,4.1,1.4,6.3,1.5c4.4,0.4,9.2-0.4,13.6-1.9
			c2.2-0.8,4.5-1.8,6.8-2.7s4.6-1.8,7-2.5c4.8-1.5,9.7-2.5,14.6-2.5c-4.9,0.6-9.6,2.2-14,4.2c-2.2,1-4.4,2.1-6.5,3.3
			c-2.2,1.1-4.2,2.4-6.6,3.6c-4.6,2.2-9.7,3.8-15.1,4c-2.7,0.1-5.5-0.2-8.2-1c-1.3-0.4-2.4-0.8-3.3-0.9c-0.9-0.2-1.7-0.2-2.4,0
			L377.6,197.8z"/>
	</g>
</g>
<g id="星球" class="st0">
	<path class="st7" d="M255.2,295.6c0,0-12.4,5.1-14.3,12.6s-3.6,13.1-3.2,16.8s-0.5,10.2-0.5,10.2S217.6,352,212,364.1
		c-5.6,12.1-8.1,23.3-8.1,23.3s24.9,7.5,54.7,10.3c29.8,2.8,60.5,2.8,78.2,0c17.7-2.8,41-6.5,43.8-8.4s6.5,0,3.7-12.1
		s-12.1-23.3-12.1-23.3s10.2-14.9,8.4-17.7c-1.9-2.8-10.2-14-14-15.8c-3.7-1.9-6.5-5.6-13-4.7s-17.7,7.5-17.7,7.5
		s-18.6-6.5-27.9-7.5c-9.3-0.9-19.6-0.9-19.6-0.9s-0.9-16.8-7.5-18.6C274.5,294.2,268.6,291.4,255.2,295.6z"/>
	<g class="st1">
		<g>
			<path class="st3" d="M338.9,324.7c4.5-1.9,8.9-3.8,13.4-5.6c1.8-0.7,3.5-1.6,5.4-1c1.8,0.6,3.6,1.9,5.2,3
				c3.2,2.2,6.1,4.8,8.7,7.7c1.3,1.5,2.5,3,3.7,4.6c0.8,1.2,2.3,2.8,2,4.4c-0.2,1-0.8,2.1-1.3,3c-0.6,1.2-1.2,2.4-1.8,3.6
				c-1.2,2.5-2.5,5.1-3.7,7.6c-0.7,1.5-0.4,3.2,1.1,4.1c1.3,0.8,3.4,0.4,4.1-1.1c1.2-2.5,2.4-4.9,3.6-7.4c1.2-2.4,2.6-4.8,3.5-7.4
				c1.8-5.2-2-9.7-5.1-13.4c-2.9-3.7-6.4-6.8-10.1-9.7c-3.9-3-8.5-6.2-13.7-5c-2.7,0.6-5.4,2.1-7.9,3.1c-2.9,1.2-5.7,2.4-8.6,3.6
				c-1.5,0.6-2.6,2-2.1,3.7C335.6,324.1,337.4,325.4,338.9,324.7L338.9,324.7z"/>
		</g>
		<g>
			<path class="st3" d="M243.3,332.3c-0.6-5.6-1-11.2-1.5-16.8c-0.2-2-0.3-3.9-0.5-5.9c0-0.5,0-0.9-0.1-1.4c0-0.1,0-0.3,0-0.3
				c0.3,0.5-0.7,1.2-0.6,1.5c0-0.1,0.5-0.5,0.5-0.5c0.1-0.1,0.6-0.5,0,0c0.1-0.1,0.2-0.2,0.3-0.3c0.8-0.6,1.7-1.1,2.5-1.7
				c1.6-1,3.2-1.9,4.9-2.8c4.4-2.4,8.9-4.2,13.8-5.2c6.4-1.4,13.3-1.5,19.7,0c-0.7-0.7-1.4-1.4-2.1-2.1c2,5.9,4.1,11.8,6.4,17.6
				c0.6,1.5,2,2.6,3.7,2.1c1.4-0.4,2.7-2.2,2.1-3.7c-2.2-5.4-4.1-10.8-6-16.3c-0.2-0.5-0.3-0.9-0.5-1.4c-1-2.7-4.8-2.7-7.2-3
				c-4.3-0.5-8.7-0.5-13,0.1c-7.6,1-14.6,3.6-21.3,7.3c-2.5,1.4-5,2.8-7.3,4.6c-0.9,0.7-1.7,1.6-2,2.7c-0.2,0.6-0.1,1.3,0,1.9
				c0.6,7.8,1.3,15.6,2,23.3c0.2,1.6,1.3,3,3,3C241.8,335.3,243.5,333.9,243.3,332.3L243.3,332.3z"/>
		</g>
		<path class="st3" d="M296.4,332.4c-0.9,0.9-1.1,1.9-1.1,2.9s0.2,2,0.6,2.9c0.7,1.9,1.7,3.8,2.9,4.8c2.8,2.8,6.3,4.6,9.9,5.3
			c0.4,0.1,0.9,0.2,1.2,0.2c0.4,0,0.8,0,1.3,0c0.9,0,1.9-0.1,3-0.2c2-0.3,4-0.7,5.9-1.3c1.9-0.6,3.7-1.4,4.9-2.6
			c0.6-0.6,1.1-1.4,1.3-2.3c0.2-1,0.1-2.1-0.1-3.3c0.9,0.8,1.7,1.8,2,3.2c0.4,1.3,0.3,2.9-0.3,4.2c-0.5,1.4-1.4,2.5-2.4,3.5
			s-2,1.7-3.2,2.4c-2.2,1.3-4.6,2.2-7,2.8c-1.2,0.3-2.5,0.5-3.8,0.6c-0.7,0.1-1.4,0.1-2.1,0c-0.9-0.1-1.5-0.2-2.2-0.3
			c-5.3-1.1-10.1-4.3-12.9-8.8c-0.2-0.3-0.4-0.6-0.5-0.9c-0.2-0.3-0.3-0.7-0.4-1c-0.3-0.6-0.5-1.3-0.6-1.9c-0.3-1.3-0.4-2.6-0.4-3.9
			c0.1-1.3,0.3-2.7,1-3.9C294,333.5,295.2,332.6,296.4,332.4z"/>
		<path class="st3" d="M343.2,350.3c-0.9,0.1-1.2,0.7-1.4,1.3c-0.2,0.6-0.4,1.2-0.5,1.9c-0.2,1.3-0.4,2.8-0.4,3.9l0.1,0.9
			c0,0.3,0,0.6,0.1,0.9c0.1,0.5,0.1,1.1,0.4,1.6c0.3,1,0.7,1.9,1.3,2.8c0.2,0.2,0.3,0.4,0.4,0.7c0.2,0.2,0.4,0.4,0.5,0.6l0.3,0.3
			l0.3,0.3c0.2,0.2,0.4,0.4,0.6,0.6c0.9,0.8,1.8,1.5,2.9,2.2c2.2,1.5,4.7,2.6,7.8,3.7c-0.7,0.4-1.5,0.9-2.3,1.1
			c-0.4,0.1-0.8,0.2-1.2,0.4c-0.4,0.1-0.8,0.1-1.2,0.2c-0.8,0.1-1.7,0.1-2.5,0.1c-0.4,0-0.8-0.1-1.3-0.1c-0.4,0-0.9-0.1-1.3-0.2
			l-1.3-0.3c-0.4-0.1-0.8-0.3-1.2-0.5c-0.8-0.3-1.6-0.8-2.4-1.2c-1.5-1-3-2.3-4-4c-0.3-0.4-0.5-0.8-0.7-1.3
			c-0.2-0.4-0.5-0.9-0.6-1.3c-0.3-1-0.6-1.9-0.7-2.9s-0.1-1.9,0-2.9c0.1-0.9,0.4-1.8,0.6-2.7c0.3-0.9,0.7-1.6,1.2-2.4
			c0.5-0.7,1-1.4,1.6-2.1c0.6-0.6,1.3-1.3,2.2-1.7c0.4-0.2,0.9-0.3,1.4-0.3c0.2,0,0.5,0.1,0.7,0.2
			C342.9,350,343.1,350.2,343.2,350.3z"/>
		<path class="st3" d="M258.2,340.8c2-0.1,4.2,0.8,5.9,2.2c1.7,1.4,3,3.4,3.7,5.5c0.8,2.1,1,4.5,0.6,6.9c-0.1,0.6-0.2,1.2-0.4,1.8
			l-0.3,0.9l-0.4,0.8c-0.5,1.1-1.1,2.1-1.8,3c-2.9,3.7-7.2,5.9-11.5,6.4c-2.1,0.3-4.3,0.1-6.4-0.4c-2-0.6-4-1.6-5.2-3.3
			c2,0.3,3.7,0.2,5.5-0.1c1.7-0.3,3.3-0.8,4.8-1.5c3-1.3,5.5-3.1,7.3-5.3c0.4-0.6,0.8-1.1,1.1-1.8l0.3-0.5l0.2-0.5
			c0.2-0.3,0.2-0.6,0.3-0.9c0.4-1.3,0.6-2.8,0.5-4.3C262.3,346.7,261.3,343.5,258.2,340.8z"/>
		<g>
			<path class="st3" d="M207.4,385.9c4.8-19.7,16.7-37.1,32.8-49.5c5.2-4,10.8-7.4,16.7-10.2c1.5-0.7,1.8-2.8,1.1-4.1
				c-0.9-1.5-2.6-1.8-4.1-1.1c-19.8,9.5-36.8,26.1-46.1,46c-2.6,5.5-4.6,11.3-6.1,17.2C200.7,388.1,206.5,389.7,207.4,385.9
				L207.4,385.9z"/>
		</g>
		<g>
			<path class="st3" d="M271.7,320.8c11-3,22.5-3.8,33.9-2.6c8.5,0.9,18,3.4,25.9,6.9c16.5,7.2,30.6,19.2,40.2,34.3
				c2.7,4.3,5.2,8.8,7.2,13.5c1.8,4.3,3.3,9.4,4.6,14.1c1,3.7,6.8,2.1,5.8-1.6c-1.3-4.5-2.5-8.9-4.3-13.2c-1.8-4.5-3.9-8.9-6.4-13
				c-4.8-8.1-10.9-15.6-17.8-22c-14.2-13-32.1-21.7-51.2-24.4c-13.2-1.9-26.6-1.1-39.5,2.3C266.4,316,268,321.8,271.7,320.8
				L271.7,320.8z"/>
		</g>
		<path class="st3" d="M385.8,388c-14.2,5.4-29,9.2-44,11.7c-15,2.6-30.3,3.8-45.6,3.8c-15.3,0-30.5-1.2-45.5-3.8
			c-15-2.5-29.8-6.2-44.1-11.5c15,2.5,29.9,4.6,44.8,6.1c14.9,1.4,29.9,2.2,44.8,2.2c15,0,29.9-0.7,44.8-2.2
			C356,392.8,370.9,390.6,385.8,388z"/>
	</g>
</g>
<g id="鉛筆" class="st0">
	<polygon class="st5" points="105.4,510.8 110.1,547.1 133.4,519.1 	"/>
	<polygon class="st7" points="96.1,453.9 105.4,510.8 133.4,519.1 169.7,477.2 162.2,477.2 149.2,469.8 141.1,471.5 118.5,463.3 
		112.9,468.7 	"/>
	<polygon class="st8" points="209.3,108.8 96.6,452.5 107.8,468.4 118,462.8 127.3,472.1 148.7,469.3 161.8,476.8 169.2,476.8 
		281,130.2 	"/>
	<polygon class="st7" points="220.9,76.7 209.8,109.3 281.5,130.7 292.7,97.2 	"/>
	<path class="st5" d="M292.6,97.8l6.1-20.7c5.9-20.1-5.7-41.4-25.8-47.3l0,0c-20.1-5.9-41.4,5.7-47.3,25.8l-6.1,20.7L292.6,97.8z"/>
	<g class="st1">
		<g>
			<path class="st3" d="M206.3,108.3c-1,3.1-2,6.2-3,9.3c-2.7,8.4-5.5,16.8-8.2,25.1c-4.1,12.4-8.1,24.9-12.2,37.3
				c-4.9,15.1-9.9,30.2-14.8,45.3c-5.4,16.5-10.8,33.1-16.2,49.6c-5.5,16.7-10.9,33.4-16.4,50.1c-5.1,15.6-10.2,31.1-15.3,46.7
				c-4.3,13.2-8.6,26.3-12.9,39.5c-3.1,9.5-6.2,19-9.3,28.5c-1.5,4.5-3,8.9-4.4,13.4c-0.1,0.2-0.1,0.4-0.2,0.6
				c-1.2,3.7,4.6,5.3,5.8,1.6c1-3.1,2-6.2,3-9.3c2.7-8.4,5.5-16.8,8.2-25.1c4.1-12.4,8.1-24.9,12.2-37.3
				c4.9-15.1,9.9-30.2,14.8-45.3c5.4-16.5,10.8-33.1,16.2-49.6c5.5-16.7,10.9-33.4,16.4-50.1c5.1-15.6,10.2-31.1,15.3-46.7
				c4.3-13.2,8.6-26.3,12.9-39.5c3.1-9.5,6.2-19,9.3-28.5c1.5-4.5,3-8.9,4.4-13.4c0.1-0.2,0.1-0.4,0.2-0.6
				C213.3,106.2,207.5,104.7,206.3,108.3L206.3,108.3z"/>
		</g>
		<g>
			<path class="st3" d="M279.4,129.8c-1,3.1-2,6.2-3,9.3c-2.7,8.4-5.5,16.8-8.2,25.1c-4.1,12.4-8.1,24.9-12.2,37.3
				c-4.9,15.1-9.9,30.2-14.8,45.3c-5.4,16.5-10.8,33.1-16.2,49.6c-5.5,16.7-10.9,33.4-16.4,50.1c-5.1,15.6-10.2,31.1-15.3,46.7
				c-4.3,13.2-8.6,26.3-12.9,39.5c-3.1,9.5-6.2,19-9.3,28.5c-1.5,4.5-3,8.9-4.4,13.4c-0.1,0.2-0.1,0.4-0.2,0.6
				c-1.2,3.7,4.6,5.3,5.8,1.6c1-3.1,2-6.2,3-9.3c2.7-8.4,5.5-16.8,8.2-25.1c4.1-12.4,8.1-24.9,12.2-37.3
				c4.9-15.1,9.9-30.2,14.8-45.3c5.4-16.5,10.8-33.1,16.2-49.6c5.5-16.7,10.9-33.4,16.4-50.1c5.1-15.6,10.2-31.1,15.3-46.7
				c4.3-13.2,8.6-26.3,12.9-39.5c3.1-9.5,6.2-19,9.3-28.5c1.5-4.5,3-8.9,4.4-13.4c0.1-0.2,0.1-0.4,0.2-0.6
				C286.4,127.7,280.6,126.1,279.4,129.8L279.4,129.8z"/>
		</g>
		<g>
			<path class="st3" d="M93.3,455.4c0.5,3.1,0.9,6.2,1.4,9.2c1.1,7.4,2.2,14.8,3.3,22.2c1.3,8.9,2.7,17.8,4,26.7
				c1.2,7.7,2.3,15.5,3.5,23.2c0.6,3.7,0.9,7.6,1.7,11.3c0,0.1,0,0.1,0,0.2c0.2,1.6,2.3,2.5,3.7,2.1c1.7-0.5,2.3-2.1,2.1-3.7
				c-0.5-3.1-0.9-6.2-1.4-9.2c-1.1-7.4-2.2-14.8-3.3-22.2c-1.3-8.9-2.7-17.8-4-26.7c-1.2-7.7-2.3-15.5-3.5-23.2
				c-0.6-3.7-0.9-7.6-1.7-11.3c0-0.1,0-0.1,0-0.2c-0.2-1.6-2.3-2.5-3.7-2.1C93.7,452.2,93,453.8,93.3,455.4L93.3,455.4z"/>
		</g>
		<g>
			<path class="st3" d="M167.7,474c-2,2.4-4,4.7-5.9,7.1c-4.8,5.7-9.5,11.3-14.3,17c-5.7,6.8-11.5,13.6-17.2,20.5
				c-5,5.9-10,11.9-14.9,17.8c-2.4,2.9-4.9,5.7-7.3,8.7l-0.1,0.1c-1,1.2-1.2,3,0,4.2c1.1,1.1,3.2,1.2,4.2,0c2-2.4,4-4.7,5.9-7.1
				c4.8-5.7,9.5-11.3,14.3-17c5.7-6.8,11.5-13.6,17.2-20.5c5-5.9,10-11.9,14.9-17.8c2.4-2.9,4.9-5.7,7.3-8.7l0.1-0.1
				c1-1.2,1.2-3,0-4.2C170.9,473,168.8,472.8,167.7,474L167.7,474z"/>
		</g>
		<g>
			<path class="st3" d="M208.4,112c8.3,2.4,16.6,4.9,24.9,7.3c13.2,3.9,26.5,7.8,39.7,11.6c3,0.9,6,1.8,9.1,2.7
				c3.7,1.1,5.3-4.7,1.6-5.8c-8.3-2.4-16.6-4.9-24.9-7.3c-13.2-3.9-26.5-7.8-39.7-11.6c-3-0.9-6-1.8-9.1-2.7
				C206.3,105.1,204.7,110.9,208.4,112L208.4,112z"/>
		</g>
		<path class="st3" d="M99.5,456.3c3.3,2.1,6.1,4.7,8.6,7.4c0.6,0.7,1.3,1.4,1.7,1.7c0.2,0.2,0.4,0.3,0.5,0.3s0.1,0,0.2,0
			c0-0.1,0.1-0.1,0.6-0.3c0.4-0.2,1.1-0.6,1.7-1.2c0.7-0.5,1.5-1.1,2.5-1.7c1-0.5,2.2-1.2,3.8-1.3c0.4-0.1,0.8,0,1.2,0
			c0.4,0,0.8,0.1,1.2,0.1c0.8,0.2,1.5,0.5,2.2,0.9c1.3,0.8,2.1,1.7,2.7,2.5c0.6,0.9,1.1,1.7,1.6,2.4l0.3,0.5
			c0.1,0.1,0.2,0.3,0.3,0.4c0.2,0.3,0.4,0.6,0.7,0.9c0.5,0.6,1.1,1,1.8,1.4c0.7,0.3,1.5,0.5,2.4,0c-0.1,0.5-0.4,0.9-0.9,1.3
			c-0.5,0.3-1,0.6-1.6,0.7c-1.2,0.2-2.3,0-3.4-0.4c-0.5-0.2-1.1-0.4-1.6-0.7c-0.3-0.1-0.5-0.3-0.7-0.5l-0.6-0.5
			c-0.8-0.6-1.5-1.2-2.1-1.7s-1.2-0.8-1.6-0.9s-0.5,0-0.8,0.1c-0.5,0.1-1.8,1-3.3,2.1c-0.8,0.5-1.7,1.2-2.9,1.7
			c-0.6,0.3-1.3,0.5-2.2,0.6c-0.8,0.1-1.8,0.1-2.6-0.1c-0.4-0.1-0.8-0.2-1.3-0.4c-0.4-0.2-0.8-0.4-1.1-0.6c-0.7-0.5-1.2-1-1.6-1.5
			c-0.8-1-1.2-1.9-1.6-2.7C102,463.6,100.5,460.2,99.5,456.3z"/>
		<path class="st3" d="M139.2,472.2c1.2-0.9,2-1.9,3-2.8s2.4-1.9,4.2-2.3c1.5-0.4,3.2-0.5,5-0.1c1.8,0.3,3.5,1.3,4.8,2.5
			c0.7,0.7,1.1,1.1,1.5,1.6l1.1,1.2c0.1,0.2,0.3,0.3,0.4,0.4c0.1,0.1,0.3,0.3,0.5,0.4c0.4,0.3,0.9,0.6,1.3,0.9
			c1.8,1.2,3.9,2.1,6.8,2.8c-1,1.1-2.4,1.8-3.9,2.3c-1.5,0.4-3.1,0.5-4.7,0.2c-0.8-0.1-1.5-0.3-2.3-0.6c-0.4-0.1-0.7-0.2-1.2-0.5
			c-0.4-0.2-0.8-0.5-1.2-0.7c-0.7-0.5-1.3-1-1.8-1.5s-1-1-1.2-1.2c-0.6-0.5-1.2-0.9-1.9-1.3c-0.7-0.3-1.7-0.6-2.8-0.8
			c-0.8-0.2-1.9-0.2-3.2-0.1C142.3,472.6,140.6,472.8,139.2,472.2z"/>
		<g>
			<path class="st3" d="M295.5,98.6c2-6.8,4-13.7,6-20.5c3.9-13.3,0.8-27.6-7.9-38.2c-9.3-11.3-24.5-16.6-38.8-14
				s-26.3,12.9-31.3,26.5c-1.2,3.3-2.1,6.7-3.1,10.1c-1.2,4.1-2.4,8.1-3.6,12.2c-0.1,0.3-0.2,0.5-0.2,0.8c-0.5,1.6,0.6,3.2,2.1,3.7
				c8.3,2.4,16.5,4.9,24.8,7.3c13.1,3.9,26.2,7.7,39.3,11.6c3,0.9,6,1.8,9,2.7c3.7,1.1,5.3-4.7,1.6-5.8c-8.3-2.4-16.5-4.9-24.8-7.3
				c-13.1-3.9-26.2-7.7-39.3-11.6c-3-0.9-6-1.8-9-2.7c0.7,1.2,1.4,2.5,2.1,3.7c2-6.7,4-13.4,6-20.2c3.3-11.2,11.7-20.2,22.7-23.8
				c12.3-4.1,26.1-1.1,35.4,7.9c9.2,8.9,13,22.3,9.6,34.6c-1.9,6.9-4.1,13.8-6.1,20.7c-0.1,0.2-0.1,0.5-0.2,0.7
				C288.6,100.7,294.4,102.3,295.5,98.6z"/>
		</g>
		<g>
			<path class="st3" d="M216.5,75.3c-3,9.6-5.9,19.3-8.9,28.9c-0.4,1.4-0.8,2.8-1.3,4.1c-1.1,3.7,4.7,5.3,5.8,1.6
				c3-9.6,5.9-19.3,8.9-28.9c0.4-1.4,0.8-2.8,1.3-4.1C223.4,73.2,217.6,71.6,216.5,75.3L216.5,75.3z"/>
		</g>
		<g>
			<path class="st3" d="M289.7,97c-2.9,9.6-5.7,19.3-8.6,28.9c-0.4,1.3-0.8,2.7-1.2,4c-1.1,3.7,4.7,5.3,5.8,1.6
				c2.9-9.6,5.7-19.3,8.6-28.9c0.4-1.3,0.8-2.7,1.2-4C296.6,94.9,290.8,93.3,289.7,97L289.7,97z"/>
		</g>
		<polygon class="st3" points="236.7,117.8 192.7,245 230,115.7 		"/>
		<polygon class="st3" points="264.6,126.7 242.2,184.1 257.9,124.6 		"/>
		<polygon class="st3" points="117,462.4 160.9,335.2 123.6,464.5 		"/>
		<polygon class="st3" points="143.2,468.8 165.6,411.5 149.9,471 		"/>
		<path class="st3" d="M217.5,252c-2.7,12.7-6.1,25.1-9.6,37.5s-7.4,24.7-11.5,36.9c-4.1,12.2-8.4,24.4-13,36.4
			c-4.6,12.1-9.4,24-14.8,35.8c2.7-12.7,6-25.1,9.6-37.5c3.5-12.4,7.4-24.7,11.5-36.9c4.1-12.2,8.4-24.4,13-36.4
			C207.2,275.8,212,263.8,217.5,252z"/>
		<polygon class="st3" points="284.3,123.9 240.9,106.6 286.4,117.2 		"/>
		<polygon class="st3" points="218.9,83.2 264.4,100.9 216.9,89.9 		"/>
		<polygon class="st3" points="288.1,112.5 270.2,102.8 290.3,105.8 		"/>
		<g>
			<path class="st3" d="M104.3,513.4c8.3,2.4,16.7,4.8,25,7.2c1.2,0.3,2.4,0.7,3.6,1c3.7,1.1,5.3-4.7,1.6-5.8
				c-8.3-2.4-16.7-4.8-25-7.2c-1.2-0.3-2.4-0.7-3.6-1C102.1,506.5,100.5,512.3,104.3,513.4L104.3,513.4z"/>
		</g>
		<g>
			<path class="st3" d="M150.6,455c5.2,5.2,10.4,10.4,15.6,15.6c0.7,0.7,1.5,1.5,2.2,2.2c1.1,1.1,3.1,1.2,4.2,0
				c1.1-1.2,1.2-3.1,0-4.2c-5.2-5.2-10.4-10.4-15.6-15.6c-0.7-0.7-1.5-1.5-2.2-2.2c-1.1-1.1-3.1-1.2-4.2,0
				C149.5,452,149.4,453.9,150.6,455L150.6,455z"/>
		</g>
		<g>
			<path class="st3" d="M155.6,442c5.2,5.2,10.4,10.4,15.6,15.6c0.7,0.7,1.5,1.5,2.2,2.2c1.1,1.1,3.1,1.2,4.2,0
				c1.1-1.2,1.2-3.1,0-4.2c-5.2-5.2-10.4-10.4-15.6-15.6c-0.7-0.7-1.5-1.5-2.2-2.2c-1.1-1.1-3.1-1.2-4.2,0
				C154.5,439,154.4,440.9,155.6,442L155.6,442z"/>
		</g>
		<g>
			<path class="st3" d="M159.1,427.5c5.3,5.3,10.7,10.7,16,16c0.8,0.8,1.5,1.5,2.3,2.3c1.1,1.1,3.1,1.2,4.2,0c1.1-1.2,1.2-3.1,0-4.2
				c-5.3-5.3-10.7-10.7-16-16c-0.8-0.8-1.5-1.5-2.3-2.3c-1.1-1.1-3.1-1.2-4.2,0C158,424.5,157.9,426.4,159.1,427.5L159.1,427.5z"/>
		</g>
		<g>
			<path class="st3" d="M163.1,414.5c5.3,5.3,10.7,10.7,16,16c0.8,0.8,1.5,1.5,2.3,2.3c1.1,1.1,3.1,1.2,4.2,0c1.1-1.2,1.2-3.1,0-4.2
				c-5.3-5.3-10.7-10.7-16-16c-0.8-0.8-1.5-1.5-2.3-2.3c-1.1-1.1-3.1-1.2-4.2,0C162,411.5,161.9,413.3,163.1,414.5L163.1,414.5z"/>
		</g>
		<g>
			<path class="st3" d="M167.1,399.5c5.3,5.3,10.7,10.7,16,16c0.8,0.8,1.5,1.5,2.3,2.3c1.1,1.1,3.1,1.2,4.2,0c1.1-1.2,1.2-3.1,0-4.2
				c-5.3-5.3-10.7-10.7-16-16c-0.8-0.8-1.5-1.5-2.3-2.3c-1.1-1.1-3.1-1.2-4.2,0C166,396.5,165.9,398.3,167.1,399.5L167.1,399.5z"/>
		</g>
		<g>
			<path class="st3" d="M173.1,385.5c5.3,5.3,10.7,10.7,16,16c0.8,0.8,1.5,1.5,2.3,2.3c1.1,1.1,3.1,1.2,4.2,0c1.1-1.2,1.2-3.1,0-4.2
				c-5.3-5.3-10.7-10.7-16-16c-0.8-0.8-1.5-1.5-2.3-2.3c-1.1-1.1-3.1-1.2-4.2,0C172,382.5,171.9,384.3,173.1,385.5L173.1,385.5z"/>
		</g>
		<g>
			<path class="st3" d="M178.1,370.5c5.3,5.3,10.7,10.7,16,16c0.8,0.8,1.5,1.5,2.3,2.3c1.1,1.1,3.1,1.2,4.2,0c1.1-1.2,1.2-3.1,0-4.2
				c-5.3-5.3-10.7-10.7-16-16c-0.8-0.8-1.5-1.5-2.3-2.3c-1.1-1.1-3.1-1.2-4.2,0C177,367.5,176.9,369.3,178.1,370.5L178.1,370.5z"/>
		</g>
		<g>
			<path class="st3" d="M182.1,356.5c5.3,5.3,10.7,10.7,16,16c0.8,0.8,1.5,1.5,2.3,2.3c1.1,1.1,3.1,1.2,4.2,0c1.1-1.2,1.2-3.1,0-4.2
				c-5.3-5.3-10.7-10.7-16-16c-0.8-0.8-1.5-1.5-2.3-2.3c-1.1-1.1-3.1-1.2-4.2,0C181,353.5,180.9,355.3,182.1,356.5L182.1,356.5z"/>
		</g>
		<g>
			<path class="st3" d="M187.1,343.4c5.3,5.3,10.7,10.7,16,16c0.8,0.8,1.5,1.5,2.3,2.3c1.1,1.1,3.1,1.2,4.2,0c1.1-1.2,1.2-3.1,0-4.2
				c-5.3-5.3-10.7-10.7-16-16c-0.8-0.8-1.5-1.5-2.3-2.3c-1.1-1.1-3.1-1.2-4.2,0C186,340.3,185.9,342.2,187.1,343.4L187.1,343.4z"/>
		</g>
		<g>
			<path class="st3" d="M192.1,329.2c4.5,4.4,9,8.8,13.4,13.1c0.6,0.6,1.3,1.2,1.9,1.8c1.1,1.1,3.1,1.2,4.2,0c1.1-1.2,1.2-3.1,0-4.2
				c-4.5-4.4-9-8.8-13.4-13.1c-0.6-0.6-1.3-1.2-1.9-1.8c-1.1-1.1-3.1-1.2-4.2,0C191,326.2,190.9,328.1,192.1,329.2L192.1,329.2z"/>
		</g>
		<g>
			<path class="st3" d="M198.1,316.2c4.5,4.4,9,8.8,13.4,13.1c0.6,0.6,1.3,1.2,1.9,1.8c1.1,1.1,3.1,1.2,4.2,0c1.1-1.2,1.2-3.1,0-4.2
				c-4.5-4.4-9-8.8-13.4-13.1c-0.6-0.6-1.3-1.2-1.9-1.8c-1.1-1.1-3.1-1.2-4.2,0C197,313.1,196.9,315,198.1,316.2L198.1,316.2z"/>
		</g>
		<g>
			<path class="st3" d="M203.1,300.8c4.5,4.4,9,8.8,13.4,13.1c0.6,0.6,1.3,1.2,1.9,1.8c1.1,1.1,3.1,1.2,4.2,0c1.1-1.2,1.2-3.1,0-4.2
				c-4.5-4.4-9-8.8-13.4-13.1c-0.6-0.6-1.3-1.2-1.9-1.8c-1.1-1.1-3.1-1.2-4.2,0C202,297.7,201.9,299.6,203.1,300.8L203.1,300.8z"/>
		</g>
		<g>
			<path class="st3" d="M207.1,286.5c4.5,4.4,9,8.8,13.4,13.1c0.6,0.6,1.3,1.2,1.9,1.8c1.1,1.1,3.1,1.2,4.2,0c1.1-1.2,1.2-3.1,0-4.2
				c-4.5-4.4-9-8.8-13.4-13.1c-0.6-0.6-1.3-1.2-1.9-1.8c-1.1-1.1-3.1-1.2-4.2,0C206,283.4,205.9,285.3,207.1,286.5L207.1,286.5z"/>
		</g>
		<g>
			<path class="st3" d="M212.1,271.6c4.5,4.4,9,8.8,13.4,13.1c0.6,0.6,1.3,1.2,1.9,1.8c1.1,1.1,3.1,1.2,4.2,0c1.1-1.2,1.2-3.1,0-4.2
				c-4.5-4.4-9-8.8-13.4-13.1c-0.6-0.6-1.3-1.2-1.9-1.8c-1.1-1.1-3.1-1.2-4.2,0C211,268.5,210.9,270.4,212.1,271.6L212.1,271.6z"/>
		</g>
		<g>
			<path class="st3" d="M217.1,258.6c4.5,4.4,9,8.8,13.4,13.1c0.6,0.6,1.3,1.2,1.9,1.8c1.1,1.1,3.1,1.2,4.2,0c1.1-1.2,1.2-3.1,0-4.2
				c-4.5-4.4-9-8.8-13.4-13.1c-0.6-0.6-1.3-1.2-1.9-1.8c-1.1-1.1-3.1-1.2-4.2,0C216,255.5,215.9,257.4,217.1,258.6L217.1,258.6z"/>
		</g>
		<g>
			<path class="st3" d="M221.1,244.6c4.5,4.4,9,8.8,13.4,13.1c0.6,0.6,1.3,1.2,1.9,1.8c1.1,1.1,3.1,1.2,4.2,0c1.1-1.2,1.2-3.1,0-4.2
				c-4.5-4.4-9-8.8-13.4-13.1c-0.6-0.6-1.3-1.2-1.9-1.8c-1.1-1.1-3.1-1.2-4.2,0C220,241.5,219.9,243.4,221.1,244.6L221.1,244.6z"/>
		</g>
		<g>
			<path class="st3" d="M226.1,229.6c4.5,4.4,9,8.8,13.4,13.1c0.6,0.6,1.3,1.2,1.9,1.8c1.1,1.1,3.1,1.2,4.2,0c1.1-1.2,1.2-3.1,0-4.2
				c-4.5-4.4-9-8.8-13.4-13.1c-0.6-0.6-1.3-1.2-1.9-1.8c-1.1-1.1-3.1-1.2-4.2,0C225,226.5,224.9,228.4,226.1,229.6L226.1,229.6z"/>
		</g>
		<g>
			<path class="st3" d="M231.1,213c4.5,4.4,9,8.8,13.4,13.1c0.6,0.6,1.3,1.2,1.9,1.8c1.1,1.1,3.1,1.2,4.2,0c1.1-1.2,1.2-3.1,0-4.2
				c-4.5-4.4-9-8.8-13.4-13.1c-0.6-0.6-1.3-1.2-1.9-1.8c-1.1-1.1-3.1-1.2-4.2,0C230,210,229.9,211.8,231.1,213L231.1,213z"/>
		</g>
		<g>
			<path class="st3" d="M237.1,197.3c4.5,4.4,9,8.8,13.4,13.1c0.6,0.6,1.3,1.2,1.9,1.8c1.1,1.1,3.1,1.2,4.2,0s1.2-3.1,0-4.2
				c-4.5-4.4-9-8.8-13.4-13.1c-0.6-0.6-1.3-1.2-1.9-1.8c-1.1-1.1-3.1-1.2-4.2,0C236,194.2,235.9,196.1,237.1,197.3L237.1,197.3z"/>
		</g>
		<g>
			<path class="st3" d="M243.1,184.2c4.5,4.4,9,8.8,13.4,13.1c0.6,0.6,1.3,1.2,1.9,1.8c1.1,1.1,3.1,1.2,4.2,0s1.2-3.1,0-4.2
				c-4.5-4.4-9-8.8-13.4-13.1c-0.6-0.6-1.3-1.2-1.9-1.8c-1.1-1.1-3.1-1.2-4.2,0C242,181.2,241.9,183.1,243.1,184.2L243.1,184.2z"/>
		</g>
		<g>
			<path class="st3" d="M247.1,168.6c4.5,4.4,9,8.8,13.4,13.1c0.6,0.6,1.3,1.2,1.9,1.8c1.1,1.1,3.1,1.2,4.2,0s1.2-3.1,0-4.2
				c-4.5-4.4-9-8.8-13.4-13.1c-0.6-0.6-1.3-1.2-1.9-1.8c-1.1-1.1-3.1-1.2-4.2,0C246,165.6,245.9,167.5,247.1,168.6L247.1,168.6z"/>
		</g>
		<g>
			<path class="st3" d="M252.1,155.4c4.5,4.4,9,8.8,13.4,13.1c0.6,0.6,1.3,1.2,1.9,1.8c1.1,1.1,3.1,1.2,4.2,0s1.2-3.1,0-4.2
				c-4.5-4.4-9-8.8-13.4-13.1c-0.6-0.6-1.3-1.2-1.9-1.8c-1.1-1.1-3.1-1.2-4.2,0C251,152.4,250.9,154.3,252.1,155.4L252.1,155.4z"/>
		</g>
		<g>
			<path class="st3" d="M256.1,141.1c4.5,4.4,9,8.8,13.4,13.1c0.6,0.6,1.3,1.2,1.9,1.8c1.1,1.1,3.1,1.2,4.2,0s1.2-3.1,0-4.2
				c-4.5-4.4-9-8.8-13.4-13.1c-0.6-0.6-1.3-1.2-1.9-1.8c-1.1-1.1-3.1-1.2-4.2,0C255,138,254.9,139.9,256.1,141.1L256.1,141.1z"/>
		</g>
		<g>
			<path class="st3" d="M261.1,128.7c4.5,4.4,9,8.8,13.4,13.1c0.6,0.6,1.3,1.2,1.9,1.8c1.1,1.1,3.1,1.2,4.2,0s1.2-3.1,0-4.2
				c-4.5-4.4-9-8.8-13.4-13.1c-0.6-0.6-1.3-1.2-1.9-1.8c-1.1-1.1-3.1-1.2-4.2,0C260,125.7,259.9,127.5,261.1,128.7L261.1,128.7z"/>
		</g>
	</g>
</g>
</svg>
