<?xml version="1.0" encoding="utf-8"?>
<!-- Generator: Adobe Illustrator 24.1.2, SVG Export Plug-In . SVG Version: 6.00 Build 0)  -->
<svg version="1.1" id="圖層_1" xmlns="http://www.w3.org/2000/svg" xmlns:xlink="http://www.w3.org/1999/xlink" x="0px" y="0px"
	 viewBox="0 0 30 30" style="enable-background:new 0 0 30 30;" xml:space="preserve">
<style type="text/css">
	.st0{fill:#191919;}
	.st1{display:none;}
	.st2{display:inline;fill:#505050;}
</style>
<g id="page-color">
	<path class="st0" d="M7.5,3c-1.3,0-2.7,0-4,0C3.2,3,3,3.2,3,3.5c0,1.3,0,2.7,0,4C3,7.8,3.2,8,3.5,8c1.3,0,2.7,0,4,0
		c0.1,0,0.2-0.1,0.3-0.1l0,0l0,0C7.9,7.7,8,7.6,8,7.5c0-1.3,0-2.7,0-4C8,3.2,7.8,3,7.5,3z"/>
	<path class="st0" d="M17,3c-1.3,0-2.7,0-4,0c-0.3,0-0.5,0.2-0.5,0.5c0,1.3,0,2.7,0,4C12.5,7.8,12.7,8,13,8c1.3,0,2.7,0,4,0
		c0.1,0,0.2-0.1,0.3-0.1l0,0l0,0c0.1-0.1,0.1-0.2,0.1-0.3c0-1.3,0-2.7,0-4C17.5,3.2,17.3,3,17,3z"/>
	<path class="st0" d="M26.5,3c-1.3,0-2.7,0-4,0C22.2,3,22,3.2,22,3.5c0,1.3,0,2.7,0,4C22,7.8,22.2,8,22.5,8c1.3,0,2.7,0,4,0
		c0.1,0,0.2-0.1,0.3-0.1l0,0l0,0C27,7.7,27,7.6,27,7.5c0-1.3,0-2.7,0-4C27,3.2,26.8,3,26.5,3z"/>
	<path class="st0" d="M7.5,12.5c-1.3,0-2.7,0-4,0C3.2,12.5,3,12.7,3,13c0,1.3,0,2.7,0,4c0,0.3,0.2,0.5,0.5,0.5c1.3,0,2.7,0,4,0
		c0.1,0,0.2,0,0.3-0.1l0,0l0,0C7.9,17.2,8,17.1,8,17c0-1.3,0-2.7,0-4C8,12.7,7.8,12.5,7.5,12.5z"/>
	<path class="st0" d="M26.5,12.5c-1.3,0-2.7,0-4,0c-0.3,0-0.5,0.2-0.5,0.5c0,1.3,0,2.7,0,4c0,0.3,0.2,0.5,0.5,0.5c1.3,0,2.7,0,4,0
		c0.1,0,0.2,0,0.3-0.1l0,0l0,0C27,17.2,27,17.1,27,17c0-1.3,0-2.7,0-4C27,12.7,26.8,12.5,26.5,12.5z"/>
	<path class="st0" d="M17,22c-1.3,0-2.7,0-4,0c-0.3,0-0.5,0.2-0.5,0.5c0,1.3,0,2.7,0,4c0,0.3,0.2,0.5,0.5,0.5c1.3,0,2.7,0,4,0
		c0.1,0,0.2,0,0.3-0.1l0,0l0,0c0.1-0.1,0.1-0.2,0.1-0.3c0-1.3,0-2.7,0-4C17.5,22.2,17.3,22,17,22z"/>
	<path class="st0" d="M26.5,22c-1.3,0-2.7,0-4,0c-0.3,0-0.5,0.2-0.5,0.5c0,1.3,0,2.7,0,4c0,0.3,0.2,0.5,0.5,0.5c1.3,0,2.7,0,4,0
		c0.1,0,0.2,0,0.3-0.1l0,0l0,0c0.1-0.1,0.1-0.2,0.1-0.3c0-1.3,0-2.7,0-4C27,22.2,26.8,22,26.5,22z"/>
	<path class="st0" d="M7.5,22c-1.3,0-2.7,0-4,0C3.2,22,3,22.2,3,22.5c0,1.3,0,2.7,0,4C3,26.8,3.2,27,3.5,27c1.3,0,2.7,0,4,0
		c0.1,0,0.2,0,0.3-0.1l0,0l0,0C7.9,26.7,8,26.6,8,26.5c0-1.3,0-2.7,0-4C8,22.2,7.8,22,7.5,22z"/>
</g>
<g id="page-solid" class="st1">
	<path class="st2" d="M8,22.5C8,22.2,7.8,22,7.5,22c-1.3,0-2.7,0-4,0C3.2,22,3,22.2,3,22.5c0,1.3,0,2.7,0,4C3,26.8,3.2,27,3.5,27
		c1.3,0,2.7,0,4,0c0.1,0,0.2,0,0.3-0.1l0,0l0,0C7.9,26.7,8,26.6,8,26.5C8,25.2,8,23.8,8,22.5z M7,26c-1,0-2,0-3,0c0-1,0-2,0-3
		c1,0,2,0,3,0C7,24,7,25,7,26z"/>
	<path class="st2" d="M27,22.5c0-0.3-0.2-0.5-0.5-0.5c-1.3,0-2.7,0-4,0c-0.3,0-0.5,0.2-0.5,0.5c0,1.3,0,2.7,0,4
		c0,0.3,0.2,0.5,0.5,0.5c1.3,0,2.7,0,4,0c0.1,0,0.2,0,0.3-0.1l0,0l0,0c0.1-0.1,0.1-0.2,0.1-0.3C27,25.2,27,23.8,27,22.5z M26,26
		c-1,0-2,0-3,0c0-1,0-2,0-3c1,0,2,0,3,0C26,24,26,25,26,26z"/>
	<path class="st2" d="M17.5,22.5c0-0.3-0.2-0.5-0.5-0.5c-1.3,0-2.7,0-4,0c-0.3,0-0.5,0.2-0.5,0.5c0,1.3,0,2.7,0,4
		c0,0.3,0.2,0.5,0.5,0.5c1.3,0,2.7,0,4,0c0.1,0,0.2,0,0.3-0.1l0,0l0,0c0.1-0.1,0.1-0.2,0.1-0.3C17.5,25.2,17.5,23.8,17.5,22.5z
		 M16.5,26c-1,0-2,0-3,0c0-1,0-2,0-3c1,0,2,0,3,0C16.5,24,16.5,25,16.5,26z"/>
	<path class="st2" d="M8,3.5C8,3.2,7.8,3,7.5,3c-1.3,0-2.7,0-4,0C3.2,3,3,3.2,3,3.5c0,1.3,0,2.7,0,4C3,7.8,3.2,8,3.5,8
		c1.3,0,2.7,0,4,0c0.1,0,0.2-0.1,0.3-0.1l0,0l0,0C7.9,7.7,8,7.6,8,7.5C8,6.2,8,4.8,8,3.5z M7,7C6,7,5,7,4,7c0-1,0-2,0-3c1,0,2,0,3,0
		C7,5,7,6,7,7z"/>
	<path class="st2" d="M27,3.5C27,3.2,26.8,3,26.5,3c-1.3,0-2.7,0-4,0C22.2,3,22,3.2,22,3.5c0,1.3,0,2.7,0,4C22,7.8,22.2,8,22.5,8
		c1.3,0,2.7,0,4,0c0.1,0,0.2-0.1,0.3-0.1l0,0l0,0C27,7.7,27,7.6,27,7.5C27,6.2,27,4.8,27,3.5z M26,7c-1,0-2,0-3,0c0-1,0-2,0-3
		c1,0,2,0,3,0C26,5,26,6,26,7z"/>
	<path class="st2" d="M17.5,3.5C17.5,3.2,17.3,3,17,3c-1.3,0-2.7,0-4,0c-0.3,0-0.5,0.2-0.5,0.5c0,1.3,0,2.7,0,4
		C12.5,7.8,12.7,8,13,8c1.3,0,2.7,0,4,0c0.1,0,0.2-0.1,0.3-0.1l0,0l0,0c0.1-0.1,0.1-0.2,0.1-0.3C17.5,6.2,17.5,4.8,17.5,3.5z
		 M16.5,7c-1,0-2,0-3,0c0-1,0-2,0-3c1,0,2,0,3,0C16.5,5,16.5,6,16.5,7z"/>
	<path class="st2" d="M8,13c0-0.3-0.2-0.5-0.5-0.5c-1.3,0-2.7,0-4,0C3.2,12.5,3,12.7,3,13c0,1.3,0,2.7,0,4c0,0.3,0.2,0.5,0.5,0.5
		c1.3,0,2.7,0,4,0c0.1,0,0.2,0,0.3-0.1l0,0l0,0C7.9,17.2,8,17.1,8,17C8,15.7,8,14.3,8,13z M7,16.5c-1,0-2,0-3,0c0-1,0-2,0-3
		c1,0,2,0,3,0C7,14.5,7,15.5,7,16.5z"/>
	<path class="st2" d="M27,13c0-0.3-0.2-0.5-0.5-0.5c-1.3,0-2.7,0-4,0c-0.3,0-0.5,0.2-0.5,0.5c0,1.3,0,2.7,0,4c0,0.3,0.2,0.5,0.5,0.5
		c1.3,0,2.7,0,4,0c0.1,0,0.2,0,0.3-0.1l0,0l0,0C27,17.2,27,17.1,27,17C27,15.7,27,14.3,27,13z M26,16.5c-1,0-2,0-3,0c0-1,0-2,0-3
		c1,0,2,0,3,0C26,14.5,26,15.5,26,16.5z"/>
	<path class="st2" d="M17.5,13c0-0.3-0.2-0.5-0.5-0.5c-1.3,0-2.7,0-4,0c-0.3,0-0.5,0.2-0.5,0.5c0,1.3,0,2.7,0,4
		c0,0.3,0.2,0.5,0.5,0.5c1.3,0,2.7,0,4,0c0.1,0,0.2,0,0.3-0.1l0,0l0,0c0.1-0.1,0.1-0.2,0.1-0.3C17.5,15.7,17.5,14.3,17.5,13z
		 M16.5,16.5c-1,0-2,0-3,0c0-1,0-2,0-3c1,0,2,0,3,0C16.5,14.5,16.5,15.5,16.5,16.5z"/>
</g>
<g id="arrow" class="st1">
	<path class="st2" d="M27,15L27,15L27,15L27,15c0-0.1,0-0.1,0-0.2l0,0c0-0.1-0.1-0.2-0.2-0.2c-5.3-5.3-2.4-2.4-7.8-7.8
		c-0.5-0.4-1.2,0.3-0.7,0.7c5.1,5.1,2.7,2.7,6.9,6.9c-7.2,0-14.6,0-21.8,0c-0.6,0-0.6,1,0,1c7.2,0,14.6,0,21.8,0
		c-4.2,4.2-1.9,1.9-6.9,6.9c-0.5,0.5,0.3,1.2,0.7,0.7c5.4-5.4,2.4-2.4,7.8-7.8C26.9,15.1,26.9,15.1,27,15L27,15
		C27,15.1,27,15.1,27,15z"/>
</g>
<g id="down" class="st1">
	<path class="st2" d="M26.1,14.5c-1.8,1.8-3.6,3.6-5.4,5.5c-1.4,1.4-2.8,2.8-4.1,4.2c-0.3,0.3-1.2,1.1-1.6,1.6
		c-0.3-0.5-1.3-1.3-1.6-1.6c-1.3-1.3-2.6-2.6-3.8-3.8c-1.9-1.9-3.8-3.8-5.8-5.8c-0.5-0.5-1.2,0.3-0.7,0.7c3.8,3.8,7.7,7.7,11.5,11.5
		c0.2,0.2,0.5,0.2,0.7,0c3.8-3.9,7.6-7.7,11.5-11.6C27.3,14.7,26.6,14,26.1,14.5z"/>
</g>
<g id="參考線" class="st1">
</g>
</svg>
