<?xml version="1.0" encoding="utf-8"?>
<!-- Generator: Adobe Illustrator 24.1.2, SVG Export Plug-In . SVG Version: 6.00 Build 0)  -->
<svg version="1.1" xmlns="http://www.w3.org/2000/svg" xmlns:xlink="http://www.w3.org/1999/xlink" x="0px" y="0px"
	 viewBox="0 0 600 600" style="enable-background:new 0 0 600 600;" xml:space="preserve">
<style type="text/css">
	.st0{fill:#F5F5F5;}
	.st1{fill:#505050;}
	.st2{fill:none;stroke:#505050;stroke-width:3;stroke-miterlimit:10;}
	.st3{fill:#2D46F0;}
	.st4{fill:#C8C8C8;}
	.st5{fill:#FFD205;}
	.st6{fill:none;}
	.st7{fill:#969696;}
	.st8{fill:#F0F0F0;}
	.st9{fill:none;stroke:#2D46F0;stroke-width:7;stroke-miterlimit:10;}
	.st10{fill:none;stroke:#969696;stroke-width:7;stroke-miterlimit:10;}
	.st11{fill:none;stroke:#2D46F0;stroke-width:6.5;stroke-miterlimit:10;}
	.st12{display:none;}
</style>
<g id="手機">
</g>
<g id="箭頭">
</g>
<g id="手_11_">
</g>
<g id="_x2D_---------_11_">
</g>
<g id="板子">
</g>
<g id="手_7_">
</g>
<g id="_x2D_---------_6_">
</g>
<g id="雜物_1_">
</g>
<g id="腦_1_">
</g>
<g id="手_9_">
</g>
<g id="對話框_1_">
</g>
<g id="_x2D_---------_8_">
</g>
<g id="雜物">
</g>
<g id="腦">
</g>
<g id="手_5_">
</g>
<g id="對話框">
</g>
<g id="_x2D_---------_5_">
</g>
<g id="雜物_2_">
</g>
<g id="腦_2_">
</g>
<g id="手_10_">
</g>
<g id="對話框_2_">
</g>
<g id="_x2D_---------_9_">
</g>
<g id="雲_4_">
</g>
<g id="雲_3_">
</g>
<g id="卷軸_1_">
</g>
<g id="火箭_1_">
</g>
<g id="雜層_1_">
</g>
<g id="手_4_">
</g>
<g id="_x2D_---------_7_">
</g>
<g id="雲">
</g>
<g id="雲_2_">
</g>
<g id="卷軸">
</g>
<g id="火箭">
</g>
<g id="雜層">
</g>
<g id="手_6_">
</g>
<g id="_x2D_---------_4_">
</g>
<g id="雲_6_">
</g>
<g id="雲_5_">
</g>
<g id="卷軸_2_">
</g>
<g id="火箭_2_">
</g>
<g id="雜層_2_">
</g>
<g id="手_8_">
</g>
<g id="_x2D_---------_10_">
</g>
<g id="環_1_">
	<g>
		<path class="st0" d="M390,491.23c-1.8,0.83-3.61,1.66-5.44,2.44c-16.8,6.84-34.37,11.6-52.32,14.2c-3.27,0.4-6.54,0.71-9.82,0.97
			l2.58,29.83c9.32-0.82,18.59-2.18,27.76-4.03c16.99-3.44,33.66-8.92,49.5-16.1L390,491.23z"/>
		<path class="st3" d="M530.87,228.68c-7.36-22.65-18.01-44.36-31.82-63.77c-14.49-20.37-31.66-38.01-51.48-53.2
			c-18.94-14.51-40.08-25.75-62.46-33.96c-23.03-8.45-47.56-13.01-72.05-13.96c-24.73-0.96-49.89,2.04-73.7,8.79
			c-22.93,6.5-45.11,16.53-65.02,29.63c-19.78,13.01-37.83,28.84-52.89,47.13c-15.94,19.35-28.52,40.51-38.03,63.69
			c-9.29,22.65-14.58,46.73-16.47,71.11c-1.93,24.8,0.28,50.08,6.14,74.24c5.63,23.22,15,45.8,27.38,66.23
			c12.25,20.22,27.6,38.83,45.29,54.52c17.72,15.72,37.65,29.03,59.25,38.79c11.42,5.16,23.14,9.63,35.22,12.99
			c12.44,3.47,25.13,5.71,37.95,7.21c3.92,0.46,7.85,0.8,11.78,1.04l2.59-29.88c-5.43-0.28-10.85-0.73-16.25-1.4
			c-17.95-2.6-35.53-7.37-52.32-14.2c-16.65-7.17-32.36-16.34-46.81-27.28c-13.99-11.03-26.64-23.68-37.67-37.67
			c-10.94-14.45-20.11-30.17-27.28-46.81c-6.84-16.8-11.6-34.37-14.2-52.32c-2.3-18.57-2.3-37.37,0-55.94
			c2.6-17.95,7.37-35.53,14.2-52.32c7.17-16.64,16.34-32.36,27.28-46.81c11.03-13.99,23.68-26.64,37.67-37.67
			c14.45-10.94,30.17-20.11,46.81-27.27c16.8-6.84,34.37-11.6,52.32-14.2c18.57-2.3,37.37-2.3,55.94,0
			c17.95,2.6,35.53,7.37,52.32,14.2c16.64,7.17,32.36,16.34,46.81,27.27c13.99,11.03,26.64,23.68,37.67,37.67
			c10.94,14.45,20.11,30.17,27.28,46.81c6.84,16.8,11.6,34.38,14.2,52.33c1.15,9.28,1.73,18.61,1.75,27.96
			c-0.01,9.35-0.6,18.69-1.75,27.96c-2.6,17.95-7.37,35.53-14.2,52.33c-7.17,16.65-16.34,32.36-27.28,46.81
			c-11.03,13.99-23.68,26.64-37.67,37.67c-4.79,3.62-9.73,7.03-14.78,10.26l16.83,24.9c15.58-10.08,30.05-22.03,42.81-35.41
			c16.29-17.07,30.26-36.65,40.78-57.79c10.77-21.65,18.49-44.83,22.14-68.75c1.93-12.59,3.09-25.24,3.11-37.99
			C542.24,276.99,538.48,252.12,530.87,228.68z"/>
		<g>
			<g>
				<g>
					<path class="st3" d="M388.49,488.64c-16.05,7.41-33.4,12.32-50.8,15.35c-5.07,0.88-10.15,1.45-15.28,1.86
						c-1.51,0.12-3.15,1.28-3,3c0.75,8.69,1.51,17.38,2.26,26.07c0.11,1.25,0.22,2.51,0.33,3.76c0.13,1.5,1.27,3.15,3,3
						c21.15-1.88,42.02-6.31,61.96-13.64c5.69-2.09,11.29-4.4,16.82-6.9c1.58-0.71,1.68-2.76,1.08-4.1
						c-3.57-7.96-7.14-15.92-10.71-23.87c-0.52-1.15-1.03-2.3-1.55-3.45C391.93,488.24,389.78,487.88,388.49,488.64
						c-1.52,0.89-1.74,2.62-1.08,4.1c3.57,7.96,7.14,15.92,10.71,23.87c0.52,1.15,1.03,2.3,1.55,3.45c0.36-1.37,0.72-2.74,1.08-4.1
						c-18.57,8.38-38.19,14.25-58.3,17.53c-5.79,0.94-11.6,1.67-17.44,2.19c1,1,2,2,3,3c-0.75-8.69-1.51-17.38-2.26-26.07
						c-0.11-1.25-0.22-2.51-0.33-3.76c-1,1-2,2-3,3c18.57-1.5,36.88-5.7,54.41-12.01c4.99-1.8,9.88-3.79,14.69-6.02
						c1.47-0.68,1.84-2.8,1.08-4.1C391.71,488.21,389.96,487.96,388.49,488.64z"/>
				</g>
			</g>
			<g>
				<g>
					<path class="st3" d="M533.76,227.88c-10.44-31.95-27.2-61.34-49.61-86.41c-21.91-24.51-48.65-44.64-78.51-58.45
						c-31.82-14.71-66.47-22.4-101.54-22.41c-34.97-0.01-69.74,7.73-101.45,22.43c-29.85,13.84-57.05,34.1-78.77,58.82
						c-21.9,24.92-38.93,54.53-49.11,86.13c-10.88,33.77-14.05,70.15-9.39,105.31c4.51,34.03,16.21,66.92,34.47,96.02
						c17.67,28.16,41.03,52.38,68.4,71.22c28.43,19.58,61.38,32.95,95.44,38.55c8.7,1.43,17.46,2.49,26.26,3.06
						c1.72,0.11,2.87-1.47,3-3c0.86-9.96,1.73-19.92,2.59-29.88c0.15-1.68-1.49-2.92-3-3c-19.31-1.03-38.23-4.95-56.51-11.26
						c-17.53-6.06-34.07-14.87-49.32-25.4c-30.27-20.89-54.04-50.43-69.44-83.7c-7.94-17.16-13.04-35.83-15.97-54.47
						c-1.57-9.97-2.04-20.2-2.02-30.28c0.02-9.93,0.53-19.98,2.09-29.79c5.89-37.02,21.24-72.63,45.61-101.28
						c23.9-28.09,54.88-50.2,89.89-62.14c37.13-12.66,77.37-14.91,115.55-5.61c36.17,8.81,69.39,27.28,95.87,53.47
						c26.67,26.37,45.66,59.57,54.84,95.94c9.58,37.95,7.78,78.03-4.47,115.16c-11.62,35.19-33.32,66.41-61.24,90.62
						c-7.03,6.1-14.51,11.53-22.34,16.55c-1.3,0.83-2.02,2.71-1.08,4.1c5.61,8.3,11.22,16.6,16.83,24.9
						c0.87,1.29,2.67,2.01,4.1,1.08c33.29-21.62,61.27-51.33,80.41-86.15c20.15-36.65,30.62-78.55,29.88-120.39
						C544.81,273.99,541.02,250.38,533.76,227.88c-1.18-3.66-6.98-2.09-5.79,1.6c12.73,39.47,14.64,82.14,5.82,122.65
						c-8.31,38.19-26.46,74.11-52.1,103.58c-14.5,16.67-31.26,31.23-49.79,43.26c1.37,0.36,2.74,0.72,4.1,1.08
						c-5.61-8.3-11.22-16.6-16.83-24.9c-0.36,1.37-0.72,2.74-1.08,4.1c32.23-20.67,58.2-49.89,75.35-84.1
						c17.97-35.85,24.68-76.59,20.65-116.39c-3.89-38.42-19.31-76.35-43.2-106.7c-23.27-29.58-54.46-53.5-89.69-67.03
						c-37.69-14.46-79.26-18.42-118.88-10.25c-37.68,7.77-72.9,25.59-101.14,51.79c-28.1,26.08-48.96,59.39-59.6,96.26
						c-11.18,38.74-11.04,80.19,0.37,118.86c10.86,36.79,31.94,69.93,60.16,95.84c28.39,26.05,63.78,43.64,101.51,51.19
						c9.56,1.91,19.17,3.03,28.9,3.55c-1-1-2-2-3-3c-0.86,9.96-1.73,19.92-2.59,29.88c1-1,2-2,3-3
						c-34.57-2.22-68.38-11.8-98.77-28.49c-28.25-15.52-53.34-36.96-73.02-62.48c-19.95-25.87-34.49-55.84-42.19-87.59
						c-8.24-33.95-8.82-69.46-1.8-103.68c6.63-32.32,20.43-62.93,39.62-89.73c18.68-26.09,42.81-48.12,70.35-64.58
						c28.7-17.14,61.15-28.02,94.39-31.6c34.38-3.71,69.7,0.06,102.38,11.45c30.64,10.67,58.73,27.56,82.55,49.58
						c23.76,21.96,42.96,48.49,56.01,78.12c3.21,7.3,6.01,14.77,8.49,22.35C529.17,233.13,534.97,231.57,533.76,227.88z"/>
				</g>
			</g>
		</g>
	</g>
</g>
<g id="筆_1_">
	<g>
		<path class="st3" d="M148,538l-15,30c0,0-5,7,5,7s27-25,27-25L148,538z"/>
		<path class="st5" d="M402,111l-32,49l-90,44l-1,12l11,11l48-25L165.53,454.43L164,460c0,0,19.36-9.9,23.68-7.45S195,459,195,459
			s2,9,5,10s7.58,0.82,7.58,0.82s5.35-4.18,7.88-1.5c2.54,2.68,4.47,2.83,4.5,6.76c0.03,3.92,0.48,6.59,6.76,6.76
			c6.28,0.17,6.24,1.35,6.76,5.26C234,491,236,500,236,500l45-64l114-164l-4,24c0,0,7,0,10,0s9,5,9,5l12-73l48-66
			C470,162,415,166,402,111z"/>
		<polygon class="st0" points="163.84,460.34 148,538 165,550 234,503 233,482 220,481 219,465 198,472 190,452 		"/>
		<path class="st0" d="M434,65l-32.8,49.02c0,0,7.8,27.98,17.8,32.98s22.38,11.27,31.19,12.64C459,161,471,160,471,160l32-46
			C503,114,443,117,434,65z"/>
		<path class="st3" d="M434.14,65.03c0,0,4.86,17.97,16.86,28.97s24,19,32,19s19.56,1.02,19.56,1.02L514,98
			c0,0,17.08-22.97-0.46-46.48C496,28,480.6,32.09,480.6,32.09S453.28,28.06,434.14,65.03z"/>
		<path class="st0" d="M279.56,204.4c0,0-4.56,3.6-0.56,11.6s11.17,11.06,11.17,11.06L271,237l-9,76l-49,70c0,0-8-1-15-4
			s-11-11-7-18s-2-6,13-13s25.85-11.94,34.17-28.72c8.33-16.78,10.33-29.78,10.33-29.78l1-59
			C249.5,230.5,250.63,217.31,279.56,204.4z"/>
		<path class="st0" d="M390.78,296.19c0,0,5.22-2.19,10.22-0.19s8.93,5.26,8.93,5.26L402,341c0,0-19.73,10.39-30.37,13.19
			s-15.8,3.59-28.72,10.7C330,372,320,379,319,384s-2.98,7.87-1.99,16.93C318,410,320,418,320,418s2.13,16.32-11.44,20.66
			C295,443,295,445,281,436s-6-45-6-45s5.5-15.5,20.5-23.5s90-41,90-41L390.78,296.19z"/>
		<g>
			<g>
				<g>
					<path class="st3" d="M278.37,435.37c-13.91,19.51-27.82,39.01-41.73,58.52c-1.2,1.68-2.39,3.35-3.59,5.03
						c-0.39,0.55-1.39,1.48-1.55,2.17c0.3-1.29,1.6-1.29,0.74-0.83c-0.43,0.23-0.82,0.57-1.22,0.84c-1.59,1.1-3.17,2.19-4.76,3.29
						c-11.7,8.09-23.4,16.18-35.1,24.26c-9.09,6.28-18.17,12.56-27.26,18.84c1.01,0,2.02,0,3.03,0c-5.97-4.13-11.93-8.26-17.9-12.39
						c0.46,1.13,0.92,2.26,1.38,3.39c2.49-12.12,4.98-24.24,7.47-36.36c3.09-15.05,6.18-30.1,9.27-45.15
						c0.09-0.44,0.33-1.04,0.31-1.5c-0.03-0.52-0.34,0.63-0.24,0.51c0.19-0.23,0.34-0.5,0.51-0.74c1-1.36,1.93-2.79,2.89-4.18
						c4.14-5.99,8.29-11.98,12.43-17.97c6.64-9.6,13.28-19.19,19.93-28.79c8.58-12.4,17.17-24.8,25.75-37.2
						c9.97-14.4,19.93-28.8,29.9-43.2c10.79-15.59,21.59-31.19,32.38-46.78c11.06-15.98,22.13-31.97,33.19-47.95
						c10.78-15.57,21.55-31.14,32.33-46.71c9.93-14.35,19.87-28.7,29.8-43.05c8.53-12.33,17.06-24.65,25.6-36.98
						c6.55-9.46,13.1-18.93,19.65-28.39c4.07-5.88,8.14-11.77,12.22-17.65c4.16-6.02,8.37-11.63,14.82-15.58
						c11.11-6.8,25.4-7.75,37.2-2.11c12,5.73,20.54,17.19,22.29,30.41c1.32,9.99-1.37,19.85-7.05,28.09
						c-1.82,2.64-3.66,5.26-5.49,7.9c-8.64,12.43-17.28,24.86-25.91,37.28c-10.89,15.67-21.78,31.33-32.66,47
						c-7.88,11.34-15.76,22.68-23.64,34.01c-1.17,1.68-2.34,3.37-3.51,5.05c-2.21,3.18,2.99,6.18,5.18,3.03
						c4.64-6.67,9.28-13.35,13.91-20.02c10.22-14.71,20.44-29.41,30.67-44.12c10.45-15.03,20.89-30.06,31.34-45.09
						c5.16-7.43,10.38-14.83,15.49-22.29c14.89-21.73,7.77-52.52-15.37-65.29c-20.48-11.3-46.11-4.69-59.37,14.27
						c-2.26,3.22-4.48,6.47-6.72,9.71c-5.18,7.48-10.35,14.95-15.53,22.43c-7.53,10.88-15.06,21.76-22.59,32.63
						c-9.26,13.38-18.52,26.76-27.78,40.14c-10.45,15.1-20.9,30.19-31.34,45.29c-11.11,16.06-22.23,32.11-33.34,48.17
						c-11.16,16.12-22.31,32.23-33.47,48.35c-10.57,15.28-21.15,30.56-31.72,45.84c-9.47,13.68-18.94,27.37-28.41,41.05
						c-7.83,11.31-15.65,22.61-23.48,33.92c-5.56,8.03-11.11,16.06-16.67,24.08c-2.7,3.9-5.5,7.76-8.11,11.72
						c-0.65,0.99-0.91,1.88-1.15,3.06c-1.21,5.88-2.42,11.77-3.62,17.65c-3.65,17.76-7.29,35.52-10.94,53.29
						c-0.73,3.55-1.46,7.1-2.19,10.65c-0.29,1.4,0.22,2.59,1.38,3.39c5.97,4.13,11.93,8.26,17.9,12.39c0.82,0.56,2.21,0.56,3.03,0
						c19.87-13.74,39.74-27.47,59.61-41.21c2.93-2.02,5.9-4,8.79-6.07c1.84-1.32,3.1-3.72,4.39-5.53
						c7.98-11.18,15.95-22.37,23.93-33.55c6.64-9.3,13.27-18.61,19.91-27.91C285.8,435.25,280.6,432.25,278.37,435.37L278.37,435.37
						z"/>
				</g>
			</g>
			<g>
				<g>
					<path class="st3" d="M390.74,271.02c-1.7,2.46-3.4,4.91-5.1,7.37c-4.08,5.9-8.16,11.79-12.24,17.69
						c-4.91,7.1-9.82,14.19-14.74,21.29c-4.27,6.17-8.54,12.34-12.81,18.5c-2.06,2.98-4.34,5.9-6.23,9
						c-0.03,0.04-0.06,0.08-0.09,0.13c-0.92,1.33-0.25,3.33,1.08,4.1c1.49,0.87,3.18,0.26,4.1-1.08c1.7-2.46,3.4-4.91,5.1-7.37
						c4.08-5.9,8.16-11.79,12.24-17.69c4.91-7.1,9.82-14.19,14.74-21.29c4.27-6.17,8.54-12.34,12.81-18.5c2.06-2.98,4.34-5.9,6.23-9
						c0.03-0.04,0.06-0.08,0.09-0.13c0.92-1.33,0.25-3.33-1.08-4.1C393.35,269.07,391.66,269.68,390.74,271.02L390.74,271.02z"/>
				</g>
			</g>
			<g>
				<g>
					<path class="st3" d="M137.1,568.32c3.8-8.51,7.61-17.03,11.41-25.54c0.53-1.19,1.06-2.38,1.59-3.57
						c-1.37,0.36-2.74,0.72-4.1,1.08c5.22,3.61,10.44,7.22,15.66,10.84c0.75,0.52,1.5,1.04,2.24,1.55c-0.2-1.57-0.4-3.14-0.61-4.71
						c-7.32,7.54-14.53,15.2-21.97,22.63c-0.03,0.03-0.06,0.06-0.09,0.09c-0.15,0.15-0.3,0.31-0.47,0.44
						c0.48-0.37-0.88,0.44-0.19,0.13c-0.25,0.11-0.53,0.17-0.79,0.24c0.62-0.16-0.22-0.01-0.4,0c-0.2,0.01-0.7-0.15-0.12,0
						c-0.13-0.03-1.13-0.39-0.53-0.11c-0.24-0.11-0.46-0.25-0.69-0.38c-0.57-0.32,0.22,0.31-0.22-0.18
						c-0.05-0.06-0.63-0.7-0.23-0.18c-0.21-0.28-0.39-0.59-0.54-0.91c0.23,0.51,0.04,0.08,0.02-0.03c-0.05-0.17-0.09-0.35-0.12-0.53
						c0.05,0.35,0.06,0.34,0.03-0.03c0.01-0.07,0.15-0.94,0.01-0.35c0.1-0.41,0.23-0.8,0.39-1.19c0.62-1.5-0.67-3.3-2.1-3.69
						c-1.73-0.47-3.06,0.59-3.69,2.1c-2.36,5.68,2.63,12.1,8.69,11.42c3.18-0.36,5.07-2.41,7.14-4.54
						c5.16-5.31,10.31-10.62,15.47-15.93c1.54-1.59,3.08-3.17,4.62-4.76c1.43-1.47,0.98-3.61-0.61-4.71
						c-5.22-3.61-10.44-7.22-15.66-10.84c-0.75-0.52-1.5-1.04-2.24-1.55c-1.23-0.85-3.48-0.33-4.1,1.08
						c-3.8,8.51-7.61,17.03-11.41,25.54c-0.53,1.19-1.06,2.38-1.59,3.57c-0.66,1.48-0.43,3.22,1.08,4.1
						C134.28,570.15,136.44,569.81,137.1,568.32z"/>
				</g>
			</g>
			<g>
				<path class="st3" d="M435.09,63.99c2.85,7.53,6.42,14.42,10.98,20.49c4.53,6.08,9.97,11.33,16.12,15.59
					c6.15,4.24,12.98,7.49,20.27,9.59c7.29,2.12,14.99,3.04,23.04,3.06c-7.55,2.86-16,3.55-24.21,2.32
					c-8.22-1.24-16.2-4.43-23.09-9.21c-6.89-4.77-12.69-11.12-16.75-18.37C437.41,80.22,435.08,72.06,435.09,63.99z"/>
			</g>
			<g>
				<path class="st3" d="M402.29,111.37c2.85,7.53,6.42,14.42,10.98,20.49c4.53,6.08,9.97,11.33,16.12,15.59
					c6.15,4.24,12.98,7.49,20.27,9.59c7.29,2.12,14.99,3.04,23.04,3.06c-7.55,2.86-16,3.55-24.21,2.32
					c-8.22-1.24-16.2-4.43-23.09-9.21c-6.89-4.77-12.69-11.12-16.75-18.37C404.61,127.6,402.28,119.44,402.29,111.37z"/>
			</g>
			<g>
				<polygon class="st3" points="416.46,140.64 331.96,256.57 410.7,136.66 				"/>
			</g>
			<g>
				<polygon class="st3" points="189.25,452.12 284.67,320.4 195,456.1 				"/>
			</g>
			<g>
				<path class="st3" d="M371.89,248.39c-3.18,7.14-6.93,13.89-10.86,20.51c-3.95,6.61-8.13,13.06-12.49,19.38
					c-4.37,6.32-8.94,12.5-13.73,18.53c-4.82,6.01-9.81,11.9-15.38,17.39c3.17-7.15,6.93-13.89,10.85-20.52
					c3.95-6.61,8.13-13.06,12.5-19.38c4.38-6.32,8.94-12.5,13.74-18.52C361.33,259.77,366.32,253.88,371.89,248.39z"/>
			</g>
			<g>
				<polygon class="st3" points="215.14,469.41 261.44,410.21 220.85,473.46 				"/>
			</g>
			<g>
				<g>
					<path class="st3" d="M165.26,464.32c2.89-1.13,5.6-2.67,8.36-4.09c3.32-1.71,5.89-3.01,9.36-3.98
						c0.77-0.22,1.55-0.39,2.34-0.53c0.16-0.03,0.76-0.08,0.14-0.03c0.18-0.02,0.35-0.04,0.53-0.05c0.43-0.03,0.86-0.05,1.29-0.03
						c0.33,0.01,0.66,0.03,0.99,0.07c-0.66-0.08,0.15,0.05,0.39,0.11c0.31,0.08,0.61,0.18,0.9,0.29c-0.65-0.25,0.36,0.23,0.55,0.34
						c0.14,0.08,0.27,0.18,0.4,0.27c-0.5-0.38-0.06-0.03,0.05,0.09c0.12,0.12,0.24,0.24,0.36,0.36c0.06,0.06,0.41,0.47,0.19,0.2
						c-0.11-0.14,0.39,0.61,0.5,0.81c0.09,0.16,0.17,0.32,0.25,0.49c0.28,0.56-0.1-0.35,0.14,0.31c0.58,1.59,0.97,3.22,1.41,4.85
						c1.04,3.82,2.69,7.53,6.61,9.07c4.13,1.63,7.82-0.61,11.71-1.72c1.06-0.3,1.12-0.34,2.13-0.3c0.51,0.02-0.38-0.09,0.13,0.01
						c0.26,0.05,0.53,0.12,0.78,0.21c-0.13-0.05-0.38-0.12,0.22,0.12c0.1,0.06,0.21,0.12,0.31,0.18c-0.15-0.15-0.15-0.15,0-0.01
						c0.43,0.27,0.59,0.73,0.77,1.32c0.12,0.4,0.21,0.8,0.29,1.21c0.04,0.21,0.08,0.42,0.11,0.63c0.01,0.03,0.14,0.96,0.07,0.47
						c0.3,2.13,0.5,4.23,1.59,6.15c1.05,1.84,2.83,3.21,4.92,3.64c1.06,0.22,2.15,0.28,3.23,0.29c0.47,0.01,0.95,0.01,1.42,0.02
						c0.19,0.01,0.38,0.02,0.57,0.03c0.14,0.01,0.93,0.15,0.33,0.03c0.29,0.06,1.04,0.26,1.01,0.25c0,0,0.83,0.53,0.75,0.45
						c0.14,0.13,0.28,0.27,0.41,0.42c0.14,0.16,0.13,0.14-0.03-0.04c0.08,0.12,0.15,0.24,0.22,0.36c0.03,0.07,0.29,0.59,0.16,0.28
						c-0.13-0.31,0.12,0.38,0.14,0.45c0.14,0.47,0.24,0.96,0.31,1.45c-0.06-0.48,0,0.05,0,0.12c0.02,0.31,0.05,0.63,0.07,0.94
						c0.06,1.07,0.07,2.14,0.12,3.21c0.06,1.28,0.18,2.59,0.48,3.84c0.28,1.2,0.71,2.24,0.65,3.44c-0.08,1.62,1.44,3,3,3
						c1.69,0,2.92-1.38,3-3c0.07-1.33-0.19-2.62-0.55-3.89c-0.38-1.34-0.47-1.72-0.55-2.91c-0.13-2.07-0.1-4.14-0.41-6.2
						c-0.72-4.74-4.08-7.73-8.81-8.17c-0.85-0.08-1.7-0.06-2.55-0.08c-0.37-0.01-0.73-0.04-1.1-0.05c-0.58-0.02-0.13-0.01,0,0.02
						c-0.26-0.05-0.51-0.12-0.76-0.17c-0.5-0.09-0.15-0.05,0,0.03c0.01,0.01-0.69-0.42-0.36-0.18c0.33,0.24-0.32-0.33-0.31-0.32
						c0.09,0.11,0.25,0.4-0.08-0.14c-0.12-0.19-0.23-0.4-0.32-0.61c0.14,0.33-0.02-0.11-0.03-0.15c-0.15-0.47-0.25-0.95-0.33-1.43
						c-0.05-0.25-0.08-0.51-0.12-0.77c-0.09-0.59,0.1,0.72-0.04-0.3c-0.08-0.58-0.15-1.17-0.24-1.75c-0.15-0.98-0.35-1.94-0.7-2.87
						c-0.94-2.47-2.72-4.23-5.24-5.08c-4.34-1.46-8,1.14-12.07,2.05c-0.61,0.14-1.37,0.17-1.8,0.04c-0.21-0.06-0.42-0.11-0.62-0.19
						c0.13,0.05,0.42,0.22-0.05-0.05c-0.16-0.09-0.31-0.18-0.46-0.28c0.49,0.33-0.1-0.1-0.21-0.21c-0.12-0.12-0.24-0.25-0.36-0.39
						c0.37,0.42,0-0.01-0.08-0.14c-0.21-0.35-0.41-0.7-0.6-1.07c-0.04-0.08-0.23-0.52-0.04-0.05c-0.07-0.18-0.14-0.36-0.2-0.54
						c-0.17-0.46-0.31-0.93-0.45-1.39c-1.07-3.65-1.69-7.66-4.55-10.43c-2.59-2.52-6.2-3.33-9.71-2.91
						c-4.4,0.53-8.49,2.3-12.44,4.24c-1.75,0.86-3.48,1.78-5.21,2.68c-0.76,0.39-1.51,0.78-2.28,1.16
						c-0.37,0.18-0.75,0.36-1.12,0.53c-0.13,0.06-0.26,0.11-0.38,0.17c-0.17,0.07,0.58-0.23-0.09,0.03
						c-1.51,0.59-2.56,2.01-2.1,3.69C161.97,463.67,163.74,464.92,165.26,464.32L165.26,464.32z"/>
				</g>
			</g>
			<g>
				<path class="st3" d="M442.39,137.21c-4.62-1.03-8.85-3.1-12.76-5.65c-3.89-2.59-7.46-5.75-10.44-9.5
					c-2.97-3.73-5.37-8.09-6.57-12.84c-1.19-4.72-1.11-9.92,1-14.2c0.85,4.65,2.24,8.61,4.17,12.3c1.91,3.69,4.28,7.08,6.88,10.39
					c2.61,3.3,5.49,6.47,8.48,9.64C436.12,130.55,439.27,133.67,442.39,137.21z"/>
			</g>
			<g>
				<path class="st3" d="M489.27,130.05c-4.69,1.64-9.5,2.59-14.57,2.61c-5.05,0.03-10.29-1.13-14.91-3.28
					c-4.61-2.09-8.9-5.03-12.4-8.74c-3.47-3.71-6.18-8.23-7.15-13.14c3.54,3.5,7.02,6.45,10.76,8.98c3.71,2.54,7.62,4.67,11.69,6.53
					c4.04,1.86,8.13,3.23,12.57,4.19C479.68,128.21,484.44,128.8,489.27,130.05z"/>
			</g>
			<g>
				<g>
					<path class="st3" d="M336.66,199.29c-6.71,3.5-13.41,7-20.12,10.5c-11.64,6.08-23.29,12.15-34.93,18.23
						c-3.7,1.93-7.4,3.86-11.11,5.79c-0.62,0.32-1.28,0.61-1.88,0.98c-1.45,0.89-1.49,2.45-1.67,3.93c-1.38,11.3-2.72,22.6-4,33.92
						c-1.48,13.01-3.13,26.05-3.92,39.13c-0.05,0.82-0.09,1.63-0.12,2.45c-0.11,3.86,5.89,3.86,6,0c0.13-4.21,0.56-8.42,0.96-12.61
						c0.6-6.35,1.28-12.69,1.98-19.03c1.36-12.4,2.81-24.8,4.31-37.19c0.32-2.66,0.64-5.33,0.97-7.99c-0.5,0.86-0.99,1.73-1.49,2.59
						c7.67-4,15.35-8.01,23.02-12.01c12.22-6.38,24.44-12.75,36.66-19.13c2.79-1.46,5.58-2.91,8.37-4.37
						c1.44-0.75,1.87-2.75,1.08-4.1C339.91,198.91,338.1,198.54,336.66,199.29L336.66,199.29z"/>
				</g>
			</g>
			<g>
				<g>
					<path class="st3" d="M367.08,156.18c-3.21,1.68-6.41,3.36-9.62,5.04c-7.64,4.01-15.29,8.02-22.93,12.03
						c-9.26,4.86-18.52,9.71-27.78,14.57c-7.92,4.15-15.85,8.31-23.78,12.46c-6.85,3.59-13.94,6.92-20.49,11.03
						c-5.34,3.35-10.79,7.61-13.56,13.45c-1.63,3.43-1.98,6.82-2.11,10.57c-0.16,4.72-0.32,9.44-0.48,14.15
						c-0.32,9.6-0.65,19.2-0.97,28.8c-0.26,7.67-0.51,15.05-2.1,22.44c-1.5,6.95-3.82,13.53-7.55,19.57c-1.8,2.92-3.8,5.5-6.24,7.93
						c-2.69,2.69-5.76,5.02-8.7,7.42c-2.87,2.33-5.94,4.62-9.44,5.91c-2.87,1.05-5.79,1.99-8.62,3.15
						c-5.66,2.33-11.03,5.64-13.6,11.47c-2.8,6.35-3.04,14.4,1.19,20.2c3.87,5.31,10.11,8.31,16.5,9.32
						c3.35,0.53,8.21,0.98,9.9-2.82c0.66-1.48,0.43-3.22-1.08-4.1c-1.28-0.75-3.44-0.41-4.1,1.08c-0.03,0.06-0.23,0.55,0.01,0.14
						c0.16-0.28,0.05,0.06,0.04-0.03c0.01,0.1-0.24,0.07,0.03,0c-0.2,0.06-0.4,0.12-0.61,0.15c0.38-0.06-0.39,0-0.5,0
						c-0.43,0-0.86-0.04-1.28-0.08c-1.02-0.11-2.71-0.43-4.13-0.82c-2.6-0.72-5.23-1.9-7.05-3.33c-0.55-0.43-1.07-0.91-1.56-1.41
						c-0.24-0.25-0.48-0.51-0.71-0.77c-0.1-0.11-0.19-0.23-0.29-0.34c-0.31-0.39,0.21,0.3-0.07-0.11c-0.93-1.32-1.39-2.22-1.78-3.5
						c-0.49-1.62-0.59-2.48-0.56-4.14c0.03-1.65,0.24-3.03,0.68-4.64c0.71-2.61,1.87-4.61,3.85-6.46c0.24-0.22,0.49-0.44,0.74-0.65
						c0.41-0.35-0.16,0.1,0.28-0.22c0.57-0.42,1.17-0.81,1.78-1.17c1.18-0.7,2.41-1.3,3.66-1.85c0.46-0.2-0.35,0.14,0.12-0.05
						c0.14-0.06,0.28-0.12,0.42-0.17c0.33-0.13,0.66-0.27,1-0.39c0.73-0.28,1.46-0.55,2.19-0.81c1.41-0.51,2.82-0.99,4.23-1.5
						c3.69-1.32,6.97-3.12,10.09-5.49c6.03-4.57,12.01-9.37,16.53-15.5c4.2-5.71,7.13-12.34,9.1-19.13
						c1.97-6.8,2.99-13.89,3.34-20.95c0.45-9.14,0.63-18.29,0.94-27.43c0.16-4.72,0.32-9.44,0.48-14.15
						c0.15-4.4,0.05-8.9,0.49-13.29c0.05-0.53-0.07,0.38,0.02-0.14c0.02-0.15,0.05-0.31,0.08-0.46c0.07-0.35,0.15-0.71,0.24-1.05
						c0.09-0.35,0.19-0.69,0.3-1.03c0.06-0.17,0.38-1.05,0.24-0.7c0.54-1.31,1.3-2.54,2.12-3.69c0.19-0.26,0.62-0.8,1.09-1.32
						c0.49-0.55,1-1.08,1.53-1.59c0.54-0.52,1.1-1.02,1.67-1.5c0.53-0.45,1.12-0.92,1.43-1.15c6.64-4.93,14.33-8.4,21.64-12.23
						c7.3-3.82,14.6-7.65,21.91-11.48c9.05-4.74,18.09-9.48,27.14-14.23c8.02-4.21,16.04-8.41,24.06-12.62
						c4.35-2.28,8.7-4.56,13.06-6.85c0.2-0.11,0.4-0.21,0.6-0.32c1.43-0.75,1.87-2.75,1.08-4.1
						C370.33,155.8,368.52,155.42,367.08,156.18L367.08,156.18z"/>
				</g>
			</g>
			<g>
				<g>
					<path class="st3" d="M384.68,228.01c0.25-0.19,0.5-0.38,0.78-0.54c-0.01,0.01,0.89-0.44,0.41-0.24c0.29-0.12,0.6-0.21,0.9-0.28
						c0,0,1-0.17,0.46-0.1c1.42-0.16,2.1-0.04,3.4,0.38c0.76,0.24,1.84,0.81,2.36,1.25c1,0.85,1.73,1.96,2.25,3.16
						c1.08,2.48,1.18,5.23,1.04,7.94c-0.04,0.78-0.11,1.55-0.19,2.32c-0.03,0.25-0.06,0.51-0.09,0.76
						c-0.14,1.22,0.05-0.35-0.02,0.21c-0.07,0.56-0.15,1.11-0.23,1.67c-0.91,6.61-1.88,13.22-2.85,19.82
						c-2.37,16.25-4.79,32.5-7.21,48.74c-0.57,3.81-1.14,7.61-1.71,11.41c0.46-0.6,0.92-1.2,1.38-1.79
						c-11.15,5.91-22.27,11.73-33.83,16.81c-10.66,4.68-21.43,9.13-32.07,13.85c-9.14,4.06-18.41,8.03-26.78,13.57
						c-7.78,5.15-14.66,11.51-18.46,20.19c-3.56,8.13-4.89,17.18-4.22,26.02c0.62,8.19,2.62,17.32,8.03,23.75
						c4.79,5.71,12.43,8.58,19.79,8.29c7.64-0.3,15.21-3.74,20.14-9.65c2.93-3.51,4.39-7.63,4.68-12.17
						c0.27-4.26-0.48-8.56-1.23-12.75c-0.79-4.38-1.65-8.34-1.79-12.69c-0.07-2.06,0.03-3.97,0.4-5.71
						c0.21-0.97,0.49-1.93,0.82-2.86c0.32-0.89,0.47-1.23,0.99-2.26c3.5-6.87,9.71-11.85,16.27-15.92c3.55-2.2,7.25-4.14,11.01-5.94
						c3.35-1.6,7.44-3.37,10.34-4.59c4.25-1.78,8.67-3.08,13.05-4.49c6.27-2.01,12.54-4.05,18.67-6.45c2.77-1.08,5.54-2.22,8.18-3.6
						c1.73-0.9,3.59-1.96,4.86-3.47c1.07-1.28,1.25-2.53,1.51-4.16c0.47-2.99,0.97-5.97,1.47-8.95c1-5.9,2.05-11.79,3.11-17.67
						c2.14-11.81,4.34-23.6,6.32-35.44c1.95-11.61,3.5-23.25,5.98-34.76c2.44-11.36,5.28-22.64,7.29-34.09
						c0.99-5.64,1.77-11.33,2.24-17.04c0.13-1.62-1.47-3-3-3c-1.73,0-2.87,1.38-3,3c-1.24,15.05-4.91,29.74-8.2,44.44
						c-1.66,7.41-3.22,14.85-4.35,22.37c-1.17,7.79-2.39,15.57-3.74,23.33c-2.69,15.53-5.68,31.01-8.32,46.55
						c-0.3,1.77-0.6,3.55-0.89,5.32c-0.16,0.97-0.32,1.93-0.47,2.9c-0.17,1.05-0.59,2.33-0.54,3.39c0,0.04-0.07,0.19-0.05,0.22
						c0.13,0.24,0.34-0.76,0.17-0.42c-0.29,0.59-0.11-0.22,0.16-0.15c0.14,0.04-1.89,1.47-0.63,0.67c-1.17,0.75-2.32,1.48-3.57,2.11
						c-0.7,0.35-1.42,0.69-2.13,1.01c-0.42,0.19-0.85,0.37-1.27,0.56c-0.11,0.05-0.85,0.35-0.17,0.07c-0.3,0.13-0.61,0.25-0.91,0.38
						c-7.75,3.16-15.77,5.65-23.73,8.2c-7.25,2.32-14.22,5.17-21.11,8.44c-9.87,4.68-19.87,10.48-26.62,19.28
						c-3.35,4.37-5.54,9.42-6.05,14.93c-0.54,5.82,0.74,11.69,1.78,17.38c0.52,2.84,0.93,5.13,1.12,7.89
						c0.08,1.21,0.11,2.43,0.04,3.65c-0.07,1.45-0.15,2.09-0.58,3.62c-1.19,4.3-4.75,7.7-8.7,9.87c-0.43,0.24-0.87,0.46-1.31,0.67
						c-0.26,0.13-0.53,0.25-0.8,0.36c0.55-0.23-0.34,0.13-0.37,0.14c-1.18,0.44-2.39,0.8-3.62,1.06c-0.47,0.1-0.94,0.18-1.42,0.26
						c-0.92,0.16,0.59-0.04-0.34,0.04c-0.29,0.02-0.57,0.06-0.86,0.08c-1.23,0.09-2.47,0.09-3.7,0c-0.19-0.01-0.38-0.03-0.57-0.05
						c-0.07-0.01-0.99-0.14-0.33-0.03c-0.56-0.09-1.11-0.19-1.66-0.31c-1.19-0.27-2.36-0.63-3.48-1.09
						c0.12,0.05,0.48,0.22-0.06-0.03c-0.26-0.12-0.51-0.24-0.76-0.36c-0.5-0.25-1-0.52-1.48-0.82c-1.24-0.75-1.53-0.97-2.46-1.81
						c-1.86-1.68-2.79-2.91-3.94-5.12c-1.08-2.08-1.88-4.4-2.58-6.94c-1.49-5.38-2.01-10.5-1.77-16.16
						c0.23-5.41,1.27-10.82,3.41-16.02c2.01-4.89,5.21-9.17,9.3-12.84c9.65-8.65,22-13.73,33.7-18.92
						c14.03-6.23,28.3-11.93,42.2-18.43c7.22-3.38,14.22-7.2,21.27-10.92c1.58-0.84,3.66-1.52,4.05-3.49
						c0.28-1.42,0.43-2.88,0.65-4.31c2.31-15.44,4.61-30.88,6.88-46.33c1.16-7.87,2.31-15.75,3.44-23.63
						c0.42-2.95,0.87-5.91,1.23-8.87c0.75-6.17,0.38-13.51-4.42-18.1c-4.02-3.85-11.28-5.29-15.93-1.71
						c-1.28,0.99-1.97,2.58-1.08,4.1C381.31,228.2,383.39,229.01,384.68,228.01L384.68,228.01z"/>
				</g>
			</g>
			<g>
				<path class="st3" d="M282.41,204.6c-0.74,3.05-0.59,6.71,0.14,10.25c0.75,3.55,2.04,7.1,4.13,10.3
					c-2.97-2.42-5.43-5.57-7.4-9.04c-0.98-1.75-1.83-3.6-2.51-5.56c-0.67-1.97-1.18-4.05-1.36-6.31L282.41,204.6z"/>
			</g>
			<g>
				<path class="st3" d="M261.26,218.4c-0.46,3.58,0.21,7.5,2.3,10.8c1.04,1.65,2.44,3.11,4.14,4.25c1.7,1.14,3.7,1.93,5.84,2.32
					c-2.16,0.2-4.42-0.02-6.6-0.74c-2.18-0.71-4.25-1.92-6.03-3.53c-3.57-3.21-5.91-7.87-6.65-12.86L261.26,218.4z"/>
			</g>
			<g>
				<path class="st3" d="M251.32,248.02c2.06,1.49,4.25,2.8,6.64,3.76c2.39,0.96,5.01,1.54,7.76,1.62
					c-2.53,1.07-5.37,1.71-8.29,1.84c-2.93,0.14-5.91-0.18-8.8-0.76L251.32,248.02z"/>
			</g>
			<g>
				<path class="st3" d="M250.99,272.58c2.06,1.72,3.82,3.48,5.71,4.61c0.95,0.56,2.01,0.93,3.2,1.05c1.19,0.13,2.47,0.01,3.75-0.23
					c-1.04,0.77-2.18,1.48-3.51,1.97c-1.32,0.49-2.85,0.71-4.34,0.6c-1.5-0.1-2.92-0.43-4.25-0.77l-3.82-1.02L250.99,272.58z"/>
			</g>
			<g>
				<path class="st3" d="M248.89,297.35c0.72,1.19,1.57,2.29,2.55,3.22c0.98,0.92,2.11,1.7,3.38,2.09c1.26,0.41,2.69,0.44,4.13,0
					c1.44-0.43,2.83-1.3,4.09-2.37c-0.81,1.43-1.84,2.82-3.27,3.91c-1.42,1.1-3.29,1.83-5.27,1.94c-1.98,0.13-3.96-0.34-5.75-1.07
					c-1.8-0.74-3.45-1.76-4.96-2.94L248.89,297.35z"/>
			</g>
			<g>
				<path class="st3" d="M236.99,325.36c1.67,1.72,3.84,3.23,6.24,4.37c2.41,1.13,5.06,1.94,7.9,2.07
					c-2.66,1.03-5.66,1.42-8.68,1.34c-3.03-0.1-6.1-0.64-9.17-1.85L236.99,325.36z"/>
			</g>
			<g>
				<path class="st3" d="M224.9,335.66c2.5,1.9,4.28,4.52,5.25,7.19c0.99,2.68,1.29,5.42,1.2,8.03c-0.1,2.62-0.62,5.16-1.44,7.54
					c-0.83,2.38-1.98,4.63-3.5,6.55c1.02-2.22,1.56-4.58,1.79-6.93c0.22-2.35,0.11-4.7-0.34-6.91c-0.45-2.21-1.26-4.29-2.41-5.97
					c-1.15-1.69-2.63-2.91-4.26-3.58L224.9,335.66z"/>
			</g>
			<g>
				<path class="st3" d="M207.81,345.15c1.86,2.88,3.33,5.98,4.38,9.17c1.05,3.19,1.67,6.45,1.94,9.7
					c0.53,6.51-0.34,12.9-2.01,18.93c0.53-6.24,0.16-12.52-1.44-18.34c-1.58-5.82-4.47-11.08-8.4-15.17L207.81,345.15z"/>
			</g>
			<g>
				<path class="st3" d="M389.82,293.15c1.96-0.59,4.09-0.86,6.12-0.65c2.04,0.2,3.92,0.86,5.53,1.73c3.23,1.77,5.59,4.17,7.99,6.49
					c-3.03-1.36-6.14-2.75-9.14-3.18c-1.49-0.22-2.91-0.14-4.16,0.2c-1.26,0.35-2.36,0.96-3.38,1.74L389.82,293.15z"/>
			</g>
			<g>
				<path class="st3" d="M386.75,306.77c4-0.78,8.24-0.6,11.92,0.85c3.69,1.44,6.58,4.07,8.51,7.04c-2.8-2.21-6.11-3.51-9.3-3.63
					c-3.2-0.13-6.21,0.82-8.84,2.35L386.75,306.77z"/>
			</g>
			<g>
				<path class="st3" d="M388.9,323.58c3.17,2.49,5.99,5.48,8.05,8.83c2.08,3.35,3.37,7,4.06,10.64c-1.78-3.25-4.06-6.14-6.73-8.38
					c-2.67-2.25-5.69-3.87-8.87-5.02L388.9,323.58z"/>
			</g>
			<g>
				<path class="st3" d="M370.23,332.71c0.98,3.03,2.21,6.18,3.11,9.49c0.91,3.3,1.35,6.77,1,10.04c-0.83-3.2-2.34-6.02-4.17-8.57
					c-1.84-2.56-3.98-4.96-6.09-7.62L370.23,332.71z"/>
			</g>
			<g>
				<path class="st3" d="M355.35,339.31c1.34,2.64,3.05,5.41,4.31,8.45c0.63,1.52,1.13,3.12,1.37,4.74
					c0.25,1.62,0.23,3.24-0.06,4.76c-0.3-1.52-0.85-2.93-1.59-4.19c-0.74-1.26-1.66-2.38-2.67-3.42c-2.03-2.09-4.4-3.86-6.84-5.98
					L355.35,339.31z"/>
			</g>
			<g>
				<path class="st3" d="M330.57,349.53c1.86,2.71,3.55,5.63,4.73,8.71c1.19,3.07,1.82,6.28,1.91,9.39
					c-1.24-2.87-2.91-5.42-4.91-7.57c-1.99-2.16-4.28-3.96-6.72-5.6L330.57,349.53z"/>
			</g>
			<g>
				<path class="st3" d="M291.64,368.08c2.61,0.39,5.24,0.9,7.83,1.65c2.58,0.75,5.13,1.75,7.46,3.09c2.34,1.34,4.45,3.01,6.24,4.91
					c1.8,1.9,3.28,4,4.54,6.19c-1.73-1.85-3.62-3.51-5.67-4.85c-2.05-1.35-4.24-2.37-6.51-3.04c-4.55-1.34-9.33-1.35-14.14-0.95
					L291.64,368.08z"/>
			</g>
			<g>
				<path class="st3" d="M279.4,382.8c2.32,2.35,4.97,4.46,7.83,6.27c2.88,1.79,5.97,3.27,9.23,4.26c3.27,0.95,6.68,1.53,10.13,1.12
					c3.48-0.36,6.99-1.3,10.53-1.91c-3.39,1.17-6.65,2.65-10.21,3.63c-0.89,0.24-1.8,0.45-2.74,0.6c-0.95,0.15-1.87,0.2-2.81,0.26
					c-1.88,0.08-3.76-0.04-5.63-0.27c-3.74-0.5-7.4-1.56-10.9-3.01c-3.5-1.47-6.85-3.34-9.99-5.62L279.4,382.8z"/>
			</g>
			<g>
				<path class="st3" d="M275.54,408.47c3.04,2.46,6.13,4.77,9.42,6.74c3.27,1.97,6.77,3.6,10.44,4.73
					c3.64,1.12,7.51,1.66,11.39,1.39c3.86-0.26,7.75-1.37,11.12-3.55c-3.01,2.65-6.84,4.42-10.87,5.29
					c-4.04,0.88-8.26,0.92-12.41,0.29c-4.12-0.64-8.15-1.84-12.02-3.45c-3.86-1.61-7.53-3.59-11.05-5.68L275.54,408.47z"/>
			</g>
		</g>
	</g>
</g>
<g id="星星_1_">
	<g>
		<path class="st0" d="M538.04,349.49l-6.59,31.11c-1.11,5.26,1.29,10.64,5.95,13.33l27.55,15.88c10.42,6.01,7.07,21.84-4.89,23.11
			l-31.62,3.35c-5.35,0.57-9.73,4.51-10.84,9.78l-6.59,31.11c-2.49,11.77-18.59,13.47-23.49,2.49l-12.96-29.04
			c-2.19-4.91-7.3-7.86-12.65-7.29l-31.62,3.35c-11.96,1.27-18.56-13.51-9.62-21.57l23.61-21.3c3.99-3.6,5.22-9.37,3.02-14.28
			l-12.96-29.04c-4.9-10.99,7.12-21.82,17.54-15.82l27.55,15.88c4.66,2.69,10.52,2.07,14.52-1.54l23.61-21.3
			C526.51,329.64,540.53,337.73,538.04,349.49z"/>
		<g>
			<g>
				<g>
					<path class="st3" d="M538,345c-5.26,0-10.51,0-15.77,0c-0.74,0-1.49,0-2.23,0c-1.57,0-3.07,1.38-3,3c0.07,1.63,1.32,3,3,3
						c5.26,0,10.51,0,15.77,0c0.74,0,1.49,0,2.23,0c1.57,0,3.07-1.38,3-3C540.93,346.37,539.68,345,538,345L538,345z"/>
				</g>
			</g>
			<g>
				<g>
					<path class="st3" d="M536,354c-5.26,0-10.51,0-15.77,0c-0.74,0-1.49,0-2.23,0c-1.57,0-3.07,1.38-3,3c0.07,1.63,1.32,3,3,3
						c5.26,0,10.51,0,15.77,0c0.74,0,1.49,0,2.23,0c1.57,0,3.07-1.38,3-3C538.93,355.37,537.68,354,536,354L536,354z"/>
				</g>
			</g>
			<g>
				<g>
					<path class="st3" d="M534,363c-5.26,0-10.51,0-15.77,0c-0.74,0-1.49,0-2.23,0c-1.57,0-3.07,1.38-3,3c0.07,1.63,1.32,3,3,3
						c5.26,0,10.51,0,15.77,0c0.74,0,1.49,0,2.23,0c1.57,0,3.07-1.38,3-3C536.93,364.37,535.68,363,534,363L534,363z"/>
				</g>
			</g>
			<g>
				<g>
					<path class="st3" d="M532,372c-5.26,0-10.51,0-15.77,0c-0.74,0-1.49,0-2.23,0c-1.57,0-3.07,1.38-3,3c0.07,1.63,1.32,3,3,3
						c5.26,0,10.51,0,15.77,0c0.74,0,1.49,0,2.23,0c1.57,0,3.07-1.38,3-3C534.93,373.37,533.68,372,532,372L532,372z"/>
				</g>
			</g>
			<g>
				<g>
					<path class="st3" d="M530,381c-5.26,0-10.51,0-15.77,0c-0.74,0-1.49,0-2.23,0c-1.57,0-3.07,1.38-3,3c0.07,1.63,1.32,3,3,3
						c5.26,0,10.51,0,15.77,0c0.74,0,1.49,0,2.23,0c1.57,0,3.07-1.38,3-3C532.93,382.37,531.68,381,530,381L530,381z"/>
				</g>
			</g>
			<g>
				<g>
					<path class="st3" d="M537,390c-5.26,0-10.51,0-15.77,0c-0.74,0-1.49,0-2.23,0c-1.57,0-3.07,1.38-3,3c0.07,1.63,1.32,3,3,3
						c5.26,0,10.51,0,15.77,0c0.74,0,1.49,0,2.23,0c1.57,0,3.07-1.38,3-3C539.93,391.37,538.68,390,537,390L537,390z"/>
				</g>
			</g>
			<g>
				<g>
					<path class="st3" d="M523.12,436.88c-4.23-4.23-8.46-8.46-12.69-12.69c-0.6-0.6-1.2-1.2-1.81-1.81c-1.11-1.11-3.15-1.19-4.24,0
						c-1.1,1.2-1.19,3.06,0,4.24c4.23,4.23,8.46,8.46,12.69,12.69c0.6,0.6,1.2,1.2,1.81,1.81c1.11,1.11,3.15,1.19,4.24,0
						C524.22,439.92,524.31,438.06,523.12,436.88L523.12,436.88z"/>
				</g>
			</g>
			<g>
				<g>
					<path class="st3" d="M518.12,447.88c-4.23-4.23-8.46-8.46-12.69-12.69c-0.6-0.6-1.2-1.2-1.81-1.81c-1.11-1.11-3.15-1.19-4.24,0
						c-1.1,1.2-1.19,3.06,0,4.24c4.23,4.23,8.46,8.46,12.69,12.69c0.6,0.6,1.2,1.2,1.81,1.81c1.11,1.11,3.15,1.19,4.24,0
						C519.22,450.92,519.31,449.06,518.12,447.88L518.12,447.88z"/>
				</g>
			</g>
			<g>
				<g>
					<path class="st3" d="M515.12,459.88c-4.23-4.23-8.46-8.46-12.69-12.69c-0.6-0.6-1.2-1.2-1.81-1.81c-1.11-1.11-3.15-1.19-4.24,0
						c-1.1,1.2-1.19,3.06,0,4.24c4.23,4.23,8.46,8.46,12.69,12.69c0.6,0.6,1.2,1.2,1.81,1.81c1.11,1.11,3.15,1.19,4.24,0
						C516.22,462.92,516.31,461.06,515.12,459.88L515.12,459.88z"/>
				</g>
			</g>
			<g>
				<g>
					<path class="st3" d="M512.12,471.88c-4.23-4.23-8.46-8.46-12.69-12.69c-0.6-0.6-1.2-1.2-1.81-1.81c-1.11-1.11-3.15-1.19-4.24,0
						c-1.1,1.2-1.19,3.06,0,4.24c4.23,4.23,8.46,8.46,12.69,12.69c0.6,0.6,1.2,1.2,1.81,1.81c1.11,1.11,3.15,1.19,4.24,0
						C513.22,474.92,513.31,473.06,512.12,471.88L512.12,471.88z"/>
				</g>
			</g>
			<g>
				<g>
					<path class="st3" d="M508.12,481.88c-4.23-4.23-8.46-8.46-12.69-12.69c-0.6-0.6-1.2-1.2-1.81-1.81c-1.11-1.11-3.15-1.19-4.24,0
						c-1.1,1.2-1.19,3.06,0,4.24c4.23,4.23,8.46,8.46,12.69,12.69c0.6,0.6,1.2,1.2,1.81,1.81c1.11,1.11,3.15,1.19,4.24,0
						C509.22,484.92,509.31,483.06,508.12,481.88L508.12,481.88z"/>
				</g>
			</g>
			<g>
				<g>
					<path class="st3" d="M438.12,442.88c-3.5-3.5-7-7-10.51-10.51c-0.5-0.5-1-1-1.49-1.49c-1.11-1.11-3.15-1.19-4.24,0
						c-1.1,1.2-1.19,3.06,0,4.24c3.5,3.5,7,7,10.51,10.51c0.5,0.5,1,1,1.49,1.49c1.11,1.11,3.15,1.19,4.24,0
						C439.22,445.92,439.31,444.06,438.12,442.88L438.12,442.88z"/>
				</g>
			</g>
			<g>
				<g>
					<path class="st3" d="M451.12,441.88c-3.5-3.5-7-7-10.51-10.51c-0.5-0.5-1-1-1.49-1.49c-1.11-1.11-3.15-1.19-4.24,0
						c-1.1,1.2-1.19,3.06,0,4.24c3.5,3.5,7,7,10.51,10.51c0.5,0.5,1,1,1.49,1.49c1.11,1.11,3.15,1.19,4.24,0
						C452.22,444.92,452.31,443.06,451.12,441.88L451.12,441.88z"/>
				</g>
			</g>
			<g>
				<g>
					<path class="st3" d="M464.12,440.88c-3.5-3.5-7-7-10.51-10.51c-0.5-0.5-1-1-1.49-1.49c-1.11-1.11-3.15-1.19-4.24,0
						c-1.1,1.2-1.19,3.06,0,4.24c3.5,3.5,7,7,10.51,10.51c0.5,0.5,1,1,1.49,1.49c1.11,1.11,3.15,1.19,4.24,0
						C465.22,443.92,465.31,442.06,464.12,440.88L464.12,440.88z"/>
				</g>
			</g>
			<g>
				<g>
					<path class="st3" d="M533.17,431.83c-4.23-4.23-8.46-8.46-12.69-12.69c-0.6-0.6-1.2-1.2-1.81-1.81c-1.11-1.11-3.15-1.19-4.24,0
						c-1.1,1.2-1.19,3.06,0,4.24c4.23,4.23,8.46,8.46,12.69,12.69c0.6,0.6,1.2,1.2,1.81,1.81c1.11,1.11,3.15,1.19,4.24,0
						C534.27,434.87,534.36,433.01,533.17,431.83L533.17,431.83z"/>
				</g>
			</g>
			<g>
				<g>
					<path class="st3" d="M546.17,430.83c-4.23-4.23-8.46-8.46-12.69-12.69c-0.6-0.6-1.2-1.2-1.81-1.81c-1.11-1.11-3.15-1.19-4.24,0
						c-1.1,1.2-1.19,3.06,0,4.24c4.23,4.23,8.46,8.46,12.69,12.69c0.6,0.6,1.2,1.2,1.81,1.81c1.11,1.11,3.15,1.19,4.24,0
						C547.27,433.87,547.36,432.01,546.17,430.83L546.17,430.83z"/>
				</g>
			</g>
			<g>
				<g>
					<path class="st3" d="M559.17,429.83c-4.23-4.23-8.46-8.46-12.69-12.69c-0.6-0.6-1.2-1.2-1.81-1.81c-1.11-1.11-3.15-1.19-4.24,0
						c-1.1,1.2-1.19,3.06,0,4.24c4.23,4.23,8.46,8.46,12.69,12.69c0.6,0.6,1.2,1.2,1.81,1.81c1.11,1.11,3.15,1.19,4.24,0
						C560.27,432.87,560.36,431.01,559.17,429.83L559.17,429.83z"/>
				</g>
			</g>
			<g>
				<g>
					<path class="st3" d="M569.17,425.83c-4.23-4.23-8.46-8.46-12.69-12.69c-0.6-0.6-1.2-1.2-1.81-1.81c-1.11-1.11-3.15-1.19-4.24,0
						c-1.1,1.2-1.19,3.06,0,4.24c4.23,4.23,8.46,8.46,12.69,12.69c0.6,0.6,1.2,1.2,1.81,1.81c1.11,1.11,3.15,1.19,4.24,0
						C570.27,428.87,570.36,427.01,569.17,425.83L569.17,425.83z"/>
				</g>
			</g>
			<path class="st9" d="M538.04,349.49l-6.59,31.11c-1.11,5.26,1.29,10.64,5.95,13.33l27.55,15.88c10.42,6.01,7.07,21.84-4.89,23.11
				l-31.62,3.35c-5.35,0.57-9.73,4.51-10.84,9.78l-6.59,31.11c-2.49,11.77-18.59,13.47-23.49,2.49l-12.96-29.04
				c-2.19-4.91-7.3-7.86-12.65-7.29l-31.62,3.35c-11.96,1.27-18.56-13.51-9.62-21.57l23.61-21.3c3.99-3.6,5.22-9.37,3.02-14.28
				l-12.96-29.04c-4.9-10.99,7.12-21.82,17.54-15.82l27.55,15.88c4.66,2.69,10.52,2.07,14.52-1.54l23.61-21.3
				C526.51,329.64,540.53,337.73,538.04,349.49z"/>
		</g>
	</g>
</g>
<g id="星球_4_">
	<g>
		<circle class="st0" cx="291.27" cy="99.5" r="64"/>
	</g>
	<g>
		<path class="st0" d="M324.51,43.33c4.14-4.05,8.61-7.76,13.55-11.03c2.47-1.65,5.07-3.13,7.9-4.44c1.42-0.65,2.92-1.21,4.53-1.68
			c1.61-0.46,3.35-0.82,5.35-0.85c1.96-0.04,4.35,0.3,6.7,1.71c0.58,0.34,1.13,0.77,1.66,1.22c0.49,0.48,0.96,1,1.41,1.54
			c0.8,1.09,1.46,2.29,1.84,3.43c0.82,2.3,1,4.45,0.96,6.33c0,1.94-0.25,3.66-0.54,5.36c-0.6,3.36-1.58,6.39-2.66,9.33
			c-1.09,2.93-2.28,5.76-3.63,8.47c-1.32,2.73-2.74,5.37-4.19,7.98c-1.48,2.59-3.03,5.13-4.63,7.62c-3.16,5.01-6.6,9.78-10.13,14.47
			c-3.53,4.69-7.3,9.17-11.1,13.6c-3.85,4.39-7.84,8.65-11.9,12.84c-4.11,4.13-8.31,8.18-12.62,12.11
			c-4.37,3.87-8.79,7.7-13.38,11.32c-4.61,3.61-9.29,7.15-14.19,10.42c-2.45,1.64-4.91,3.26-7.44,4.81
			c-2.55,1.52-5.11,3.02-7.75,4.44c-2.61,1.44-5.33,2.75-8.11,3.99c-2.77,1.25-5.63,2.39-8.65,3.34c-3.02,0.93-6.15,1.77-9.68,2.08
			c-1.73,0.18-3.68,0.13-5.7-0.16c-2.05-0.35-4.46-1.15-6.45-2.91c-2-1.73-3.17-4.26-3.47-6.36c-0.09-0.53-0.11-1.03-0.15-1.54
			c-0.05-0.52-0.03-0.99,0-1.45c0.03-0.46,0.04-0.95,0.11-1.38l0.23-1.29c0.71-3.37,1.97-6.18,3.41-8.84
			c2.89-5.28,6.42-9.91,10.31-14.2c-3.93,4.34-6.5,11.81-6.83,17.57c-0.87,15.1,22.22,1.04,26.68-2.19
			c8.77-6.36,17.24-13.45,25.45-20.82c4.1-3.7,8.19-7.42,12.15-11.28c4.02-3.8,7.96-7.7,11.82-11.67
			c3.92-3.91,7.73-7.93,11.48-11.99c3.8-4.02,7.43-8.17,11.06-12.32c7.17-8.34,14.1-16.93,19.99-25.84
			c2.92-4.42,7.14-11.33,6.06-16.88c-0.87-4.48-4.6-5.35-8.59-4.62C338.37,34.85,329.7,38.26,324.51,43.33z"/>
	</g>
	<g>
		<g>
			<g>
				<path class="st3" d="M326.63,45.45c3.35-3.25,6.89-6.31,10.69-9.02c3.78-2.68,7.85-5.28,12.24-6.81
					c3.83-1.34,8.23-2.15,11.8,0.22c3.55,2.35,4.21,6.98,4,10.9c-0.24,4.59-1.68,9.1-3.3,13.37c-1.7,4.49-3.83,8.79-6.13,13.01
					c-4.84,8.89-10.6,17.28-16.76,25.29c-12.37,16.1-26.81,30.74-42.34,43.78c-7.6,6.38-15.6,12.29-23.98,17.62
					c-8.28,5.28-17.15,10.2-26.57,13.08c-6.49,1.98-18.91,4.57-21.04-4.58c-0.18-0.76-0.23-1.49-0.22-2.3c0-0.54,0.05-1.1,0.09-1.64
					c-0.05,0.64,0.05-0.21,0.08-0.42c0.34-1.87,0.89-3.73,1.64-5.48c1.78-4.18,4.37-8.11,7.13-11.7c1.35-1.75,2.79-3.43,4.27-5.07
					c-1.41-1.41-2.83-2.83-4.24-4.24c-2.91,3.28-4.87,7.27-6.17,11.44c-1.13,3.6-1.94,7.6-1.35,11.37c0.38,2.45,1.84,4.72,4.1,5.81
					c2.39,1.16,5.03,1.05,7.58,0.6c5.12-0.91,10.06-3.48,14.52-6.06c5.83-3.38,11.1-7.68,16.33-11.9
					c16.2-13.1,31.36-27.63,45.67-42.75c7.16-7.57,14.14-15.32,20.78-23.35c6.2-7.5,12.43-15.27,17.35-23.69
					c2.19-3.75,4.12-7.91,4.34-12.3c0.22-4.33-1.84-8.51-6.15-9.86c-3.78-1.18-8.15,0.1-11.8,1.22c-4.11,1.26-8.18,2.99-11.81,5.31
					c-1.78,1.14-3.47,2.44-4.99,3.9C319.6,43.89,323.85,48.13,326.63,45.45c2.65-2.55,5.93-4.43,9.33-5.92
					c3.32-1.45,6.97-2.62,10.56-3.14c-0.32,0.05,0.54-0.04,0.67-0.05c0.37-0.02,0.73,0,1.1,0c0.08,0,0.6,0.05,0.11-0.01
					c0.14,0.02,0.29,0.05,0.43,0.08c0.21,0.05,1.16,0.43,0.76,0.21c0.12,0.07,0.25,0.12,0.36,0.21c0.38,0.29-0.3-0.29,0.07,0.03
					c0.11,0.09,0.65,0.74,0.39,0.36c0.5,0.7,0.62,1.16,0.73,2.1c0.15,1.24-0.2,3.01-0.69,4.54c-0.56,1.76-1.37,3.42-2.27,5.04
					c-4.2,7.58-9.72,14.55-15.17,21.27c-6.1,7.51-12.52,14.74-19.1,21.83c-13.17,14.2-27.12,27.76-41.83,40.37
					c-6.05,5.19-12.23,10.47-18.88,14.88c-1.6,1.06-3.25,2.05-4.93,2.98c-1.05,0.58-2.1,1.13-3.18,1.66
					c-0.55,0.27-1.11,0.53-1.68,0.79c-0.26,0.12-0.53,0.23-0.79,0.35c-0.32,0.14,0.12-0.05,0.15-0.06
					c-0.19,0.08-0.38,0.16-0.57,0.23c-1.11,0.45-2.24,0.85-3.39,1.18c-0.51,0.15-1.01,0.28-1.53,0.39c-0.25,0.05-0.49,0.1-0.74,0.15
					c-0.14,0.02-0.28,0.04-0.42,0.07c-0.57,0.1,0.46-0.03,0.08-0.01c-0.46,0.02-0.91,0.08-1.36,0.07c-0.22,0-0.43-0.02-0.64-0.03
					c-0.82-0.04,0.45,0.15-0.16-0.02c-0.18-0.05-0.38-0.1-0.57-0.14c-0.57-0.14,0.04,0.05,0.04,0.04c-0.11-0.1-0.34-0.19-0.48-0.26
					c-0.61-0.33,0.25,0.36-0.07-0.06c-0.11-0.14-0.25-0.28-0.38-0.41c0.35,0.36,0.25,0.36,0.05-0.01c-0.23-0.45-0.09-0.42-0.03,0
					c-0.03-0.24-0.17-0.5-0.22-0.73c-0.05-0.2-0.13-1.06-0.07-0.25c-0.02-0.27-0.05-0.55-0.05-0.82c-0.02-0.73,0.03-1.47,0.1-2.2
					c0.32-3.22,1.48-7.05,3.07-10.16c0.8-1.56,1.73-3.05,2.8-4.25c1.07-1.21,1.19-3.05,0-4.24c-1.1-1.1-3.15-1.21-4.24,0
					c-6.34,7.04-12.9,15.58-14.62,25.14c-0.84,4.67-0.03,9.38,3.08,13.06c3.33,3.96,8.75,5.28,13.72,5.17
					c5.19-0.11,10.4-1.56,15.24-3.35c5.16-1.9,10.15-4.29,14.98-6.91c9.56-5.19,18.51-11.41,27.11-18.06
					c17.28-13.36,32.94-28.89,46.71-45.83c6.9-8.48,13.3-17.42,18.83-26.86c2.68-4.57,5.16-9.31,7.23-14.19
					c2.02-4.76,3.84-9.67,4.64-14.8c0.82-5.28,0.86-10.96-2.07-15.65c-2.89-4.63-8.05-7.1-13.45-6.87
					c-5.2,0.22-10.13,2.31-14.63,4.79c-4.54,2.51-8.77,5.64-12.75,8.97c-1.94,1.62-3.8,3.33-5.62,5.09
					C319.62,43.91,323.86,48.15,326.63,45.45z"/>
			</g>
		</g>
		<g>
			<g>
				<path class="st3" d="M254,147.83c-11.39-8.74-19.4-21.58-22.42-35.65c-1.45-6.75-1.69-14.4-0.79-20.9
					c0.46-3.31,1.19-6.58,2.17-9.77c0.96-3.15,2-5.78,3.37-8.57c5.61-11.48,14.46-20.78,25.58-26.92
					c11.49-6.34,25.16-8.89,38.3-6.88c14.36,2.19,27.42,9.35,37,20.24c1.11,1.26,2.16,2.56,3.11,3.85c0.96,1.3,2.6,1.96,4.1,1.08
					c1.28-0.75,2.04-2.79,1.08-4.1c-9.33-12.65-22.75-21.95-38.07-25.72c-14.66-3.62-30.23-2.13-43.97,4.07
					c-12.55,5.66-23.21,15.4-30.14,27.29c-7.33,12.58-10.37,27.53-8.53,41.98c2.02,15.85,9.65,30.69,21.55,41.4
					c1.49,1.34,3.04,2.58,4.62,3.8c1.29,0.99,3.36,0.2,4.1-1.08C255.98,150.38,255.29,148.82,254,147.83L254,147.83z"/>
			</g>
		</g>
		<g>
			<g>
				<path class="st3" d="M349.77,82.17c1.56,5.35,2.41,10.82,2.49,16.39c0.06,4.37-0.29,8.5-1.09,12.54
					c-1.59,8.11-4.53,15.26-9.06,22.12c-8.72,13.2-22.61,22.65-38.24,25.98c-4.61,0.98-9.1,1.39-14.02,1.28
					c-6.35-0.14-12.59-1.3-18.6-3.34c-1.53-0.52-3.28,0.6-3.69,2.1c-0.45,1.64,0.56,3.17,2.1,3.69c18.78,6.38,39.99,4.04,56.85-6.43
					c14.78-9.18,25.72-24.07,29.85-40.99c2.8-11.47,2.51-23.61-0.78-34.94C354.48,76.87,348.69,78.45,349.77,82.17L349.77,82.17z"/>
			</g>
		</g>
		<g>
			<path class="st3" d="M244.21,90.14c-0.04-1,0.05-2,0.3-2.99c0.24-0.99,0.61-1.98,1.22-2.95c0.61-0.94,1.5-1.94,2.94-2.51
				c1.42-0.6,3.26-0.44,4.54,0.14c0.63,0.3,1.23,0.58,1.8,1.02c0.57,0.42,1.06,0.92,1.49,1.43c0.87,1.03,1.44,2.18,1.85,3.28
				c0.42,1.11,0.65,2.22,0.82,3.28c0.09,0.54,0.12,1.07,0.16,1.6c0.04,0.58,0.05,1.15,0.03,1.7c-0.11,2.2-0.51,4.28-1.35,6.38
				c-0.44,1.04-0.96,2.09-1.74,3.09c-0.75,1-1.8,2-3.21,2.64c-1.41,0.66-3.12,0.69-4.4,0.26c-0.65-0.21-1.22-0.48-1.72-0.8
				c-0.25-0.17-0.47-0.32-0.72-0.52c-0.26-0.2-0.5-0.42-0.72-0.65c-1.73-1.86-2.02-4.54-0.93-6.26c0.46,1.93,1.79,3.14,3.01,3.51
				c0.15,0.04,0.3,0.08,0.44,0.1l0.52,0.08l0.49,0.04c0.15-0.02,0.3-0.01,0.43-0.04c0.53-0.09,0.76-0.31,0.96-0.56
				c0.4-0.5,1-1.67,1.32-3.08c0.35-1.39,0.58-2.98,0.63-4.46c0.02-0.37,0.02-0.72,0.02-1.06c-0.01-0.39-0.04-0.78-0.07-1.16
				c-0.04-0.76-0.16-1.47-0.29-2.12c-0.12-0.66-0.33-1.21-0.53-1.68c-0.21-0.47-0.46-0.79-0.82-1.17c-0.33-0.32-0.45-0.47-0.81-0.58
				c-0.36-0.09-1,0.07-1.65,0.45C246.86,87.34,245.54,88.68,244.21,90.14z"/>
		</g>
		<g>
			<path class="st3" d="M288.02,47.28l-0.75,0.69c-0.22,0.24-0.41,0.48-0.59,0.68c-0.31,0.49-0.55,0.91-0.59,1.33
				c-0.14,0.82,0.26,1.23,0.57,1.44c0.36,0.22,0.74,0.4,1.32,0.59c0.28,0.08,0.63,0.19,0.93,0.23c0.35,0.06,0.79,0.12,1.24,0.16
				c1.81,0.18,3.91,0.14,5.09-0.08c0.56-0.11,1.01-0.03,1.47-0.75c0.42-0.55,0.55-1.74-0.22-2.94c1.45-0.2,3.13,0.91,3.66,2.79
				c0.12,0.47,0.14,0.91,0.18,1.4c-0.02,0.48-0.11,1.01-0.26,1.5c-0.19,0.47-0.4,1-0.7,1.38c-0.15,0.21-0.3,0.41-0.46,0.61
				c-0.16,0.19-0.33,0.34-0.51,0.5c-1.42,1.3-2.99,1.88-4.47,2.25c-1.5,0.35-2.97,0.43-4.47,0.29c-0.75-0.08-1.51-0.21-2.33-0.45
				c-0.43-0.14-0.86-0.28-1.25-0.49c-0.4-0.2-0.79-0.37-1.17-0.66c-1.52-0.99-2.95-2.67-3.3-4.78c-0.16-1.05-0.06-2.15,0.34-3.1
				c0.42-0.94,1.05-1.74,1.81-2.21C285.07,46.68,286.73,46.71,288.02,47.28z"/>
		</g>
		<g>
			<path class="st3" d="M340.06,135.24c-1.1,1.2-2.46,2.18-4.38,2.53c-0.97,0.1-2.14,0.09-3.28-0.58c-1.13-0.63-1.99-1.76-2.45-2.87
				c-0.4-1.09-0.6-2.21-0.57-3.18c-0.03-1.01,0.13-1.93,0.32-2.81c0.41-1.78,1.03-3.29,1.85-4.76c0.82-1.46,1.83-2.86,3.13-4.09
				c0.68-0.62,1.31-1.18,2.25-1.71c0.42-0.27,0.93-0.49,1.42-0.7c0.53-0.17,1.05-0.35,1.63-0.42c1.12-0.19,2.43-0.06,3.55,0.49
				c1.13,0.53,1.99,1.48,2.42,2.48c0.44,1,0.48,2.02,0.3,2.89c-0.14,0.89-0.57,1.65-1.05,2.3c-0.48-1.56-1.2-2.83-2.06-3.21
				c-0.41-0.2-0.76-0.17-1.01-0.08c-0.26,0.1-0.48,0.23-0.75,0.45c-0.51,0.4-1.12,1.06-1.81,2c-0.66,0.91-1.31,1.94-1.91,3.01
				c-0.6,1.07-1.17,2.23-1.61,3.23c-0.45,1.02-0.7,2-0.82,2.61c-0.04,0.28-0.1,0.44-0.08,0.7c0.01,0.26,0.33,0.55,0.79,0.83
				C336.94,134.87,338.44,135.05,340.06,135.24z"/>
		</g>
	</g>
</g>
<g id="星球_3_">
	<g>
		<path class="st0" d="M161.52,275.73c2.54-4.57,5.44-10.43,5.98-14.23c1-7-1-8-7-14s-18-9-23-9c-2.74,0-9.08,5.4-14.25,10.29
			c-6.28-1.8-12.9-2.79-19.75-2.79c-12.62,0-24.46,3.28-34.75,9.01C65.81,249.56,61.76,243.54,58,243c-7-1-8-1-16,3
			s-13.77,7.07-12,23c1,9,1.33,13.57,3,32c-1,4.75-1,11.45-1,16.5c0,12.07,3,23.43,8.28,33.4L32,367c0,0,3,14.91,11,20
			c11,7,21,11,27,8c4.57-2.29,6.99-10.33,11-9c9.92,3.28,13.92,3,22.5,3c39.49,0,71.5-32.01,71.5-71.5
			C175,301.9,169.99,287.48,161.52,275.73z"/>
		<g>
			<g>
				<g>
					<path class="st3" d="M62.13,262.55c8.9-6.52,19.11-10.88,30-12.7c9.69-1.62,19.45-1.05,28.71,1.38
						c16.76,4.41,31.51,15.25,40.73,29.84c9.57,15.15,12.9,33.77,9.19,51.16c-3.62,16.99-13.7,32.26-27.76,42.11
						c-15.64,10.96-35.15,15.13-54.03,11.1c-2.93-0.62-5.81-1.44-8.63-2.42c-1.53-0.53-3.28,0.6-3.69,2.1
						c-0.45,1.65,0.56,3.16,2.1,3.69c20.33,7.02,43.25,4.87,61.89-5.85c16.32-9.4,28.74-24.94,34.3-42.93
						c5.73-18.53,3.88-39-4.93-56.26c-8.56-16.78-23.52-29.85-41.18-36.31c-20.45-7.49-43.87-5.42-62.77,5.38
						c-2.4,1.38-4.72,2.89-6.96,4.53c-1.31,0.96-1.95,2.6-1.08,4.1C58.78,262.76,60.82,263.52,62.13,262.55L62.13,262.55z"/>
				</g>
			</g>
			<g>
				<g>
					<path class="st3" d="M42.71,351.02c-8.99-16.49-10.85-36.23-5.16-54.13c1.54-4.85,3.64-9.47,6.21-13.87
						c1.95-3.34-3.23-6.36-5.18-3.03c-10.22,17.5-13.01,38.83-7.49,58.35c1.54,5.45,3.73,10.73,6.44,15.7
						C39.38,357.44,44.56,354.42,42.71,351.02L42.71,351.02z"/>
				</g>
			</g>
			<g>
				<g>
					<path class="st3" d="M124.89,250.7c1.81-1.8,3.56-3.65,5.43-5.39c1.62-1.5,2.58-2.36,4.64-3.38c0.2-0.1,0.41-0.2,0.62-0.29
						c-0.6,0.25,0.24-0.07,0.3-0.09c0.44-0.15,0.88-0.27,1.33-0.37c0.23-0.05,0.46-0.09,0.7-0.13c0.53-0.08-0.7,0.01,0.21-0.01
						c0.62-0.02,1.23-0.05,1.84-0.02c2.25,0.11,5.24,0.99,7.62,2.07c2.91,1.33,5.63,3.03,8.32,4.74c2.22,1.41,4.29,2.89,6.08,4.83
						c0.17,0.19,0.34,0.38,0.51,0.57c0.08,0.09,0.48,0.59,0.17,0.19c0.28,0.37,0.54,0.75,0.79,1.15c0.25,0.41,0.47,0.84,0.69,1.27
						c0.07,0.15,0.26,0.68,0.05,0.1c0.1,0.27,0.2,0.54,0.28,0.82c0.13,0.43,0.2,0.87,0.32,1.3c0.14,0.53,0.01,0.04,0-0.08
						c0.03,0.24,0.05,0.48,0.06,0.73c0.02,0.41,0.03,0.82,0.01,1.23c-0.01,0.25-0.03,0.5-0.05,0.75c-0.01,0.16-0.14,0.91-0.02,0.21
						c-0.88,5.15-3.26,9.19-5.78,13.86c-1.83,3.4,3.34,6.43,5.18,3.03c4.45-8.24,10.16-18.63,3.65-27.39
						c-1.8-2.42-4.02-4.36-6.46-6.11c-2.88-2.07-5.98-3.97-9.13-5.58c-5.29-2.71-11.79-4.87-17.71-3.02
						c-5.74,1.79-9.78,6.69-13.9,10.78C117.9,249.19,122.15,253.43,124.89,250.7L124.89,250.7z"/>
				</g>
			</g>
			<g>
				<g>
					<path class="st3" d="M71.37,253.09c-1.81-2.74-3.53-5.58-5.52-8.2c-1.9-2.5-4.18-4.78-7.27-5.68
						c-3.37-0.98-6.96-0.03-10.17,1.07c-2.91,1-5.74,2.27-8.39,3.83c-2.7,1.59-5.25,3.49-7.57,5.6c-2.43,2.21-4.73,4.67-5.23,8.05
						c-0.5,3.38,0.07,7,0.27,10.39c0.21,3.66,0.42,7.32,0.63,10.98c0.47,8.15,0.94,16.3,1.41,24.45c0.09,1.62,1.31,3,3,3
						c1.55,0,3.09-1.37,3-3c-0.76-13.14-1.52-26.28-2.27-39.42c-0.14-2.5-0.82-5.45,0.83-7.57c1.58-2.03,3.77-3.79,5.85-5.27
						c2.18-1.56,4.51-2.91,6.95-4.02c2.34-1.07,5.02-2.12,7.59-2.44c2.76-0.35,4.5,0.99,6.18,3.07c2.05,2.54,3.72,5.47,5.52,8.19
						c0.89,1.35,2.65,1.93,4.1,1.08C71.63,256.41,72.26,254.45,71.37,253.09L71.37,253.09z"/>
				</g>
			</g>
			<g>
				<g>
					<path class="st3" d="M39.64,332.79c0.4,4.98,0.29,10.04-1.03,14.88c-1.19,4.36-3.74,7.77-6,11.61
						c-2.33,3.96-3.52,8.05-2.83,12.63c0.52,3.45,2.09,6.76,4.14,9.56c4.53,6.2,11.06,10.82,18.07,13.83
						c3.28,1.4,6.67,2.52,10.21,3.02c4.02,0.57,8.03,0.52,11.31-2.23c1.52-1.28,2.61-3.03,3.67-4.69c0.27-0.43,0.54-0.86,0.82-1.28
						c0.11-0.17,0.23-0.34,0.34-0.51c-0.01,0.01,0.54-0.74,0.26-0.38c0.77-1,1.66-1.93,2.57-2.81c3.89-3.81,8.63-6.69,13.6-8.86
						c1.49-0.65,1.83-2.82,1.08-4.1c-0.9-1.53-2.61-1.73-4.1-1.08c-4.37,1.91-8.44,4.4-12.14,7.41c-3.34,2.72-5.85,5.88-8.18,9.46
						c-0.21,0.33-0.43,0.65-0.66,0.98c-0.04,0.06-0.4,0.54-0.2,0.28c0.2-0.26-0.17,0.2-0.21,0.25c-0.25,0.28-0.51,0.55-0.78,0.81
						c-0.05,0.05-0.5,0.42-0.23,0.22c0.26-0.2-0.34,0.21-0.39,0.25c-0.16,0.1-0.33,0.19-0.51,0.27c0.12-0.06,0.47-0.15-0.11,0.04
						c-0.2,0.07-0.4,0.12-0.6,0.17c-0.02,0.01-0.55,0.12-0.19,0.07c-0.75,0.12-1.56,0.08-2.32,0.04c-0.34-0.02-0.68-0.04-1.03-0.07
						c-0.17-0.02-0.35-0.03-0.52-0.05c-0.09-0.01-0.65-0.08-0.27-0.03c0.38,0.05-0.19-0.03-0.27-0.04
						c-0.18-0.03-0.36-0.06-0.54-0.09c-0.42-0.07-0.83-0.16-1.24-0.25c-1.65-0.36-3.27-0.85-4.85-1.42
						c-6.02-2.18-12.16-6.04-16.53-11.17c-0.65-0.77-0.69-0.82-1.2-1.55c-0.48-0.68-0.92-1.39-1.32-2.12
						c-0.19-0.34-0.36-0.68-0.53-1.03c-0.08-0.17-0.16-0.34-0.24-0.52c-0.2-0.44,0.15,0.38-0.03-0.07
						c-0.29-0.74-0.54-1.49-0.73-2.27c-0.32-1.27-0.52-2.49-0.33-4.01c0.24-1.9,1.03-3.5,1.96-5.14c1.19-2.1,2.6-4.06,3.82-6.14
						c1.31-2.25,2.31-4.68,3.02-7.19c1.51-5.4,1.75-11.12,1.31-16.69c-0.13-1.62-1.29-3-3-3C41.12,329.79,39.51,331.17,39.64,332.79
						L39.64,332.79z"/>
				</g>
			</g>
			<g>
				<path class="st3" d="M77.24,270.98c0.09-0.38,0.32-0.74,0.62-1.06c0.32-0.31,0.72-0.54,1.15-0.7c0.88-0.32,1.87-0.32,2.84-0.03
					c0.97,0.28,1.95,1.04,2.55,1.84c0.65,0.83,1.06,1.79,1.29,2.73c0.47,1.9,0.27,3.75-0.21,5.44c-0.51,1.7-1.37,3.28-2.53,4.61
					c-1.14,1.34-2.58,2.43-4.17,3.18c-0.81,0.36-1.64,0.67-2.51,0.84c-0.88,0.2-1.81,0.28-2.77,0.22c-1.89-0.12-4.15-0.95-5.22-3.06
					c-0.44-0.97-0.53-1.99-0.28-2.9c0.22-0.91,0.95-1.7,1.72-1.85c-0.26,0.76-0.05,1.36,0.23,1.8c0.29,0.44,0.7,0.76,1.06,0.87
					c0.19,0.07,0.33,0.05,0.48,0.03c0.18,0,0.35-0.01,0.53-0.05c0.34-0.06,0.71-0.19,1.1-0.34c0.78-0.32,1.65-0.82,2.42-1.38
					c0.76-0.58,1.48-1.22,2.1-1.95c0.63-0.72,1.16-1.51,1.62-2.35c0.44-0.85,0.79-1.74,0.96-2.54c0.09-0.41,0.14-0.77,0.14-1.14
					c-0.03-0.39,0-0.67-0.22-1.06c-0.21-0.38-0.58-0.74-1.06-1C78.62,270.9,78,270.74,77.24,270.98z"/>
			</g>
			<g>
				<path class="st3" d="M134.58,282.16c-0.36-0.78-1.01-1.1-1.58-1.25c-0.59-0.14-1.17-0.1-1.59,0.09
					c-0.62,0.16-1.13,0.39-1.46,0.65c-0.34,0.27-0.46,0.55-0.55,0.83c-0.17,0.55-0.3,1.43-0.25,2.51c0.06,1.03,0.23,2.37,0.5,3.56
					c0.12,0.61,0.27,1.22,0.44,1.82c0.15,0.61,0.36,1.2,0.56,1.8c0.43,1.22,0.9,2.35,1.4,3.21c0.26,0.43,0.51,0.8,0.8,1.1
					c0.35,0.31,0.49,0.54,0.97,0.67c0.45,0.13,1.04,0.11,1.59-0.09c0.55-0.2,1.12-0.6,1.38-1.44c0.26,0.34,0.4,0.79,0.43,1.28
					c0.01,0.49-0.13,0.99-0.35,1.45c-0.46,0.93-1.25,1.67-2.27,2.14c-0.51,0.24-1.09,0.37-1.73,0.42c-0.68,0.03-1.17-0.05-1.75-0.17
					c-1.11-0.27-2.11-0.81-2.93-1.44c-0.83-0.63-1.5-1.34-2.08-2.09c-0.6-0.75-1.03-1.47-1.48-2.25c-0.43-0.78-0.78-1.59-1.1-2.42
					c-0.3-0.84-0.54-1.69-0.73-2.56c-0.34-1.77-0.49-3.47-0.25-5.46c0.14-0.97,0.37-1.99,0.83-2.99c0.43-1,1.1-2.02,2.05-2.83
					c0.94-0.81,2.17-1.35,3.3-1.46c1.13-0.13,2.15,0.06,3.04,0.36c1.08,0.33,1.96,1.01,2.51,1.86
					C134.84,280.27,135.01,281.4,134.58,282.16z"/>
			</g>
			<g>
				<path class="st3" d="M66.82,389.53c-1.74-3.15-3.47-5.49-5.53-7.7c-2.01-2.23-4.12-4.23-6.32-5.84
					c-2.22-1.61-4.79-3.03-7.53-4.38c-2.75-1.37-5.63-2.6-8.89-4.05c3.28-1.5,6.93-1.7,10.45-1.23c3.52,0.51,7.02,1.77,10.1,4.01
					c3.08,2.27,5.35,5.28,6.83,8.57C67.43,382.18,68.04,386.15,66.82,389.53z"/>
			</g>
			<g>
				<path class="st3" d="M126.42,382.86c-0.45,0.4-1.04,0.71-1.71,0.85c-0.66,0.1-1.38,0.07-2.06-0.12
					c-1.37-0.36-2.58-1.23-3.5-2.38c-0.47-0.58-0.83-1.25-1.12-1.99c-0.12-0.38-0.26-0.76-0.31-1.18l-0.08-0.63l-0.03-0.57
					c-0.05-1.53,0.34-3.06,0.94-4.39c1.21-2.68,3.15-4.67,5.08-6.31c1.93-1.63,4.08-3,6.35-4.12c1.14-0.54,2.31-1.03,3.51-1.45
					c1.21-0.4,2.4-0.75,3.67-1.01c2.53-0.5,5.32-0.72,8.14,0.04c1.4,0.39,2.76,1,3.95,1.96c1.25,0.99,2.11,2.25,2.61,3.59
					c0.5,1.33,0.69,2.77,0.4,4.13c-0.24,1.35-1.04,2.57-2.08,3.19c0.88-2.3-0.06-4.3-1.3-5.62c-0.61-0.67-1.37-1.15-2.07-1.39
					c-0.75-0.28-1.62-0.41-2.48-0.44c-1.73-0.03-3.62,0.35-5.54,0.97c-0.96,0.32-1.96,0.66-2.91,1.06c-0.97,0.38-1.92,0.8-2.84,1.26
					c-1.87,0.89-3.67,1.94-5.4,3.1c-1.72,1.14-3.24,2.35-4.29,3.7c-0.52,0.67-0.93,1.37-1.16,2.13l-0.09,0.29l-0.05,0.24
					c-0.05,0.16-0.04,0.34-0.07,0.53c0,0.37,0.03,0.79,0.16,1.2C122.6,381.13,123.93,383.07,126.42,382.86z"/>
			</g>
			<g>
				<path class="st3" d="M81.29,342.72c-0.47-0.14-0.94-0.33-1.42-0.54c-0.43-0.27-0.93-0.5-1.31-0.89
					c-0.86-0.68-1.53-1.77-1.83-3.05c-0.16-0.65-0.13-1.33-0.07-2.01c0.06-0.33,0.14-0.66,0.24-0.99c0.09-0.33,0.25-0.62,0.38-0.93
					c0.59-1.19,1.46-2.22,2.46-2.97c1.97-1.56,4.48-2.23,6.74-2.37c2.29-0.13,4.57,0.26,6.69,1.07c2.12,0.84,4.06,2.04,5.7,3.76
					c1.7,1.79,2.93,4.14,3.09,6.73c0.08,1.29-0.14,2.65-0.69,3.91c-0.6,1.26-1.66,2.34-2.88,2.89c-1.25,0.57-2.51,0.5-3.57,0.28
					c-0.53-0.15-1.02-0.36-1.48-0.57c-0.44-0.29-0.87-0.54-1.26-0.85c0.51-0.09,0.98-0.13,1.44-0.2c0.45-0.11,0.89-0.22,1.28-0.34
					c0.77-0.33,1.4-0.7,1.7-1.2c0.31-0.49,0.39-0.96,0.4-1.45c-0.04-0.53-0.15-1.05-0.37-1.59c-0.46-1.07-1.25-2.05-2.22-2.79
					c-0.49-0.4-1.12-0.82-1.73-1.15c-0.61-0.36-1.26-0.66-1.93-0.91c-1.33-0.53-2.75-0.85-4.16-0.97c-0.72-0.06-1.37-0.06-2.01,0
					c-0.65,0.05-1.27,0.2-1.85,0.4c-0.6,0.19-1.08,0.49-1.53,0.82c-0.44,0.34-0.78,0.74-0.96,1.3
					C79.7,339.22,80.27,341.02,81.29,342.72z"/>
			</g>
			<g>
				<path class="st3" d="M45.63,366.73c1.91-2.79,3.71-5.56,5.18-8.53c1.47-2.96,2.57-6.16,3.19-9.56c0.55,3.4,0.6,6.97,0.17,10.53
					c-0.42,3.56-1.27,7.06-2.17,10.46L45.63,366.73z"/>
			</g>
			<g>
				<path class="st3" d="M61.44,377.8c2.62-1.68,5.37-3.83,8.43-5.5c1.53-0.83,3.15-1.56,4.85-2c1.69-0.45,3.45-0.57,5.08-0.27
					c-1.63,0.29-3.09,0.98-4.36,1.87c-1.27,0.89-2.38,1.98-3.4,3.15c-2.05,2.36-3.7,5.04-5.79,7.83L61.44,377.8z"/>
			</g>
			<g>
				<path class="st3" d="M53.18,369.92c1.63-1.48,3.15-2.8,4.4-4.39c1.27-1.6,2.32-3.57,3.34-5.53c0.11,2.21,0.23,4.44-0.09,6.83
					c-0.16,1.19-0.43,2.39-0.75,3.54c-0.32,1.15-0.67,2.25-1,3.32L53.18,369.92z"/>
			</g>
		</g>
	</g>
</g>
<g id="_x2D_---------_3_">
</g>
<g id="環">
</g>
<g id="筆">
</g>
<g id="星星">
</g>
<g id="星球_2_">
</g>
<g id="星球_1_">
</g>
<g id="_x2D_---------_2_">
</g>
<g id="圓餅">
</g>
<g id="方形">
</g>
<g id="三角">
</g>
<g id="手_1_">
</g>
<g id="尺">
</g>
<g id="量角器">
</g>
<g id="_x2D_---------_1_">
</g>
<g id="互動方塊_1_">
</g>
<g id="梯子_2_">
</g>
<g id="齒輪_1_">
</g>
<g id="手_2_">
</g>
<g id="雲_1_">
</g>
<g id="_x2D_---------">
</g>
<g id="塗鴉路徑">
</g>
<g id="手">
</g>
<g id="星球">
</g>
<g id="鉛筆">
</g>
<g id="參考線" class="st12">
</g>
</svg>
