<?xml version="1.0" encoding="utf-8"?>
<!-- Generator: Adobe Illustrator 24.1.3, SVG Export Plug-In . SVG Version: 6.00 Build 0)  -->
<svg version="1.1" id="圖層_1" xmlns="http://www.w3.org/2000/svg" xmlns:xlink="http://www.w3.org/1999/xlink" x="0px" y="0px"
	 viewBox="0 0 768 1024" style="enable-background:new 0 0 768 1024;" xml:space="preserve">
<style type="text/css">
	.st0{clip-path:url(#SVGID_2_);fill:#191919;}
	.st1{clip-path:url(#SVGID_4_);fill:#191919;}
	.st2{clip-path:url(#SVGID_6_);fill:none;stroke:#191919;stroke-width:5;stroke-miterlimit:10;}
	.st3{clip-path:url(#SVGID_8_);fill:none;stroke:#191919;stroke-width:5;stroke-miterlimit:10;}
	.st4{clip-path:url(#SVGID_10_);}
	.st5{fill:url(#SVGID_11_);}
	.st6{fill:url(#SVGID_12_);}
	.st7{fill:url(#SVGID_13_);}
	.st8{fill:url(#SVGID_14_);}
	.st9{fill:url(#SVGID_15_);}
	.st10{fill:url(#SVGID_16_);}
</style>
<g>
	<g>
		<g>
			<defs>
				<rect id="SVGID_1_" x="0.2" y="1.1" width="768" height="1024"/>
			</defs>
			<clipPath id="SVGID_2_">
				<use xlink:href="#SVGID_1_"  style="overflow:visible;"/>
			</clipPath>
			<circle class="st0" cx="265.2" cy="719.1" r="57"/>
		</g>
	</g>
</g>
<g>
	<g>
		<g>
			<defs>
				<rect id="SVGID_3_" x="0.2" y="1.1" width="768" height="1024"/>
			</defs>
			<clipPath id="SVGID_4_">
				<use xlink:href="#SVGID_3_"  style="overflow:visible;"/>
			</clipPath>
			<circle class="st1" cx="158.7" cy="209.6" r="67.5"/>
		</g>
	</g>
</g>
<g>
	<g>
		<g>
			<defs>
				<rect id="SVGID_5_" x="0.2" y="1.1" width="768" height="1024"/>
			</defs>
			<clipPath id="SVGID_6_">
				<use xlink:href="#SVGID_5_"  style="overflow:visible;"/>
			</clipPath>
			<circle class="st2" cx="322.7" cy="399.6" r="48.5"/>
		</g>
	</g>
</g>
<g>
	<g>
		<g>
			<defs>
				<rect id="SVGID_7_" x="0.2" y="1.1" width="768" height="1024"/>
			</defs>
			<clipPath id="SVGID_8_">
				<use xlink:href="#SVGID_7_"  style="overflow:visible;"/>
			</clipPath>
			<circle class="st3" cx="148.7" cy="839.6" r="57"/>
		</g>
	</g>
</g>
<g>
	<g>
		<g>
			<defs>
				<rect id="SVGID_9_" x="0.2" y="1.1" width="768" height="1024"/>
			</defs>
			<clipPath id="SVGID_10_">
				<use xlink:href="#SVGID_9_"  style="overflow:visible;"/>
			</clipPath>
			<g class="st4">
				
					<linearGradient id="SVGID_11_" gradientUnits="userSpaceOnUse" x1="73.9" y1="1642.55" x2="393.4" y2="1642.55" gradientTransform="matrix(1 0 0 -1 0 1747)">
					<stop  offset="0" style="stop-color:#F5F5F5"/>
					<stop  offset="1" style="stop-color:#EBEBEB"/>
				</linearGradient>
				<path class="st5" d="M393.4,161.9L73.9,209.4v-84.9l57.4-4.5V90.3l-57.4-5V-0.5l319.5,42.4V161.9z M188,117.9
					c36.2-4.2,80.9-8.4,134.2-12.7C261,96.8,216.3,91.4,188,89.3V117.9z"/>
				
					<linearGradient id="SVGID_12_" gradientUnits="userSpaceOnUse" x1="69.1" y1="1443" x2="340.4" y2="1443" gradientTransform="matrix(1 0 0 -1 0 1747)">
					<stop  offset="0" style="stop-color:#F5F5F5"/>
					<stop  offset="1" style="stop-color:#EBEBEB"/>
				</linearGradient>
				<path class="st6" d="M236.9,393.3v-75.2h30.2c10.5,0,17.7-0.9,21.4-2.6c3.7-1.7,5.6-4.9,5.6-9.5s-1.6-7.7-4.9-9.3
					c-3.3-1.6-10.7-2.4-22.1-2.4H143.6c-9.3,0-16.3,1.2-21,3.6s-7,5.9-7,10.5c0,5.4,2.4,9,7.3,11c4.9,1.9,14.1,2.9,27.6,2.9h31.2v71
					c-20.9-0.1-36.6-0.9-47.1-2.3s-21.2-5.8-32.2-13.2c-11-7.4-19.3-17.1-24.9-29.1s-8.4-26.8-8.4-44.4c0-22.5,3.8-40.3,11.5-53.5
					c7.7-13.2,18.5-22.5,32.4-27.9c13.9-5.5,33.6-8.2,59.1-8.2h74.4c22.2,0,39,2.2,50.3,6.7s21.4,14,30.3,28.6s13.3,32.4,13.3,53.3
					c0,20.8-4.4,38.5-13.2,53.3c-8.8,14.7-19.9,24.5-33.3,29.4C280.5,390.9,261.5,393.3,236.9,393.3z"/>
				
					<linearGradient id="SVGID_13_" gradientUnits="userSpaceOnUse" x1="73.9" y1="1286.1" x2="341.8" y2="1286.1" gradientTransform="matrix(1 0 0 -1 0 1747)">
					<stop  offset="0" style="stop-color:#F5F5F5"/>
					<stop  offset="1" style="stop-color:#EBEBEB"/>
				</linearGradient>
				<path class="st7" d="M341.8,497h-41.2v21.5h-41.4V497H147.9c-17.2,0-26.8,0.9-28.8,2.7c-2,1.8-3,9.2-3,22.2H73.9v-32.2
					c0-18.2,0.8-31.1,2.3-38.9s5-14.6,10.5-20.5s11.7-9.6,18.7-11c7-1.4,23.6-2.2,49.6-2.2h104.1v-17.2h41.4v17.2h41.2L341.8,497
					L341.8,497z"/>
				
					<linearGradient id="SVGID_14_" gradientUnits="userSpaceOnUse" x1="73.9" y1="1173.95" x2="341.8" y2="1173.95" gradientTransform="matrix(1 0 0 -1 0 1747)">
					<stop  offset="0" style="stop-color:#F5F5F5"/>
					<stop  offset="1" style="stop-color:#EBEBEB"/>
				</linearGradient>
				<path class="st8" d="M341.8,614.1h-82.5V532h82.5V614.1z M243.3,614.1H73.9V532h169.4L243.3,614.1L243.3,614.1z"/>
				
					<linearGradient id="SVGID_15_" gradientUnits="userSpaceOnUse" x1="69.2" y1="1019.35" x2="340.5" y2="1019.35" gradientTransform="matrix(1 0 0 -1 0 1747)">
					<stop  offset="0" style="stop-color:#F5F5F5"/>
					<stop  offset="1" style="stop-color:#EBEBEB"/>
				</linearGradient>
				<path class="st9" d="M243.8,819h-64.1c-23.5,0-40.8-1.2-51.8-3.6c-11-2.4-21.2-7.4-30.8-15.2c-9.5-7.8-16.6-17.7-21.1-29.9
					s-6.8-26.1-6.8-41.9c0-17.6,1.9-32.6,5.8-44.8s9.7-21.7,17.6-28.5c7.8-6.8,17.3-11.6,28.4-14.5s27.8-4.3,50-4.3h67.1
					c24.3,0,43.3,2.6,57,7.9c13.7,5.3,24.7,14.7,33,28.4s12.4,31.2,12.4,52.5c0,17.9-2.7,33.2-8,46.1c-5.3,12.8-12.3,22.7-20.8,29.7
					c-8.6,7-17.4,11.7-26.4,14.3C276.2,817.7,262.4,819,243.8,819z M263.5,739.3c13.4,0,21.9-0.7,25.4-2.2c3.5-1.4,5.2-4.5,5.2-9.3
					c0-4.7-1.7-7.9-5.2-9.5s-11.9-2.4-25.4-2.4H145.4c-12.4,0-20.4,0.8-24.2,2.4c-3.7,1.6-5.6,4.7-5.6,9.3c0,4.7,1.7,7.9,5.1,9.4
					s10.8,2.3,22.1,2.3H263.5z"/>
				
					<linearGradient id="SVGID_16_" gradientUnits="userSpaceOnUse" x1="73.9" y1="814" x2="342.3" y2="814" gradientTransform="matrix(1 0 0 -1 0 1747)">
					<stop  offset="0" style="stop-color:#F5F5F5"/>
					<stop  offset="1" style="stop-color:#EBEBEB"/>
				</linearGradient>
				<path class="st10" d="M342.3,922.3l-30.7-1.4c9.6,5.8,16.8,12.9,21.6,21.2c4.8,8.4,7.2,18,7.2,28.9c0,13.7-3.2,24.9-9.7,33.5
					c-6.4,8.7-14.6,14.3-24.4,16.8s-26.1,3.7-49,3.7H73.9v-79.7h181.3c18,0,29-0.6,33-1.8c3.9-1.2,5.9-4.5,5.9-9.9
					c0-5.7-2.3-9.2-6.8-10.7c-4.5-1.4-16.7-2.2-36.4-2.2h-177V841h268.4L342.3,922.3L342.3,922.3z"/>
			</g>
		</g>
	</g>
</g>
</svg>
