<?xml version="1.0" encoding="utf-8"?>
<!-- Generator: Adobe Illustrator 24.1.3, SVG Export Plug-In . SVG Version: 6.00 Build 0)  -->
<svg version="1.1" id="圖層_1" xmlns="http://www.w3.org/2000/svg" xmlns:xlink="http://www.w3.org/1999/xlink" x="0px" y="0px"
	 viewBox="0 0 414 896" style="enable-background:new 0 0 414 896;" xml:space="preserve">
<style type="text/css">
	.st0{clip-path:url(#SVGID_2_);fill:none;stroke:#191919;stroke-width:5;stroke-miterlimit:10;}
	.st1{clip-path:url(#SVGID_4_);fill:none;stroke:#191919;stroke-width:5;stroke-miterlimit:10;}
	.st2{clip-path:url(#SVGID_6_);fill:#191919;}
	.st3{clip-path:url(#SVGID_8_);fill:#191919;}
	.st4{clip-path:url(#SVGID_10_);}
	.st5{fill:url(#SVGID_11_);}
	.st6{fill:url(#SVGID_12_);}
	.st7{fill:url(#SVGID_13_);}
	.st8{fill:url(#SVGID_14_);}
	.st9{fill:url(#SVGID_15_);}
	.st10{fill:url(#SVGID_16_);}
</style>
<g>
	<g>
		<g>
			<defs>
				<rect id="SVGID_1_" width="414" height="896"/>
			</defs>
			<clipPath id="SVGID_2_">
				<use xlink:href="#SVGID_1_"  style="overflow:visible;"/>
			</clipPath>
			<circle class="st0" cx="219" cy="355" r="37.5"/>
		</g>
	</g>
</g>
<g>
	<g>
		<g>
			<defs>
				<rect id="SVGID_3_" width="414" height="896"/>
			</defs>
			<clipPath id="SVGID_4_">
				<use xlink:href="#SVGID_3_"  style="overflow:visible;"/>
			</clipPath>
			<circle class="st1" cx="92" cy="719" r="28.5"/>
		</g>
	</g>
</g>
<g>
	<g>
		<g>
			<defs>
				<rect id="SVGID_5_" width="414" height="896"/>
			</defs>
			<clipPath id="SVGID_6_">
				<use xlink:href="#SVGID_5_"  style="overflow:visible;"/>
			</clipPath>
			<circle class="st2" cx="170.7" cy="612.8" r="41.2"/>
		</g>
	</g>
</g>
<g>
	<g>
		<g>
			<defs>
				<rect id="SVGID_7_" width="414" height="896"/>
			</defs>
			<clipPath id="SVGID_8_">
				<use xlink:href="#SVGID_7_"  style="overflow:visible;"/>
			</clipPath>
			<circle class="st3" cx="91.4" cy="189.3" r="57.4"/>
		</g>
	</g>
</g>
<g>
	<g>
		<g>
			<defs>
				<rect id="SVGID_9_" width="414" height="896"/>
			</defs>
			<clipPath id="SVGID_10_">
				<use xlink:href="#SVGID_9_"  style="overflow:visible;"/>
			</clipPath>
			<g class="st4">
				
					<linearGradient id="SVGID_11_" gradientUnits="userSpaceOnUse" x1="4" y1="1383.55" x2="271" y2="1383.55" gradientTransform="matrix(1 0 0 -1 0 1491)">
					<stop  offset="0" style="stop-color:#F5F5F5"/>
					<stop  offset="1" style="stop-color:#EBEBEB"/>
				</linearGradient>
				<path class="st5" d="M271,155.5L4,195.2v-71l48-3.7V95.7L4,91.5V19.7l267,35.4V155.5z M99.3,118.7c30.2-3.5,67.6-7,112.2-10.6
					C160.4,101,123,96.6,99.3,94.8V118.7z"/>
				
					<linearGradient id="SVGID_12_" gradientUnits="userSpaceOnUse" x1="0" y1="1216.6" x2="226.8" y2="1216.6" gradientTransform="matrix(1 0 0 -1 0 1491)">
					<stop  offset="0" style="stop-color:#F5F5F5"/>
					<stop  offset="1" style="stop-color:#EBEBEB"/>
				</linearGradient>
				<path class="st6" d="M140.2,348.9v-62.8h25.2c8.8,0,14.8-0.7,17.9-2.1c3.1-1.4,4.7-4.1,4.7-7.9c0-3.9-1.4-6.4-4.1-7.8
					c-2.7-1.3-8.9-2-18.5-2H62.2c-7.8,0-13.7,1-17.6,3s-5.9,4.9-5.9,8.7c0,4.5,2,7.6,6.1,9.2s11.8,2.4,23.1,2.4H94V349
					c-17.5-0.1-30.6-0.7-39.3-1.9C46,345.9,37,342.3,27.8,336c-9.2-6.2-16.1-14.3-20.8-24.3s-7-22.4-7-37.1
					c0-18.8,3.2-33.7,9.6-44.7s15.4-18.8,27.1-23.3c11.6-4.6,28.1-6.8,49.4-6.8h62.2c18.6,0,32.6,1.9,42.1,5.6
					c9.5,3.7,17.9,11.7,25.3,23.9c7.4,12.2,11.1,27.1,11.1,44.5s-3.7,32.2-11.1,44.5c-7.4,12.3-16.7,20.5-27.9,24.6
					C176.7,346.9,160.8,348.9,140.2,348.9z"/>
				
					<linearGradient id="SVGID_13_" gradientUnits="userSpaceOnUse" x1="4" y1="1085.5499" x2="228" y2="1085.5499" gradientTransform="matrix(1 0 0 -1 0 1491)">
					<stop  offset="0" style="stop-color:#F5F5F5"/>
					<stop  offset="1" style="stop-color:#EBEBEB"/>
				</linearGradient>
				<path class="st7" d="M227.9,435.6h-34.5v18h-34.6v-18h-93c-14.4,0-22.4,0.7-24.1,2.2c-1.6,1.5-2.5,7.7-2.5,18.6H4v-26.9
					c0-15.2,0.6-26,1.9-32.5s4.2-12.2,8.7-17.2c4.6-4.9,9.8-8,15.7-9.2s19.7-1.8,41.5-1.8h87.1v-14.3h34.6v14.3H228v66.8
					L227.9,435.6L227.9,435.6z"/>
				
					<linearGradient id="SVGID_14_" gradientUnits="userSpaceOnUse" x1="4" y1="991.8" x2="227.8" y2="991.8" gradientTransform="matrix(1 0 0 -1 0 1491)">
					<stop  offset="0" style="stop-color:#F5F5F5"/>
					<stop  offset="1" style="stop-color:#EBEBEB"/>
				</linearGradient>
				<path class="st8" d="M227.8,533.5h-68.9v-68.6h68.9L227.8,533.5L227.8,533.5z M145.6,533.5H4v-68.6h141.6V533.5z"/>
				
					<linearGradient id="SVGID_15_" gradientUnits="userSpaceOnUse" x1="0" y1="862.5" x2="226.9" y2="862.5" gradientTransform="matrix(1 0 0 -1 0 1491)">
					<stop  offset="0" style="stop-color:#F5F5F5"/>
					<stop  offset="1" style="stop-color:#EBEBEB"/>
				</linearGradient>
				<path class="st9" d="M146,704.8H92.4c-19.7,0-34.1-1-43.3-3s-17.8-6.2-25.7-12.7c-8-6.5-13.9-14.8-17.6-25
					C1.9,654,0,642.3,0,629.1c0-14.7,1.6-27.2,4.9-37.4c3.2-10.2,8.1-18.2,14.7-23.8c6.5-5.7,14.5-9.7,23.8-12.1
					c9.3-2.4,23.2-3.6,41.8-3.6h56.1c20.3,0,36.2,2.2,47.7,6.6c11.4,4.4,20.6,12.3,27.5,23.8c6.9,11.4,10.4,26.1,10.4,43.9
					c0,15-2.2,27.8-6.7,38.5s-10.3,19-17.4,24.8c-7.1,5.8-14.5,9.8-22.1,12C173,703.7,161.5,704.8,146,704.8z M162.5,638.2
					c11.2,0,18.3-0.6,21.2-1.8s4.4-3.8,4.4-7.8s-1.5-6.6-4.4-7.9c-2.9-1.3-10-2-21.2-2H63.7c-10.3,0-17.1,0.7-20.2,2
					s-4.7,3.9-4.7,7.8c0,4,1.4,6.6,4.3,7.8c2.9,1.3,9,1.9,18.5,1.9H162.5z"/>
				
					<linearGradient id="SVGID_16_" gradientUnits="userSpaceOnUse" x1="4" y1="690.8" x2="228.3" y2="690.8" gradientTransform="matrix(1 0 0 -1 0 1491)">
					<stop  offset="0" style="stop-color:#F5F5F5"/>
					<stop  offset="1" style="stop-color:#EBEBEB"/>
				</linearGradient>
				<path class="st10" d="M228.3,791.2l-25.6-1.2c8,4.8,14.1,10.7,18.1,17.7s6,15,6,24.2c0,11.4-2.7,20.8-8.1,28
					c-5.4,7.3-12.2,11.9-20.4,14s-21.9,3.1-41,3.1H4v-66.6h151.6c15.1,0,24.2-0.5,27.5-1.5s4.9-3.7,4.9-8.2c0-4.7-1.9-7.7-5.7-8.9
					s-13.9-1.8-30.4-1.8H4v-66.6h224.3V791.2z"/>
			</g>
		</g>
	</g>
</g>
</svg>
