<?xml version="1.0" encoding="utf-8"?>
<!-- Generator: Adobe Illustrator 24.1.2, SVG Export Plug-In . SVG Version: 6.00 Build 0)  -->
<svg version="1.1" xmlns="http://www.w3.org/2000/svg" xmlns:xlink="http://www.w3.org/1999/xlink" x="0px" y="0px"
	 viewBox="0 0 600 600" style="enable-background:new 0 0 600 600;" xml:space="preserve">
<style type="text/css">
	.st0{fill:#F5F5F5;}
	.st1{fill:#505050;}
	.st2{fill:none;stroke:#505050;stroke-width:3;stroke-miterlimit:10;}
	.st3{fill:#2D46F0;}
	.st4{fill:#C8C8C8;}
	.st5{fill:#FFD205;}
	.st6{fill:none;}
	.st7{fill:#969696;}
	.st8{fill:#F0F0F0;}
	.st9{fill:none;stroke:#2D46F0;stroke-width:7;stroke-miterlimit:10;}
	.st10{fill:none;stroke:#969696;stroke-width:7;stroke-miterlimit:10;}
	.st11{fill:none;stroke:#2D46F0;stroke-width:6.5;stroke-miterlimit:10;}
	.st12{display:none;}
</style>
<g id="手機">
</g>
<g id="箭頭">
</g>
<g id="手_11_">
</g>
<g id="_x2D_---------_11_">
</g>
<g id="板子">
</g>
<g id="手_7_">
</g>
<g id="_x2D_---------_6_">
</g>
<g id="雜物_1_">
</g>
<g id="腦_1_">
</g>
<g id="手_9_">
</g>
<g id="對話框_1_">
</g>
<g id="_x2D_---------_8_">
</g>
<g id="雜物">
</g>
<g id="腦">
</g>
<g id="手_5_">
</g>
<g id="對話框">
</g>
<g id="_x2D_---------_5_">
</g>
<g id="雜物_2_">
</g>
<g id="腦_2_">
</g>
<g id="手_10_">
</g>
<g id="對話框_2_">
</g>
<g id="_x2D_---------_9_">
</g>
<g id="雲_4_">
</g>
<g id="雲_3_">
</g>
<g id="卷軸_1_">
</g>
<g id="火箭_1_">
</g>
<g id="雜層_1_">
</g>
<g id="手_4_">
</g>
<g id="_x2D_---------_7_">
</g>
<g id="雲">
</g>
<g id="雲_2_">
</g>
<g id="卷軸">
</g>
<g id="火箭">
</g>
<g id="雜層">
</g>
<g id="手_6_">
</g>
<g id="_x2D_---------_4_">
</g>
<g id="雲_6_">
	<path class="st8" d="M419,317c0,0-14-7-33-3s-31,19-33,32c-1.82,11.86-1,22-1,22s-11,9-15,17s-7.83,18.51-5,27c4,12,4,11,12,18
		c8.41,7.36,17,9,17,9s7.45,1.67,11,7c6,9,14,17,14,17s17,10,28,10s21-1,31-8s19-16,19-16s19,4,31,0c7.65-2.55,13-13,15-24
		c1.7-9.33,11-17,11-25s0-30-11-39c-9.79-8.01-21-8-21-8l-9,1c0,0-2.56-15.75-19-25c-16-9-28-2-28-2L419,317z"/>
	<g>
		<g>
			<path class="st8" d="M483.33,350.29c0.26,3.22,0.38,6.47,0.24,9.73c-0.14,3.26-0.53,6.53-1.38,9.72
				c-0.85,3.17-2.16,6.28-4.17,8.87c-1.99,2.61-4.65,4.58-7.53,5.77c2.62-1.71,4.72-4.04,6.06-6.71c1.35-2.66,1.98-5.6,2.2-8.53
				c0.41-5.91-0.74-11.86-2.31-17.66L483.33,350.29z"/>
		</g>
		<g>
			<g>
				<path class="st8" d="M470,448c0-6.21,0-12.43,0-18.64c0-9.85,0-19.71,0-29.56c0-2.27,0-4.53,0-6.8c0-3.86-6-3.87-6,0
					c0,6.21,0,12.43,0,18.64c0,9.85,0,19.71,0,29.56c0,2.27,0,4.53,0,6.8C464,451.86,470,451.87,470,448L470,448z"/>
			</g>
		</g>
		<g>
			<g>
				<path class="st8" d="M481,448c0-5.75,0-11.51,0-17.26c0-9.13,0-18.26,0-27.39c0-2.12,0-4.23,0-6.35c0-3.86-6-3.87-6,0
					c0,5.75,0,11.51,0,17.26c0,9.13,0,18.26,0,27.39c0,2.12,0,4.23,0,6.35C475,451.86,481,451.87,481,448L481,448z"/>
			</g>
		</g>
		<g>
			<g>
				<path class="st8" d="M492,449c0-5.42,0-10.83,0-16.25c0-8.59,0-17.19,0-25.78c0-1.99,0-3.98,0-5.97c0-3.86-6-3.87-6,0
					c0,5.42,0,10.83,0,16.25c0,8.59,0,17.19,0,25.78c0,1.99,0,3.98,0,5.97C486,452.86,492,452.87,492,449L492,449z"/>
			</g>
		</g>
		<g>
			<g>
				<path class="st8" d="M503,445c0-5.42,0-10.83,0-16.25c0-8.59,0-17.19,0-25.78c0-1.99,0-3.98,0-5.97c0-3.86-6-3.87-6,0
					c0,5.42,0,10.83,0,16.25c0,8.59,0,17.19,0,25.78c0,1.99,0,3.98,0,5.97C497,448.86,503,448.87,503,445L503,445z"/>
			</g>
		</g>
		<g>
			<g>
				<path class="st8" d="M513,422c0-3.8,0-7.59,0-11.39c0-0.54,0-1.07,0-1.61c0-1.57-1.38-3.07-3-3c-1.63,0.07-3,1.32-3,3
					c0,3.8,0,7.59,0,11.39c0,0.54,0,1.07,0,1.61c0,1.57,1.38,3.07,3,3C511.63,424.93,513,423.68,513,422L513,422z"/>
			</g>
		</g>
		<g>
			<g>
				<path class="st8" d="M459,455c0-8.69,0-17.38,0-26.08c0-13.83,0-27.66,0-41.49c0-3.14,0-6.29,0-9.43c0-3.86-6-3.87-6,0
					c0,8.69,0,17.38,0,26.08c0,13.83,0,27.66,0,41.49c0,3.14,0,6.29,0,9.43C453,458.86,459,458.87,459,455L459,455z"/>
			</g>
		</g>
		<g>
			<g>
				<path class="st8" d="M447,464c0-3.46,0-6.91,0-10.37c0-8.26,0-16.52,0-24.78c0-10.03,0-20.06,0-30.09c0-8.64,0-17.28,0-25.92
					c0-4.21,0.15-8.45,0-12.66c0-0.06,0-0.12,0-0.18c0-3.86-6-3.87-6,0c0,3.46,0,6.91,0,10.37c0,8.26,0,16.52,0,24.78
					c0,10.03,0,20.06,0,30.09c0,8.64,0,17.28,0,25.92c0,4.21-0.15,8.45,0,12.66c0,0.06,0,0.12,0,0.18C441,467.86,447,467.87,447,464
					L447,464z"/>
			</g>
		</g>
		<g>
			<g>
				<path class="st8" d="M434,469c0-3.51,0-7.01,0-10.52c0-8.46,0-16.92,0-25.38c0-10.2,0-20.39,0-30.59c0-8.82,0-17.63,0-26.45
					c0-4.28,0.16-8.6,0-12.88c0-0.06,0-0.12,0-0.19c0-3.86-6-3.87-6,0c0,3.51,0,7.01,0,10.52c0,8.46,0,16.92,0,25.38
					c0,10.2,0,20.39,0,30.59c0,8.82,0,17.63,0,26.45c0,4.28-0.16,8.6,0,12.88c0,0.06,0,0.12,0,0.19C428,472.86,434,472.87,434,469
					L434,469z"/>
			</g>
		</g>
		<g>
			<g>
				<path class="st8" d="M422,472c0-3.46,0-6.91,0-10.37c0-8.26,0-16.52,0-24.78c0-10.03,0-20.06,0-30.09c0-8.64,0-17.28,0-25.92
					c0-4.21,0.15-8.45,0-12.66c0-0.06,0-0.12,0-0.18c0-3.86-6-3.87-6,0c0,3.46,0,6.91,0,10.37c0,8.26,0,16.52,0,24.78
					c0,10.03,0,20.06,0,30.09c0,8.64,0,17.28,0,25.92c0,4.21-0.15,8.45,0,12.66c0,0.06,0,0.12,0,0.18C416,475.86,422,475.87,422,472
					L422,472z"/>
			</g>
		</g>
		<g>
			<g>
				<path class="st8" d="M411,472c0-3.19,0-6.37,0-9.56c0-7.65,0-15.3,0-22.95c0-9.21,0-18.42,0-27.63c0-8,0-16.01,0-24.01
					c0-3.89,0.14-7.8,0-11.69c0-0.06,0-0.11,0-0.17c0-3.86-6-3.87-6,0c0,3.19,0,6.37,0,9.56c0,7.65,0,15.3,0,22.95
					c0,9.21,0,18.42,0,27.63c0,8,0,16.01,0,24.01c0,3.89-0.14,7.8,0,11.69c0,0.06,0,0.11,0,0.17C405,475.86,411,475.87,411,472
					L411,472z"/>
			</g>
		</g>
		<g>
			<g>
				<path class="st8" d="M441.41,341.57c-1.99-21.02-23.98-32.62-43.26-32.55c-18.23,0.06-35.7,9.89-44.04,26.29
					c-2.79,5.49-4.64,11.35-5.29,17.47c-0.51,4.81,0.71,10.14-0.48,14.6c-0.58,2.16-1.98,3.62-3.64,5.29
					c-1.77,1.78-3.6,3.5-5.37,5.28c-3.64,3.64-7.1,7.62-9.15,12.39c-4.33,10.08-2.65,22.24,2.65,31.63
					c2.8,4.95,6.73,9.06,11.29,12.43c4.6,3.4,9.69,5.53,15.06,7.38c2.45,0.84,4.88,1.74,7.06,3.18c1.9,1.25,3.52,3.03,4.85,4.81
					c3.15,4.2,5.57,8.97,9.38,12.65c6.62,6.38,15.38,10.59,24.33,12.46c17.89,3.73,37.95-1.06,50.84-14.42
					c2.97-3.08,5.54-7.34,9.45-9c-0.44,0.19,0.54-0.16,0.5-0.15c0.2-0.06,0.41-0.11,0.62-0.15c-0.46,0.08,0.2-0.02,0.32-0.02
					c0.31-0.01,0.61,0,0.91,0.02c1.45,0.06,2.9,0.21,4.34,0.39c2.98,0.36,5.94,0.84,8.92,1.15c5.91,0.61,12.02,0.37,17.41-2.38
					c4.25-2.17,7.61-5.89,9.83-10.07c1.16-2.19,2.08-4.53,2.78-6.91c0.68-2.35,0.98-4.74,1.52-7.12c1.1-4.85,4.1-8.68,6.5-13.03
					c4.29-7.78,5.97-16.95,5.2-25.78c-0.79-9.07-3.93-17.85-9.76-24.91c-6.81-8.25-17.24-12.74-27.89-12.54
					c-0.62,0.01-1.23,0.06-1.85,0.05c-0.34,0-0.69-0.01-1.03-0.06c0.15,0.02,0.42,0.09-0.11-0.05c-0.23-0.06-0.45-0.12-0.67-0.2
					c-0.39-0.14,0.43,0.38-0.1-0.07c-0.11-0.09-0.29-0.18-0.41-0.26c0.58,0.38-0.07-0.12-0.2-0.24c-0.13-0.12-0.41-0.56-0.06-0.04
					c-0.09-0.13-0.19-0.27-0.27-0.41c-0.22-0.37-0.43-0.74-0.61-1.13c-0.37-0.77-0.57-1.32-1.05-2.48c-1.86-4.45-4.5-8.44-7.9-11.87
					c-6.82-6.89-16.05-11.29-25.69-12.26c-4.56-0.46-9.25,0.01-13.61,1.41c-1.54,0.5-2.54,2.08-2.1,3.69
					c0.42,1.51,2.14,2.59,3.69,2.1c8.12-2.62,16.95-1.29,24.49,2.69c3.94,2.08,7.17,4.54,10.15,7.86c1.44,1.59,2.51,3.05,3.65,4.99
					c1.13,1.94,1.65,3.31,2.44,5.18c0.75,1.79,1.57,3.62,3.06,4.93c1.78,1.56,4,2.19,6.34,2.22c2.61,0.04,5.17-0.11,7.75,0.34
					c2.53,0.44,5.04,1.16,7.36,2.27c7.51,3.59,12.94,10.07,15.78,17.57c0.75,1.97,1.34,4,1.8,6.06c0.49,2.24,0.7,3.64,0.86,5.82
					c0.15,2.06,0.17,4.13,0.04,6.19c-0.13,2.21-0.29,3.45-0.74,5.6c-0.9,4.32-2.21,7.71-4.34,11.37c-2.48,4.28-5.3,8.3-6.45,13.2
					c-0.55,2.32-0.82,4.69-1.47,6.99c-0.6,2.12-1.24,3.84-2.19,5.66c-1.97,3.77-4.59,6.71-8.54,8.45c-4.56,2-10.34,1.6-15.39,0.98
					c-2.96-0.36-5.9-0.85-8.87-1.14c-2.69-0.26-5.15-0.31-7.67,0.8c-4.18,1.85-6.98,5.68-9.96,8.98c-2.9,3.22-5.87,5.65-9.45,7.84
					c-7.06,4.31-15.31,6.68-23.41,7.09c-8.37,0.42-16.81-1.07-24.19-4.65c-3.83-1.86-7.26-4.11-10.23-6.84
					c-3.57-3.29-5.79-7.63-8.64-11.52c-1.48-2.03-3.08-4.01-5.03-5.62c-2.2-1.82-4.61-3.09-7.24-4.16
					c-2.53-1.03-5.16-1.79-7.71-2.76c-2.32-0.88-4.53-2.09-6.63-3.41c-8.54-5.37-14.49-13.91-15.89-23.98
					c-0.64-4.65-0.31-9.69,1.51-14.1c1.73-4.17,4.85-7.61,8.05-10.81c1.73-1.73,3.51-3.41,5.24-5.14c1.75-1.76,3.5-3.53,4.5-5.84
					c2.05-4.7,1.33-9.75,1.31-14.71c-0.03-5.25,1.29-10.55,3.35-15.36c1.01-2.36,2.22-4.65,3.61-6.82c1.21-1.89,2.18-3.18,3.61-4.79
					c5.37-6.05,12.26-10.3,19.85-12.57c7.67-2.29,15.87-2.57,23.53-0.79c4.25,0.99,7.82,2.34,11.51,4.39
					c3.97,2.2,7.6,5.06,10.32,8.72c2.68,3.61,4.59,7.92,5.01,12.29c0.15,1.61,1.27,3,3,3C439.91,344.57,441.56,343.2,441.41,341.57
					L441.41,341.57z"/>
			</g>
		</g>
		<g>
			<g>
				<path class="st8" d="M400,468c0-2.84,0-5.68,0-8.52c0-6.86,0-13.72,0-20.58c0-8.26,0-16.53,0-24.79c0-7.15,0-14.3,0-21.45
					c0-3.49,0.13-7.01,0-10.5c0-0.05,0-0.1,0-0.15c0-3.86-6-3.87-6,0c0,2.84,0,5.68,0,8.52c0,6.86,0,13.72,0,20.58
					c0,8.26,0,16.53,0,24.79c0,7.15,0,14.3,0,21.45c0,3.49-0.13,7.01,0,10.5c0,0.05,0,0.1,0,0.15C394,471.86,400,471.87,400,468
					L400,468z"/>
			</g>
		</g>
		<g>
			<g>
				<path class="st8" d="M389,463c0-2.84,0-5.68,0-8.52c0-6.86,0-13.72,0-20.58c0-8.26,0-16.53,0-24.79c0-7.15,0-14.3,0-21.45
					c0-3.49,0.13-7.01,0-10.5c0-0.05,0-0.1,0-0.15c0-3.86-6-3.87-6,0c0,2.84,0,5.68,0,8.52c0,6.86,0,13.72,0,20.58
					c0,8.26,0,16.53,0,24.79c0,7.15,0,14.3,0,21.45c0,3.49-0.13,7.01,0,10.5c0,0.05,0,0.1,0,0.15C383,466.86,389,466.87,389,463
					L389,463z"/>
			</g>
		</g>
		<g>
			<g>
				<path class="st8" d="M377,449c0-8.82,0-17.63,0-26.45c0-13.96,0-27.92,0-41.88c0-3.22,0-6.45,0-9.67c0-3.86-6-3.87-6,0
					c0,8.82,0,17.63,0,26.45c0,13.96,0,27.92,0,41.88c0,3.22,0,6.45,0,9.67C371,452.86,377,452.87,377,449L377,449z"/>
			</g>
		</g>
		<g>
			<g>
				<path class="st8" d="M366,438c0-6.76,0-13.52,0-20.28c0-10.77,0-21.54,0-32.32c0-2.47,0-4.93,0-7.4c0-3.86-6-3.87-6,0
					c0,6.76,0,13.52,0,20.28c0,10.77,0,21.54,0,32.32c0,2.47,0,4.93,0,7.4C360,441.86,366,441.87,366,438L366,438z"/>
			</g>
		</g>
		<g>
			<g>
				<path class="st8" d="M355,434c0-4.83,0-9.66,0-14.49c0-7.71,0-15.43,0-23.14c0-1.79,0-3.58,0-5.37c0-3.86-6-3.87-6,0
					c0,4.83,0,9.66,0,14.49c0,7.71,0,15.43,0,23.14c0,1.79,0,3.58,0,5.37C349,437.86,355,437.87,355,434L355,434z"/>
			</g>
		</g>
		<g>
			<g>
				<path class="st8" d="M345,426c0-8.74,0-17.48,0-26.21c0-1.26,0-2.52,0-3.79c0-3.86-6-3.87-6,0c0,8.74,0,17.48,0,26.21
					c0,1.26,0,2.52,0,3.79C339,429.86,345,429.87,345,426L345,426z"/>
			</g>
		</g>
	</g>
</g>
<g id="雲_5_">
	<path class="st8" d="M201,263c13-8,16-19,16.98-32.01c0.97-12.9-19.62-26.75-34.64-30.57c-0.17-1.47-5.45-4.42-5.27-5.66
		c0.55-3.84-6.01-8.58-8.85-11.64c-3.12-3.37-6.61-6.44-10.52-8.89c-4.66-2.92-8.56-3.55-13.75-4.59
		c-13.57-2.72-27.34,3.19-37.95,11.35c-0.01,0-13,10-15,19c-1.35,6.07-1.55,12.1-2.09,18.12c-0.49,5.46-6.28,4.71-10.15,6.72
		c-6.92,3.59-10.42,9.39-14.33,15.91c-3.98,6.63-4.91,12.65-4.54,20.29c0.28,5.85,1.74,11.62,4.17,16.95
		c2.79,6.11,8.37,8.7,5.89,16.03c-3.77,11.17-4.1,24.25,3.68,34c3.53,4.43,8.61,7.1,13.82,9.06c0.78,0.29,1.64,0.69,2.54,1.09
		c0,8.23,0,14.13,0,15.83c0,8,13,21,19,26s20,9,34,10s24-11,34-20s5-36,5-36s5-2,16-9s11-22,12-33s-17-21-17-21S188,271,201,263z"/>
	<g>
		<g>
			<g>
				<path class="st8" d="M100.7,337.03c-8.2-0.93-17.23-3.71-23.18-9.83c-3.35-3.44-5.56-8.03-6.37-12.93
					c-0.89-5.4,0.23-10.97,1.77-16.13c0.74-2.49,1.63-4.95,1.5-7.6c-0.12-2.22-0.78-4.31-1.85-6.26c-1.97-3.59-4.99-6.47-6.61-10.28
					c-2.14-5.03-2.83-10.56-2.5-15.98c0.25-4.11,1.19-8.4,2.76-12.55c1.33-3.5,3.62-7.54,6.09-10.38c2.66-3.06,5.84-5.53,9.31-7.01
					c2.11-0.9,4.43-1.15,6.51-2.08c1.94-0.87,3.28-2.52,4.03-4.48c1.31-3.41,0.57-7.2,0.71-10.75c0.01-0.21,0.13-1.48,0.03-0.7
					c0.08-0.57,0.18-1.13,0.29-1.69c0.27-1.4,0.62-2.78,1.03-4.15c0.76-2.48,1.75-4.87,2.99-7.15c2.36-4.34,5.42-8.07,9.08-11.41
					c7.03-6.4,15.94-10.82,25.32-12.42c8.76-1.5,18.03,0.18,25.73,4.58c3.9,2.23,7.14,4.84,10.34,8.01
					c3.33,3.31,6.07,6.96,8.93,10.6c1.35,1.72,2.77,2.73,3.46,4.68c0.54,1.53,2.05,2.55,3.69,2.1c1.48-0.41,2.64-2.16,2.1-3.69
					c-0.92-2.6-2.5-4.38-4.26-6.42c-1.64-1.9-3.03-4.02-4.63-5.96c-3.03-3.67-6.37-7.12-10.12-10.06
					c-7.96-6.25-17.38-10.07-27.57-10.35c-10.41-0.28-20.9,3.2-29.59,8.83c-9.17,5.94-16.59,14.34-20.42,24.65
					c-1.67,4.51-2.5,9.08-2.36,13.88c0.03,0.94,0.05,1.89,0.02,2.83c-0.01,0.41-0.04,0.82-0.08,1.22c-0.04,0.51,0.15-0.69-0.01,0.11
					c-0.05,0.25-0.09,0.5-0.16,0.74c-0.05,0.2-0.12,0.39-0.18,0.59c-0.13,0.42,0.37-0.55-0.02,0.05c-0.07,0.11-0.18,0.28-0.23,0.41
					c-0.22,0.49,0.36-0.14-0.1,0.13c-0.11,0.07-0.25,0.25-0.35,0.33c0.45-0.39,0.13-0.1,0.01-0.04c-0.07,0.03-0.83,0.36-0.25,0.15
					c-0.28,0.1-0.57,0.17-0.86,0.24c-9.38,2.23-16.81,8.49-21.44,16.86c-4.99,9.02-6.88,19.76-5.28,29.92
					c0.85,5.43,2.9,10.52,6.16,14.94c1.16,1.58,2.41,3.13,3.34,4.87c0.08,0.14,0.56,1.19,0.37,0.72c0.18,0.45,0.32,0.91,0.44,1.38
					c0.05,0.19,0.09,0.39,0.12,0.58c-0.11-0.6,0.03,0.38,0.03,0.42c0.03,0.54,0.02,1.09-0.04,1.63c-0.09,0.79-0.63,2.41-0.97,3.48
					c-0.46,1.47-0.87,2.95-1.23,4.45c-0.72,3.01-1.21,6.12-1.3,9.22c-0.17,5.94,1.3,11.96,4.43,17.03
					c5.25,8.53,14.56,13.36,24.09,15.5c2.41,0.54,4.85,0.9,7.3,1.18c1.61,0.18,3-1.51,3-3C103.7,338.25,102.32,337.21,100.7,337.03
					L100.7,337.03z"/>
			</g>
		</g>
		<g>
			<g>
				<path class="st8" d="M86.84,216.35c0.2,7.15,1.31,14.2,4.58,20.63c0.71,1.4,2.8,1.92,4.1,1.08c1.43-0.92,1.84-2.61,1.08-4.1
					c-1.33-2.61-2.26-5.5-2.88-8.59c-0.58-2.94-0.79-5.78-0.88-9.02c-0.04-1.57-1.35-3.07-3-3
					C88.25,213.42,86.79,214.67,86.84,216.35L86.84,216.35z"/>
			</g>
		</g>
		<g>
			<g>
				<path class="st8" d="M67.04,286.68c3.81,7.94,10.63,14.77,19.83,15.37c1.57,0.1,3.07-1.45,3-3c-0.08-1.71-1.32-2.89-3-3
					c-0.24-0.02-0.47-0.04-0.71-0.06c-0.5-0.03,0.68,0.13-0.18-0.03c-0.42-0.08-0.83-0.16-1.24-0.27c-0.46-0.12-0.91-0.25-1.35-0.41
					c-0.22-0.08-0.44-0.16-0.66-0.25c0.29,0.11,0.13,0.06-0.07-0.03c-0.86-0.4-1.69-0.85-2.49-1.37c-0.36-0.23-0.71-0.48-1.05-0.73
					c-0.25-0.19,0.22,0.2-0.17-0.15c-0.18-0.16-0.36-0.31-0.54-0.46c-0.69-0.61-1.34-1.26-1.94-1.95c-0.29-0.33-0.57-0.66-0.84-1
					c-0.19-0.24,0.15,0.22-0.15-0.2c-0.14-0.2-0.28-0.39-0.42-0.59c-1.09-1.55-2.01-3.2-2.83-4.91c-0.68-1.42-2.82-1.91-4.1-1.08
					C66.66,283.52,66.31,285.17,67.04,286.68L67.04,286.68z"/>
			</g>
		</g>
		<g>
			<g>
				<path class="st8" d="M171.27,206.53c7-3.18,15.14-3.37,22.45-1.1c7.28,2.26,13.42,7.21,17.21,13.81
					c3.73,6.5,5.25,14.44,3.84,21.69c-1.53,7.86-6.09,14.81-12.3,19.81c-7.73,6.21-17.89,8.76-27.68,8.28c-1.62-0.08-3,1.44-3,3
					c0,1.69,1.38,2.92,3,3c10.11,0.5,20.6-2.03,28.98-7.82c7.67-5.3,13.64-13.09,16.18-22.12c2.46-8.77,1.32-18.22-2.55-26.4
					c-3.91-8.25-10.81-14.58-19.24-18.01c-9.57-3.9-20.54-3.58-29.92,0.68c-1.48,0.67-1.83,2.81-1.08,4.1
					C168.06,206.97,169.79,207.21,171.27,206.53L171.27,206.53z"/>
			</g>
		</g>
		<g>
			<g>
				<path class="st8" d="M87.72,338.14c-0.75,10.82,2.22,21.87,8.03,31.01c6.04,9.49,14.99,16.63,25.57,20.44
					c10.49,3.77,22.41,4.1,33.03,0.66c10.19-3.3,18.95-9.89,25.35-18.42c7.45-9.92,12.25-24.01,8.63-36.29
					c-1.09-3.7-6.88-2.12-5.79,1.6c2.89,9.81-0.79,20.75-6.13,28.96c-4.94,7.59-12.41,13.99-20.8,17.34
					c-18.46,7.37-40.98,1.58-52.86-14.62c-6.52-8.89-9.8-19.71-9.05-30.67c0.11-1.62-1.46-3-3-3
					C89,335.14,87.83,336.51,87.72,338.14L87.72,338.14z"/>
			</g>
		</g>
		<g>
			<g>
				<path class="st8" d="M193.62,273.1c9.39,5.98,14.73,17.15,13.94,28.12c-0.81,11.3-8.14,21.72-18.36,26.72
					c-5.98,2.93-13.03,4.03-19.62,3c-1.6-0.25-3.23,0.41-3.69,2.1c-0.39,1.42,0.49,3.44,2.1,3.69c14.25,2.24,28.81-3.19,37.64-14.7
					c8.27-10.77,10.3-25.15,4.94-37.66c-2.88-6.73-7.74-12.5-13.92-16.44c-1.37-0.87-3.31-0.28-4.1,1.08
					C191.7,270.45,192.25,272.23,193.62,273.1L193.62,273.1z"/>
			</g>
		</g>
	</g>
</g>
<g id="卷軸_2_">
	<g>
		<path class="st8" d="M141.2,100.86c14.33,8.47,25.13,21.12,34.5,34.67c6.3,9.12,12.53,18.28,18.68,27.5
			c7.22,10.82,14.5,22.83,19.87,34.58c8.74,19.1,17.3,38.16,25.03,57.73c4.49,11.36,8.64,22.84,13.06,34.22
			c3.84,9.89,6.42,19.86,18.71,20.15c13.53,0.32,28.25-6.96,36.6-17.48c6.46-8.14,8.56-21.59,1.61-30.1
			c-7.44-9.11-14.51-18.41-21.02-28.41c-7.61-11.69-14.6-23.78-21.71-35.78c-9.48-16-18.44-32.38-25.29-49.69
			c-4.75-11.99-10.79-23.4-15.35-35.47c-5.44-14.4-9.95-29.13-14.06-43.96c-3.08-11.12-5.18-27.86-17.5-32.77
			c-7.81-3.12-15.44-3-23.71-2.15c-15.43,1.57-31.71,9.77-39.02,24.02c-10.97,21.4,1.31,48.65,26.8,46.69
			c20.62-1.58,44.79-16.79,38.4-40.47c-5.63-20.86-42.37-17.06-46.8,2.73c-1.31,5.84-0.35,12.34,3.75,16.89
			c5.07,5.63,16.26,3.92,19.5-2.7c2.66-5.45,0.5-14.23-6.93-13.29"/>
	</g>
	<path class="st8" d="M185.23,148l20.09,31.49c0,0,2.68,1.51,12.68-2.49s13-12,13-12l-15-37C216,128,211.47,147,185.23,148z"/>
	<path class="st8" d="M226,113c0,0,14.91,34.32,14.92,34.33c-0.96-2.25,1.37-9.1,7.08-17.33c10.14-14.62,19.9-24.44,35-34
		c22.04-13.96,46.85-13.96,72-11c-7.11-0.84-11.49-13.12-13.96-18.74c-2.76-6.28-4.48-13.36-3.1-20.2
		c1.47-7.3,6.34-11.74,11.07-17.05c0,0-25,5-38,11C277.14,55.63,240.02,76.05,226,113z"/>
	<g>
		<g>
			<g>
				<path class="st8" d="M139.68,103.45c14.49,8.62,25.21,21.68,34.66,35.38c11.03,15.99,22.39,31.95,31.67,49.04
					c4.61,8.5,8.47,17.38,12.43,26.19c4.01,8.91,7.96,17.85,11.74,26.86c7.36,17.54,13.94,35.39,20.69,53.17
					c2.27,5.99,4.82,12.4,10.49,15.96c6.4,4.02,15.16,2.94,22.09,1.09c14.54-3.88,29.77-14.86,32.6-30.48
					c0.68-3.77,0.73-7.59-0.09-11.34c-0.87-3.97-2.85-7.21-5.38-10.32c-5.95-7.32-11.67-14.84-16.97-22.65
					c-5.5-8.11-10.58-16.5-15.59-24.92c-4.96-8.32-9.93-16.64-14.72-25.06c-4.64-8.16-9.06-16.45-13.06-24.95
					c-4.06-8.62-7.4-17.53-11.32-26.22c-3.92-8.69-7.95-17.3-11.24-26.25c-3.4-9.24-6.43-18.61-9.24-28.04
					c-2.23-7.5-4.19-15.05-6.16-22.62c-1.64-6.3-3.69-12.77-7.72-17.99c-2-2.59-4.48-4.84-7.43-6.3c-4.05-2-8.56-2.99-13.03-3.42
					c-8.12-0.79-16.85,0.15-24.68,2.45c-14.48,4.27-27.6,14.12-32.7,28.73c-4.1,11.74-2.27,25.36,5.62,35.1
					c3.78,4.67,9.09,8.09,14.87,9.69c6.48,1.79,13.35,1.23,19.83-0.29c12.29-2.88,25.24-10.16,30.88-21.95
					c5.22-10.9,3.73-25.85-6.92-32.91c-8.74-5.79-20.8-5.27-30.06-1.1c-4.61,2.08-8.79,5.44-11.42,9.8
					c-3.55,5.9-4.05,13.78-1.42,20.12c1.45,3.48,3.82,6.78,7.31,8.42c3.17,1.49,6.63,1.78,10.06,1.16
					c6.67-1.19,11.67-6.51,11.87-13.35c0.18-6.32-4.19-12.44-11.02-11.71c-1.61,0.17-3,1.26-3,3c0,1.49,1.38,3.17,3,3
					c0.34-0.04,0.68-0.07,1.03-0.07c0.13,0,0.91,0.06,0.46-0.01c0.34,0.05,0.67,0.15,1,0.25c0.33,0.11-0.01-0.01-0.06-0.04
					c0.17,0.08,0.33,0.17,0.49,0.26c0.16,0.09,0.63,0.48,0.27,0.17c0.21,0.18,0.39,0.37,0.58,0.57c0.31,0.33-0.04-0.16,0.27,0.38
					c0.16,0.28,0.33,0.56,0.47,0.86c-0.2-0.43,0.07,0.2,0.12,0.34c0.09,0.28,0.17,0.56,0.23,0.84c0.04,0.18,0.17,0.94,0.15,0.76
					c-0.02-0.16,0.03,0.6,0.04,0.79c0.01,0.3,0,0.6-0.01,0.9c-0.01,0.14-0.08,0.87-0.02,0.4c-0.1,0.69-0.28,1.36-0.5,2.01
					c-0.17,0.51,0.09-0.11-0.15,0.36c-0.14,0.28-0.29,0.55-0.45,0.81c-0.35,0.56-0.49,0.71-1.1,1.3c-0.59,0.56-1.98,1.41-2.72,1.69
					c-2.58,0.99-4.87,1.11-7.34,0.34c-0.77-0.24-2.05-0.91-2.62-1.48c-1.14-1.13-2.04-2.45-2.7-3.92c-1.37-3.06-1.61-6.72-0.97-9.99
					c0.12-0.64,0.27-1.27,0.46-1.9c0.08-0.25,0.16-0.49,0.24-0.74c0.05-0.14,0.33-0.86,0.22-0.6c-0.12,0.29,0.17-0.35,0.22-0.46
					c0.13-0.27,0.26-0.53,0.41-0.79c0.26-0.48,0.55-0.95,0.86-1.41c0.14-0.21,0.29-0.42,0.44-0.62c0.39-0.54-0.1,0.09,0.23-0.29
					c0.36-0.42,0.72-0.84,1.11-1.23c0.39-0.4,0.79-0.78,1.21-1.15c0.19-0.17,0.39-0.34,0.59-0.5c0.1-0.08,0.2-0.16,0.3-0.24
					c0.36-0.28-0.36,0.26,0.01,0c0.92-0.67,1.88-1.29,2.87-1.84c0.47-0.26,0.94-0.5,1.42-0.73c0.28-0.13,0.57-0.26,0.85-0.39
					c0.03-0.01,0.44-0.19,0.14-0.06c-0.3,0.12,0.21-0.08,0.27-0.1c2.23-0.83,4.48-1.44,6.83-1.81c0.35-0.06-0.07,0.01-0.12,0.01
					c0.14-0.02,0.27-0.04,0.41-0.05c0.27-0.03,0.54-0.06,0.82-0.08c0.63-0.06,1.27-0.1,1.91-0.12c1.17-0.04,2.35-0.01,3.52,0.09
					c0.27,0.02,0.53,0.05,0.8,0.08c0.13,0.01,0.27,0.03,0.4,0.05c-0.04-0.01-0.49-0.07-0.14-0.02c0.57,0.09,1.14,0.18,1.7,0.3
					c1.11,0.23,2.2,0.54,3.27,0.92c0.28,0.1,0.56,0.21,0.84,0.32c0.32,0.13-0.09-0.04-0.12-0.06c0.12,0.05,0.24,0.1,0.35,0.16
					c0.5,0.24,1,0.47,1.48,0.74c0.48,0.26,0.95,0.55,1.4,0.85c0.21,0.14,0.41,0.29,0.62,0.43c0.55,0.38-0.08-0.1,0.29,0.22
					c0.84,0.7,1.61,1.45,2.32,2.28c0.13,0.16,0.47,0.6,0.16,0.19c0.18,0.24,0.35,0.48,0.51,0.73c0.31,0.47,0.6,0.95,0.86,1.44
					c0.12,0.23,0.24,0.47,0.35,0.7c0.08,0.16,0.15,0.32,0.22,0.48c-0.02-0.05-0.17-0.42-0.05-0.1c0.21,0.56,0.41,1.12,0.57,1.69
					c0.42,1.45,0.74,3.02,0.88,4.36c0.31,3.09,0.14,5.68-0.62,8.5c-1.43,5.33-4.69,9.75-9,13.46c-4.23,3.63-9.71,6.46-15.07,8.22
					c-5.82,1.91-11.49,2.98-17.57,2.32c-4.92-0.53-9.92-2.88-13.51-6.31c-7.57-7.23-9.92-18.65-7.38-28.72
					c3.25-12.89,14.1-22.31,26.54-26.71c7.03-2.49,14.46-3.49,21.9-3.4c4.05,0.05,8.02,0.62,11.86,1.94c2.77,0.95,5,2.31,7.03,4.53
					c1.75,1.91,3.22,4.53,4.38,7.14c1.08,2.44,2.03,5.56,2.8,8.36c1.85,6.76,3.48,13.56,5.43,20.3
					c5.16,17.74,11.1,35.15,18.76,51.98c1.87,4.12,3.78,8.23,5.58,12.38c1.8,4.13,3.41,8.34,5.17,12.49
					c3.52,8.24,7.48,16.28,11.71,24.18c4.22,7.87,8.73,15.56,13.27,23.24c4.73,8.01,9.43,16.03,14.34,23.94
					c4.82,7.77,9.87,15.38,15.33,22.72c2.73,3.67,5.53,7.29,8.39,10.86c2.22,2.78,4.61,5.37,5.67,8.82
					c1.86,6.03,0.63,12.85-2.52,18.32c-3.42,5.94-9.32,10.56-15.3,13.8c-6.23,3.37-13.32,5.44-20.43,5.35
					c-2.99-0.04-5.52-0.61-7.86-2.37c0.29,0.22-0.29-0.24-0.36-0.31c-0.23-0.2-0.46-0.42-0.68-0.64c-0.22-0.22-0.43-0.45-0.64-0.68
					c-0.11-0.12-0.71-0.86-0.52-0.61c-0.85-1.12-1.56-2.35-2.19-3.6c-1.32-2.58-2.19-5.06-3.26-7.87
					c-1.54-4.07-3.12-8.12-4.66-12.19c-3.3-8.73-6.56-17.49-10.02-26.16c-6.91-17.31-14.48-34.34-22.2-51.29
					c-3.76-8.26-7.79-16.31-12.41-24.12c-4.66-7.87-9.75-15.47-14.86-23.05c-5.15-7.64-10.27-15.31-15.63-22.8
					c-4.62-6.45-9.58-12.68-15.18-18.31c-5.48-5.52-11.6-10.45-18.29-14.43C139.39,96.29,136.37,101.47,139.68,103.45L139.68,103.45
					z"/>
			</g>
		</g>
		<g>
			<g>
				<path class="st8" d="M194.21,65.31c4.66,17.42,8.65,35.12,15.28,51.94c3.27,8.31,7.08,16.39,10.5,24.63
					c3.41,8.23,6.7,16.48,10.44,24.57c7.41,16.06,15.72,31.75,24.5,47.11c8.33,14.57,17.7,28.51,27.66,42
					c5.08,6.88,10.3,13.65,15.6,20.37c1.31,1.66,2.65,3.3,3.93,4.97c0.99,1.29,2.03,2.7,2.58,4.25c1.05,2.9-0.05,6-1.86,8.44
					c-0.81,1.09-1.82,1.94-3.1,2.59c-1.45,0.73-1.86,2.77-1.08,4.1c0.86,1.47,2.65,1.81,4.1,1.08c3.44-1.74,5.82-4.98,7.22-8.49
					c1.52-3.8,1.4-7.85-0.43-11.51c-1.87-3.74-4.99-6.95-7.56-10.22c-2.61-3.31-5.19-6.64-7.75-9.99
					c-10.32-13.52-20.16-27.4-29.01-41.93c-9.3-15.27-17.75-31.16-25.57-47.23c-3.87-7.95-7.53-16-10.87-24.19
					c-3.46-8.51-7.12-16.92-10.73-25.36c-7.21-16.84-11.73-34.5-16.35-52.18c-0.57-2.19-1.15-4.37-1.73-6.55
					C199,59.99,193.21,61.57,194.21,65.31L194.21,65.31z"/>
			</g>
		</g>
		<g>
			<g>
				<path class="st8" d="M213.03,126.87c-4.05,11.38-15.83,19.42-27.8,19.37c-3.86-0.01-3.87,5.99,0,6
					c14.83,0.06,28.63-9.86,33.58-23.77c0.54-1.53-0.61-3.28-2.1-3.69C215.06,124.32,213.57,125.33,213.03,126.87L213.03,126.87z"/>
			</g>
		</g>
		<g>
			<g>
				<path class="st8" d="M228.63,113.15c2.75-8.28,7.98-15.97,13.85-22.61c6.32-7.15,13.54-13.52,21.1-19.32
					c7.4-5.68,15.15-11.03,23.16-15.81c9.37-5.6,19.34-10.1,29.62-13.75c11.72-4.16,23.76-7.3,35.84-10.21
					c-0.77-1.83-1.54-3.66-2.31-5.48c-4.66,2.1-8.78,5.33-11.57,9.65c-2.52,3.91-3.71,8.55-3.9,13.16
					c-0.39,9.49,3.28,19.1,8.27,27.03c2.71,4.3,5.95,8.36,9.8,11.69c0.97-1.67,1.95-3.34,2.92-5.01
					c-18.89-4.27-38.96-3.18-57.23,3.27c-16.74,5.91-31.81,16.2-43.42,29.63c-6.38,7.38-11.75,15.61-15.81,24.49
					c-0.67,1.47-0.42,3.23,1.08,4.1c1.29,0.75,3.43,0.4,4.1-1.08c6.75-14.79,17.18-27.93,30.21-37.69
					c14.16-10.59,31.11-17.2,48.73-18.87c10.28-0.97,20.67-0.37,30.74,1.91c2.72,0.61,5.32-2.93,2.92-5.01
					c-1.53-1.32-2.95-2.76-4.28-4.28c-0.65-0.74-1.27-1.5-1.87-2.27c0.39,0.5-0.16-0.22-0.19-0.26c-0.16-0.22-0.33-0.44-0.49-0.66
					c-0.33-0.45-0.64-0.9-0.96-1.36c-1.27-1.87-2.44-3.82-3.48-5.83c-0.48-0.93-0.94-1.88-1.37-2.83c-0.48-1.06-0.61-1.38-1.11-2.72
					c-0.78-2.11-1.42-4.28-1.89-6.48c-0.1-0.45-0.18-0.9-0.26-1.36c-0.05-0.27-0.09-0.54-0.13-0.81c-0.01-0.08-0.13-0.98-0.04-0.28
					c-0.13-1.07-0.22-2.14-0.25-3.22c-0.03-0.97-0.01-1.93,0.05-2.9c0.04-0.52,0.09-1.04,0.15-1.55c-0.09,0.74,0.02-0.12,0.04-0.22
					c0.06-0.34,0.12-0.67,0.19-1.01c0.19-0.91,0.44-1.82,0.74-2.7c0.14-0.4,0.29-0.8,0.45-1.19c-0.26,0.65,0.06-0.13,0.1-0.21
					c0.14-0.31,0.29-0.61,0.45-0.91c0.52-0.99,1.12-1.94,1.8-2.83c-0.4,0.53,0.14-0.16,0.19-0.22c0.23-0.27,0.47-0.54,0.71-0.8
					c0.37-0.4,0.76-0.78,1.16-1.15c1.07-0.98,1.35-1.19,2.58-1.98c1.24-0.8,2.54-1.48,3.88-2.08c1.34-0.6,1.77-2.51,1.23-3.75
					c-0.61-1.39-2.05-2.09-3.54-1.74c-21.93,5.27-43.85,11.52-63.62,22.66c-8.45,4.76-16.54,10.3-24.31,16.1
					c-8.05,6.02-15.8,12.51-22.65,19.89c-7.34,7.91-13.77,16.92-17.19,27.24c-0.51,1.54,0.59,3.28,2.1,3.69
					C226.57,115.69,228.12,114.69,228.63,113.15L228.63,113.15z"/>
			</g>
		</g>
		<g>
			<g>
				<path class="st8" d="M228.83,162.8c-1.97,4.52-5.19,7.99-9.43,10.38c-4,2.25-8.94,3.34-13.28,2.69c-1.6-0.24-3.22,0.4-3.69,2.1
					c-0.39,1.42,0.48,3.45,2.1,3.69c11.92,1.78,24.59-4.6,29.49-15.82c0.65-1.48,0.44-3.22-1.08-4.1
					C231.66,160.98,229.48,161.31,228.83,162.8L228.83,162.8z"/>
			</g>
		</g>
	</g>
</g>
<g id="火箭_2_">
	<path class="st8" d="M117,277l122,154l233-197c0,0,26-46,39-81s24-78,24-78s-4-25-49-16s-79,17-96,24s-10,1-44,25S117,277,117,277z
		"/>
	<polygon class="st8" points="326,122.35 298,110 160,209 154.46,246.26 	"/>
	<polygon class="st8" points="457,251 457,291 313,409 278.99,398.2 	"/>
	<g>
		<circle class="st8" cx="313" cy="244" r="28"/>
	</g>
	<path class="st8" d="M297.81,267.51c4.38,2.83,9.59,4.49,15.19,4.49c0.82,0,1.62-0.04,2.42-0.11l-17.67-51.37
		c-5.16,3.36-9.14,8.36-11.2,14.28L297.81,267.51z"/>
	<path class="st8" d="M324.32,269.61c2.87-1.27,5.49-3.01,7.76-5.12l-16.64-48.38c-0.8-0.07-1.61-0.11-2.44-0.11
		c-2.36,0-4.64,0.29-6.83,0.84L324.32,269.61z"/>
	<g>
		<circle class="st8" cx="355" cy="138" r="10"/>
	</g>
	<g>
		<circle class="st8" cx="436" cy="230" r="10"/>
	</g>
	<g>
		<g>
			<g>
				<path class="st8" d="M453,252c0.29,11.12,0.59,22.24,0.88,33.36c0.04,1.55,0.08,3.1,0.12,4.64c0.29-0.71,0.59-1.41,0.88-2.12
					c-1.28,1.06-2.57,2.12-3.85,3.18c-3.5,2.89-6.99,5.78-10.49,8.67c-5.17,4.27-10.34,8.54-15.51,12.82
					c-6.28,5.19-12.55,10.37-18.83,15.56c-6.91,5.71-13.81,11.41-20.72,17.12c-6.97,5.76-13.95,11.52-20.92,17.29
					c-6.5,5.37-13,10.75-19.51,16.12c-5.49,4.54-10.99,9.08-16.48,13.62c-3.95,3.26-7.9,6.53-11.85,9.79
					c-1.86,1.54-3.8,3.02-5.6,4.63c-0.08,0.07-0.16,0.14-0.25,0.2c0.97-0.26,1.95-0.51,2.92-0.77c-9.95-3.16-19.9-6.32-29.84-9.47
					c-1.39-0.44-2.78-0.88-4.16-1.32c-1.54-0.49-3.27,0.58-3.69,2.1c-0.44,1.62,0.55,3.2,2.1,3.69c9.12,2.89,18.23,5.79,27.35,8.68
					c1.86,0.59,3.72,1.18,5.57,1.77c1.47,0.47,2.65,0.66,4.05-0.46c0.83-0.67,1.65-1.37,2.48-2.05c4.88-4.03,9.76-8.07,14.65-12.1
					c7.96-6.57,15.91-13.15,23.87-19.72c9.55-7.89,19.1-15.78,28.65-23.68c9.67-7.99,19.33-15.98,29-23.96
					c8.28-6.84,16.56-13.68,24.84-20.53c5.48-4.53,10.97-9.06,16.45-13.6c1.2-0.99,2.4-1.98,3.6-2.98c1.62-1.34,1.28-3.38,1.23-5.26
					c-0.29-10.85-0.57-21.7-0.86-32.55c-0.02-0.89-0.05-1.77-0.07-2.66C458.9,248.15,452.9,248.13,453,252L453,252z"/>
			</g>
		</g>
		<g>
			<g>
				<path class="st8" d="M157.51,247.59c20.3-14.83,40.78-29.41,61.2-44.07c26.36-18.92,52.73-37.82,79.05-56.8
					c10.64-7.67,21.36-15.26,31.73-23.31c10.12-7.85,20-16.14,30.8-23.05c9.93-6.36,20.8-10.99,31.92-14.79
					c11.48-3.92,23.21-7.1,34.87-10.42c12.67-3.61,25.44-6.93,38.4-9.35c12.58-2.35,25.17-3.57,37.96-3.85
					c8.63-0.19,22.38-1.46,26.86,8.02c3.45,7.29,0.53,16.72-1.63,23.96c-3.73,12.5-8.04,24.83-12.6,37.05
					c-4.7,12.59-9.71,25.06-14.69,37.54c-3.98,9.99-7.34,20.22-11.41,30.18c-3.92,9.62-8.61,19.24-15.2,27.34
					c-3.76,4.62-8.22,8.64-12.3,12.97c-3.01,3.2-5.93,6.52-9.04,9.63c-3.47,3.47-7.27,6.64-10.98,9.85
					c-15.79,13.67-31.85,27.03-47.89,40.4c-21.41,17.84-42.89,35.61-64.39,53.34c-19.66,16.22-39.34,32.41-59.04,48.58
					c-10.92,8.96-21.83,17.92-32.76,26.86c-0.5,0.41-1,0.82-1.5,1.23c1.41,0,2.83,0,4.24,0c-4.04-5.11-8.09-10.21-12.13-15.32
					c-9.71-12.26-19.43-24.52-29.14-36.78c-11.75-14.83-23.5-29.67-35.25-44.5c-10.16-12.82-20.31-25.64-30.47-38.46
					c-3.35-4.22-6.69-8.45-10.04-12.67c-1.56-1.97-3.01-4.2-4.76-6.01c-0.08-0.08-0.14-0.17-0.21-0.26c0,1.41,0,2.83,0,4.24
					c9.82-8.06,19.63-16.11,29.45-24.17c2.33-1.92,4.67-3.83,7-5.75c1.32-1.08,3.02-2.03,3.37-3.81c0.34-1.73,0.32-3.59,0.47-5.35
					c0.31-3.73,0.62-7.47,0.93-11.2c0.55-6.62,1.1-13.23,1.65-19.85c-0.5,0.86-0.99,1.73-1.49,2.59c4.52-3.29,9.03-6.58,13.55-9.86
					c10.84-7.89,21.69-15.79,32.53-23.68c13.06-9.5,26.11-19.01,39.17-28.51c11.34-8.25,22.67-16.5,34.01-24.76
					c3.73-2.72,7.47-5.44,11.2-8.16c1.7-1.24,3.79-2.38,5.29-3.85c0.07-0.07,0.16-0.12,0.24-0.18c-0.77,0.1-1.54,0.2-2.31,0.3
					c10.16,3.7,20.32,7.39,30.48,11.09c3.63,1.32,5.2-4.47,1.6-5.79c-8.22-2.99-16.44-5.98-24.66-8.97
					c-2.12-0.77-5.91-3.04-8.17-1.79c-0.83,0.46-1.6,1.16-2.36,1.72c-12.37,9-24.73,18-37.1,27
					c-18.38,13.38-36.77,26.77-55.15,40.15c-12.76,9.29-25.52,18.58-38.28,27.86c-0.97,0.71-1.95,1.41-2.92,2.12
					c-2,1.49-1.76,4.11-1.95,6.4c-0.83,9.94-1.66,19.89-2.49,29.83c-0.07,0.83-0.14,1.65-0.21,2.48c0.29-0.71,0.59-1.41,0.88-2.12
					c-11.37,9.33-22.74,18.66-34.11,27.99c-1.63,1.34-3.26,2.67-4.89,4.01c-1.35,1.11-0.92,3.08,0,4.24
					c4.04,5.11,8.09,10.21,12.13,15.32c9.71,12.26,19.43,24.52,29.14,36.78c11.75,14.83,23.5,29.67,35.25,44.5
					c10.16,12.82,20.31,25.64,30.47,38.46c3.35,4.22,6.69,8.45,10.04,12.67c1.57,1.98,3.05,4.14,4.76,6.01
					c0.07,0.08,0.14,0.17,0.21,0.26c1.07,1.36,3.11,0.93,4.24,0c2.12-1.73,4.23-3.47,6.35-5.2c5.73-4.7,11.46-9.39,17.19-14.09
					c8.37-6.87,16.74-13.74,25.11-20.62c10.17-8.36,20.34-16.73,30.51-25.1c11.01-9.07,22.02-18.15,33.01-27.24
					c10.92-9.03,21.84-18.07,32.74-27.13c9.91-8.23,19.81-16.48,29.68-24.76c7.97-6.68,15.93-13.38,23.84-20.13
					c5.1-4.35,10.2-8.7,15.16-13.2c1.75-1.59,3.41-3.23,5.04-4.95c4.49-4.77,8.89-9.63,13.55-14.23c3.87-3.81,7.33-7.95,10.37-12.46
					c6.13-9.11,10.47-19.3,14.39-29.52c4.02-10.5,7.8-21.06,11.97-31.5c5.03-12.6,10.01-25.23,14.63-37.99
					c4.12-11.37,8.3-22.89,11.24-34.63c2.03-8.09,3.55-18.24-1.64-25.52c-6.54-9.17-19.08-9.19-29.21-8.94
					c-12.93,0.31-25.67,1.35-38.42,3.61c-13.11,2.32-26.03,5.59-38.84,9.2c-23.14,6.52-47.28,12.39-68.05,24.93
					c-11.02,6.65-21.02,14.99-31.13,22.91c-6.13,4.8-12.38,9.44-18.69,14.01c-10.71,7.77-21.45,15.5-32.19,23.22
					c-13.64,9.81-27.29,19.61-40.94,29.41c-13.61,9.77-27.23,19.54-40.84,29.32c-10.64,7.64-21.27,15.28-31.89,22.95
					c-3.19,2.31-6.38,4.61-9.56,6.94C151.4,244.66,154.39,249.87,157.51,247.59L157.51,247.59z"/>
			</g>
		</g>
		<g>
			<path class="st8" d="M372.52,113.29c4.93,11.01,10,21.77,16.01,31.92c5.98,10.15,12.85,19.66,20.79,28.19
				c7.97,8.54,16.79,16.4,26.15,23.57c9.38,7.15,19.29,13.64,30.23,18.71c-1.48-0.3-2.95-0.64-4.43-0.98l-4.36-1.29
				c-1.44-0.49-2.86-1-4.3-1.52l-4.22-1.74c-5.57-2.46-10.92-5.4-16.07-8.66c-10.27-6.56-19.77-14.34-28.13-23.32
				c-8.38-9.01-15.25-19.38-20.5-30.37C378.44,136.78,374.68,125.16,372.52,113.29z"/>
		</g>
		<g>
			<g>
				<path class="st8" d="M362,138c0,0.28-0.02,0.56-0.03,0.83c-0.03,0.59-0.02,0.15,0.01,0.02c-0.08,0.44-0.18,0.88-0.31,1.31
					c-0.08,0.25-0.17,0.51-0.27,0.75c0.05-0.13,0.25-0.47-0.02,0.01c-0.26,0.46-0.51,0.91-0.8,1.35c-0.46,0.68,0.24-0.26-0.09,0.11
					c-0.14,0.16-0.29,0.33-0.44,0.48c-0.14,0.14-1.05,0.93-0.57,0.56c-0.34,0.26-0.72,0.5-1.09,0.71c-0.15,0.09-0.31,0.16-0.46,0.25
					c-0.31,0.14-0.32,0.15-0.01,0.02c-0.12,0.05-0.25,0.1-0.37,0.14c-0.43,0.14-0.85,0.27-1.29,0.36c-0.15,0.03-0.75,0.11-0.14,0.04
					c-0.23,0.03-0.46,0.04-0.69,0.05c-0.46,0.02-0.93,0-1.39-0.04c-0.52-0.04,0.68,0.16-0.15-0.03c-0.26-0.06-0.52-0.11-0.79-0.19
					c-0.26-0.07-0.51-0.16-0.76-0.25c-0.12-0.04-0.51-0.24-0.02,0c-0.39-0.19-0.78-0.39-1.15-0.63c-0.18-0.12-0.36-0.24-0.54-0.37
					c-0.39-0.29,0.47,0.47-0.1-0.1c-0.37-0.37-0.74-0.72-1.09-1.12c0.35,0.41,0.06,0.09-0.01-0.01c-0.15-0.22-0.29-0.43-0.43-0.66
					c-0.1-0.17-0.63-1.26-0.4-0.7c-0.17-0.41-0.3-0.84-0.41-1.27c-0.04-0.17-0.08-0.35-0.12-0.53c-0.06-0.35-0.06-0.36-0.02-0.01
					c-0.02-0.14-0.03-0.27-0.04-0.41c-0.03-0.42-0.03-0.84-0.01-1.25c0.01-0.09,0.14-0.97,0.01-0.29c0.03-0.18,0.06-0.36,0.1-0.53
					c0.1-0.44,0.24-0.86,0.38-1.28c0.26-0.78-0.29,0.46,0.12-0.25c0.13-0.23,0.24-0.47,0.38-0.69c0.11-0.19,0.23-0.37,0.35-0.55
					c0.08-0.13,0.46-0.55,0.08-0.12c0.29-0.33,0.58-0.65,0.9-0.94c-0.01,0.01,0.63-0.54,0.29-0.27c-0.33,0.27,0.34-0.24,0.33-0.23
					c0.44-0.29,0.9-0.54,1.37-0.77c-0.11,0.05-0.53,0.18,0.02,0c0.25-0.08,0.5-0.17,0.76-0.25c0.17-0.05,0.35-0.09,0.52-0.13
					c-0.02,0,0.85-0.15,0.4-0.09c-0.45,0.07,0.44-0.03,0.42-0.03c0.23-0.01,0.47-0.02,0.7-0.01c0.23,0,0.46,0.02,0.69,0.03
					c0.71,0.03-0.34-0.11,0.28,0.04c0.52,0.13,1.03,0.26,1.55,0.43c0.79,0.26-0.31-0.17,0.13,0.06c0.27,0.14,0.55,0.28,0.81,0.43
					c0.15,0.09,0.3,0.18,0.44,0.28c0.14,0.1,0.29,0.2,0.43,0.3c-0.26-0.2-0.26-0.19,0,0.02c0.31,0.31,0.61,0.61,0.92,0.92
					c0.57,0.58-0.27-0.46,0.18,0.21c0.15,0.22,0.29,0.43,0.43,0.66c0.13,0.23,0.25,0.46,0.38,0.69c0.31,0.54-0.1-0.39,0.12,0.25
					c0.17,0.51,0.3,1.02,0.43,1.55c0.03,0.12,0.08,0.58,0.02,0.01C361.98,137.26,361.99,137.63,362,138c0.02,1.57,1.36,3.07,3,3
					c1.61-0.07,3.02-1.32,3-3c-0.08-5.51-3.48-10.29-8.62-12.23c-4.92-1.86-10.94-0.26-14.27,3.81c-3.48,4.25-4.15,10.27-1.29,15.06
					c2.85,4.77,8.36,7.07,13.76,6.1c6.05-1.09,10.34-6.72,10.42-12.73c0.02-1.57-1.4-3.07-3-3C363.36,135.07,362.02,136.32,362,138z
					"/>
			</g>
		</g>
		<g>
			<g>
				<path class="st8" d="M443,230c0,0.28-0.02,0.56-0.03,0.83c-0.03,0.59-0.02,0.15,0.01,0.02c-0.08,0.44-0.18,0.88-0.31,1.31
					c-0.08,0.25-0.17,0.51-0.27,0.75c0.05-0.13,0.25-0.47-0.02,0.01c-0.26,0.46-0.51,0.91-0.8,1.35c-0.46,0.68,0.24-0.26-0.09,0.11
					c-0.14,0.16-0.29,0.33-0.44,0.48c-0.14,0.14-1.05,0.93-0.57,0.56c-0.34,0.26-0.72,0.5-1.09,0.71c-0.15,0.09-0.31,0.16-0.46,0.25
					c-0.31,0.14-0.32,0.15-0.01,0.02c-0.12,0.05-0.25,0.1-0.37,0.14c-0.43,0.14-0.85,0.27-1.29,0.36c-0.15,0.03-0.75,0.11-0.14,0.04
					c-0.23,0.03-0.46,0.04-0.69,0.05c-0.46,0.02-0.93,0-1.39-0.04c-0.52-0.04,0.68,0.16-0.15-0.03c-0.26-0.06-0.52-0.11-0.79-0.19
					c-0.26-0.07-0.51-0.16-0.76-0.25c-0.12-0.04-0.51-0.24-0.02,0c-0.39-0.19-0.78-0.39-1.15-0.63c-0.18-0.12-0.36-0.24-0.54-0.37
					c-0.39-0.29,0.47,0.47-0.1-0.1c-0.37-0.37-0.74-0.72-1.09-1.12c0.35,0.41,0.06,0.09-0.01-0.01c-0.15-0.22-0.29-0.43-0.43-0.66
					c-0.1-0.17-0.63-1.26-0.4-0.7c-0.17-0.41-0.3-0.84-0.41-1.27c-0.04-0.17-0.08-0.35-0.12-0.53c-0.06-0.35-0.06-0.36-0.02-0.01
					c-0.02-0.14-0.03-0.27-0.04-0.41c-0.03-0.42-0.03-0.84-0.01-1.25c0.01-0.09,0.14-0.97,0.01-0.29c0.03-0.18,0.06-0.36,0.1-0.53
					c0.1-0.44,0.24-0.86,0.38-1.28c0.26-0.78-0.29,0.46,0.12-0.25c0.13-0.23,0.24-0.47,0.38-0.69c0.11-0.19,0.23-0.37,0.35-0.55
					c0.08-0.13,0.46-0.55,0.08-0.12c0.29-0.33,0.58-0.65,0.9-0.94c-0.01,0.01,0.63-0.54,0.29-0.27c-0.33,0.27,0.34-0.24,0.33-0.23
					c0.44-0.29,0.9-0.54,1.37-0.77c-0.11,0.05-0.53,0.18,0.02,0c0.25-0.08,0.5-0.17,0.76-0.25c0.17-0.05,0.35-0.09,0.52-0.13
					c-0.02,0,0.85-0.15,0.4-0.09c-0.45,0.07,0.44-0.03,0.42-0.03c0.23-0.01,0.47-0.02,0.7-0.01c0.23,0,0.46,0.02,0.69,0.03
					c0.71,0.03-0.34-0.11,0.28,0.04c0.52,0.13,1.03,0.26,1.55,0.43c0.79,0.26-0.31-0.17,0.13,0.06c0.27,0.14,0.55,0.28,0.81,0.43
					c0.15,0.09,0.3,0.18,0.44,0.28c0.14,0.1,0.29,0.2,0.43,0.3c-0.26-0.2-0.26-0.19,0,0.02c0.31,0.31,0.61,0.61,0.92,0.92
					c0.57,0.58-0.27-0.46,0.18,0.21c0.15,0.22,0.29,0.43,0.43,0.66c0.13,0.23,0.25,0.46,0.38,0.69c0.31,0.54-0.1-0.39,0.12,0.25
					c0.17,0.51,0.3,1.02,0.43,1.55c0.03,0.12,0.08,0.58,0.02,0.01C442.98,229.26,442.99,229.63,443,230c0.02,1.57,1.36,3.07,3,3
					c1.61-0.07,3.02-1.32,3-3c-0.08-5.51-3.48-10.29-8.62-12.23c-4.92-1.86-10.94-0.26-14.27,3.81c-3.48,4.25-4.15,10.27-1.29,15.06
					c2.85,4.77,8.36,7.07,13.76,6.1c6.05-1.09,10.34-6.72,10.42-12.73c0.02-1.57-1.4-3.07-3-3C444.36,227.07,443.02,228.32,443,230z
					"/>
			</g>
		</g>
		<g>
			<g>
				<path class="st8" d="M289.88,260.88c-3.82,2.99-7.65,5.99-11.47,8.98c-9.18,7.18-18.36,14.37-27.54,21.55
					c-11.06,8.66-22.13,17.32-33.19,25.98c-9.56,7.48-19.12,14.96-28.67,22.44c-3.13,2.45-6.27,4.91-9.4,7.36
					c-1.5,1.17-3.09,2.29-4.52,3.54c-0.06,0.05-0.13,0.1-0.19,0.15c-1.28,1-1.05,3.19,0,4.24c1.26,1.26,2.96,1,4.24,0
					c3.82-2.99,7.65-5.99,11.47-8.98c9.18-7.18,18.36-14.37,27.54-21.55c11.06-8.66,22.13-17.32,33.19-25.98
					c9.56-7.48,19.12-14.96,28.67-22.44c3.13-2.45,6.27-4.91,9.4-7.36c1.5-1.17,3.09-2.29,4.52-3.54c0.06-0.05,0.13-0.1,0.19-0.15
					c1.28-1,1.05-3.19,0-4.24C292.86,259.62,291.16,259.88,289.88,260.88L289.88,260.88z"/>
			</g>
		</g>
		<g>
			<g>
				<path class="st8" d="M343.69,108.15c-0.61,6.61,0.16,13.36,2.19,19.68c0.48,1.49,2.1,2.61,3.69,2.1
					c1.49-0.48,2.61-2.09,2.1-3.69c-1.92-5.99-2.55-11.77-1.97-18.08c0.14-1.57-1.48-3.07-3-3
					C344.94,105.23,343.84,106.47,343.69,108.15L343.69,108.15z"/>
			</g>
		</g>
		<g>
			<g>
				<path class="st8" d="M442.18,240.86c6.35,4.3,14.29,5.72,21.78,4.23c1.59-0.32,2.5-2.21,2.1-3.69c-0.46-1.66-2.1-2.41-3.69-2.1
					c-1.38,0.27-2.65,0.41-4.35,0.4c-1.78-0.01-2.85-0.13-4.35-0.44c-3.26-0.68-5.68-1.7-8.46-3.59c-1.34-0.91-3.32-0.26-4.1,1.08
					C440.24,238.24,440.84,239.95,442.18,240.86L442.18,240.86z"/>
			</g>
		</g>
		<g>
			<g>
				<path class="st8" d="M358.63,157.86c4.17,11.29,10.05,21.71,17.46,31.18c7.03,8.99,15.33,16.92,24.21,24.07
					c5.21,4.2,10.61,8.18,16.12,11.99c1.33,0.92,3.33,0.25,4.1-1.08c0.87-1.49,0.26-3.18-1.08-4.1
					c-18.15-12.58-35.36-27.19-46.75-46.33c-3.28-5.51-6.06-11.31-8.28-17.32c-0.56-1.52-2.03-2.55-3.69-2.1
					C359.26,154.57,358.06,156.33,358.63,157.86L358.63,157.86z"/>
			</g>
		</g>
		<g>
			<g>
				<path class="st8" d="M175.49,205.41c-4.95,3.79-9.9,7.57-14.85,11.36c-0.72,0.55-1.43,1.09-2.15,1.64
					c-1.24,0.95-2.03,2.63-1.08,4.1c0.79,1.23,2.77,2.1,4.1,1.08c4.95-3.79,9.9-7.57,14.85-11.36c0.72-0.55,1.43-1.09,2.15-1.64
					c1.24-0.95,2.03-2.63,1.08-4.1C178.8,205.26,176.82,204.39,175.49,205.41L175.49,205.41z"/>
			</g>
		</g>
		<g>
			<g>
				<path class="st8" d="M169.49,221.41c-3.21,2.34-6.42,4.67-9.63,7.01c-0.46,0.33-0.91,0.66-1.37,0.99
					c-0.65,0.47-1.16,0.99-1.38,1.79c-0.2,0.72-0.11,1.67,0.3,2.31c0.81,1.25,2.75,2.06,4.1,1.08c3.21-2.34,6.42-4.67,9.63-7.01
					c0.46-0.33,0.91-0.66,1.37-0.99c0.65-0.47,1.16-0.99,1.38-1.79c0.2-0.72,0.11-1.67-0.3-2.31
					C172.78,221.23,170.84,220.42,169.49,221.41L169.49,221.41z"/>
			</g>
		</g>
		<g>
			<g>
				<path class="st8" d="M338,244c-0.06,10.38-6.69,20.05-16.44,23.51c-10.1,3.58-21.14,0.5-27.99-7.75
					c-6.55-7.89-7.34-19.75-1.99-28.65c5.32-8.85,16.04-13.66,26.1-11.67c5.83,1.15,10.69,4.04,14.54,8.57
					C335.91,232.34,337.96,238.19,338,244c0.02,3.86,6.02,3.87,6,0c-0.08-13.03-8.32-24.69-20.54-29.18
					c-11.98-4.41-26.15-0.55-34.24,9.31c-8.27,10.08-9.59,24.55-2.82,35.8c6.76,11.23,20.06,16.98,32.87,14.43
					c12.29-2.44,22.37-12.84,24.29-25.25c0.26-1.69,0.43-3.39,0.44-5.1C344.02,240.14,338.02,240.13,338,244z"/>
			</g>
		</g>
		<g>
			<g>
				<path class="st8" d="M300.88,388.88c-3.12,2.75-6.25,5.5-9.37,8.25c-0.44,0.39-0.88,0.78-1.33,1.17c-1.18,1.04-1.14,3.19,0,4.24
					c1.26,1.16,2.98,1.11,4.24,0c3.12-2.75,6.25-5.5,9.37-8.25c0.44-0.39,0.88-0.78,1.33-1.17c1.18-1.04,1.14-3.19,0-4.24
					C303.86,387.72,302.14,387.77,300.88,388.88L300.88,388.88z"/>
			</g>
		</g>
		<g>
			<g>
				<path class="st8" d="M321.88,383.88c-6.05,5.39-12.1,10.77-18.16,16.16c-0.85,0.75-1.69,1.51-2.54,2.26
					c-1.21,1.08-1.1,3.14,0,4.24c1.2,1.2,3.03,1.08,4.24,0c6.05-5.39,12.1-10.77,18.16-16.16c0.85-0.75,1.69-1.51,2.54-2.26
					c1.21-1.08,1.1-3.14,0-4.24C324.92,382.68,323.09,382.8,321.88,383.88L321.88,383.88z"/>
			</g>
		</g>
		<g>
			<g>
				<path class="st8" d="M161.12,327.84c-6.77-8.82-13.54-17.64-20.3-26.47c-0.94-1.23-1.88-2.46-2.83-3.68
					c-0.36,1.37-0.72,2.74-1.08,4.1c3.12-2.39,6.24-4.79,9.36-7.18c7.17-5.5,14.34-11,21.51-16.5c7.93-6.08,15.85-12.16,23.78-18.24
					c5.4-4.15,10.81-8.29,16.21-12.44c1.22-0.94,2.42-1.93,3.73-2.74c5.6-3.46,12.47-3.18,17.89,0.65c0.51,0.36,1.05,0.82,1.64,1.39
					c0.29,0.28,0.58,0.58,0.85,0.88c0.17,0.19,1.14,1.39,0.55,0.62c0.99,1.31,1.99,3.02,2.46,4.29c0.29,0.79,0.53,1.6,0.71,2.43
					c0.23,1.04,0.25,1.22,0.31,2.18c0.11,1.81,0,3.12-0.35,4.64c-0.74,3.21-2.27,5.93-4.69,8.21c-0.3,0.28-0.61,0.55-0.92,0.82
					c-0.63,0.54-0.05,0.05,0.04-0.02c-0.03,0.02-0.05,0.04-0.08,0.06c-0.13,0.1-0.27,0.21-0.4,0.31c-4.26,3.27-8.53,6.54-12.79,9.81
					c-7.61,5.84-15.22,11.67-22.82,17.51c-7.66,5.88-15.32,11.76-22.98,17.63c-4.43,3.4-8.86,6.8-13.29,10.19
					c-0.21,0.16-0.41,0.32-0.62,0.48c-1.28,0.98-1.97,2.58-1.08,4.1c0.74,1.26,2.81,2.07,4.1,1.08c3.24-2.48,6.47-4.97,9.71-7.45
					c7.38-5.66,14.76-11.33,22.14-16.99c8.03-6.16,16.06-12.32,24.09-18.48c5.18-3.98,10.37-7.96,15.55-11.93
					c2.21-1.7,4.32-3.4,6.02-5.65c4.55-6,5.66-14.34,2.81-21.31c-3.01-7.34-9.65-12.58-17.54-13.63
					c-5.71-0.76-11.56,0.76-16.15,4.27c-3.98,3.04-7.95,6.1-11.93,9.15c-7.66,5.88-15.33,11.76-22.99,17.64
					c-7.86,6.03-15.72,12.06-23.57,18.08c-4.55,3.49-9.1,6.98-13.65,10.47c-0.22,0.17-0.44,0.34-0.66,0.51
					c-1.16,0.89-2.16,2.69-1.08,4.1c6.77,8.82,13.54,17.64,20.3,26.47c0.94,1.23,1.88,2.46,2.83,3.68c0.98,1.28,2.58,1.97,4.1,1.08
					C161.31,331.21,162.11,329.14,161.12,327.84z"/>
			</g>
		</g>
		<g>
			<g>
				<path class="st8" d="M205.8,244.72c6.77,8.82,13.54,17.64,20.3,26.47c0.94,1.23,1.88,2.46,2.83,3.68
					c0.98,1.28,2.58,1.97,4.1,1.08c1.26-0.74,2.07-2.81,1.08-4.1c-6.77-8.82-13.54-17.64-20.3-26.47c-0.94-1.23-1.88-2.46-2.83-3.68
					c-0.98-1.28-2.58-1.97-4.1-1.08C205.62,241.36,204.81,243.43,205.8,244.72L205.8,244.72z"/>
			</g>
		</g>
		<g>
			<g>
				<path class="st8" d="M193.11,254.46c6.76,8.81,13.52,17.62,20.28,26.44c0.95,1.24,1.9,2.48,2.85,3.71
					c0.98,1.28,2.58,1.97,4.1,1.08c1.26-0.74,2.07-2.81,1.08-4.1c-6.76-8.81-13.52-17.62-20.28-26.44c-0.95-1.24-1.9-2.48-2.85-3.71
					c-0.98-1.28-2.58-1.97-4.1-1.08C192.92,251.1,192.12,253.17,193.11,254.46L193.11,254.46z"/>
			</g>
		</g>
		<g>
			<g>
				<path class="st8" d="M181.21,263.59c6.76,8.81,13.52,17.62,20.28,26.44c0.95,1.24,1.9,2.48,2.85,3.71
					c0.98,1.28,2.58,1.97,4.1,1.08c1.26-0.74,2.07-2.81,1.08-4.1c-6.76-8.81-13.52-17.62-20.28-26.44c-0.95-1.24-1.9-2.48-2.85-3.71
					c-0.98-1.28-2.58-1.97-4.1-1.08C181.02,260.23,180.22,262.3,181.21,263.59L181.21,263.59z"/>
			</g>
		</g>
		<g>
			<g>
				<path class="st8" d="M170.1,272.11c6.76,8.81,13.52,17.62,20.28,26.44c0.95,1.24,1.9,2.48,2.85,3.71
					c0.98,1.28,2.58,1.97,4.1,1.08c1.26-0.74,2.07-2.81,1.08-4.1c-6.76-8.81-13.52-17.62-20.28-26.44c-0.95-1.24-1.9-2.48-2.85-3.71
					c-0.98-1.28-2.58-1.97-4.1-1.08C169.91,268.75,169.11,270.82,170.1,272.11L170.1,272.11z"/>
			</g>
		</g>
		<g>
			<g>
				<path class="st8" d="M158.2,281.24c6.77,8.82,13.54,17.64,20.3,26.47c0.94,1.23,1.88,2.46,2.83,3.68
					c0.98,1.28,2.58,1.97,4.1,1.08c1.26-0.74,2.07-2.81,1.08-4.1c-6.77-8.82-13.54-17.64-20.3-26.47c-0.94-1.23-1.88-2.46-2.83-3.68
					c-0.98-1.28-2.58-1.97-4.1-1.08C158.01,277.88,157.21,279.95,158.2,281.24L158.2,281.24z"/>
			</g>
		</g>
		<g>
			<g>
				<path class="st8" d="M145.5,290.98c6.76,8.81,13.52,17.62,20.28,26.44c0.95,1.24,1.9,2.48,2.85,3.71
					c0.98,1.28,2.58,1.97,4.1,1.08c1.26-0.74,2.07-2.81,1.08-4.1c-6.76-8.81-13.52-17.62-20.28-26.44c-0.95-1.24-1.9-2.48-2.85-3.71
					c-0.98-1.28-2.58-1.97-4.1-1.08C145.32,287.62,144.51,289.69,145.5,290.98L145.5,290.98z"/>
			</g>
		</g>
		<g>
			<g>
				<path class="st8" d="M220.64,402.91c-6.86-8.75-13.72-17.5-20.58-26.25c-0.95-1.22-1.91-2.44-2.86-3.65c0,1.41,0,2.83,0,4.24
					c3.1-2.43,6.19-4.85,9.29-7.28c7.11-5.57,14.23-11.15,21.34-16.72c7.86-6.16,15.73-12.33,23.59-18.49
					c5.36-4.2,10.72-8.4,16.08-12.6c0.56-0.44,1.11-0.87,1.67-1.31c0.13-0.1,0.25-0.2,0.38-0.3c0.02-0.02,0.04-0.03,0.07-0.05
					c-0.67,0.52-0.2,0.15-0.03,0.04c0.44-0.3,0.87-0.6,1.32-0.88c5.61-3.4,12.49-3.05,17.88,0.81c0.36,0.26,1.12,0.92,1.63,1.41
					c0.29,0.29,0.57,0.58,0.85,0.89c0.16,0.18,0.31,0.35,0.46,0.54c0.27,0.33,0.44,0.58,0.08,0.09c0.97,1.33,1.95,3.02,2.41,4.29
					c0.29,0.79,0.52,1.6,0.69,2.43c0.2,0.94,0.23,1.14,0.29,2.18c0.1,1.81-0.02,3.12-0.39,4.64c-0.95,3.98-3.13,6.98-6.47,9.6
					c-4.23,3.31-8.46,6.63-12.69,9.94c-7.55,5.92-15.09,11.83-22.64,17.75c-7.6,5.96-15.2,11.91-22.8,17.87
					c-4.39,3.44-8.79,6.89-13.18,10.33c-0.21,0.16-0.41,0.32-0.62,0.48c-1.28,1-1.05,3.19,0,4.24c1.26,1.26,2.96,1,4.24,0
					c3.21-2.52,6.42-5.03,9.63-7.55c7.32-5.74,14.64-11.48,21.97-17.22c7.97-6.24,15.93-12.49,23.9-18.73
					c5.14-4.03,10.29-8.06,15.43-12.09c2.09-1.64,3.99-3.34,5.57-5.51c4.59-6.28,5.19-14.74,2.1-21.78
					c-3.17-7.2-10.18-11.99-17.92-12.83c-5.9-0.64-11.54,1.35-16.15,4.95c-3.95,3.08-7.89,6.18-11.83,9.27
					c-7.6,5.96-15.21,11.92-22.81,17.88c-7.79,6.11-15.59,12.22-23.38,18.33c-4.51,3.54-9.03,7.07-13.54,10.61
					c-0.22,0.17-0.44,0.34-0.66,0.52c-1.38,1.08-0.9,3.1,0,4.24c6.86,8.75,13.72,17.5,20.58,26.25c0.95,1.22,1.91,2.44,2.86,3.65
					c1,1.28,3.19,1.05,4.24,0C221.9,405.89,221.64,404.19,220.64,402.91z"/>
			</g>
		</g>
		<g>
			<g>
				<path class="st8" d="M265.37,320.49c6.85,8.74,13.7,17.48,20.55,26.22c0.96,1.23,1.92,2.46,2.89,3.68c1,1.28,3.19,1.05,4.24,0
					c1.26-1.26,1-2.96,0-4.24c-6.85-8.74-13.7-17.48-20.55-26.22c-0.96-1.23-1.92-2.46-2.89-3.68c-1-1.28-3.19-1.05-4.24,0
					C264.11,317.51,264.36,319.21,265.37,320.49L265.37,320.49z"/>
			</g>
		</g>
		<g>
			<g>
				<path class="st8" d="M252.77,330.36c6.85,8.74,13.7,17.48,20.55,26.22c0.96,1.23,1.92,2.46,2.89,3.68c1,1.28,3.19,1.05,4.24,0
					c1.26-1.26,1-2.96,0-4.24c-6.85-8.74-13.7-17.48-20.55-26.22c-0.96-1.23-1.93-2.46-2.89-3.68c-1-1.28-3.19-1.05-4.24,0
					C251.51,327.38,251.77,329.08,252.77,330.36L252.77,330.36z"/>
			</g>
		</g>
		<g>
			<g>
				<path class="st8" d="M240.97,339.61c6.85,8.74,13.7,17.48,20.55,26.22c0.96,1.23,1.93,2.46,2.89,3.68c1,1.28,3.19,1.05,4.24,0
					c1.26-1.26,1-2.96,0-4.24c-6.85-8.74-13.7-17.48-20.55-26.22c-0.96-1.23-1.93-2.46-2.89-3.68c-1-1.28-3.19-1.05-4.24,0
					C239.71,336.63,239.96,338.33,240.97,339.61L240.97,339.61z"/>
			</g>
		</g>
		<g>
			<g>
				<path class="st8" d="M229.95,348.25c6.85,8.74,13.7,17.48,20.55,26.22c0.96,1.23,1.93,2.46,2.89,3.68c1,1.28,3.19,1.05,4.24,0
					c1.26-1.26,1-2.96,0-4.24c-6.85-8.74-13.7-17.48-20.55-26.22c-0.96-1.23-1.92-2.46-2.89-3.68c-1-1.28-3.19-1.05-4.24,0
					C228.69,345.27,228.95,346.97,229.95,348.25L229.95,348.25z"/>
			</g>
		</g>
		<g>
			<g>
				<path class="st8" d="M218.14,357.5c6.86,8.75,13.72,17.5,20.58,26.25c0.95,1.22,1.91,2.44,2.86,3.65c1,1.28,3.19,1.05,4.24,0
					c1.26-1.26,1-2.96,0-4.24c-6.86-8.75-13.72-17.5-20.58-26.25c-0.95-1.22-1.91-2.44-2.86-3.65c-1-1.28-3.19-1.05-4.24,0
					C216.88,354.52,217.14,356.22,218.14,357.5L218.14,357.5z"/>
			</g>
		</g>
		<g>
			<g>
				<path class="st8" d="M205.55,367.37c6.85,8.74,13.7,17.48,20.55,26.22c0.96,1.23,1.93,2.46,2.89,3.68c1,1.28,3.19,1.05,4.24,0
					c1.26-1.26,1-2.96,0-4.24c-6.85-8.74-13.7-17.48-20.55-26.22c-0.96-1.23-1.93-2.46-2.89-3.68c-1-1.28-3.19-1.05-4.24,0
					C204.29,364.39,204.55,366.09,205.55,367.37L205.55,367.37z"/>
			</g>
		</g>
	</g>
</g>
<g id="雜層_2_">
	<g>
		<path class="st8" d="M550.28,453.75c-6.23-6.99-16.32-11.79-25.78-11.74c-3.35,0.02-5.2,1.78-7.7-1.26
			c-1.9-2.31-2.39-5.4-3.66-8.02c-2.88-5.94-8.56-10.34-13.85-14.04c-5.16-3.6-10.57-5.75-16.59-7.4
			c-6.25-1.71-12.53-1.93-18.95-0.77c-4.93,0.89-6.04-3.81-8.26-7.01c-2.76-3.97-6.74-6.87-10.28-10.09
			c-4.96-4.52-11.34-7.14-17.24-10.16c-6.46-3.3-13.53-5.02-20.7-5.86c-3.86-0.45-8.77,0.74-12.48,1.76
			c-5.03,1.39-7.81-0.74-10.46-4.61c-2.2-3.22-4.99-5.76-7.45-8.72c-4.67-5.61-10.5-8.89-17.07-12.15
			c-10.53-5.23-21.04-8.85-32.92-9.32c-11.54-0.46-23.37,1.82-33.67,7.13c-3.98,2.05-7.91,4.66-11.8,6.97
			c-1.54,0.92-3.23,1.95-4.78,3.15c-6.05-3.9-14.44-7.8-21.95-5.96c-13.69,3.35-25.36,6.51-32.03,13.93
			c-6.66,7.42-13.61,12.72-15.14,22.57s-2.92,6.1-2.72,16.98c0.2,10.87,1.83,15.39,1.83,15.39s-5.15-7.55-13.89-5.03
			S179,422,171,431s-15,21-17,32s0,34,9,45s20.95,19.08,30.47,19.54c9.53,0.46,16.75-1.35,16.75-1.35s4.71-5.19,8.74,6.81
			c4.04,12,10.18,18.04,20.11,22.52c9.93,4.48,17.98,7.72,28.45,6.6c10.48-1.12,14.2-2.8,14.2-2.8S290,563,294,564
			c0,1.42,19.81,6.05,21.64,6.5c12.04,2.99,22.24,0.69,34.23-1.3c10.21-1.7,19.03-9.39,25.24-17.31c1.51-1.93,3.24-4.91,6.07-3.54
			c8.3,4.02,15.67,5.48,24.78,5.4c5.73-0.05,11.36-1.13,16.63-3.41c7.17-3.09,16.88-8.16,21.11-15.03c2.03-3.3,3.17-7.96,6.53-10.2
			c6.25-4.18,11.38,3.86,16.4,5.86c14.89,5.95,33.91,2.01,43.77-11.02c2.25-2.98,2.89-9.05,6.67-10.64
			c2.09-0.88,4.32,0.51,6.46,0.68c7.89,0.63,15.57,0.2,22.24-4.45C562.26,494.04,563.3,468.35,550.28,453.75z"/>
		<g>
			<g>
				<g>
					<path class="st8" d="M273.95,370.91c6.33-11.8,19.56-17.52,31.98-20.5c14.83-3.56,30.6-3.4,45.05,1.72
						c7.48,2.65,14.4,6.74,20.36,11.98c3.03,2.66,5.85,5.57,8.38,8.71c1.64,2.03,2.64,4.38,4.15,6.5c0.83,1.16,1.74,2.31,3.02,3
						c1.92,1.05,3.6,0.36,5.52-0.26c3.88-1.24,7.82-2.05,11.9-2.12c6.56-0.11,13.03,1.28,19.16,3.54
						c14.11,5.21,27.88,15.84,33.86,29.96c0.68,1.61,2.78,1.65,4.1,1.08c1.07-0.46,2.15-1.04,3.26-1.4c0.62-0.2-0.43,0.04,0.17,0.02
						c0.61-0.02,1.32-0.31,1.92-0.4c1.17-0.18,2.35-0.24,3.53-0.26c4.95-0.08,9.96,0.71,14.71,2.08
						c8.82,2.55,16.72,8.09,22.35,15.34c3.25,4.19,5.71,8.97,7.22,14.04c0.47,1.58,2.09,2.5,3.69,2.1
						c12.33-3.11,25.17,2.24,31.83,13c6.76,10.93,8.16,25.57,0.39,36.35c-3.44,4.77-8.6,8.51-14.18,10.35
						c-2.88,0.95-5.83,1.43-8.86,1.34c-1.32-0.04-2.65-0.15-3.94-0.47c-1.64-0.41-3.22-0.97-4.93-1.07
						c-4.12-0.25-6.19,3.02-7.58,6.39c-0.94,2.29-2.41,4.66-3.83,6.37c-3.3,3.98-7.23,6.81-12.04,8.84
						c-8.74,3.69-19.7,3.79-28.41-0.01c-2.37-1.03-4.65-2.34-6.71-3.91c-0.6-0.46-1.74-1.46-2.5-2.19
						c-1.29-1.24-2.69-2.38-4.58-2.27c-2.34,0.14-3.35,2-4.18,3.9c-0.64,1.47-1.37,2.9-2.16,4.29c-1.57,2.72-3.42,5.25-5.56,7.55
						c-8.79,9.47-21.44,14.58-34.16,15.79c-6.38,0.61-13.21,0.38-19.18-2.18c-3.36-1.44-6.85-3.51-10.51-1.61
						c-3.05,1.58-4.63,5.17-7,7.54c-8.71,8.67-21.15,13.04-33.19,14.27c-6.08,0.62-12.37,0.59-18.38-0.32
						c-7.44-1.13-14.42-3.86-21.27-6.88c-3.57-1.58-7.12-3.18-10.73-4.66c-1.5-0.62-3.3,0.67-3.69,2.1
						c-0.47,1.72,0.59,3.07,2.1,3.69c7.48,3.09,14.72,6.79,22.44,9.28c6.71,2.16,13.77,3.14,20.81,3.21
						c13.18,0.14,26.97-2.83,38.15-10.04c2.75-1.78,5.37-3.82,7.72-6.11c1.26-1.23,2.36-2.54,3.4-3.95c0.65-0.89,1.6-2.65,2.74-2.89
						c1.11-0.23,2.69,0.78,3.64,1.23c1.62,0.77,3.29,1.44,5.01,1.95c3.46,1.03,7.11,1.5,10.71,1.63
						c13.92,0.49,28.67-3.82,39.71-12.39c5.32-4.13,9.86-9.32,13.05-15.27c0.41-0.76,0.79-1.52,1.15-2.3c0.23-0.49,1.12-1.87,1-2.3
						c0.25,0.85-1.93,0.16-2.06,0.31c0.06-0.07,0.57,0.49,0.54,0.46c0.55,0.5,1.07,1.03,1.63,1.51c2.11,1.83,4.42,3.44,6.9,4.74
						c9.94,5.21,22.08,6.04,32.72,2.54c5.31-1.74,10.25-4.52,14.35-8.33c2.1-1.95,3.95-4.19,5.49-6.6c0.72-1.12,1.37-2.28,1.9-3.51
						c0.48-1.11,0.98-3.27,2.08-3.96c-0.5,0.31,0.26,0.09,0.44,0.11c0.78,0.08,1.56,0.36,2.31,0.57c1.62,0.46,3.26,0.73,4.94,0.88
						c3.25,0.29,6.58-0.03,9.74-0.79c6.59-1.58,12.75-5.31,17.32-10.3c9.81-10.71,11.13-26.21,5.7-39.35
						c-2.78-6.72-6.97-12.67-12.9-16.95c-5.5-3.98-12.26-6.16-19.02-6.42c-3.35-0.13-6.73,0.27-9.97,1.09
						c1.23,0.7,2.46,1.4,3.69,2.1c-3.09-10.34-9.56-19.27-18.15-25.76c-8.65-6.53-19.49-9.83-30.27-10.11
						c-3.27-0.08-6.98,0.04-10.03,1.34c-1.18,0.5-2.35,1.01-3.52,1.51c1.37,0.36,2.74,0.72,4.1,1.08
						c-5.68-13.41-18.16-23.89-31.08-30.03c-6.64-3.16-13.66-5.31-20.97-6.14c-3.71-0.42-7.43-0.42-11.13,0.08
						c-2.2,0.29-4.37,0.74-6.51,1.34c-1.01,0.28-2.01,0.6-3.01,0.93c0.06-0.02-0.97,0.37-1,0.35c0.03,0.03,0.53-0.01,0.6,0
						c0.21,0.02,0.32,0.12,0.51,0.18c-0.27-0.09-0.18-0.12,0.01,0.07c-0.44-0.44-0.72-0.7-0.88-0.92c-0.41-0.57-0.78-1.18-1.13-1.79
						c-0.56-0.97-1.04-1.99-1.66-2.92c-2.36-3.52-5.38-6.74-8.44-9.66c-6.22-5.94-13.37-10.71-21.3-14.04
						c-15.33-6.45-32.54-7.3-48.74-4.02c-13.53,2.74-27.64,8.3-36.22,19.64c-1.05,1.39-1.98,2.85-2.8,4.38
						C266.94,371.28,272.12,374.32,273.95,370.91L273.95,370.91z"/>
				</g>
			</g>
			<g>
				<path class="st8" d="M391.39,377.61c1.64,3.69,2.65,7.58,3.11,11.45c0.47,3.87,0.41,7.74-0.06,11.5
					c-0.96,7.53-3.49,14.68-7.19,21.01c2.66-6.83,3.93-14.1,3.7-21.17c-0.24-7.06-2.1-13.96-5.73-19.49L391.39,377.61z"/>
			</g>
			<g>
				<path class="st8" d="M463.73,410.65c0.64,3.19,1.12,6.43,1.32,9.72c0.19,3.28,0.09,6.6-0.49,9.86c-0.57,3.25-1.67,6.41-3.3,9.21
					c-1.63,2.81-3.79,5.21-6.24,7.16c2.05-2.37,3.65-5.05,4.66-7.9c1.01-2.84,1.44-5.82,1.4-8.78c-0.09-5.93-1.81-11.71-4.05-17.27
					L463.73,410.65z"/>
			</g>
			<g>
				<path class="st8" d="M375.18,548.36c4.39-6.63,7.91-14.02,10.29-21.79c1.18-3.89,2.05-7.89,2.51-11.96
					c0.45-4.07,0.48-8.21-0.13-12.33c1.18,3.99,1.75,8.18,1.88,12.4c0.12,4.22-0.19,8.46-0.84,12.66
					c-1.33,8.4-3.89,16.62-7.61,24.46L375.18,548.36z"/>
			</g>
			<g>
				<path class="st8" d="M449.54,521.18c2.54-5.45,4.65-11.06,5.36-16.96c0.36-2.94,0.32-5.95-0.18-8.93
					c-0.5-2.98-1.47-5.93-2.83-8.73c1.85,2.49,3.41,5.27,4.52,8.27c1.11,3,1.77,6.21,1.99,9.45c0.45,6.52-0.69,13.04-2.26,19.24
					L449.54,521.18z"/>
			</g>
			<g>
				<path class="st8" d="M520.48,439.65c0.89,5.1,0.88,10.36-0.29,15.28c-1.14,4.93-3.5,9.45-6.7,13.01
					c2.24-4.24,3.29-8.89,3.22-13.41c-0.06-4.53-1.18-8.9-2.96-12.91L520.48,439.65z"/>
			</g>
			<g>
				<path class="st8" d="M358.47,430.02c2.04-2.65,4.7-4.85,7.58-6.66c2.9-1.78,6.04-3.19,9.29-4.25c1.63-0.51,3.26-0.98,4.96-1.32
					c1.73-0.3,3.48-0.62,5.25-0.63c1.77-0.16,3.53,0.08,5.3,0.19c0.88,0.13,1.74,0.32,2.61,0.47c0.43,0.09,0.87,0.15,1.3,0.27
					l1.27,0.38c0.84,0.28,1.7,0.48,2.52,0.83l2.44,1.03c0.81,0.35,1.55,0.83,2.33,1.24l1.15,0.64c0.38,0.22,0.73,0.49,1.09,0.74
					c2.96,1.91,5.49,4.41,7.67,7.11c2.23,2.69,3.78,5.86,5,9.05c1.12,3.25,1.62,6.66,1.54,9.99c-1.03-3.19-2.12-6.23-3.77-8.97
					c-0.35-0.71-0.85-1.35-1.26-2.02l-0.65-0.99c-0.22-0.33-0.49-0.62-0.73-0.93l-1.47-1.83l-1.61-1.7
					c-2.23-2.16-4.59-4.19-7.28-5.71c-2.64-1.56-5.43-2.89-8.38-3.69l-1.09-0.34c-0.37-0.1-0.75-0.16-1.12-0.24l-2.24-0.45
					c-1.51-0.14-3.03-0.4-4.55-0.34c-1.53-0.1-3.05,0.12-4.58,0.23c-1.55,0.18-3.14,0.46-4.7,0.77
					C370.1,424.18,364.01,426.3,358.47,430.02z"/>
			</g>
			<g>
				<path class="st8" d="M457.81,462.77c1.7,2.23,2.77,4.99,3.21,7.88c0.42,2.89,0.18,5.9-0.57,8.76c-0.38,1.43-0.86,2.83-1.49,4.17
					c-0.59,1.34-1.32,2.66-2.18,3.91c-1.69,2.5-3.87,4.63-6.26,6.4c-4.81,3.52-10.6,5.47-16.36,5.89
					c-5.76,0.41-11.5-0.55-16.62-2.78c5.57,0.19,10.96-0.02,16.08-1.12c5.1-1.07,9.89-3.07,13.96-6.03
					c2.03-1.47,3.86-3.19,5.38-5.14c0.77-0.95,1.44-2.01,2.08-3.12c0.64-1.1,1.2-2.24,1.69-3.41
					C458.69,473.48,459.32,468.16,457.81,462.77z"/>
			</g>
			<g>
				<g>
					<path class="st8" d="M383,546c8.46,0,16.91,0,25.37,0c1.21,0,2.42,0,3.63,0c3.86,0,3.87-6,0-6c-8.46,0-16.91,0-25.37,0
						c-1.21,0-2.42,0-3.63,0C379.14,540,379.13,546,383,546L383,546z"/>
				</g>
			</g>
			<g>
				<g>
					<path class="st8" d="M387,536c5.55,0,11.1,0,16.65,0c0.78,0,1.57,0,2.35,0c1.57,0,3.07-1.38,3-3c-0.07-1.63-1.32-3-3-3
						c-5.55,0-11.1,0-16.65,0c-0.78,0-1.57,0-2.35,0c-1.57,0-3.07,1.38-3,3C384.07,534.63,385.32,536,387,536L387,536z"/>
				</g>
			</g>
			<g>
				<g>
					<path class="st8" d="M390,527c3.5,0,7.01,0,10.51,0c0.5,0,0.99,0,1.49,0c1.57,0,3.07-1.38,3-3c-0.07-1.63-1.32-3-3-3
						c-3.5,0-7.01,0-10.51,0c-0.5,0-0.99,0-1.49,0c-1.57,0-3.07,1.38-3,3C387.07,525.63,388.32,527,390,527L390,527z"/>
				</g>
			</g>
			<g>
				<g>
					<path class="st8" d="M391,517c2.04,0,4.09,0,6.13,0c0.29,0,0.58,0,0.87,0c0.77,0,1.58-0.33,2.12-0.88
						c0.52-0.52,0.91-1.37,0.88-2.12c-0.07-1.63-1.32-3-3-3c-2.04,0-4.09,0-6.13,0c-0.29,0-0.58,0-0.87,0
						c-0.77,0-1.58,0.33-2.12,0.88c-0.52,0.52-0.91,1.37-0.88,2.12C388.07,515.63,389.32,517,391,517L391,517z"/>
				</g>
			</g>
			<g>
				<g>
					<path class="st8" d="M454,524c8.46,0,16.91,0,25.37,0c1.21,0,2.42,0,3.63,0c3.86,0,3.87-6,0-6c-8.46,0-16.91,0-25.37,0
						c-1.21,0-2.42,0-3.63,0C450.14,518,450.13,524,454,524L454,524z"/>
				</g>
			</g>
			<g>
				<g>
					<path class="st8" d="M458,514c5.55,0,11.1,0,16.65,0c0.78,0,1.57,0,2.35,0c1.57,0,3.07-1.38,3-3c-0.07-1.63-1.32-3-3-3
						c-5.55,0-11.1,0-16.65,0c-0.78,0-1.57,0-2.35,0c-1.57,0-3.07,1.38-3,3C455.07,512.63,456.32,514,458,514L458,514z"/>
				</g>
			</g>
			<g>
				<g>
					<path class="st8" d="M458,505c3.5,0,7.01,0,10.51,0c0.5,0,0.99,0,1.49,0c1.57,0,3.07-1.38,3-3c-0.07-1.63-1.32-3-3-3
						c-3.5,0-7.01,0-10.51,0c-0.5,0-0.99,0-1.49,0c-1.57,0-3.07,1.38-3,3C455.07,503.63,456.32,505,458,505L458,505z"/>
				</g>
			</g>
			<g>
				<g>
					<path class="st8" d="M457,495c2.04,0,4.09,0,6.13,0c0.29,0,0.58,0,0.87,0c0.77,0,1.58-0.33,2.12-0.88
						c0.52-0.52,0.91-1.37,0.88-2.12c-0.07-1.63-1.32-3-3-3c-2.04,0-4.09,0-6.13,0c-0.29,0-0.58,0-0.87,0
						c-0.77,0-1.58,0.33-2.12,0.88c-0.52,0.52-0.91,1.37-0.88,2.12C454.07,493.63,455.32,495,457,495L457,495z"/>
				</g>
			</g>
			<g>
				<g>
					<path class="st8" d="M211.46,427.14c-3.97-7.58-4.32-17.11-3.09-25.39c1.15-7.74,3.67-14.28,8.07-20.67
						c2.01-2.91,4.36-5.62,7.09-8.23c2.76-2.63,5.27-4.58,8.48-6.6c1.57-0.99,3.19-1.9,4.86-2.73c1.77-0.88,2.88-1.37,4.67-2.02
						c1.77-0.65,3.58-1.2,5.41-1.65c0.89-0.22,1.78-0.41,2.67-0.57c0.42-0.08,0.84-0.15,1.27-0.21c0.63-0.1,0.41-0.07,0.95-0.13
						c8.42-0.93,16.27,0.51,23.53,4.66c3.36,1.92,6.38-3.26,3.03-5.18c-7.22-4.13-15.53-6.14-23.84-5.7
						c-8.09,0.42-15.97,2.91-23.03,6.85c-14.21,7.93-25.35,21.85-28.49,37.97c-2.09,10.76-1.94,22.75,3.25,32.65
						c0.75,1.43,2.75,1.87,4.1,1.08C211.84,430.4,212.22,428.58,211.46,427.14L211.46,427.14z"/>
				</g>
			</g>
			<g>
				<g>
					<path class="st8" d="M212.21,507.04c-2.01,13.8,2.34,27.45,10.88,38.33c9.14,11.63,22.75,18.82,37.52,19.76
						c9.84,0.63,19.65-1.53,28.59-5.57c1.48-0.67,1.83-2.81,1.08-4.1c-0.89-1.52-2.62-1.75-4.1-1.08
						c-13.43,6.06-29.76,6.79-42.86,0.07c-10.62-5.45-19.12-15.11-23.09-26.22c-2.27-6.35-3.17-13.15-2.22-19.59
						c0.23-1.6-0.4-3.22-2.1-3.69C214.49,504.56,212.45,505.43,212.21,507.04L212.21,507.04z"/>
				</g>
			</g>
			<g>
				<g>
					<path class="st8" d="M214.15,520.69c-9.15,6.45-21.38,4.84-31.29,0.92c-10.48-4.14-18.15-13.77-22.63-23.8
						c-4.69-10.5-6-22.72-3.58-33.96c2.46-11.46,8.13-22.5,16.46-30.79c3.98-3.96,9-7.12,14.37-9.06c2.73-0.99,5.57-1.7,8.3-1.86
						c2.96-0.17,5.34,0.14,8.13,1.29c1.5,0.62,3.3-0.67,3.69-2.1c0.47-1.73-0.59-3.07-2.1-3.69c-5.5-2.28-11.84-1.79-17.44-0.14
						c-5.78,1.71-11.15,4.64-15.86,8.37c-4.84,3.83-8.83,8.83-12.12,14.02c-3.58,5.66-6.36,11.91-8.2,18.36
						c-3.55,12.42-3.1,25.92,1.33,38.06c4.33,11.88,12.4,23.16,23.78,29.15c6.15,3.24,13.31,5.06,20.24,5.48
						c6.98,0.43,14.19-1,19.97-5.07c1.32-0.93,1.94-2.62,1.08-4.1C217.49,520.46,215.48,519.75,214.15,520.69L214.15,520.69z"/>
				</g>
			</g>
		</g>
	</g>
	<g>
		<g>
			<path class="st8" d="M277.27,570.73l-159.99-59.99c-9.19-3.45-15.29-12.24-15.29-22.06V254.7c0-13.4,13.39-22.68,25.93-17.97
				l127.08,49.99c9.64,3.79,15.99,13.1,15.99,23.47v77.52c0,4.73,1.58,9.33,4.49,13.06l12.28,15.74c4.04,5.18,6.23,11.55,6.23,18.12
				v124.52C294,567.78,285.37,573.76,277.27,570.73z"/>
		</g>
		<polygon class="st8" points="119.37,234.28 156,212 153.7,245.79 		"/>
		<g>
			<g>
				<g>
					<path class="st8" d="M117.51,238.59c4.84-3.04,9.69-6.08,14.53-9.12c7.72-4.85,15.44-9.69,23.16-14.54
						c1.77-1.11,3.54-2.22,5.31-3.34c3.26-2.05,0.25-7.24-3.03-5.18c-4.84,3.04-9.69,6.08-14.53,9.12
						c-7.72,4.85-15.44,9.69-23.16,14.54c-1.77,1.11-3.54,2.22-5.31,3.34C111.22,235.46,114.23,240.65,117.51,238.59L117.51,238.59z
						"/>
				</g>
			</g>
			<g>
				<g>
					<path class="st8" d="M278.07,567.83c-7.64-2.87-15.28-5.73-22.92-8.6c-17.05-6.39-34.09-12.78-51.14-19.18
						c-17.94-6.73-35.87-13.45-53.81-20.18c-10.32-3.87-20.64-7.74-30.95-11.61c-7.78-2.92-13.69-9.62-14.21-18.16
						c-0.12-2.02-0.04-4.07-0.04-6.09c0-11.25,0-22.5,0-33.74c0-18.07,0-36.14,0-54.21c0-20.14,0-40.28,0-60.42
						c0-17.11,0-34.21,0-51.32c0-9.32,0-18.65,0-27.97c0-0.55-0.01-1.09,0-1.64c0.05-5.21,2.47-10.19,6.78-13.21
						c4.56-3.2,10.2-3.83,15.4-1.88c0.84,0.31,1.66,0.65,2.5,0.98c12.92,5.08,25.85,10.17,38.77,15.25
						c18.22,7.17,36.44,14.33,54.65,21.5c10.29,4.05,20.62,8,30.87,12.14c8.7,3.52,14.02,11.89,14.04,21.18
						c0.01,5.72,0,11.45,0,17.17c0,17.98,0,35.96,0,53.95c0,1.85-0.01,3.71,0,5.56c0.02,5.77,1.91,11.06,5.44,15.61
						c2.36,3.03,4.73,6.06,7.09,9.09c1.28,1.64,2.56,3.28,3.84,4.93c1.23,1.58,1.67,2.07,2.72,3.79c2.65,4.33,3.9,9.2,3.91,14.26
						c0,1.36,0,2.72,0,4.09c0,6.28,0,12.55,0,18.83c0,19.33,0,38.66,0,57.99c0,13.79,0,27.58,0,41.38c0,1.08,0.07,2.24-0.1,3.3
						C289.93,566.71,283.64,569.81,278.07,567.83c-3.65-1.29-5.22,4.5-1.6,5.79c7.07,2.5,15.36-0.62,18.79-7.37
						c1.32-2.6,1.74-5.35,1.74-8.22c0-4.76,0-9.52,0-14.28c0-18.73,0-37.46,0-56.18c0-15.96,0-31.93,0-47.89c0-1.5,0-3,0-4.5
						c-0.01-5.04-1.02-9.91-3.15-14.49c-1.9-4.1-4.94-7.57-7.7-11.11c-2.68-3.43-5.35-6.86-8.03-10.3c-0.07-0.1-0.66-0.87-0.38-0.49
						c-1.29-1.77-2.32-3.69-2.95-5.79c-0.56-1.85-0.78-3.69-0.79-5.62c-0.01-1.86,0-3.72,0-5.58c0-8.41,0-16.83,0-25.24
						c0-15.35,0.04-30.71,0-46.06c-0.03-11.96-7.25-22.29-18.3-26.72c-3.13-1.25-6.28-2.47-9.42-3.7
						c-15.94-6.27-31.87-12.54-47.81-18.81c-17.5-6.88-35-13.77-52.49-20.65c-4.95-1.95-9.9-3.9-14.86-5.84
						c-0.79-0.31-1.58-0.64-2.38-0.94c-6.18-2.31-13.31-1.58-18.95,1.81c-7.19,4.33-10.8,11.92-10.8,20.14c0,3.12,0,6.23,0,9.35
						c0,13.71,0,27.43,0,41.14c0,19.36,0,38.71,0,58.07c0,19.96,0,39.92,0,59.88c0,15.53,0,31.06,0,46.59c0,4.47,0,8.94,0,13.42
						c0,2.42-0.1,4.9,0.17,7.31c0.9,7.78,5.09,14.73,11.55,19.16c2.05,1.4,4.31,2.38,6.62,3.25c3.49,1.31,6.98,2.62,10.47,3.93
						c15.27,5.73,30.55,11.46,45.82,17.18c18.76,7.03,37.51,14.07,56.27,21.1c13.54,5.08,27.08,10.15,40.61,15.23
						c1.98,0.74,3.97,1.49,5.95,2.23c1.52,0.57,3.29-0.63,3.69-2.1C280.63,569.84,279.59,568.41,278.07,567.83z"/>
				</g>
			</g>
		</g>
		<g>
			<path class="st8" d="M210.78,348.73v-27.21l-17.44-7.8v22.74c0,2.11-0.47,3.47-1.42,4.09c-0.95,0.61-2.21,0.57-3.79-0.14
				s-2.84-1.8-3.77-3.26c-0.93-1.47-1.4-3.24-1.4-5.32v-22.74l-22.46-10.04c-2.85-1.28-4.97-2.86-6.35-4.77
				c-1.38-1.9-2.07-3.86-2.07-5.88c0-2.05,0.7-3.4,2.09-4.07c1.4-0.66,3.5-0.36,6.33,0.9l52.46,23.45c1.98,0.89,3.6,1.91,4.86,3.06
				c1.25,1.15,2.17,2.48,2.74,3.99c0.57,1.51,0.86,3.24,0.86,5.2v32.55c0,2.2-0.49,3.62-1.47,4.25c-0.98,0.63-2.26,0.6-3.84-0.11
				c-1.61-0.72-2.91-1.83-3.88-3.34C211.27,352.78,210.78,350.93,210.78,348.73z"/>
			<path class="st8" d="M196.5,369.69l-36.69-16.4c-2.54-1.14-4.46-2.6-5.77-4.39c-1.3-1.79-1.95-3.62-1.95-5.48
				c0-1.86,0.67-3.07,2-3.64c1.33-0.57,3.24-0.3,5.72,0.81l36.32,16.23c2.51,1.12,4.4,2.55,5.67,4.28c1.27,1.73,1.91,3.53,1.91,5.39
				s-0.64,3.11-1.91,3.75C200.53,370.89,198.76,370.71,196.5,369.69z M209.62,369.28c0-1.77,0.54-3.04,1.63-3.81
				c1.08-0.77,2.62-0.71,4.6,0.17c1.8,0.8,3.28,2.11,4.44,3.92c1.16,1.81,1.74,3.56,1.74,5.27c0,1.64-0.53,2.86-1.58,3.66
				c-1.05,0.8-2.59,0.75-4.6-0.15c-1.95-0.87-3.48-2.18-4.58-3.91C210.17,372.7,209.62,370.98,209.62,369.28z"/>
			<path class="st8" d="M196.69,394.42l-1.53-0.69c2.95,3.55,5.11,6.96,6.49,10.22c1.38,3.27,2.07,6.62,2.07,10.06
				c0,3.35-0.73,6.01-2.19,8c-1.46,1.98-3.52,3.03-6.18,3.14c-1.55,0.14-3.22-0.06-5.02-0.62c-1.8-0.56-4.09-1.46-6.88-2.7
				l-23.63-10.56c-2.54-1.14-4.46-2.58-5.77-4.32c-1.3-1.74-1.95-3.55-1.95-5.41c0-1.89,0.67-3.13,2-3.71
				c1.33-0.58,3.24-0.32,5.72,0.79l21.16,9.46c4.19,1.87,7.39,2.72,9.6,2.55c2.22-0.17,3.33-1.99,3.33-5.47
				c0-2.26-0.67-4.63-2.02-7.09c-1.35-2.46-3.2-4.66-5.56-6.58c-1.89-1.47-5.43-3.36-10.6-5.67l-15.91-7.11
				c-2.57-1.15-4.5-2.61-5.79-4.38c-1.29-1.77-1.93-3.6-1.93-5.49c0-1.83,0.67-3.03,2-3.62c1.33-0.58,3.24-0.32,5.72,0.79
				l36.69,16.4c2.42,1.08,4.22,2.41,5.42,4c1.19,1.59,1.79,3.29,1.79,5.12c0,1.12-0.26,2.01-0.79,2.67
				c-0.53,0.66-1.32,1.03-2.37,1.1C199.49,395.41,198.21,395.1,196.69,394.42z"/>
			<path class="st8" d="M159.25,455.78c-2.39-4.14-4.18-7.91-5.37-11.31c-1.19-3.4-1.79-6.88-1.79-10.45c0-3.26,0.64-5.83,1.93-7.72
				c1.29-1.89,3.03-3.01,5.23-3.36c2.2-0.35,4.59,0.05,7.16,1.2c3.47,1.55,6.43,3.98,8.88,7.27c2.45,3.3,4.09,7.05,4.93,11.27
				c0.19,0.89,0.6,3.08,1.25,6.56c0.65,3.48,1.25,6.49,1.79,9.01s1.2,5.29,1.98,8.3c3.35,1.34,5.81,1.77,7.37,1.27
				c1.56-0.49,2.35-2.62,2.35-6.37c0-3.22-0.45-5.85-1.35-7.88s-2.25-4.03-4.05-5.99c-1.8-1.97-2.98-3.32-3.56-4.05
				c-0.57-0.74-0.86-1.9-0.86-3.48c0-1.43,0.46-2.45,1.37-3.08c0.91-0.63,2.08-0.63,3.51,0.01c2.23,1,4.4,2.76,6.51,5.28
				s3.84,5.76,5.21,9.72c1.36,3.96,2.05,8.43,2.05,13.43c0,5.58-0.66,9.67-1.98,12.28c-1.32,2.6-3.4,3.93-6.25,3.97
				c-2.85,0.04-6.64-0.99-11.35-3.1c-2.98-1.33-5.5-2.47-7.58-3.41c-2.08-0.95-4.39-2-6.93-3.17c-2.39-1.07-4.88-1.78-7.46-2.15
				c-2.59-0.37-4.26-0.72-5-1.05c-1.3-0.58-2.49-1.72-3.56-3.43c-1.07-1.7-1.6-3.33-1.6-4.88c0-1.3,0.61-2.32,1.84-3.04
				C155.15,456.72,156.92,456.16,159.25,455.78z M177.62,463.15c-0.68-2.17-1.4-5.19-2.16-9.08c-0.76-3.89-1.32-6.6-1.67-8.12
				c-0.36-1.52-1.06-3.14-2.09-4.84c-1.04-1.7-2.49-2.97-4.35-3.8c-1.92-0.86-3.56-0.86-4.91-0.01c-1.35,0.85-2.02,2.46-2.02,4.82
				c0,2.51,0.55,5.07,1.65,7.69c1.1,2.62,2.52,4.81,4.26,6.58c1.92,2.01,5.09,3.99,9.49,5.96L177.62,463.15z"/>
			<path class="st8" d="M159.81,480.53l55.06,24.61c2.54,1.14,4.47,2.56,5.77,4.28c1.3,1.71,1.95,3.53,1.95,5.45
				c0,1.92-0.64,3.18-1.93,3.79c-1.29,0.6-3.22,0.33-5.79-0.82l-55.06-24.61c-2.57-1.15-4.5-2.61-5.79-4.38
				c-1.29-1.77-1.93-3.6-1.93-5.49c0-1.86,0.67-3.07,2-3.64C155.42,479.16,157.33,479.43,159.81,480.53z"/>
		</g>
	</g>
	<g>
		<path class="st8" d="M65,481c0,0-6-14,5-22s18-14,28-7s12,11,13,16s1,9,0,12s10,2,12,4s9,1,13,8s4,11,3,16s-1,5-1,5l25,16H60
			c0,0-16-2-19-15s2-25,10-29S65,481,65,481z"/>
		<g>
			<g>
				<g>
					<path class="st8" d="M165.93,526.3c-7.67-4.65-15.35-9.29-23.02-13.94c-1.1-0.67-2.2-1.33-3.31-2
						c0.46,1.13,0.92,2.26,1.38,3.39c2.18-7.19,1.28-15.16-2.61-21.6c-3.5-5.79-9.21-10.16-15.74-11.95
						c-4.37-1.2-8.92-1.19-13.33-0.19c1.13,1.47,2.26,2.94,3.39,4.41c3.1-7.08,3.27-14.85,0.19-21.96
						c-2.52-5.81-7.31-10.72-13.09-13.34c-6.13-2.78-13.19-3.32-19.6-1.16c-6.16,2.08-11.46,6.34-14.71,11.99
						c-4.3,7.46-4.52,16.35-1.19,24.21c1.13-1.47,2.26-2.94,3.39-4.41c-10.75-1.84-21.53,2.6-27.47,11.85
						c-5.6,8.7-5.49,20.48,0.33,29.05c2.87,4.22,6.86,7.62,11.56,9.63c1.81,0.78,3.81,1.55,5.8,1.66c2.65,0.14,5.33,0.08,7.98,0.1
						c11.72,0.06,23.43,0.04,35.15,0.03c13.54-0.02,27.09-0.05,40.63-0.09c7.47-0.02,14.97,0.12,22.43-0.07c0.11,0,0.23,0,0.34,0
						c3.86-0.01,3.87-6.01,0-6c-5.88,0.02-11.75,0.04-17.63,0.06c-12.76,0.04-25.52,0.07-38.27,0.09
						c-12.31,0.02-24.62,0.04-36.92,0.01c-3.73-0.01-7.46-0.02-11.19-0.07c-0.87-0.01-1.75-0.04-2.62-0.06
						c-0.98-0.02,1.14,0.33,0.01-0.04c-1.58-0.52-2.91-0.84-4.26-1.52c-4.05-2.05-7.15-5.1-9.24-9.11c-1.98-3.79-2.71-8.67-2-12.73
						c1.53-8.67,8.07-15.33,16.7-16.97c2.02-0.39,4.7-0.43,7.08-0.03c2.74,0.47,4.43-1.94,3.39-4.41c-1.28-3.02-1.72-6.37-1.48-9.63
						c0.15-2.07,0.94-5.06,1.83-6.92c2.26-4.73,5.82-8.23,10.67-10.35c4.55-1.98,10.04-2.14,14.99-0.43
						c4.57,1.58,8.61,5.01,11.05,9.32c3.02,5.32,3.64,12.2,0.98,18.27c-1.04,2.37,0.66,5.03,3.39,4.41
						c5.93-1.35,11.6-0.18,16.45,3.14c4.19,2.86,7.24,7.46,8.38,12.59c0.72,3.27,0.55,7.1-0.52,10.62
						c-0.39,1.28,0.26,2.71,1.38,3.39c7.67,4.65,15.35,9.29,23.02,13.94c1.1,0.67,2.2,1.33,3.31,2
						C166.21,533.48,169.23,528.3,165.93,526.3z"/>
				</g>
			</g>
			<g>
				<path class="st8" d="M64.07,478.21c4.41,1.42,8.2,4.04,10.95,7.37c2.75,3.31,4.37,7.43,4.4,11.41c-1.2-3.81-3.75-6.85-6.78-8.84
					c-3.03-2.01-6.54-3.03-9.85-3.06L64.07,478.21z"/>
			</g>
			<g>
				<path class="st8" d="M114.23,483.73c-1.42,2.63-3.19,5.1-5.31,7.21c-2.11,2.11-4.58,3.83-7.19,5.06
					c-2.61,1.22-5.34,2.03-8.11,2.4c-2.77,0.36-5.58,0.26-8.19-0.45c2.7,0.13,5.34-0.36,7.78-1.25c2.44-0.89,4.72-2.16,6.72-3.69
					c1.99-1.53,3.65-3.37,4.94-5.4c1.3-2.03,2.24-4.26,2.9-6.57L114.23,483.73z"/>
			</g>
		</g>
	</g>
</g>
<g id="手_8_">
	<path class="st8" d="M271,418l26,15l17,10l22,13c0,0-3,3-10,5s-9,0-9,0s-5-6-11-10s-12-3-12-3v14c0,0-3,4-13,2s-20-5-27-3
		s-15,7-15,17s0,23,11,30s19,13,33,10s23-9,31-17s9-12,14-15s31-12,31-12s10-4,11-10s-16-23-16-23s-23-25-84-61L271,418z"/>
	<g>
		<g>
			<g>
				<path class="st8" d="M343.41,448.82c-4.12,2.16-8.24,4.31-12.36,6.47c-1.79,0.94-3.55,1.92-5.34,2.86
					c-0.59,0.31-1.34,0.69-1.82,0.88c-0.38,0.15-0.78,0.28-1.18,0.39c-0.17,0.05-0.33,0.09-0.5,0.12c-0.12,0.03-0.75,0.1-0.37,0.07
					c-0.25,0.02-0.91,0-0.92,0c0.19,0.03-0.73-0.2-0.51-0.11c-0.78-0.3-1.38-0.9-1.93-1.51c-1.25-1.38-2.43-2.83-3.69-4.22
					c-2.52-2.77-5.31-5.32-8.73-6.93c-2.51-1.18-5.18-2.39-8.01-2.46c-3.29-0.09-5.99,1.99-6.76,5.2c-0.4,1.68-0.36,3.42-0.31,5.13
					c0.04,1.57,0.12,3.32-0.18,4.6c-0.05,0.23-0.25,0.87-0.27,0.91c0.07-0.15-0.55,0.8-0.16,0.34c-0.11,0.13-0.64,0.57-0.38,0.39
					c0.37-0.26-0.77,0.39-0.39,0.22c0.25-0.12-0.45,0.16-0.62,0.21c-0.31,0.09-0.63,0.16-0.94,0.23c-0.14,0.03-0.28,0.05-0.42,0.08
					c0.06-0.01,0.43-0.05,0.07-0.01c-0.4,0.04-0.8,0.07-1.2,0.09c-1.49,0.07-2.99,0-4.47-0.15c-0.34-0.03-0.68-0.07-1.02-0.11
					c-0.16-0.02-1.07-0.14-0.43-0.05c-0.55-0.08-1.1-0.16-1.65-0.25c-3.98-0.63-7.73-2.09-11.62-3.12
					c-3.96-1.05-8.04-1.46-12.06-0.51c-3.52,0.84-6.72,2.67-9.47,5c-5.6,4.73-8.89,11.73-9.59,18.97
					c-0.69,7.17,1.35,14.56,5.03,20.7c3.77,6.28,9.36,11.47,15.99,14.61c7.19,3.4,15.26,4.74,23.18,4.03
					c16.32-1.45,31.09-11,40.74-24.03c2.24-3.03,4.34-6.22,7.65-8.18c3.28-1.94,7.01-3.08,10.47-4.66c3.77-1.72,7.6-3.29,11.5-4.68
					c3.06-1.09,6.12-2.17,9.09-3.49c2.97-1.32,5.82-2.94,8.24-5.12c2.59-2.32,4.99-5.74,4.61-9.37c-0.46-4.37-3.54-7.83-6.17-11.13
					c-2.48-3.11-5.08-6.13-7.79-9.05c-10.79-11.66-23.18-21.72-36.07-30.95c-12.81-9.17-26.18-17.53-39.41-26.07
					c-1.63-1.05-3.26-2.11-4.89-3.17c-1.56-1.02-3.33-1.86-4.76-3.05c-1.24-1.04-3.02-1.22-4.24,0c-1.07,1.07-1.25,3.2,0,4.24
					c1.65,1.37,3.48,2.38,5.28,3.54c1.58,1.01,3.14,2.04,4.71,3.06c3.21,2.07,6.42,4.13,9.64,6.2c6.43,4.13,12.85,8.26,19.2,12.52
					c12.53,8.41,24.75,17.31,35.86,27.54c5.67,5.22,11.04,10.76,15.98,16.67c1.22,1.45,2.41,2.93,3.57,4.43
					c1.02,1.33,2.15,2.73,2.78,4.3c0.58,1.44,0.45,2.24-0.29,3.47c-0.19,0.31-0.38,0.61-0.6,0.89c0.22-0.3-0.24,0.28-0.31,0.36
					c-0.52,0.59-1.09,1.13-1.69,1.65c-4.08,3.53-10.08,5.2-15.42,7.15c-4.16,1.52-8.25,3.25-12.28,5.09
					c-3.33,1.52-6.88,2.59-10.04,4.46c-3.6,2.12-6.1,5.27-8.53,8.59c-2.24,3.06-4.63,5.89-7.38,8.51
					c-5.32,5.08-11.61,9.33-18.55,11.81c-13.17,4.72-29.3,3.37-39.63-6.62c-9.27-8.96-13.08-23.66-5.57-34.68
					c3.45-5.05,9.01-8.46,15.1-8.08c3.87,0.24,7.58,1.78,11.28,2.84c3.03,0.87,6.15,1.38,9.28,1.7c5.89,0.6,13.56,0.11,14.94-7.01
					c0.34-1.76,0.38-3.53,0.34-5.31c-0.02-0.83-0.05-1.65-0.04-2.48c0-0.33,0.02-0.65,0.03-0.98c0.03-0.54-0.01-0.25,0.13-0.78
					c0.04-0.14,0.08-0.28,0.12-0.41c-0.15,0.43,0.01,0,0.01,0c0-0.01,0.27-0.45,0.02-0.09c-0.21,0.29-0.02,0.01,0.05-0.04
					c0.43-0.35-0.46,0.35,0.15-0.1c0.25-0.18-0.2,0.09-0.24,0.1c0.13-0.03,0.28-0.07,0.41-0.11c0.42-0.13-0.48-0.03,0.19,0
					c0.28,0.01,0.55,0.02,0.82,0.04c-0.55-0.05-0.08,0,0.18,0.06c0.34,0.07,0.67,0.16,1.01,0.27c0.56,0.17,1.1,0.37,1.64,0.58
					c0.13,0.05,0.25,0.1,0.37,0.15c-0.51-0.21-0.08-0.03,0.02,0.01c0.31,0.14,0.63,0.28,0.94,0.43c1.29,0.6,2.54,1.26,3.66,2.15
					c2.86,2.25,5.14,5.18,7.53,7.89c2.72,3.08,6.48,4.35,10.47,3.19c3.61-1.06,6.94-3.3,10.26-5.03c3.9-2.04,7.8-4.09,11.71-6.13
					c1.43-0.75,1.87-2.75,1.08-4.1C346.67,448.44,344.85,448.07,343.41,448.82L343.41,448.82z"/>
			</g>
		</g>
		<g>
			<g>
				<path class="st8" d="M269.49,419.59c7.93,4.97,16,9.72,24.07,14.46c9.61,5.65,19.26,11.24,28.95,16.75
					c4.08,2.32,8.16,4.62,12.28,6.87c3.39,1.85,6.42-3.33,3.03-5.18c-8.22-4.47-16.33-9.15-24.43-13.83
					c-9.65-5.58-19.28-11.2-28.85-16.93c-4.02-2.41-8.04-4.83-12.01-7.32C269.23,412.35,266.22,417.54,269.49,419.59L269.49,419.59z
					"/>
			</g>
		</g>
		<g>
			<path class="st8" d="M307.24,440.95c-0.38-2.83-0.28-5.71,0.3-8.42c0.57-2.71,1.6-5.25,2.93-7.52c2.67-4.56,6.4-8.13,10.47-10.93
				c-3.31,3.67-5.94,7.9-7.27,12.35c-0.66,2.22-0.98,4.47-0.91,6.65c0.07,2.18,0.52,4.28,1.28,6.23L307.24,440.95z"/>
		</g>
		<g>
			<path class="st8" d="M319.24,445.08c1.09-2.39,2.62-4.55,4.41-6.3c1.79-1.76,3.82-3.13,5.9-4.21c4.19-2.15,8.57-3.22,12.91-4.04
				c-3.98,1.91-7.85,4.11-10.93,6.93c-1.53,1.4-2.84,2.96-3.8,4.62c-0.96,1.66-1.57,3.41-1.85,5.19L319.24,445.08z"/>
		</g>
		<g>
			<path class="st8" d="M269.02,459.72c1.19,5.06,0.78,9.89-0.14,14.43c-0.95,4.54-2.51,8.89-4.68,12.92
				c-2.16,4.01-4.85,7.72-8.15,10.8c-3.27,3.06-7.25,5.51-11.59,6.35c4.19-1.41,7.62-4.26,10.31-7.55c2.71-3.3,4.75-7.11,6.24-11.05
				c1.48-3.93,2.36-8.09,2.66-12.22c0.29-4.1-0.03-8.25-1.35-11.62L269.02,459.72z"/>
		</g>
		<g>
			<path class="st8" d="M335.03,456.6c2.42,3.11,4.68,6.41,6.45,9.95c1.77,3.53,3.03,7.32,3.37,11.1c-1.48-3.5-3.7-6.5-6.23-9.09
				c-2.54-2.6-5.4-4.83-8.41-6.88L335.03,456.6z"/>
		</g>
		<g>
			<path class="st8" d="M289.27,465.09c3.06,17.56,1.95,35.52-2.98,52.09c2.65-17.07,1.25-34.49-3.82-50.43L289.27,465.09z"/>
		</g>
		<g>
			<path class="st8" d="M296.82,455.63c4.92,5.96,9.49,12.32,13.01,19.23c3.53,6.89,5.91,14.35,6.74,21.87
				c-1.99-7.32-5.4-14.07-9.73-20.05c-4.34-6-9.53-11.28-15.07-16.2L296.82,455.63z"/>
		</g>
	</g>
</g>
<g id="_x2D_---------_10_">
</g>
<g id="環_1_">
</g>
<g id="筆_1_">
</g>
<g id="星星_1_">
</g>
<g id="星球_4_">
</g>
<g id="星球_3_">
</g>
<g id="_x2D_---------_3_">
</g>
<g id="環">
</g>
<g id="筆">
</g>
<g id="星星">
</g>
<g id="星球_2_">
</g>
<g id="星球_1_">
</g>
<g id="_x2D_---------_2_">
</g>
<g id="圓餅">
</g>
<g id="方形">
</g>
<g id="三角">
</g>
<g id="手_1_">
</g>
<g id="尺">
</g>
<g id="量角器">
</g>
<g id="_x2D_---------_1_">
</g>
<g id="互動方塊_1_">
</g>
<g id="梯子_2_">
</g>
<g id="齒輪_1_">
</g>
<g id="手_2_">
</g>
<g id="雲_1_">
</g>
<g id="_x2D_---------">
</g>
<g id="塗鴉路徑">
</g>
<g id="手">
</g>
<g id="星球">
</g>
<g id="鉛筆">
</g>
<g id="參考線" class="st12">
</g>
</svg>
