<?xml version="1.0" encoding="utf-8"?>
<!-- Generator: Adobe Illustrator 24.1.2, SVG Export Plug-In . SVG Version: 6.00 Build 0)  -->
<svg version="1.1" xmlns="http://www.w3.org/2000/svg" xmlns:xlink="http://www.w3.org/1999/xlink" x="0px" y="0px"
	 viewBox="0 0 600 600" style="enable-background:new 0 0 600 600;" xml:space="preserve">
<style type="text/css">
	.st0{fill:#F5F5F5;}
	.st1{fill:#505050;}
	.st2{fill:none;stroke:#505050;stroke-width:3;stroke-miterlimit:10;}
	.st3{fill:#2D46F0;}
	.st4{fill:#C8C8C8;}
	.st5{fill:#FFD205;}
	.st6{fill:none;}
	.st7{fill:#969696;}
	.st8{fill:#F0F0F0;}
	.st9{fill:none;stroke:#2D46F0;stroke-width:7;stroke-miterlimit:10;}
	.st10{fill:none;stroke:#969696;stroke-width:7;stroke-miterlimit:10;}
	.st11{fill:none;stroke:#2D46F0;stroke-width:6.5;stroke-miterlimit:10;}
	.st12{display:none;}
</style>
<g id="手機">
</g>
<g id="箭頭">
</g>
<g id="手_11_">
</g>
<g id="_x2D_---------_11_">
</g>
<g id="板子">
</g>
<g id="手_7_">
</g>
<g id="_x2D_---------_6_">
</g>
<g id="雜物_1_">
</g>
<g id="腦_1_">
</g>
<g id="手_9_">
</g>
<g id="對話框_1_">
</g>
<g id="_x2D_---------_8_">
</g>
<g id="雜物">
</g>
<g id="腦">
</g>
<g id="手_5_">
</g>
<g id="對話框">
</g>
<g id="_x2D_---------_5_">
</g>
<g id="雜物_2_">
	<g>
		<path class="st8" d="M457.12,491.72c0-6.32-17.09-11.45-38.17-11.45s-38.17,5.13-38.17,11.45c0,0.14,0.02,0.28,0.04,0.42h-0.04
			v18.24c0,6.32,17.09,11.45,38.17,11.45s38.17-5.13,38.17-11.45v-18.24h-0.04C457.1,492,457.12,491.86,457.12,491.72z"/>
	</g>
	<g>
		<path class="st8" d="M564,525.5c0-9.98-26.96-18.06-60.21-18.06s-60.21,8.09-60.21,18.06c0,0.22,0.03,0.45,0.06,0.67h-0.06v28.77
			c0,9.98,26.96,18.06,60.21,18.06S564,564.91,564,554.94v-28.77h-0.06C563.97,525.95,564,525.72,564,525.5z"/>
	</g>
	<g>
		<path class="st8" d="M207.32,533.92c9.04-5.32,14.26-11.58,14.26-18.29c0-19.24-42.89-34.83-95.79-34.83S30,496.39,30,515.63
			c0,17.8,36.72,32.48,84.12,34.58c-0.07,0.42-0.11,0.85-0.11,1.28c0,11.88,26.49,21.51,59.16,21.51s59.16-9.63,59.16-21.51
			C232.34,544.23,222.45,537.82,207.32,533.92z"/>
	</g>
	<g>
		<g>
			<ellipse class="st8" cx="121.15" cy="455.18" rx="25.15" ry="8.91"/>
		</g>
		<g>
			<path class="st6" d="M207.32,533.92c9.04-5.32,14.26-11.58,14.26-18.29c0-19.24-42.89-34.83-95.79-34.83S30,496.39,30,515.63
				c0,17.8,36.72,32.48,84.12,34.58c-0.07,0.42-0.11,0.85-0.11,1.28c0,11.88,26.49,21.51,59.16,21.51s59.16-9.63,59.16-21.51
				C232.34,544.23,222.45,537.82,207.32,533.92z"/>
		</g>
	</g>
	<g>
		<g>
			<g>
				<g>
					<path class="st8" d="M143.3,455.18c-0.01,0.31,0.28-0.64,0-0.04c-0.17,0.35,0.4-0.61-0.01,0.02c-0.18,0.27-0.58,0.6-0.04,0.11
						c-0.21,0.19-0.42,0.42-0.62,0.62c-0.45,0.47,0.29-0.13-0.15,0.13c-0.27,0.16-0.52,0.35-0.79,0.51
						c-0.54,0.32-1.53,0.8-1.81,0.92c-1.24,0.52-3.35,1.14-4.97,1.52c-1.93,0.45-3.9,0.78-5.87,1c-8.56,0.93-17.96,0.76-26.15-2.17
						c-0.19-0.07-0.38-0.14-0.58-0.21c-0.06-0.02-0.64-0.26-0.33-0.12c0.12,0.05-0.62-0.29-0.79-0.37c-0.63-0.31-1.21-0.7-1.81-1.06
						c-0.44-0.26,0.3,0.34-0.15-0.13c-0.17-0.17-0.37-0.4-0.56-0.55c-0.29-0.23,0.31,0.5,0.13,0.18c-0.06-0.1-0.13-0.19-0.19-0.29
						c-0.42-0.71,0.08,0.18-0.05-0.09c-0.28-0.59,0,0.34,0,0.04c0-0.43-0.26,0.72,0,0.04c0.16-0.42-0.43,0.59-0.03,0.05
						c0.23-0.31,0.53-0.59,0.08-0.18c0.19-0.17,0.36-0.37,0.54-0.55c0.1-0.1,0.21-0.18,0.31-0.27c-0.08,0.07-0.54,0.35-0.08,0.07
						c0.56-0.34,1.1-0.7,1.69-1c0.94-0.47,0.76-0.38,1.66-0.71c0.87-0.32,1.76-0.59,2.66-0.84c1.95-0.53,3.94-0.92,5.94-1.21
						c4.68-0.66,9.48-0.75,14.2-0.47c4.49,0.27,9.03,0.91,13.29,2.41c0.19,0.07,0.39,0.14,0.58,0.21c0.01,0.01,0.9,0.36,0.38,0.14
						c0.34,0.14,0.67,0.3,1,0.47c0.38,0.19,0.75,0.39,1.11,0.61c0.13,0.08,0.26,0.17,0.4,0.26c0.08,0.05,0.6,0.44,0.24,0.16
						c-0.3-0.24,0.35,0.33,0.47,0.44c0.54,0.49-0.08-0.3,0.16,0.17c0.1,0.2,0.54,1,0.1,0.09c0.04,0.09,0.06,0.21,0.08,0.3
						C143.48,455.89,143.29,454.62,143.3,455.18c0.11,3.85,6.11,3.87,6,0c-0.1-3.41-2.87-5.74-5.73-7.13
						c-4.16-2.02-8.73-2.91-13.28-3.49c-5.5-0.7-11.09-0.77-16.61-0.24c-4.76,0.46-9.58,1.25-14.01,3.12
						c-2.9,1.22-6.16,3.11-6.95,6.41c-0.83,3.48,1.74,6.29,4.53,7.91c3.64,2.11,7.97,3.1,12.09,3.73c5.58,0.85,11.23,1.09,16.86,0.7
						c5.26-0.36,10.72-1.1,15.62-3.13c3.43-1.41,7.35-3.72,7.47-7.89C149.41,451.32,143.41,451.32,143.3,455.18z"/>
				</g>
			</g>
			<g>
				<g>
					<path class="st8" d="M208.83,536.51c5.71-3.39,11.57-7.87,14.27-14.14c1.77-4.1,1.97-8.66,0.28-12.81
						c-3.2-7.88-10.89-13.1-18.21-16.81c-10.79-5.47-22.68-8.72-34.53-10.95c-15.07-2.84-30.46-4.06-45.8-4
						c-15.16,0.05-30.39,1.34-45.28,4.26c-11.69,2.29-23.45,5.59-34.05,11.14c-7.17,3.75-14.63,9.05-17.55,16.93
						c-2.68,7.23,0.61,14.57,5.82,19.69c7.3,7.18,17.38,11.38,26.95,14.53c13.46,4.43,27.61,6.78,41.69,8.06
						c3.89,0.35,7.79,0.61,11.69,0.79c-0.96-1.27-1.93-2.53-2.89-3.8c-1.43,10.16,8.9,15.98,16.92,19.27
						c12.92,5.28,27.45,6.97,41.29,7.29c14.59,0.33,29.71-0.97,43.66-5.45c5.04-1.62,10.16-3.67,14.47-6.79
						c3.26-2.36,6.41-5.45,7.41-9.5c2.94-11.97-12.48-18.66-21.31-21.57c-1.84-0.61-3.7-1.14-5.57-1.63
						c-3.74-0.97-5.34,4.81-1.6,5.79c6.13,1.59,12.35,3.66,17.6,7.31c0.25,0.18,0.5,0.36,0.75,0.54c-0.37-0.27,0.13,0.1,0.22,0.17
						c0.4,0.33,0.8,0.67,1.18,1.03c0.39,0.37,0.77,0.75,1.12,1.15c0.17,0.19,0.33,0.39,0.49,0.59c-0.44-0.55,0.18,0.28,0.25,0.39
						c0.26,0.39,0.45,0.82,0.7,1.22c0.38,0.62-0.16-0.57,0.06,0.11c0.07,0.21,0.15,0.41,0.21,0.63c0.08,0.26,0.25,1.55,0.19,0.68
						c0.03,0.46,0.04,0.91,0.03,1.37c0,0.24-0.15,0.78,0.04-0.12c-0.03,0.17-0.06,0.34-0.09,0.5c-0.07,0.34-0.17,0.67-0.28,1
						c-0.04,0.11-0.09,0.22-0.12,0.33c-0.19,0.6,0.34-0.61,0.02-0.06c-0.22,0.37-0.39,0.76-0.62,1.13c-0.2,0.33-0.43,0.64-0.66,0.95
						c0.53-0.72-0.29,0.31-0.44,0.48c-0.65,0.7-1.36,1.34-2.09,1.95c-0.09,0.08-0.72,0.54-0.14,0.11c-0.2,0.14-0.39,0.29-0.59,0.43
						c-0.41,0.29-0.83,0.57-1.25,0.84c-0.91,0.58-1.84,1.11-2.79,1.61c-2.42,1.27-4.03,1.93-6.57,2.84
						c-12.33,4.39-25.68,5.87-38.71,6.02c-13.39,0.15-27.07-1.11-39.89-5.16c-2.93-0.93-5.39-1.85-7.85-3.05
						c-1.16-0.56-2.3-1.17-3.4-1.84c-0.51-0.31-1.01-0.63-1.51-0.97c-0.19-0.13-1.32-0.96-0.76-0.53c-0.82-0.64-1.6-1.33-2.31-2.09
						c-0.14-0.15-0.28-0.3-0.42-0.46c-0.12-0.14-0.69-0.88-0.17-0.17c-0.27-0.36-0.52-0.72-0.76-1.11c-0.22-0.37-0.4-0.75-0.6-1.13
						c0.44,0.84-0.1-0.31-0.18-0.6c-0.09-0.33-0.18-1.55-0.15-0.54c-0.01-0.44-0.1-0.9-0.04-1.33c0.28-1.97-0.76-3.7-2.89-3.8
						c-14.12-0.64-28.23-2.35-41.96-5.8c-5.7-1.43-11.33-3.17-16.78-5.37c-1.98-0.8-4.42-1.91-6.67-3.08c-2.02-1.05-4-2.2-5.89-3.48
						c-0.42-0.29-0.84-0.58-1.25-0.88c-0.2-0.15-0.4-0.29-0.6-0.44c-0.55-0.41,0.12,0.11-0.26-0.2c-0.75-0.62-1.49-1.24-2.2-1.9
						c-0.66-0.62-1.3-1.28-1.9-1.96c-0.27-0.31-0.54-0.64-0.8-0.96c0.3,0.37,0.18,0.24-0.02-0.04c-0.14-0.19-0.27-0.38-0.4-0.57
						c-0.45-0.66-0.86-1.35-1.22-2.06c-0.14-0.28-0.51-1.26-0.23-0.46c-0.13-0.37-0.28-0.73-0.4-1.1c-0.23-0.71-0.33-1.43-0.5-2.15
						c0.2,0.85,0-0.05-0.02-0.42c-0.02-0.38-0.02-0.75-0.01-1.13c0.01-0.34,0.07-0.68,0.07-1.02c0-0.18-0.13,0.71-0.01,0.12
						c0.04-0.2,0.07-0.39,0.11-0.59c0.15-0.71,0.36-1.39,0.61-2.08c0.04-0.11,0.28-0.67,0.08-0.22c-0.2,0.46,0.05-0.11,0.1-0.21
						c0.17-0.35,0.35-0.71,0.54-1.05c0.39-0.69,0.83-1.34,1.28-1.99c0.34-0.49-0.11,0.12,0.01-0.02c0.13-0.16,0.25-0.31,0.38-0.47
						c0.28-0.34,0.58-0.68,0.88-1c0.61-0.66,1.25-1.29,1.91-1.89c0.33-0.3,0.68-0.6,1.02-0.89c0.18-0.15,0.36-0.3,0.54-0.44
						c0.17-0.14,0.69-0.54,0.23-0.19c0.81-0.62,1.65-1.21,2.5-1.78c1.86-1.24,3.81-2.35,5.79-3.37c1.08-0.55,2.17-1.08,3.27-1.58
						c1.28-0.59,2.03-0.9,3.08-1.33c5.29-2.13,10.75-3.83,16.27-5.24c13.32-3.39,27.02-5.15,40.73-5.84
						c15.03-0.76,30.15-0.29,45.08,1.62c12.26,1.56,24.55,4.15,36.15,8.48c1.11,0.42,2.62,1.01,3.47,1.36
						c0.19,0.08,1.03,0.44,1.46,0.64c0.59,0.26,1.17,0.53,1.76,0.81c2.1,0.99,4.15,2.08,6.14,3.28c0.95,0.57,1.88,1.17,2.79,1.81
						c0.4,0.28,0.8,0.57,1.19,0.86c0.2,0.15,0.56,0.43,0.15,0.11c0.21,0.17,0.43,0.34,0.64,0.51c1.4,1.15,2.73,2.39,3.91,3.77
						c0.13,0.15,0.26,0.31,0.39,0.47c0.07,0.09,0.47,0.6,0.2,0.24c-0.27-0.36,0.11,0.16,0.17,0.25c0.13,0.18,0.26,0.37,0.38,0.55
						c0.43,0.64,0.82,1.31,1.17,2.01c0.08,0.16,0.15,0.33,0.23,0.49c0.26,0.53-0.07-0.23-0.02-0.06c0.11,0.36,0.27,0.71,0.39,1.07
						c0.22,0.69,0.32,1.39,0.49,2.09c0.04,0.18-0.06-0.72-0.02-0.12c0.01,0.17,0.03,0.34,0.04,0.51c0.03,0.45,0.03,0.91,0.01,1.36
						c-0.01,0.29-0.03,0.59-0.07,0.88c0.06-0.49-0.05,0.22-0.08,0.37c-0.13,0.64-0.32,1.26-0.53,1.87c-0.05,0.14-0.1,0.29-0.16,0.43
						c0.02-0.06,0.14-0.33,0-0.01c-0.13,0.29-0.27,0.57-0.41,0.85c-0.32,0.62-0.68,1.23-1.08,1.81c-0.7,1.04-1.55,2.01-2.57,3.03
						c-2.34,2.33-5.04,4.2-7.88,5.89C202.48,533.3,205.5,538.49,208.83,536.51z"/>
				</g>
			</g>
			<g>
				<path class="st8" d="M125.5,537c-7.07,1.22-14.23,1.61-21.39,1.46c-7.15-0.16-14.31-0.87-21.38-2.23
					c-7.06-1.38-14.08-3.34-20.71-6.49c-3.29-1.61-6.53-3.46-9.32-5.99c-1.38-1.27-2.68-2.68-3.59-4.36
					c-0.46-0.84-0.82-1.72-1.03-2.64c-0.12-0.45-0.12-0.94-0.17-1.39c-0.02-0.46,0.06-0.92,0.09-1.36c0.35,1.78,1.29,3.23,2.45,4.41
					c1.17,1.18,2.52,2.17,4,2.97c2.9,1.68,6.11,2.9,9.34,3.99c6.5,2.15,13.27,3.63,20.07,4.97c6.81,1.32,13.7,2.41,20.64,3.44
					C111.45,534.84,118.43,535.74,125.5,537z"/>
			</g>
			<g>
				<path class="st8" d="M172,563c-4.15,1.23-8.38,1.74-12.62,1.88c-4.24,0.12-8.48-0.17-12.69-0.9c-4.2-0.73-8.38-1.89-12.35-3.78
					c-1.97-0.97-3.91-2.12-5.61-3.65c-0.84-0.78-1.63-1.66-2.2-2.71c-0.15-0.25-0.27-0.52-0.37-0.81c-0.12-0.27-0.19-0.56-0.25-0.85
					c-0.11-0.58-0.07-1.17,0.07-1.69c0.36,1.04,1.05,1.73,1.82,2.27c0.79,0.53,1.63,0.95,2.53,1.31c1.8,0.7,3.69,1.22,5.61,1.69
					c3.85,0.91,7.8,1.61,11.77,2.31l12.02,2.12C163.78,560.97,167.85,561.75,172,563z"/>
			</g>
			<g>
				<path class="st8" d="M125,493c7.27-1.22,14.62-1.62,21.97-1.47c7.35,0.15,14.7,0.85,21.97,2.21c7.26,1.36,14.48,3.31,21.33,6.43
					c3.4,1.6,6.75,3.44,9.67,5.96c1.45,1.26,2.8,2.69,3.8,4.38c0.5,0.84,0.89,1.74,1.13,2.68c0.15,0.45,0.14,0.96,0.21,1.42
					c0.03,0.47-0.05,0.95-0.08,1.4c-0.36-1.83-1.36-3.3-2.57-4.49c-1.24-1.18-2.64-2.18-4.18-2.98c-3.03-1.67-6.34-2.89-9.69-3.97
					c-6.72-2.13-13.7-3.6-20.71-4.93c-7.02-1.31-14.12-2.4-21.25-3.42C139.45,495.15,132.27,494.26,125,493z"/>
			</g>
		</g>
		<g>
			<g>
				<g>
					<path class="st8" d="M561,525.5c0,0.14-0.02,0.29-0.02,0.43c0.01,0.45-0.04-0.5,0.06-0.37c0.06,0.07-0.13,0.62-0.15,0.7
						c-0.04,0.14-0.29,0.88-0.09,0.34c0.19-0.52-0.16,0.3-0.25,0.47c-0.13,0.23-0.29,0.45-0.43,0.68c-0.42,0.66,0.37-0.35-0.1,0.13
						c-0.45,0.46-0.88,0.94-1.37,1.37c-0.16,0.14-1.01,0.8-0.33,0.29c-0.26,0.19-0.51,0.38-0.77,0.56
						c-0.66,0.46-1.34,0.88-2.04,1.27c-0.65,0.37-1.32,0.72-2,1.04c-0.4,0.19-0.8,0.38-1.2,0.56c-0.17,0.07-0.33,0.15-0.5,0.22
						c-0.32,0.14-0.34,0.15-0.05,0.02c-0.13,0.05-0.26,0.11-0.39,0.16c-8.79,3.46-18.23,5.19-27.59,6.17
						c-11.96,1.26-24.07,1.36-36.05,0.37c-9.74-0.81-19.6-2.32-28.85-5.55c-0.93-0.32-1.84-0.68-2.76-1.04
						c-0.09-0.03-0.54-0.22-0.06-0.02c-0.21-0.09-0.42-0.18-0.63-0.27c-0.45-0.2-0.89-0.4-1.33-0.62c-1.43-0.69-2.82-1.47-4.12-2.37
						c-0.14-0.1-0.87-0.65-0.54-0.39c0.33,0.26-0.35-0.29-0.47-0.4c-0.49-0.43-0.92-0.9-1.37-1.37c-0.45-0.47,0.3,0.5-0.1-0.13
						c-0.15-0.23-0.3-0.44-0.43-0.68c-0.12-0.21-0.21-0.49-0.35-0.69c0.47,0.67,0.11,0.28,0-0.12c-0.02-0.08-0.22-0.62-0.15-0.7
						c0.04-0.05,0.03,0.88,0.05,0.3c0-0.12-0.01-0.24-0.01-0.36c0-0.09,0.01-0.19,0.01-0.29c-0.03-0.65-0.05,0.22-0.05,0.23
						c-0.07-0.11,0.12-0.58,0.15-0.7c0.08-0.28,0.46-0.97,0-0.12c0.12-0.23,0.22-0.46,0.35-0.69c0.12-0.21,0.26-0.41,0.39-0.61
						c0.48-0.75-0.33,0.32,0.21-0.26c0.4-0.43,0.8-0.85,1.24-1.24c0.22-0.2,0.46-0.38,0.68-0.57c-0.66,0.55,0.4-0.28,0.58-0.41
						c1.32-0.91,2.73-1.67,4.18-2.36c0.32-0.15,0.64-0.3,0.97-0.45c0.25-0.11,0.5-0.22,0.75-0.33c-0.12,0.05-0.49,0.2,0.06-0.02
						c0.96-0.38,1.92-0.75,2.9-1.09c2-0.7,4.03-1.3,6.08-1.83c4.78-1.25,9.65-2.15,14.55-2.81c11.83-1.59,23.88-1.87,35.79-1.18
						c10.21,0.6,20.5,1.93,30.31,4.89c1.95,0.59,3.86,1.27,5.76,2.01c0.84,0.33-0.3-0.13,0.19,0.08c0.21,0.09,0.42,0.18,0.63,0.27
						c0.36,0.16,0.73,0.33,1.09,0.5c0.79,0.38,1.56,0.78,2.32,1.22c0.59,0.34,1.18,0.7,1.74,1.09c0.29,0.2,0.58,0.41,0.86,0.62
						c-0.67-0.5,0.31,0.28,0.47,0.42c0.41,0.37,0.79,0.77,1.16,1.18c0.56,0.61-0.28-0.47,0.16,0.19c0.16,0.25,0.33,0.49,0.47,0.75
						c0.11,0.2,0.2,0.42,0.31,0.62c-0.47-0.86-0.08-0.16,0,0.12c0.02,0.08,0.14,0.7,0.15,0.7c-0.18-0.02,0.11-0.79-0.06-0.37
						C560.95,525.16,561,525.4,561,525.5c0.05,3.86,6.05,3.87,6,0c-0.08-6.57-6.88-10.57-12.18-12.87
						c-9.4-4.07-19.66-5.89-29.79-7.04c-12.66-1.43-25.51-1.55-38.2-0.43c-10.44,0.92-21.13,2.49-30.98,6.21
						c-3.43,1.29-6.84,2.81-9.77,5.04c-2.33,1.77-4.56,4.06-5.25,7.01c-1.51,6.51,4.39,11.21,9.53,13.82
						c8.52,4.34,18.25,6.29,27.66,7.59c12.6,1.73,25.38,2.14,38.08,1.35c10.96-0.68,22.12-2.11,32.6-5.5
						c3.73-1.21,7.49-2.66,10.84-4.74c2.51-1.56,5.05-3.58,6.4-6.26c0.66-1.31,1.04-2.71,1.06-4.18
						C567.05,521.64,561.05,521.64,561,525.5z"/>
				</g>
			</g>
			<g>
				<g>
					<path class="st8" d="M440.58,526.17c0,9.2,0,18.4,0,27.6c0,1.41,0.03,2.81,0.54,4.15c1.04,2.72,3.07,4.72,5.37,6.42
						c2.66,1.96,5.74,3.33,8.81,4.52c3.88,1.51,7.92,2.62,11.99,3.52c10.56,2.34,21.44,3.35,32.24,3.58
						c11.31,0.24,22.66-0.43,33.83-2.25c8.21-1.34,16.64-3.28,24.08-7.13c4.53-2.35,9.43-6.08,9.56-11.66c0.21-9.25,0-18.53,0-27.78
						c0-0.32,0-0.64,0-0.96c0-3.86-6-3.87-6,0c0,9,0,18.01,0,27.01c0,0.52,0.01,1.05,0,1.58c0,0.11,0,0.22,0,0.32
						c0.01,0.6-0.06,0.23,0.03-0.02c-0.09,0.23-0.12,0.53-0.18,0.77c-0.09,0.37-0.41,0.62,0.04-0.02c-0.13,0.18-0.2,0.43-0.31,0.62
						c-0.12,0.21-0.25,0.41-0.38,0.61c-0.06,0.09-0.13,0.18-0.19,0.27c-0.31,0.49,0.47-0.5,0.05-0.07
						c-0.38,0.39-0.73,0.81-1.13,1.18c-0.19,0.18-0.39,0.34-0.59,0.51c-0.04,0.03-0.56,0.45-0.17,0.15
						c0.37-0.29-0.12,0.09-0.19,0.14c-1.2,0.86-2.47,1.61-3.78,2.28c-0.66,0.34-1.34,0.66-2.02,0.96c-0.21,0.09-0.42,0.18-0.63,0.27
						c0.12-0.05,0.49-0.2-0.06,0.02c-0.45,0.18-0.9,0.36-1.35,0.53c-3.83,1.44-7.8,2.52-11.8,3.39c-9.94,2.17-20.13,3.07-30.29,3.29
						c-10.76,0.23-21.61-0.3-32.24-2.04c-4.38-0.72-8.74-1.63-13.01-2.87c-1.85-0.54-3.69-1.13-5.49-1.82
						c-1.52-0.58-2.42-0.95-4.14-1.84c-1.24-0.64-2.42-1.36-3.56-2.16c-0.7-0.49,0.23,0.23-0.29-0.22
						c-0.22-0.19-0.45-0.38-0.66-0.58c-0.42-0.38-0.76-0.88-1.19-1.25c-0.29-0.24,0.4,0.63,0.1,0.14c-0.06-0.09-0.13-0.18-0.19-0.27
						c-0.11-0.18-0.23-0.36-0.34-0.54c-0.13-0.22-0.23-0.46-0.35-0.69c0.32,0.59,0.12,0.31,0-0.12c-0.05-0.18-0.07-0.38-0.13-0.56
						c-0.1-0.34,0,0.81,0.02,0.02c0-0.13,0-0.26,0-0.39c-0.11-9.24,0-18.48,0-27.72c0-0.29,0-0.58,0-0.87
						C446.58,522.31,440.58,522.3,440.58,526.17L440.58,526.17z"/>
				</g>
			</g>
			<g>
				<g>
					<path class="st8" d="M551,536c0,8.17,0,16.35,0,24.52c0,1.16,0,2.32,0,3.48c0,3.86,6,3.87,6,0c0-8.17,0-16.35,0-24.52
						c0-1.16,0-2.32,0-3.48C557,532.14,551,532.13,551,536L551,536z"/>
				</g>
			</g>
			<g>
				<g>
					<path class="st8" d="M540,540c0,8.17,0,16.35,0,24.52c0,1.16,0,2.32,0,3.48c0,3.86,6,3.87,6,0c0-8.17,0-16.35,0-24.52
						c0-1.16,0-2.32,0-3.48C546,536.14,540,536.13,540,540L540,540z"/>
				</g>
			</g>
			<g>
				<g>
					<path class="st8" d="M529,542c0,8.17,0,16.35,0,24.52c0,1.16,0,2.32,0,3.48c0,3.86,6,3.87,6,0c0-8.17,0-16.35,0-24.52
						c0-1.16,0-2.32,0-3.48C535,538.14,529,538.13,529,542L529,542z"/>
				</g>
			</g>
			<g>
				<g>
					<path class="st8" d="M518,543c0,8.17,0,16.35,0,24.52c0,1.16,0,2.32,0,3.48c0,3.86,6,3.87,6,0c0-8.17,0-16.35,0-24.52
						c0-1.16,0-2.32,0-3.48C524,539.14,518,539.13,518,543L518,543z"/>
				</g>
			</g>
			<g>
				<g>
					<path class="st8" d="M507,545c0,8.17,0,16.35,0,24.52c0,1.16,0,2.32,0,3.48c0,3.86,6,3.87,6,0c0-8.17,0-16.35,0-24.52
						c0-1.16,0-2.32,0-3.48C513,541.14,507,541.13,507,545L507,545z"/>
				</g>
			</g>
			<g>
				<g>
					<path class="st8" d="M495,545c0,8.17,0,16.35,0,24.52c0,1.16,0,2.32,0,3.48c0,3.86,6,3.87,6,0c0-8.17,0-16.35,0-24.52
						c0-1.16,0-2.32,0-3.48C501,541.14,495,541.13,495,545L495,545z"/>
				</g>
			</g>
		</g>
		<g>
			<g>
				<g>
					<path class="st8" d="M454.12,491.72c-0.01,0.64,0.1-0.19,0.06-0.23c0.03,0.03-0.08,0.38-0.09,0.42
						c-0.11,0.27-0.31,0.52,0.1-0.16c-0.08,0.13-0.12,0.28-0.21,0.41c-0.08,0.12-0.19,0.27-0.26,0.41
						c-0.24,0.51,0.48-0.47,0.05-0.07c-0.32,0.29-0.6,0.62-0.92,0.91c-0.13,0.12-0.68,0.48-0.03,0.03
						c-0.18,0.12-0.35,0.25-0.53,0.37c-0.38,0.26-0.78,0.49-1.18,0.72c-0.44,0.25-0.88,0.47-1.34,0.69
						c-0.24,0.11-0.48,0.22-0.73,0.33c-0.32,0.14-0.33,0.15-0.05,0.02c-0.18,0.07-0.35,0.14-0.53,0.21
						c-5.49,2.15-11.45,3.2-17.3,3.79c-7.4,0.75-14.9,0.81-22.31,0.2c-6.1-0.5-12.27-1.45-18.07-3.47
						c-0.47-0.16-0.93-0.33-1.39-0.51c-0.05-0.02-0.91-0.38-0.32-0.13c-0.25-0.11-0.49-0.22-0.74-0.33
						c-0.95-0.44-1.88-0.94-2.75-1.52c-0.18-0.12-0.35-0.25-0.53-0.37c0.65,0.45,0.1,0.08-0.03-0.03c-0.28-0.25-0.54-0.51-0.81-0.78
						c-0.18-0.17-0.41-0.63,0.03,0.08c-0.09-0.14-0.2-0.26-0.27-0.4c-0.07-0.13-0.14-0.3-0.23-0.41c-0.31-0.41,0.33,0.73,0.03,0.02
						c-0.02-0.04-0.12-0.39-0.09-0.42c-0.02,0.02,0.06,0.88,0.06,0.23c0-0.65-0.08,0.21-0.06,0.23c-0.03-0.03,0.08-0.38,0.09-0.42
						c0.11-0.27,0.31-0.52-0.1,0.16c0.08-0.13,0.12-0.28,0.21-0.41c0.08-0.12,0.19-0.27,0.26-0.41c0.19-0.39-0.49,0.49,0.06-0.06
						c0.27-0.26,0.53-0.52,0.81-0.78c0.13-0.12,0.68-0.48,0.03-0.03c0.18-0.12,0.35-0.25,0.53-0.37c0.87-0.58,1.8-1.08,2.75-1.52
						c0.24-0.11,0.49-0.22,0.74-0.33c-0.59,0.25,0.28-0.11,0.32-0.13c0.46-0.18,0.92-0.35,1.39-0.51c1.33-0.46,2.68-0.86,4.05-1.21
						c2.93-0.76,5.93-1.32,8.93-1.72c7.46-1,15.07-1.17,22.58-0.72c6.89,0.41,13.88,1.33,20.44,3.56c1.54,0.53,2.01,0.7,3.21,1.29
						c0.98,0.48,1.9,1.04,2.81,1.67c-0.65-0.45-0.1-0.08,0.03,0.03c0.19,0.17,0.38,0.33,0.56,0.51c0.12,0.13,0.24,0.27,0.37,0.39
						c0.35,0.32-0.32-0.61,0.04,0.06c0.07,0.13,0.16,0.28,0.24,0.41c0.4,0.59-0.03-0.4-0.01-0.03c0.01,0.1,0.07,0.33,0.11,0.42
						C454.35,492.23,454.11,490.97,454.12,491.72c0.08,3.86,6.08,3.87,6,0c-0.09-4.57-4.4-7.41-8.16-9.06
						c-6.1-2.68-12.72-3.87-19.29-4.63c-8.17-0.94-16.47-1.02-24.66-0.28c-6.7,0.6-13.59,1.6-19.91,4.02
						c-3.9,1.49-8.97,3.83-10.1,8.31c-1.15,4.54,2.67,8.02,6.3,9.92c5.49,2.88,11.79,4.17,17.88,5.02
						c8.16,1.13,16.42,1.43,24.64,0.91c7.05-0.44,14.25-1.36,21-3.55c4.08-1.33,9.5-3.37,11.53-7.53c0.49-1.01,0.76-2,0.79-3.13
						C460.2,487.85,454.2,487.85,454.12,491.72z"/>
				</g>
			</g>
			<g>
				<g>
					<path class="st8" d="M377.78,492.14c0,5.88,0,11.76,0,17.63c0,3.27,1.7,5.62,4.27,7.5c3.91,2.85,8.98,4.24,13.63,5.26
						c13.78,3.02,28.54,3.08,42.43,0.78c5.26-0.87,10.62-2.14,15.39-4.6c3.27-1.69,6.49-4.38,6.62-8.34c0.2-6.06,0-12.16,0-18.23
						c0-3.86-6-3.87-6,0c0,5.69,0,11.38,0,17.06c0,0.34-0.01,0.68,0,1.02c0,0.05,0,0.1,0,0.15c0,0,0,0.29-0.01,0.29
						c-0.18,0.03,0.3-0.87-0.02-0.09c-0.29,0.69,0.41-0.57-0.07,0.18c-0.16,0.24-0.77,0.92-0.13,0.27
						c-0.25,0.26-0.48,0.54-0.75,0.78c-0.09,0.09-0.19,0.17-0.29,0.26c-0.61,0.55,0.24-0.11-0.2,0.16
						c-0.73,0.45-1.42,0.92-2.18,1.31c-0.46,0.24-0.94,0.46-1.41,0.67c-0.53,0.24-0.16,0.07-0.05,0.02
						c-0.36,0.15-0.71,0.29-1.07,0.42c-2.38,0.89-4.84,1.55-7.31,2.1c-6.18,1.35-12.52,1.92-18.85,2.06
						c-6.8,0.15-13.68-0.16-20.39-1.27c-2.75-0.45-5.48-1.03-8.15-1.8c-1.1-0.32-2.19-0.67-3.27-1.07c-0.27-0.1-0.54-0.21-0.81-0.31
						c-0.09-0.03-0.54-0.23-0.06-0.02c-0.56-0.24-1.12-0.5-1.66-0.78c-0.76-0.39-1.45-0.87-2.18-1.31c-0.6-0.37,0.45,0.43-0.05-0.03
						c-0.1-0.09-0.2-0.17-0.3-0.25c-0.32-0.29-0.59-0.61-0.89-0.91c0.63,0.64,0.07,0.04-0.09-0.2c-0.09-0.13-0.13-0.28-0.21-0.41
						c0.41,0.71,0.21,0.42,0.1,0.16c-0.02-0.04-0.12-0.39-0.09-0.42c0.04-0.04,0.02,0.9,0.06,0.23c0-0.05,0-0.1,0-0.16
						c0.18-6.02,0-12.06,0-18.08C383.78,488.28,377.78,488.27,377.78,492.14L377.78,492.14z"/>
				</g>
			</g>
			<g>
				<g>
					<path class="st8" d="M445,501c0,4.38,0,8.76,0,13.14c0,0.62,0,1.24,0,1.86c0,1.57,1.38,3.07,3,3c1.63-0.07,3-1.32,3-3
						c0-4.38,0-8.76,0-13.14c0-0.62,0-1.24,0-1.86c0-1.57-1.38-3.07-3-3C446.37,498.07,445,499.32,445,501L445,501z"/>
				</g>
			</g>
			<g>
				<g>
					<path class="st8" d="M435,503c0,4.38,0,8.76,0,13.14c0,0.62,0,1.24,0,1.86c0,1.57,1.38,3.07,3,3c1.63-0.07,3-1.32,3-3
						c0-4.38,0-8.76,0-13.14c0-0.62,0-1.24,0-1.86c0-1.57-1.38-3.07-3-3C436.37,500.07,435,501.32,435,503L435,503z"/>
				</g>
			</g>
			<g>
				<g>
					<path class="st8" d="M425,505c0,4.38,0,8.76,0,13.14c0,0.62,0,1.24,0,1.86c0,1.57,1.38,3.07,3,3c1.63-0.07,3-1.32,3-3
						c0-4.38,0-8.76,0-13.14c0-0.62,0-1.24,0-1.86c0-1.57-1.38-3.07-3-3C426.37,502.07,425,503.32,425,505L425,505z"/>
				</g>
			</g>
			<g>
				<g>
					<path class="st8" d="M415,505c0,4.38,0,8.76,0,13.14c0,0.62,0,1.24,0,1.86c0,1.57,1.38,3.07,3,3c1.63-0.07,3-1.32,3-3
						c0-4.38,0-8.76,0-13.14c0-0.62,0-1.24,0-1.86c0-1.57-1.38-3.07-3-3C416.37,502.07,415,503.32,415,505L415,505z"/>
				</g>
			</g>
		</g>
	</g>
</g>
<g id="腦_2_">
	<g>
		<g>
			<path class="st8" d="M404.06,91.33c2.04,0.62,4.13,0.99,6.29,1.02c3.44,0.05,6.87,0.39,10.25,1.02
				c13.19,2.44,25.62,9.13,34.66,19.08c12.85,14.15,18.5,34.53,14.76,53.27c-0.84,4.22-2.12,8.65-0.75,12.73
				c1.11,3.3,3.77,5.8,6.06,8.43c9.26,10.62,12.46,25.6,10.03,39.31c-2.6,14.64-13.4,21.03-10.19,36.05
				c2.61,12.22,13.85,24.77,12.77,38.55c-1.51,19.25-17.19,28.66-19.51,47.38c-1.96,15.82-6.15,33.79-17.72,45.54
				c-5.99,6.08-15.58,5.99-22.57,10.19c-10.42,6.27-5.89,9.6-11.06,17.87c-9.94,15.9-31.56,16.57-46.94,24.1
				c-17.51,8.57-29.7,29.68-52.13,20.55c-31.29-12.73-8.57-45.1-14.3-67.3c-2.48-9.6-6.21-17.12-5.12-27.62
				c1.26-12.19,12.63-22.05,12.88-33.31c0.27-11.75-11.6-25.03-13.69-37.22c-2.32-13.53-0.99-27.74,4.3-40.45
				c0.61-1.46,1.28-2.99,1.09-4.57c-0.12-0.99-0.57-1.9-1.02-2.79c-9.08-18.09-12.78-42.76-3.5-61.49
				c5.21-10.52,17.99-19.43,9.82-31.78c-11.92-18.02-21.23-36.25-10.48-58.06c5.04-10.22,13.74-18.41,23.78-23.81
				c14.56-7.82,32.08-9.28,47.98-5.15C382.27,76.15,392.42,87.8,404.06,91.33z"/>
		</g>
		<g>
			<path class="st8" d="M174.39,91.33c-2.04,0.62-4.13,0.99-6.29,1.02c-3.44,0.05-6.87,0.39-10.25,1.02
				c-13.19,2.44-25.62,9.13-34.66,19.08c-12.85,14.15-18.5,34.53-14.76,53.27c0.84,4.22,2.12,8.65,0.75,12.73
				c-1.11,3.3-3.77,5.8-6.06,8.43c-9.26,10.62-12.46,25.6-10.03,39.31c2.6,14.64,13.4,21.03,10.19,36.05
				c-2.61,12.22-13.85,24.77-12.77,38.55c1.51,19.25,17.19,28.66,19.51,47.38c1.96,15.82,6.15,33.79,17.72,45.54
				c5.99,6.08,15.58,5.99,22.57,10.19c10.42,6.27,5.89,9.6,11.06,17.87c9.94,15.9,31.56,16.57,46.94,24.1
				c17.51,8.57,29.7,29.68,52.13,20.55c31.29-12.73,8.57-45.1,14.3-67.3c2.48-9.6,6.21-17.12,5.12-27.62
				c-1.26-12.19-12.63-22.05-12.88-33.31c-0.27-11.75,11.6-25.03,13.69-37.22c2.32-13.53,0.99-27.74-4.3-40.45
				c-0.61-1.46-1.28-2.99-1.09-4.57c0.12-0.99,0.57-1.9,1.02-2.79c9.08-18.09,12.78-42.76,3.5-61.49
				c-5.21-10.52-17.99-19.43-9.82-31.78c11.92-18.02,21.23-36.25,10.48-58.06c-5.04-10.22-13.74-18.41-23.78-23.81
				c-14.56-7.82-32.08-9.28-47.98-5.15C196.18,76.15,186.02,87.8,174.39,91.33z"/>
		</g>
	</g>
	<path class="st8" d="M267.01,85.59c0,0,8.99,7.41,12.99,16.41s6.18,11.87,5.59,17.94s-3.05,17.62-7.32,25.34
		c-4.27,7.72-11.13,14.82-10.7,20.27C268,171,274,184,280,192s5.59,29.86,5.59,29.86s-1.54,12.78-5.07,21.96
		C277,253,274,254,276,261s6.43,15.73,6.21,23.37C282,292,281,301,281,301s-6.85,14.81-8.92,19.41S265,332,267,338
		s7.29,18.03,10.14,23.51C280,367,280,372,280,372s1.54,7.71-1.73,14.85S275,399,275,399s-1.47,6.26-1.23,12.63
		c0.23,6.37,3.94,24.78,3.94,24.78l-0.56,12.39c0,0,7.86-3.8,11.86-3.8s12.92,4.36,12.92,4.36s-1.08-14.06,0-19.71
		c1.08-5.65,2.82-23.09,2.82-23.09L304,399c0,0-7.04-15.31-6.02-21.16c1.02-5.84,1.37-14.95,6.19-21.4C309,350,311,338,311,338
		s-2.15-11.06-4.57-17.03c-2.43-5.97-6.47-14.84-8.45-25.9c-1.98-11.07,0.56-21.96,0.56-21.96L303,256c0,0-8.05-20.52-9.52-30.76
		C292,215,293,202,299,192s9.12-15.19,9.12-15.19s4.62-9.09,2.25-12.95s-14.64-25.9-14.64-25.9s-4.03-11.96-3.38-17.46
		C293,115,298,102,298,102l11.24-15.85C309.24,86.15,292.02,100.17,267.01,85.59z"/>
	<path class="st8" d="M127.44,393.9l11.19,6.09c0,0,4.08,6.99,4.08,14.63c0,7.63,2.18,22.9,7.63,26.17s9.81,5.45,19.63,5.45
		s18.54,5.45,19.63,16.36s-4.36,26.17-1.09,30.53c3.27,4.36,6.54,14.17,17.45,9.81c10.9-4.36,7.63-10.9,7.63-11.99
		s1.09-11.99,8.72-9.81c7.63,2.18,13.08,4.36,13.08,14.17c0,9.81-1.09,28.35-1.09,31.62s1.09,19.63,13.08,20.72
		c11.99,1.09,11.99-3.27,15.27-6.54s1.09-10.9,0-17.45c-1.09-6.54-2.18-15.27-2.18-15.27c-0.01-8.42,1.29-17.54,3.84-25.56
		c1-3.16,2.05-5.7,2.57-9.12c0.38-2.54-0.16-9.79,1.34-11.69c-7.82,9.95-27.05,5.36-36.31-0.01c-7.29-4.23-12.46-11.97-20.41-14.93
		c-11-4.1-35.16-13.38-39.7-15.55c-4.55-2.17-14.36-14.17-15.45-17.44C155.24,410.8,163.96,406.44,127.44,393.9z"/>
	<g>
		<g>
			<g>
				<path class="st8" d="M131.58,400.17c1.5,0.82,2.72,1.61,3.9,2.78c1,0.99,1.44,1.59,2.15,2.97c0.06,0.13,0.43,0.95,0.23,0.47
					c0.11,0.27,0.2,0.54,0.3,0.81c0.23,0.68,0.41,1.38,0.55,2.08c0.06,0.28,0.11,0.57,0.16,0.85c0.01,0.08,0.1,0.67,0.05,0.32
					c-0.04-0.32,0.02,0.16,0.02,0.18c0.07,0.69,0.13,1.37,0.18,2.06c0.36,6.05,0.09,12.02,2.37,17.77
					c2.82,7.11,7.19,14.3,14.73,17.05c3.57,1.3,7.4,1.02,11.11,0.76c3.41-0.24,6.17-0.34,9.24,0.77c0.57,0.2,0.27,0.1,0.14,0.05
					c0.14,0.06,0.28,0.13,0.42,0.19c0.32,0.15,0.63,0.31,0.94,0.49c0.61,0.34,1.2,0.72,1.75,1.15c-0.33-0.26,0.33,0.3,0.42,0.38
					c0.22,0.2,0.44,0.4,0.65,0.61c0.53,0.52,1.03,1.08,1.49,1.67c-0.25-0.32,0.18,0.27,0.25,0.36c0.2,0.29,0.4,0.59,0.59,0.89
					c0.38,0.61,0.73,1.23,1.06,1.87c0.7,1.36,0.98,2.06,1.48,3.62c0.44,1.36,0.8,2.74,1.08,4.14c0.33,1.67,0.42,2.22,0.55,3.83
					c0.23,2.87-0.01,5.77-0.25,8.63c-0.53,6.1-1.38,12.58,0.51,18.54c1.99,6.25,7.24,11.24,14.05,11.24
					c6.39,0,11.78-4.1,13.38-10.27c0.59-2.29,0.85-4.66,1.34-6.98c0.24-1.16,0.56-2.29,0.97-3.41c-0.18,0.49-0.03,0.06,0.08-0.16
					c0.12-0.24,0.25-0.49,0.39-0.72c0.12-0.2,0.25-0.38,0.37-0.58c0.23-0.35-0.34,0.37-0.05,0.07c0.1-0.11,0.2-0.22,0.3-0.33
					c0.18-0.18,0.64-0.55,0.16-0.2c0.19-0.14,0.38-0.26,0.58-0.38c0.13-0.08,0.28-0.15,0.42-0.22c-0.03,0.02-0.48,0.18-0.16,0.07
					c0.33-0.12,0.65-0.21,0.99-0.29c0.13-0.03,0.27-0.06,0.4-0.08c-0.06,0.01-0.45,0.04-0.09,0.02c0.36-0.02,0.71-0.04,1.07-0.04
					c0.24,0,0.47,0.01,0.71,0.03c0.27,0.02,1.03,0.13,0.33,0.01c0.46,0.08,0.92,0.17,1.37,0.29c0.23,0.06,0.46,0.15,0.69,0.22
					c0.1,0.03,0.19,0.07,0.29,0.11c0.35,0.11-0.55-0.28-0.06-0.03c0.38,0.2,0.77,0.39,1.14,0.62c0.2,0.12,0.38,0.26,0.57,0.38
					c0.41,0.25-0.39-0.38,0.09,0.08c0.31,0.3,0.64,0.57,0.93,0.89c0.16,0.17,0.31,0.35,0.47,0.53c0.45,0.5-0.23-0.37,0.15,0.2
					c0.54,0.79,1.03,1.59,1.45,2.45c0.11,0.23,0.21,0.46,0.32,0.7c0.14,0.31-0.08-0.19-0.08-0.21c0.06,0.14,0.11,0.28,0.17,0.42
					c0.19,0.5,0.37,1,0.53,1.51c0.33,1.02,0.6,2.06,0.82,3.11c0.11,0.52,0.21,1.05,0.31,1.57c0.05,0.29,0.1,0.58,0.14,0.86
					c0.03,0.19,0.15,1.04,0.11,0.73c-0.05-0.36,0.06,0.51,0.07,0.61c0.03,0.25,0.06,0.51,0.08,0.76c0.06,0.6,0.11,1.2,0.16,1.8
					c0.17,2.35,0.23,4.72,0.22,7.08c-0.02,4.11-0.28,8.21-0.53,12.31c-0.32,5.26,0,10.54,1.57,15.61
					c1.99,6.43,6.04,12.69,12.91,14.49c6.91,1.81,15.14-0.79,18.63-7.31c3.23-6.02,2.02-13.31,0.21-19.57
					c-2.32-8.02-3.11-16.37-2-24.67c1.07-7.99,2.89-15.87,5.01-23.65c1.07-3.95,2.22-7.87,3.35-11.8c1.07-3.72-4.71-5.3-5.79-1.6
					c-2.22,7.68-4.47,15.36-6.16,23.18c-1.79,8.26-3.3,16.73-2.8,25.21c0.25,4.31,0.91,8.62,2.01,12.8
					c0.43,1.63,0.94,3.24,1.33,4.89c0.34,1.44,0.63,3,0.74,4.18c0.07,0.75,0.11,1.5,0.11,2.25c0,0.4-0.01,0.8-0.03,1.2
					c-0.01,0.17-0.02,0.34-0.03,0.51c-0.01,0.06-0.07,0.74-0.03,0.37c-0.09,0.66-0.24,1.31-0.42,1.95c-0.26,0.9-0.37,1.17-0.76,1.87
					c-1.36,2.44-3.64,3.9-6.47,4.52c-2.62,0.58-5.61,0.21-7.97-1.24c-0.91-0.56-2.1-1.67-2.84-2.62c-0.73-0.94-1.58-2.45-2.16-3.7
					c-2.16-4.67-2.77-10.05-2.49-15.37c0.45-8.6,1.08-17.16-0.15-25.74c-0.61-4.25-1.75-8.74-4.24-12.3
					c-2.66-3.81-6.49-6.09-11.15-6.42c-2.91-0.2-5.79,0.53-8.02,2.46c-1.87,1.62-2.94,4.06-3.6,6.4c-0.64,2.31-0.92,4.69-1.39,7.04
					c-0.21,1.06-0.46,2.13-0.82,3.15c-0.3,0.86-0.8,1.59-1.66,2.4c-0.68,0.64-1.78,1.26-2.61,1.53c-0.33,0.11-0.67,0.2-1.01,0.28
					c-0.14,0.03-0.82,0.17-0.63,0.14c0.15-0.02-0.58,0.05-0.8,0.06c-0.35,0.01-0.7,0.01-1.05-0.01c-0.15-0.01-1.02-0.13-0.55-0.04
					c-0.3-0.05-0.59-0.12-0.88-0.19c-0.34-0.09-0.68-0.19-1-0.32c-0.32-0.12-0.04-0.01,0.02,0.01c-0.18-0.08-0.37-0.17-0.54-0.27
					c-0.78-0.42-0.93-0.53-1.44-0.98c-0.56-0.49-1.09-1.03-1.55-1.62c0.22,0.28-0.21-0.31-0.26-0.4c-0.2-0.3-0.38-0.61-0.56-0.92
					c-0.15-0.27-0.29-0.54-0.42-0.82c-0.26-0.53-0.09-0.14-0.28-0.7c-0.21-0.64-0.41-1.28-0.57-1.93c-0.07-0.31-0.14-0.61-0.2-0.92
					c-0.02-0.12-0.19-1.17-0.13-0.78c-0.38-2.98-0.23-6.02-0.01-9c0.22-3.05,0.58-6.09,0.71-9.14c0.13-2.94-0.11-5.83-0.6-8.73
					c-0.99-5.79-3.25-11.67-7.37-15.96c-2.11-2.2-4.71-3.84-7.57-4.83c-3.32-1.16-6.88-1.13-10.34-0.89
					c-3.36,0.23-6.77,0.67-9.9-0.61c-2.97-1.21-5.32-3.75-7.05-6.39c-1.82-2.78-3.31-5.85-4.23-9.03c-0.82-2.85-0.95-4.97-1.05-8.04
					c-0.18-5.63-0.02-11.67-3.23-16.58c-1.86-2.85-4.49-5-7.46-6.63C131.22,393.13,128.19,398.31,131.58,400.17L131.58,400.17z"/>
			</g>
		</g>
		<g>
			<g>
				<g>
					<path class="st8" d="M173.59,88.44c-2.59,0.75-5.04,0.85-7.7,0.99c-2.84,0.14-5.68,0.49-8.48,0.99
						c-4.79,0.86-9.44,2.29-13.92,4.19c-8.65,3.66-16.59,9.16-22.84,16.2c-12.25,13.79-18.21,32.94-15.84,51.25
						c0.32,2.47,0.81,4.89,1.31,7.32c0.53,2.6,1.04,5.35,0.26,7.96c-0.59,1.98-1.97,3.61-3.32,5.14c-1.68,1.9-3.36,3.76-4.85,5.82
						c-5.37,7.43-8.2,16.53-8.8,25.63c-0.59,8.96,1.22,17.52,5.2,25.53c3.31,6.67,7.23,12.98,6.01,20.75
						c-1.39,8.81-6.85,16.6-10.13,24.77c-3.44,8.57-3.92,17.35-0.86,26.12c2.61,7.5,7.21,13.94,11.17,20.74
						c1.94,3.33,3.7,6.77,4.86,10.46c1.29,4.09,1.62,8.34,2.29,12.56c1.43,9.02,3.7,17.94,7.59,26.23
						c3.68,7.84,9.09,15.97,17.29,19.5c3.93,1.69,8.11,2.61,12.11,4.1c3.21,1.19,6.91,3.14,8.92,6.03c1.32,1.9,1.5,4.34,2.25,6.76
						c1.14,3.68,3.16,6.96,5.65,9.89c10.5,12.35,27.9,13.98,42.05,19.79c13.56,5.57,22.85,18.31,36.81,23.03
						c13.94,4.72,32.01-2.52,37.64-16.42c4.86-11.98,0.51-25.63-0.96-37.84c-0.38-3.15-0.63-6.32-0.54-9.49
						c0.1-3.38,0.81-6.5,1.76-9.74c2.75-9.4,6-18.86,3.75-28.76c-1.9-8.33-7.52-14.97-10.68-22.76c-1.42-3.52-2.05-7.13-1.26-10.88
						c0.88-4.18,2.72-8.07,4.62-11.87c2.05-4.11,4.24-8.16,6.02-12.41c1.8-4.3,2.75-8.58,3.28-13.22
						c1.21-10.59,0.21-21.54-3.05-31.69c-0.72-2.25-1.67-4.4-2.48-6.61c-0.95-2.58,0.39-4.17,1.45-6.51
						c1.92-4.22,3.55-8.58,4.81-13.05c2.54-9.05,3.75-18.65,2.95-28.03c-0.76-8.92-3.24-17.77-8.26-25.26
						c-3.7-5.52-10.75-12.35-9.15-19.67c0.41-1.89,1.36-3.49,2.41-5.09c1.48-2.26,2.94-4.53,4.33-6.85
						c2.48-4.15,4.74-8.42,6.59-12.88c3.62-8.71,5.23-18.02,3.67-27.39c-3.23-19.33-18.7-34.55-36.42-41.53
						c-17.61-6.94-39.5-6.51-55.8,3.54C188.23,80.11,181.63,85.91,173.59,88.44c-3.67,1.16-2.1,6.95,1.6,5.79
						c8.32-2.62,15.11-8.23,22.38-12.81c3.57-2.25,7.29-4.31,11.37-5.47c4.53-1.28,9.23-1.98,13.93-2.21
						c18.67-0.93,37.49,6.21,49.44,20.89c5.84,7.18,9.69,16.37,9.89,25.67c0.19,9.04-2.94,17.64-7.15,25.51
						c-2.21,4.14-4.71,8.1-7.27,12.02c-2.29,3.52-3.83,7.47-3.35,11.74c0.87,7.82,6.6,13.65,10.68,19.98
						c9.69,15.02,8.37,35.1,3,51.41c-1.43,4.34-3.57,8.28-5.22,12.5c-1.84,4.71,1.39,9.45,2.76,13.88
						c3.01,9.71,3.81,20.04,2.54,30.12c-1.12,8.83-5.71,16.22-9.48,24.11c-3.6,7.52-6.22,15.39-3.44,23.63
						c2.63,7.79,8.15,14.25,10.64,22.09c2.87,9.08-0.26,18.1-2.86,26.82c-1.98,6.61-2.62,12.94-1.93,19.81
						c0.64,6.49,1.99,12.88,2.76,19.35c0.69,5.76,1.06,11.81-0.81,17.39c-2.01,5.98-6.94,9.96-12.53,12.49
						c-6.53,2.96-13.56,3.34-20.19,0.5c-6.49-2.78-11.99-7.52-17.52-11.79c-5.88-4.53-11.85-8.42-18.81-11.08
						c-7.1-2.72-14.52-4.48-21.63-7.17c-6.63-2.5-13.32-6.08-17.5-12c-1.89-2.68-2.92-5.42-3.69-8.56
						c-0.67-2.71-1.67-5.12-3.55-7.23c-5.76-6.47-14.39-7.42-21.95-10.52c-7.67-3.15-12.39-11.38-15.58-18.64
						c-3.49-7.96-5.36-16.62-6.63-25.19c-0.62-4.2-1.1-8.32-2.54-12.34c-1.33-3.68-3.1-7.18-5.07-10.56
						c-3.79-6.48-8.34-12.66-10.69-19.86c-1.27-3.9-2-8.03-1.61-12.14c0.4-4.31,2.01-8.52,3.77-12.43
						c3.56-7.9,8.37-15.58,9.37-24.36c0.9-7.93-2.41-14.68-5.95-21.51c-3.9-7.54-5.83-15.21-5.37-23.74
						c0.47-8.61,3.34-17.25,8.67-24.09c2.71-3.48,6.21-6.37,7.81-10.6c1.92-5.09,0.3-10.41-0.66-15.52
						c-1.62-8.65-1.06-17.69,1.28-26.15c4.84-17.47,17.58-31.91,34.51-38.56c4.22-1.66,8.62-2.88,13.11-3.59
						c5.03-0.8,10.15-0.36,15.09-1.79C178.89,93.16,177.31,87.37,173.59,88.44z"/>
				</g>
			</g>
			<g>
				<g>
					<path class="st8" d="M403.26,94.23c5.16,1.49,10.55,1,15.81,1.91c4.52,0.78,8.97,2.05,13.2,3.8
						c8.39,3.48,15.96,8.92,21.89,15.81c11.61,13.49,16.37,32.5,12.82,49.89c-1.02,4.97-2.19,10.05-0.1,14.92
						c1.82,4.21,5.51,7.11,8.15,10.76c5.13,7.1,7.82,15.73,8.07,24.45c0.12,4.23-0.22,8.51-1.32,12.61
						c-1.03,3.82-2.76,7.32-4.57,10.82c-3.68,7.06-6.48,13.88-5.29,22c1.27,8.63,6.29,16.22,9.69,24.09
						c1.66,3.85,3.1,7.98,3.33,12.19c0.23,4.09-0.59,8.17-1.94,12.02c-2.49,7.14-7.09,13.27-10.83,19.77
						c-2,3.47-3.77,7.1-5.03,10.91c-1.28,3.88-1.67,7.88-2.27,11.89c-1.29,8.56-3.21,17.23-6.79,25.15
						c-3.3,7.3-8.05,15.28-15.86,18.29c-7.53,2.9-16.17,4.09-21.69,10.63c-1.89,2.24-2.75,4.78-3.44,7.58
						c-0.77,3.11-1.98,5.87-3.93,8.45c-9.21,12.14-26.46,13.72-39.69,18.99c-6.99,2.79-12.95,6.9-18.87,11.49
						c-5.34,4.14-10.75,8.73-17.1,11.25c-11.83,4.7-28.52-1.13-32.37-13.98c-1.69-5.65-1.2-11.75-0.46-17.52
						c0.82-6.39,2.13-12.71,2.71-19.13c0.64-7.02-0.24-13.37-2.28-20.1c-2.61-8.62-5.4-17.49-2.4-26.41
						c2.61-7.77,8.14-14.21,10.62-22.05c2.63-8.28-0.25-16.2-3.87-23.68c-3.85-7.95-8.27-15.33-9.3-24.26
						c-1.18-10.23-0.26-20.64,2.94-30.43c0.76-2.34,1.88-4.57,2.6-6.92c0.79-2.57,0.4-4.84-0.71-7.21
						c-1.87-3.99-3.62-7.94-4.96-12.14c-2.79-8.8-4.2-18.04-3.69-27.27c0.48-8.54,2.78-16.99,7.57-24.13
						c4.14-6.18,9.8-12.21,10.17-20.04c0.2-4.22-1.55-7.91-3.8-11.35c-2.68-4.09-5.26-8.26-7.5-12.61
						c-4.1-7.93-6.98-16.6-6.49-25.62c1-18.63,15.63-34.18,32.31-40.91c8.86-3.57,18.46-4.94,27.97-4.33
						c4.72,0.3,9.54,1.04,14.05,2.5c3.94,1.27,7.55,3.39,11.01,5.62C388.63,86.38,395.24,91.7,403.26,94.23
						c3.69,1.16,5.27-4.63,1.6-5.79c-8.43-2.65-15.27-8.86-22.76-13.32c-8.22-4.9-17.34-6.97-26.85-7.4
						c-19.19-0.86-38.78,6.33-51.73,20.78c-6.63,7.4-11.41,16.65-12.8,26.54c-1.33,9.46,0.65,18.71,4.41,27.4
						c1.91,4.41,4.23,8.63,6.74,12.72c2.17,3.55,5.6,7.25,6.19,11.5c0.48,3.48-1.09,6.78-2.85,9.66c-2.06,3.38-4.57,6.46-6.74,9.76
						c-10.33,15.68-9.82,36.68-4.66,54.06c1.32,4.43,2.99,8.76,4.97,12.93c0.4,0.83,0.94,1.67,1.23,2.55c0.38,1.14,0,2.09-0.42,3.17
						c-0.98,2.54-1.99,5.04-2.77,7.65c-2.99,10-3.81,20.69-2.54,31.04c0.57,4.66,1.65,8.91,3.5,13.23
						c1.83,4.27,4.07,8.35,6.13,12.52c1.88,3.82,3.76,7.85,4.41,12.11c0.55,3.67-0.31,7.26-1.8,10.62
						c-3.42,7.72-9.04,14.59-10.56,23.08c-1.77,9.85,1.49,18.97,4.16,28.29c1.84,6.42,1.79,12.66,0.95,19.26
						c-0.84,6.6-2.21,13.13-2.77,19.77c-0.53,6.26-0.22,12.67,2.35,18.49c2.84,6.42,8.49,10.96,14.8,13.75
						c7.37,3.26,15.38,4.16,23.05,1.36c7.05-2.57,12.95-7.24,18.81-11.8c5.71-4.45,11.5-8.73,18.3-11.38
						c7.24-2.83,14.84-4.61,22.11-7.35c7.22-2.72,14.35-6.4,19.33-12.46c2.46-2.99,4.41-6.3,5.48-10.04
						c0.69-2.42,0.84-4.64,2.3-6.52c5.08-6.53,14.84-6.99,21.85-10.27c7.89-3.69,13.17-12.19,16.64-19.87
						c3.73-8.25,5.92-17.07,7.3-26c0.67-4.31,1.05-8.59,2.45-12.75c1.26-3.73,3.13-7.21,5.14-10.58
						c4.03-6.78,8.56-13.29,10.98-20.87c1.3-4.09,2.08-8.57,1.79-12.87c-0.31-4.54-1.62-8.88-3.35-13.07
						c-3.29-7.95-8.66-15.66-9.85-24.32c-1.09-7.99,3.24-14.43,6.54-21.29c7.79-16.2,6.16-36.77-4.8-51.2
						c-2.59-3.4-6.91-6.58-7.69-11c-0.44-2.54,0.16-5.16,0.67-7.64c0.5-2.4,0.94-4.79,1.24-7.23c1.12-9.2,0.1-18.73-2.77-27.54
						c-5.93-18.25-19.54-32.65-37.3-39.83c-4.18-1.69-8.53-2.94-12.97-3.71c-5.23-0.9-10.72-0.44-15.81-1.91
						C401.14,87.37,399.55,93.16,403.26,94.23z"/>
				</g>
			</g>
			<g>
				<path class="st8" d="M313.9,164.97c1.71,5.16,3.48,10.13,6.17,14.71c2.66,4.59,6.25,8.71,10.26,12.43
					c-4.61-2.92-9.01-6.39-12.7-10.68c-3.71-4.26-6.59-9.24-9.23-14.05L313.9,164.97z"/>
			</g>
			<g>
				<path class="st8" d="M306.05,254.51c2.26,4.42,4.38,8.81,6.78,13.03c2.39,4.22,5.11,8.27,8.4,11.94
					c-3.96-2.93-7.55-6.45-10.84-10.2c-3.29-3.75-6.32-7.71-9.37-11.52L306.05,254.51z"/>
			</g>
			<g>
				<path class="st8" d="M471.25,173.66c-2.03,7.65-3.58,15.75-6.7,23.41c-1.56,3.82-3.56,7.5-6.15,10.7
					c-2.58,3.21-5.76,5.87-9.26,7.85c3.23-2.41,5.97-5.38,8.04-8.72c2.08-3.34,3.52-7.02,4.53-10.8c2.04-7.59,2.57-15.52,3.66-23.61
					L471.25,173.66z"/>
			</g>
			<g>
				<path class="st8" d="M480.21,245.89c-4.18,4.11-7.99,9.15-12.65,13.45c-2.33,2.14-4.9,4.11-7.76,5.51
					c-2.86,1.4-6,2.14-9.08,2.13c3.05-0.5,5.89-1.7,8.32-3.43c2.44-1.72,4.48-3.91,6.32-6.25c3.69-4.72,6.51-10.09,10.3-15.32
					L480.21,245.89z"/>
			</g>
			<g>
				<g>
					<path class="st8" d="M468.54,334.38c-5.16,7.54-13.03,13.1-21.8,15.58c-3.71,1.05-2.13,6.84,1.6,5.79
						c10.34-2.93,19.33-9.48,25.39-18.34c0.92-1.34,0.25-3.33-1.08-4.1C471.16,332.43,469.45,333.04,468.54,334.38L468.54,334.38z"
						/>
				</g>
			</g>
			<g>
				<path class="st8" d="M425.07,409.6c-2.28,1.72-4.84,2.41-7.18,2.65c-2.37,0.22-4.63,0.03-6.81-0.35
					c-2.19-0.39-4.3-1.01-6.34-1.86c-2.1-0.88-3.86-1.97-5.67-3.09c-3.56-2.25-6.81-4.78-10.18-7.1c-1.68-1.16-3.39-2.28-5.17-3.29
					l-1.35-0.73l-1.38-0.68c-0.46-0.22-0.94-0.41-1.41-0.62l-0.35-0.15l-0.18-0.07l-0.09-0.03l0,0c0.06,0,0.04-0.14,0.03-0.09
					l0.02,0.01l0.04,0.02l0.35,0.16l0.09,0.04c-0.02,0.06-0.06-0.01-0.08,0l-0.18-0.08l0.18,0.06c0.02,0.02,0.09-0.01,0.06,0.06
					l-0.09-0.03l-0.37-0.12l-0.05-0.02l-0.03-0.01c-0.02,0.05-0.04-0.11,0.03-0.1l0.02,0l0.1,0.02l0.19,0.05l0.37,0.11
					c0.49,0.15,0.99,0.28,1.48,0.45l1.47,0.51l1.45,0.57c1.92,0.8,3.78,1.71,5.62,2.68c3.67,1.93,7.22,4.03,10.85,5.76
					c1.8,0.84,3.69,1.69,5.47,2.18c1.83,0.52,3.75,0.83,5.64,0.93c1.89,0.1,3.77,0,5.47-0.37c1.7-0.37,3.16-1.11,4.06-2.01
					L425.07,409.6z"/>
			</g>
			<g>
				<path class="st8" d="M354.74,130.8c-0.93,1.92-1.54,3.93-1.63,5.91c-0.1,1.98,0.33,3.89,1.1,5.66c1.56,3.56,4.21,6.65,6.97,9.7
					c2.78,3.07,5.8,6.02,8.48,9.75c2.68,3.92,4.32,8.23,5.16,12.75c0.4,2.26,0.6,4.55,0.58,6.85c-0.05,2.3-0.32,4.6-0.85,6.85
					c-0.55,2.25-1.3,4.46-2.39,6.53c-1.12,2.17-2.62,4.06-4.33,5.65c-0.85,0.81-1.76,1.53-2.73,2.18c-0.95,0.66-1.97,1.24-3.03,1.73
					c-1.05,0.5-2.17,0.88-3.3,1.18c-1.14,0.27-2.33,0.43-3.48,0.45c-4.63,0.05-9.1-1.85-11.94-5.06c3.67,2.15,7.88,2.91,11.65,2.13
					c3.72-0.73,6.98-3.07,9.45-5.9c1.23-1.42,2.24-3,2.94-4.64c0.73-1.74,1.27-3.57,1.6-5.44c0.7-3.74,0.64-7.65-0.06-11.44
					c-0.33-1.9-0.83-3.77-1.51-5.56c-0.34-0.9-0.69-1.79-1.11-2.65c-0.4-0.9-0.84-1.63-1.34-2.46c-2.08-3.25-4.87-6.46-7.41-9.93
					c-2.51-3.48-5.04-7.28-6.12-11.79c-0.48-2.24-0.58-4.63,0.06-6.82C352.1,134.26,353.27,132.34,354.74,130.8z"/>
			</g>
			<g>
				<path class="st8" d="M325.44,219.88c1.68,7.07,4.16,13.68,7.43,19.78c1.63,3.04,3.47,5.94,5.56,8.58
					c2.09,2.63,4.38,5.08,6.99,6.99c5.13,3.96,11.47,5.74,17.96,4.53l1.22-0.21l1.21-0.31c0.82-0.18,1.61-0.46,2.42-0.73
					c0.83-0.26,1.57-0.53,2.3-0.88c0.73-0.34,1.45-0.75,2.13-1.21c1.39-0.89,2.6-2.04,3.54-3.41c0.92-1.37,1.46-3.05,1.31-4.88
					c0.38,0.83,0.61,1.75,0.65,2.72c0,0.96-0.16,1.94-0.46,2.88c-0.63,1.87-1.78,3.52-3.14,4.94c-0.68,0.71-1.44,1.35-2.23,1.94
					c-0.79,0.6-1.69,1.09-2.51,1.52c-0.84,0.45-1.69,0.89-2.59,1.24l-1.34,0.55c-0.46,0.16-0.93,0.29-1.4,0.44
					c-3.73,1.15-7.87,1.46-11.84,0.64c-2-0.35-3.9-1.07-5.74-1.87c-0.88-0.47-1.8-0.88-2.63-1.43l-1.26-0.79l-1.2-0.87
					c-3.17-2.37-5.77-5.29-7.95-8.42c-2.18-3.13-3.92-6.5-5.26-9.99C325.94,234.65,324.64,227.15,325.44,219.88z"/>
			</g>
			<g>
				<path class="st8" d="M445.85,284.97c0.62,4.01,2.97,7,5.34,10.16c1.17,1.61,2.37,3.32,3.24,5.38c0.89,2.03,1.3,4.55,0.96,6.85
					c-0.14,1.18-0.46,2.33-0.88,3.44c-0.45,1.09-1,2.14-1.67,3.08c-1.3,1.93-2.94,3.48-4.65,4.82c-3.45,2.68-7.25,4.46-11.06,5.96
					c-3.82,1.47-7.72,2.57-11.53,3.55l-1.4,0.36c-0.43,0.11-0.86,0.24-1.29,0.38c-0.86,0.28-1.72,0.57-2.57,0.92
					c-1.7,0.68-3.35,1.49-4.93,2.4c-3.11,1.85-6.04,4.19-7.53,7.29c-0.76,1.54-1.02,3.3-0.75,5.11c0.28,1.81,1.05,3.63,2.07,5.34
					c-1.52-1.29-2.83-2.91-3.67-4.89c-0.83-1.97-0.97-4.33-0.43-6.51c0.55-2.18,1.69-4.15,3.04-5.84c1.35-1.7,2.95-3.14,4.64-4.42
					c1.7-1.26,3.49-2.38,5.39-3.31c0.94-0.48,1.91-0.91,2.91-1.29c0.5-0.19,1-0.37,1.51-0.54l1.43-0.47
					c3.76-1.19,7.43-2.31,10.95-3.68c3.52-1.35,6.94-2.9,9.83-4.92c2.9-2,5.2-4.51,5.94-7.58c0.42-1.57,0.37-3.1-0.04-4.78
					c-0.42-1.66-1.2-3.38-2.04-5.16c-0.81-1.79-1.74-3.62-2.32-5.61C445.74,289.05,445.49,286.94,445.85,284.97z"/>
			</g>
			<g>
				<path class="st8" d="M409.34,261.44c-2.39,1.28-3.45,3.57-3.8,5.79c-0.16,1.12-0.14,2.23,0.06,3.26
					c0.21,1.09,0.56,2.15,1.01,3.21c0.9,2.12,2.18,4.2,3.48,6.49c0.66,1.17,1.32,2.46,1.84,3.95c0.5,1.48,0.83,3.25,0.61,5.1
					c-0.24,1.83-1.02,3.57-2.03,4.93c-1.04,1.34-2.23,2.41-3.47,3.26c-1.25,0.84-2.51,1.53-3.8,2.09c-1.29,0.57-2.51,1.02-3.79,1.45
					c-5.08,1.71-10.4,2.7-15.73,2.55c4.81-2.29,9.42-4.44,13.85-6.87c1.09-0.6,2.23-1.23,3.26-1.83c1.01-0.63,1.99-1.26,2.83-1.95
					c0.84-0.69,1.56-1.42,2.06-2.16c0.51-0.73,0.78-1.45,0.88-2.19c0.23-1.44-0.49-3.47-1.55-5.72c-1.06-2.31-2.25-4.83-2.91-7.66
					c-0.33-1.41-0.51-2.9-0.45-4.4c0.05-1.55,0.44-3.05,1.07-4.4c0.66-1.34,1.53-2.57,2.7-3.45
					C406.59,261.95,408.01,261.43,409.34,261.44z"/>
			</g>
			<g>
				<path class="st8" d="M403.87,88.55c1.31,1.11,2.7,2.25,4.03,3.63c1.33,1.36,2.57,2.99,3.43,4.79c0.43,0.89,0.76,1.85,1.02,2.76
					c0.22,0.89,0.45,1.78,0.58,2.68c0.32,1.79,0.47,3.58,0.51,5.35c0.1,3.54-0.24,6.99-0.6,10.4c-0.37,3.41-0.78,6.78-0.92,10.2
					c-0.36-3.4-0.45-6.85-0.58-10.26c-0.14-3.41-0.31-6.8-0.88-10.06c-0.27-1.63-0.65-3.22-1.17-4.74c-0.23-0.77-0.55-1.5-0.84-2.23
					c-0.31-0.69-0.64-1.32-1.04-1.91c-1.58-2.37-4.13-3.96-7.05-5.76L403.87,88.55z"/>
			</g>
			<g>
				<path class="st8" d="M128.12,232.3c2.38,4.88,4.48,9.68,6.72,14.37c2.22,4.69,4.51,9.29,7.05,13.7
					c2.55,4.4,5.31,8.63,8.54,12.49c3.23,3.87,6.92,7.35,11.47,10.32c-5.44-0.6-10.59-3.39-14.81-6.99
					c-4.24-3.63-7.67-8.09-10.41-12.83c-2.74-4.76-4.79-9.84-6.26-15.05C128.99,243.09,128.08,237.73,128.12,232.3z"/>
			</g>
			<g>
				<path class="st8" d="M181.24,91.61c-9.9,4.42-18.74,11.97-24.86,21.63c4.34-10.58,11.97-20.1,21.92-26.86L181.24,91.61z"/>
			</g>
			<g>
				<path class="st8" d="M172.84,412.46c3.31,1.4,6.76,2.56,10.02,2.63c1.61,0.06,3.11-0.26,4.1-0.97c1-0.65,1.59-1.78,1.98-3.14
					c0.37-1.37,0.47-2.94,0.43-4.53c-0.03-0.8-0.11-1.6-0.2-2.39c-0.09-0.79-0.24-1.58-0.41-2.42c-0.64-3.33-1.72-7.01-1.46-11.3
					c0.06-1.05,0.27-2.17,0.55-3.18l0.45-1.48l0.58-1.47c0.89-1.93,2.16-3.86,3.95-5.3c1.78-1.45,3.93-2.38,6.04-2.76
					c2.12-0.41,4.19-0.31,6.14-0.01c3.91,0.64,7.41,2.11,10.63,3.94c3.19,1.88,6.17,4.05,8.65,6.72c-3.26-1.58-6.52-2.99-9.85-4.03
					c-3.31-1.05-6.68-1.84-9.9-1.94c-1.6-0.05-3.15,0.08-4.52,0.48c-1.37,0.41-2.55,1.02-3.49,1.91c-0.95,0.87-1.69,2.02-2.23,3.35
					l-0.39,1.03l-0.31,1.09c-0.19,0.71-0.29,1.36-0.34,2.09c-0.24,2.89,0.55,6.24,1.08,9.93c0.12,0.92,0.24,1.9,0.29,2.89
					c0.06,0.98,0.04,1.97-0.01,2.96c-0.12,1.98-0.46,4-1.28,6.01c-0.41,1-0.99,1.99-1.74,2.88c-0.37,0.45-0.82,0.86-1.28,1.23
					c-0.51,0.32-0.99,0.71-1.55,0.91l-0.82,0.33l-0.83,0.21c-0.55,0.16-1.1,0.15-1.64,0.21c-1.07,0-2.1-0.1-3.06-0.35
					C178.64,416.99,175.48,414.97,172.84,412.46z"/>
			</g>
			<g>
				<path class="st8" d="M198.84,117.05c3.42-5.02,8.2-9.22,13.9-12c5.67-2.79,12.41-3.95,18.88-2.84c1.61,0.29,3.21,0.71,4.77,1.24
					c1.55,0.58,3.06,1.27,4.5,2.1c1.42,0.87,2.78,1.81,4.02,2.96c1.25,1.14,2.39,2.48,3.27,4.04c0.86,1.56,1.42,3.26,1.65,4.93
					c0.25,1.68,0.2,3.32,0,4.9c-0.43,3.15-1.44,6.04-2.67,8.81c-0.04-3.04,0.08-6.04-0.28-8.85c-0.32-2.81-1.17-5.34-2.66-7.22
					c-0.74-0.95-1.68-1.78-2.71-2.55c-1.05-0.75-2.19-1.44-3.36-2.03c-2.36-1.17-4.91-1.97-7.54-2.42
					c-5.29-0.9-10.79-0.4-16.13,1.29C209.12,111.07,203.97,113.83,198.84,117.05z"/>
			</g>
			<g>
				<path class="st8" d="M173.69,250.91c3.14,2.68,5.8,5.6,8.57,8.14c2.74,2.56,5.56,4.72,8.61,6.06c2.97,1.39,6.5,1.82,10.42,2.38
					c3.92,0.58,7.84,1.35,11.73,2.73c-3.98,1.13-7.93,1.65-11.88,1.99c-1.99,0.17-4.06,0.23-6.21,0.04
					c-1.08-0.1-2.17-0.28-3.27-0.54c-0.55-0.13-1.1-0.3-1.63-0.5c-0.53-0.2-1.08-0.36-1.59-0.62c-4.19-1.85-7.42-5.06-9.75-8.49
					C176.34,258.62,174.72,254.9,173.69,250.91z"/>
			</g>
			<g>
				<path class="st8" d="M168.38,289c2.83,1.07,5.57,2.33,8.21,3.87c2.64,1.54,5.17,3.41,7.4,5.73c2.23,2.31,4.04,5.18,5.25,8.19
					c0.63,1.5,1.06,3.06,1.47,4.61c0.34,1.56,0.63,3.13,0.8,4.68c0.35,3.13,0.37,6.21,0.24,9.24c-0.15,3.05-0.45,5.96-0.64,8.83
					c-0.18,2.86-0.25,5.69,0.08,8.47c0.17,1.39,0.45,2.77,0.88,4.13c0.45,1.35,1.07,2.67,1.86,3.98c-1.26-0.84-2.38-1.94-3.33-3.21
					c-0.95-1.26-1.66-2.69-2.26-4.16c-1.15-2.96-1.66-6.1-1.94-9.15c-0.28-3.06-0.26-6.08-0.34-8.95c-0.05-1.44-0.07-2.88-0.17-4.3
					c-0.07-1.42-0.18-2.83-0.34-4.21c-0.59-5.56-2.04-10.73-5.19-15.16C177.25,297.09,172.67,293.27,168.38,289z"/>
			</g>
			<g>
				<path class="st8" d="M276.78,405.13c-2.14,5.27-4.6,10.35-7.52,15.28c-0.8,1.35-1.76,2.55-2.81,3.66
					c-1.04,1.11-2.2,2.1-3.43,2.96c-1.22,0.88-2.54,1.63-3.93,2.22c-1.38,0.61-2.83,1.07-4.33,1.31c-1.49,0.25-3.03,0.34-4.55,0.13
					c-0.76-0.06-1.52-0.33-2.27-0.49c-0.72-0.27-1.45-0.58-2.11-0.94c-2.67-1.58-4.46-3.98-5.96-6.34c-1.5-2.38-2.75-4.84-4.28-7.12
					c-1.51-2.27-3.34-4.41-5.8-5.73c2.57,1.09,4.66,3.11,6.41,5.28c1.76,2.18,3.26,4.55,4.91,6.71c1.65,2.16,3.52,4.14,5.77,5.19
					c0.57,0.24,1.15,0.43,1.74,0.59c0.62,0.06,1.19,0.23,1.82,0.22c1.24,0.07,2.5-0.13,3.7-0.44c4.84-1.32,9.04-5.06,11.19-9.39
					c2.3-4.84,4.24-9.95,5.81-15.12L276.78,405.13z"/>
			</g>
			<g>
				<path class="st8" d="M311.08,324.85c2.3,5.71,5.55,11.13,9.6,15.99c2.03,2.43,4.25,4.71,6.66,6.82c0.6,0.53,1.21,1.05,1.84,1.55
					c0.62,0.51,1.25,1.01,1.9,1.48c0.64,0.49,1.3,0.95,1.97,1.41l1,0.7c0.16,0.12,0.35,0.34,0.27,0.59
					c-0.06,0.13-0.21,0.14-0.3,0.12c-0.1-0.01-0.23-0.14-0.13-0.22c-0.11,0.23,0.34,0.22,0.34,0.07c0.03-0.17-0.12-0.31-0.28-0.4
					l-1.08-0.53c-0.74-0.35-1.47-0.71-2.18-1.1c-0.73-0.37-1.44-0.77-2.14-1.19c-0.71-0.4-1.41-0.83-2.1-1.27
					c-2.77-1.75-5.41-3.74-7.9-5.92c-4.98-4.37-9.35-9.57-12.83-15.41L311.08,324.85z"/>
			</g>
			<g>
				<path class="st8" d="M306.05,396.87c3.32,6.13,5.95,12.31,9.46,17.95c1.74,2.83,3.7,5.51,6.01,7.92c2.3,2.4,4.95,4.52,7.95,6.13
					c-3.2-1.14-6.21-2.9-8.95-5.01c-2.73-2.12-5.2-4.62-7.43-7.27c-4.49-5.3-8.11-11.21-12.09-16.49L306.05,396.87z"/>
			</g>
			<g>
				<path class="st8" d="M322.07,379.35c1.91,6.25,4.67,11.83,8.61,16.41c3.85,4.55,8.97,8.46,13.36,13.59
					c1.1,1.3,2.13,2.63,3.11,4.11c0.94,1.49,1.77,3,2.47,4.58c1.4,3.14,2.42,6.46,2.79,9.95c0.18,1.74,0.19,3.53-0.08,5.31
					c-0.27,1.78-0.81,3.57-1.78,5.14c-0.99,1.56-2.34,2.87-3.89,3.69c-1.55,0.82-3.22,1.21-4.85,1.28c1.47-0.72,2.82-1.57,3.87-2.63
					c1.05-1.07,1.8-2.29,2.21-3.62c0.84-2.65,0.56-5.57-0.13-8.39c-0.72-2.83-1.86-5.62-3.26-8.24c-1.39-2.66-3.02-4.98-5.03-7.28
					c-1.96-2.31-4.17-4.55-6.37-6.92c-1.09-1.19-2.2-2.4-3.25-3.7c-1.06-1.26-2.1-2.68-3-4.11
					C323.19,392.75,321.49,385.85,322.07,379.35z"/>
			</g>
			<g>
				<path class="st8" d="M327.35,301.28c5.4,7.17,12.05,12.78,18.75,18.59c3.35,2.91,6.71,5.9,9.89,9.17
					c3.18,3.27,6.16,6.86,8.63,10.87c2.46,4.04,4.34,8.5,5.27,13.23c0.93,4.71,0.88,9.75-0.62,14.42c-1.51,4.74-4.55,8.8-8.43,11.56
					c-1.96,1.35-4.11,2.43-6.38,3c-2.27,0.58-4.63,0.68-6.83,0.2c4.49-0.38,8.42-2.5,11.32-5.46c2.92-2.94,4.97-6.66,5.76-10.52
					c0.82-3.94,0.6-8.03-0.38-11.98c-0.97-3.95-2.65-7.78-4.82-11.31c-4.37-7.15-10.56-13.31-16.67-19.79
					c-3.05-3.25-6.09-6.6-8.8-10.23C331.36,309.38,328.92,305.5,327.35,301.28z"/>
			</g>
			<g>
				<path class="st8" d="M385.39,112.4c-2.37,4.79-1.88,10.12-0.18,14.75c1.65,4.71,4.69,8.69,7.95,12.7
					c3.25,3.98,6.83,8.04,9.6,12.92c2.75,4.83,4.62,10.16,5.54,15.66c0.92,5.54,0.73,11.01,0.56,16.2
					c-0.18,5.21-0.29,10.23,0.59,15.07c0.86,4.79,2.73,9.47,6.27,12.75c1.75,1.68,3.91,2.97,6.26,3.76c2.36,0.79,4.97,0.95,7.54,0.3
					c-1.16,0.64-2.45,1.05-3.79,1.3c-1.35,0.23-2.73,0.19-4.11,0.03c-1.38-0.15-2.72-0.57-4.02-1.08c-1.3-0.51-2.55-1.19-3.71-1.99
					c-2.35-1.59-4.31-3.83-5.77-6.23c-1.49-2.42-2.53-5.08-3.27-7.77c-1.48-5.4-1.64-10.95-1.68-16.19
					c-0.04-5.26,0.04-10.34-0.79-15.15c-0.79-4.84-2.36-9.56-4.62-13.93c-2.22-4.36-5.36-8.42-8.37-12.82
					c-1.5-2.2-2.97-4.49-4.21-6.93c-0.62-1.21-1.19-2.51-1.67-3.8c-0.44-1.32-0.86-2.63-1.13-3.99c-0.27-1.36-0.45-2.73-0.5-4.11
					c-0.07-1.38,0-2.76,0.24-4.12c0.2-1.36,0.63-2.68,1.14-3.92C383.82,114.55,384.55,113.41,385.39,112.4z"/>
			</g>
			<g>
				<g>
					<path class="st8" d="M263.66,85.86c10.55,8.5,24.62,11.7,37.68,7.62c3.67-1.15,7.18-2.82,10.39-4.93
						c1.35-0.89,1.93-2.65,1.08-4.1c-0.79-1.34-2.75-1.97-4.1-1.08c-6.27,4.13-13.45,6.2-20.87,5.86
						c-7.11-0.33-14.27-3.06-19.93-7.62c-1.26-1.02-3.01-1.23-4.24,0C262.61,82.67,262.39,84.84,263.66,85.86L263.66,85.86z"/>
				</g>
			</g>
			<g>
				<g>
					<path class="st8" d="M278.93,452.3c0.1-0.22,0.21-0.43,0.33-0.64c0.09-0.16,0.37-0.53,0.11-0.21c0.15-0.19,0.33-0.35,0.49-0.52
						c0.06-0.06,0.54-0.47,0.18-0.18c0.83-0.63,1.65-1,2.29-1.23c0.95-0.34,1.93-0.6,2.92-0.81c0.51-0.11,1.02-0.2,1.53-0.28
						c0.25-0.04,0.49-0.08,0.74-0.11c0.57-0.09-0.14,0.01,0.19-0.03c2.38-0.28,4.3-0.3,6.48,0.46c1.74,0.61,3.72,2.04,5.27,3.37
						c1.23,1.05,3.04,1.21,4.24,0c1.08-1.08,1.24-3.18,0-4.24c-2.31-1.98-4.73-3.72-7.6-4.8c-2.78-1.05-5.76-1.13-8.67-0.76
						c-4.96,0.64-11.35,1.89-13.69,6.96c-0.68,1.47-0.42,3.23,1.08,4.1C276.12,454.13,278.24,453.78,278.93,452.3L278.93,452.3z"/>
				</g>
			</g>
		</g>
		<g>
			<path class="st8" d="M273.9,324.84c-1.86,2.57-3.48,5.49-5.23,8.45c-1.74,2.96-3.66,5.97-6.04,8.6
				c-4.7,5.17-10.39,9.3-16.59,12.06c5.73-3.63,10.57-8.45,14.22-13.9c1.79-2.69,3.12-5.66,4.38-8.76c1.26-3.09,2.47-6.34,4.12-9.55
				L273.9,324.84z"/>
		</g>
		<g>
			<path class="st8" d="M279.38,253.6c-1.26,2.41-2.75,4.55-4.28,6.57c-0.76,1.01-1.54,1.99-2.31,2.96
				c-0.77,0.96-1.52,1.93-2.37,2.93c-3.36,3.89-7.25,7-11.17,10c3.23-3.72,6.39-7.56,8.71-11.73c0.56-1.01,1.11-2.13,1.67-3.24
				c0.56-1.1,1.11-2.19,1.63-3.28c1.04-2.17,1.95-4.35,2.56-6.48L279.38,253.6z"/>
		</g>
		<g>
			<path class="st8" d="M272.65,161.59c-3.95,3.27-7.55,7.26-11.37,11.14c-3.81,3.88-7.98,7.58-12.71,10.19
				c4.17-3.45,7.42-7.67,10.39-12.09c2.98-4.42,5.81-9.08,9.42-13.45L272.65,161.59z"/>
		</g>
		<g>
			<path class="st8" d="M157.49,131.67c-1.75,1.13-3.01,2.72-3.85,4.45c-0.83,1.74-1.32,3.61-1.38,5.49
				c-0.23,3.76,0.85,7.46,2.69,10.63c0.93,1.58,2.05,3.04,3.33,4.32c1.31,1.27,2.72,2.45,4.29,3.42c1.56,0.98,3.21,1.84,4.96,2.51
				c1.73,0.7,3.53,1.26,5.38,1.66c7.34,1.64,15.21,1.04,22.53-1.51c7.33-2.54,14.13-6.96,19.6-13.18c-3.36,7.63-10,13.86-17.8,17.54
				c-7.81,3.71-16.98,4.96-25.66,2.99c-4.3-0.99-8.5-2.7-12.19-5.32c-1.84-1.3-3.54-2.84-5.01-4.57c-1.49-1.74-2.7-3.7-3.63-5.76
				c-1.82-4.13-2.48-8.85-1.38-13.21c0.54-2.17,1.5-4.23,2.89-5.93C153.63,133.53,155.47,132.19,157.49,131.67z"/>
		</g>
		<g>
			<path class="st8" d="M112.89,174.65c0.13,2.35,0.37,4.65,0.85,6.91c0.48,2.26,1.21,4.49,2.14,6.68c0.47,1.1,0.97,2.19,1.53,3.2
				c0.57,1.02,1.25,1.99,1.99,2.94c1.49,1.89,3.23,3.68,4.76,5.61c-1.89-1.59-3.91-2.95-5.83-4.57c-0.96-0.81-1.89-1.69-2.74-2.67
				c-0.86-0.99-1.6-2.02-2.33-3.05c-1.45-2.09-2.74-4.34-3.79-6.74c-1.05-2.39-1.85-4.89-2.5-7.38L112.89,174.65z"/>
		</g>
		<g>
			<path class="st8" d="M106.1,250.29c1.76,6.08,3.93,12.05,6.65,17.81c2.73,5.75,6.01,11.3,9.86,16.48
				c-4.61-4.53-8.78-9.57-12.47-14.99c-3.68-5.42-6.87-11.21-9.66-17.18L106.1,250.29z"/>
		</g>
		<g>
			<path class="st8" d="M109.79,336.58c0.96,1.95,2.16,3.84,3.51,5.72c1.34,1.86,2.84,3.78,4.26,5.65c2.85,3.7,6.01,7.19,10.04,9.76
				c-4.48-1.67-8.52-4.56-12.2-7.69c-1.83-1.58-3.62-3.07-5.44-4.72c-1.81-1.64-3.6-3.44-5.2-5.48L109.79,336.58z"/>
		</g>
		<g>
			<path class="st8" d="M178.01,365.85c-7.92-0.62-15.84-4.71-21.06-11.46c-1.27-1.7-2.42-3.54-3.29-5.52c-0.86-2-1.5-4.06-1.93-6.1
				c-0.88-4.1-1.08-8.11-1.64-11.73c-0.54-3.62-1.56-6.83-3.53-9.59c-0.51-0.68-1-1.38-1.62-2c-0.31-0.33-0.55-0.62-0.91-0.99
				l-1.06-1.1c-1.39-1.48-2.74-3.01-3.97-4.63c-2.49-3.22-4.58-6.7-6.36-10.26c-1.75-3.59-3.33-7.19-4.7-10.92
				c5,6.18,9.33,12.73,14.64,18.1c1.31,1.37,2.69,2.65,4.09,3.92l1.07,0.93c0.35,0.3,0.77,0.73,1.16,1.1
				c0.81,0.73,1.51,1.59,2.23,2.44c1.35,1.77,2.51,3.73,3.29,5.82c0.77,2.08,1.27,4.2,1.6,6.27c0.6,4.13,0.7,7.99,1.29,11.59
				c0.26,1.82,0.72,3.54,1.25,5.2c0.58,1.66,1.36,3.26,2.26,4.81C164.55,357.91,170.72,362.82,178.01,365.85z"/>
		</g>
		<g>
			<path class="st8" d="M232.74,198.62c2.69,4.09,6.26,6.78,9.57,10.49c1.65,1.83,3.23,3.95,4.36,6.46
				c0.55,1.25,0.95,2.56,1.27,3.89c0.28,1.33,0.42,2.69,0.47,4.05c0.04,2.72-0.42,5.45-1.42,7.98c-0.5,1.26-1.11,2.49-1.87,3.62
				c-0.74,1.14-1.6,2.18-2.56,3.11c-3.78,3.73-9.05,5.8-13.97,5.23c4.49-1.94,7.99-4.84,10.39-8.31c2.39-3.44,3.5-7.46,3.44-11.52
				c-0.02-2.02-0.38-4.03-1.02-5.95c-0.32-0.95-0.75-1.89-1.22-2.85c-0.51-0.95-1.04-1.92-1.64-2.9c-1.17-1.97-2.51-3.98-3.63-6.2
				C233.79,203.52,232.88,201.08,232.74,198.62z"/>
		</g>
		<g>
			<path class="st8" d="M242.39,288.87c-0.94,0.56-1.75,1.19-2.42,1.89c-0.66,0.73-1.18,1.51-1.62,2.33
				c-0.86,1.65-1.36,3.44-1.64,5.25c-0.14,0.91-0.19,1.82-0.22,2.71c0.01,0.88,0.03,1.84,0.11,2.79c0.15,1.92,0.38,3.92,0.59,6.01
				c0.09,1.05,0.16,2.13,0.21,3.22c0.02,1.1,0.02,2.23-0.06,3.37c-0.11,1.15-0.23,2.28-0.54,3.5c-0.31,1.18-0.72,2.32-1.26,3.39
				c-1.08,2.13-2.61,4.06-4.61,5.4c-1.01,0.65-2.1,1.17-3.26,1.4c-1.15,0.23-2.32,0.2-3.36-0.09c1.04-0.37,1.93-0.84,2.7-1.43
				c0.76-0.6,1.39-1.3,1.92-2.04c1.07-1.5,1.77-3.2,2.21-4.94c0.22-0.87,0.35-1.75,0.45-2.61c0.05-0.84,0.08-1.79,0.05-2.72
				c-0.06-1.88-0.24-3.84-0.44-5.88c-0.18-2.05-0.35-4.21-0.29-6.45c0.05-1.13,0.11-2.25,0.32-3.45c0.21-1.17,0.52-2.32,0.94-3.42
				c0.85-2.19,2.12-4.27,3.9-5.85c0.9-0.78,1.89-1.45,2.98-1.86C240.17,288.97,241.31,288.79,242.39,288.87z"/>
		</g>
	</g>
</g>
<g id="手_10_">
	<path class="st8" d="M67,164c0,0,2,19,5,23s11,21,11,21l-7,61l-11,89c0,0-1,31,11,31s13,0,31-7s36-19,36-19s-10-12-12-20
		s-3-20-3-20l-34,26l8-141c0,0,6-8,21-15s19-27,19-27s2-20-11-19s-9,10-9,10s-9,14-18,14S67,164,67,164z"/>
	<path class="st8" d="M180,151c0,0-3,3-4,8s0,13,0,13l-34-6c0,0,1.23-13.44-3.38-16.22c-4.62-2.78-11.41-4.47-13.51-1.13
		s-5.54,9.43-7.32,12.39c-1.78,2.96-5.36,7.06-9.57,9.01c-4.21,1.95-4.57,3.43-12.39,1.69C88,170,36,158,36,158s-10-7-7-24
		s8-27,13-26s73,17,73,17l13,12L180,151z"/>
	<path class="st8" d="M79,117l36,8l13,12l8,2c0,0-1-24-12-31S89,97,79,117z"/>
	<path class="st8" d="M95.26,315.34c0,0-7.76,3.16-14.76,3.16s-10.58-0.35-10.58-0.35L83.5,208.5c0,0-9-11-11-21S67,164,67,164
		s21.5,6.5,28.5,7.5s18-2,22-10s8-13,8-13l5.5-1.5l7.5,2.5c0,0,7,8,4,17s-8.42,18.4-15.71,22.7c-7.29,4.3-21.29,10.3-24.29,19.3
		S95.26,315.34,95.26,315.34z"/>
	<path class="st8" d="M79,117l36,8l13,12l8,2c0,0,2-24-12-31s-21.42-6.08-21.42-6.08S86,101,79,117z"/>
	<path class="st8" d="M444,316l22,36l33-86c0,0-4-12-8-18s-10-19-7-30s6-18,11-18s10,0,10,1s8-17,14-18s13-1,17,5s4,10,4,10
		s10-4,14,0s8,3,8,16s-1,24-4,28s-8,16-12,18s-24,15-24,15l-47,123c0,0-5,5-13,2s-48-49-48-49S429,358,444,316z"/>
	<path class="st8" d="M468.32,348c0,0,5.18-1.5,9.18,1.5s11.66,8.92,11.66,8.92l30.34-82.92c0,0,25-11,27-15
		s15.29-22.45,16.15-32.73s1.26-25.35-3.94-27.31c-5.2-1.96-6.57-3.92-12.39-3.94c-5.82-0.02-5.82,1.98-5.82,1.98
		s-1.16-15.12-11.08-16.06c-9.92-0.94-12.05,0.95-15.49,4.5c-3.44,3.55-8.44,13.55-8.44,13.55s-3-5-10-1s-9,9-11,15
		s-1.69,15.44,0.15,21.72c1.85,6.28,10.49,19.33,12.67,22.81s1.7,5.99-0.56,13.23C494.5,279.5,468.32,348,468.32,348z"/>
	<g>
		<g>
			<path class="st8" d="M183.15,193.93c-1.8-1.31-3.74-2.35-5.84-3.04c7.02,12.43,9.08,26.75,7.92,40.91
				c-0.36,4.45-0.76,9.2,1.37,13.12s7.88,6.18,11.18,3.17c1.84-1.68,2.32-4.35,2.55-6.82C201.53,227.8,196.21,203.47,183.15,193.93z
				"/>
		</g>
		<g>
			<path class="st8" d="M212.21,152.33c-2.64-0.81-5.34-1.52-8.11-2.13c4.84,1.06,11.55-0.82,16.67-0.85
				c13.86-0.06,29.37,3.17,41.03,10.96c6.1,4.07,19.64,15.76,11.47,24.3c-7.12,7.44-16.76-5.2-21.85-9.72
				C240.02,164.75,226.84,156.82,212.21,152.33z"/>
		</g>
		<path class="st8" d="M191,180c0,0,23,16,24,49c0.88,28.99-8,81-8,81s-2.22,24.22-1,34c1,8,1,12,12,16c5.3,1.93,8.13-3.79,12,2
			c2.76,4.13,3.62,10.16,6,14c2.97,4.78,15.75,6.42,21,5c8.06-2.18,13.59-8.78,17-19c1-3,3.64,0.72,10,0c9.42-1.07,12-18,11-27
			c-1.45-13.08-8-50-22-86c-10.86-27.93-31-61-48-73s-21-13-21-13S205,175,191,180z"/>
		<path class="st8" d="M51.66,159.76c28.5-21.5,40.17-6.03,68.67-27.53l6.16,4.26l56,15c0,0,4.5,3.5,2.5,11.5s-6.5,10.5-6.5,10.5
			l-37.07-3.45v-13.51c0,0-1.93-12.04-10.93-10.04S122,157,122,157l-4.5,4.5l-9.29,8.55L104,171L51.66,159.76z"/>
	</g>
	<g>
		<g>
			<g>
				<path class="st8" d="M125.85,320.39c-10.66,9.58-22.56,17.66-33.22,27.24c-1.21,1.08-1.1,3.14,0,4.24c1.2,1.2,3.03,1.09,4.24,0
					c10.66-9.58,22.56-17.66,33.22-27.24c1.21-1.08,1.1-3.14,0-4.24C128.9,319.2,127.06,319.31,125.85,320.39L125.85,320.39z"/>
			</g>
		</g>
		<g>
			<g>
				<path class="st8" d="M65.49,166.13c1.18,15.53,6.6,30.65,15.92,43.17c-0.14-0.5-0.27-1.01-0.41-1.51
					c-0.91,8.45-1.86,16.89-2.82,25.33c-2.1,18.43-4.28,36.85-6.59,55.25c-2.32,18.4-4.58,35.98-7.57,54.45
					c-1.44,8.89-2.86,17.91-1.83,26.93c0.88,7.67,3.53,15.81,10.58,19.93c8.55,5,19.55,2.29,28.17-1.03
					c12.63-4.87,23.64-12.78,35.58-19.01c2.86-1.49,5.78-2.88,8.77-4.08c1.5-0.6,2.56-2,2.1-3.69c-0.39-1.43-2.18-2.7-3.69-2.1
					c-13.8,5.51-25.72,14.5-39.11,20.83c-3.15,1.48-6.38,2.78-9.7,3.82c-1.5,0.47-3.02,0.88-4.55,1.21
					c-0.65,0.14-1.3,0.27-1.96,0.38c-0.31,0.05-0.63,0.1-0.94,0.15c0.45-0.06-0.61,0.07-0.73,0.08c-1.18,0.12-2.36,0.17-3.55,0.15
					c-0.52-0.01-1.05-0.04-1.57-0.09c-0.23-0.02-0.95-0.11-0.33-0.02c-0.28-0.04-0.56-0.09-0.84-0.14
					c-0.95-0.18-1.88-0.42-2.79-0.75c-0.21-0.08-0.41-0.16-0.62-0.24c0.72,0.28-0.01-0.02-0.18-0.1c-0.42-0.2-0.82-0.42-1.22-0.66
					c-0.36-0.22-0.7-0.46-1.05-0.69c-0.47-0.31,0.37,0.33-0.05-0.04c-0.21-0.18-0.42-0.36-0.63-0.54c-0.31-0.28-0.6-0.57-0.88-0.87
					c-0.14-0.15-0.28-0.31-0.42-0.46c-0.08-0.1-0.55-0.67-0.29-0.35c0.26,0.33-0.14-0.2-0.2-0.29c-0.14-0.2-0.28-0.41-0.42-0.62
					c-0.25-0.39-0.49-0.79-0.72-1.2c-0.21-0.39-0.41-0.78-0.6-1.18c-0.05-0.1-0.33-0.72-0.17-0.36c0.15,0.35-0.14-0.36-0.19-0.48
					c-0.75-1.95-1.26-3.99-1.61-6.05c-0.04-0.25-0.08-0.5-0.12-0.76c-0.03-0.23-0.1-0.77-0.03-0.23c-0.07-0.57-0.13-1.14-0.18-1.71
					c-0.11-1.18-0.17-2.37-0.2-3.55c-0.07-2.47,0.01-4.94,0.19-7.4c0.09-1.31,0.22-2.62,0.36-3.93c0.17-1.52,0.24-2.04,0.43-3.36
					c0.65-4.4,1.43-8.78,2.1-13.18c1.54-10.13,2.94-20.27,4.28-30.43c1.44-10.91,2.82-21.83,4.15-32.75
					c1.25-10.21,2.45-20.43,3.64-30.64c0.91-7.86,1.8-15.71,2.68-23.57c0.43-3.83,0.98-7.68,1.27-11.53
					c0.06-0.84-0.11-1.52-0.62-2.29c-2.03-3.05-4.11-5.99-5.86-9.22c-3.45-6.39-5.95-13.25-7.49-20.34
					c-0.73-3.38-1.23-6.79-1.49-10.23c-0.12-1.62-1.29-3-3-3C66.96,163.13,65.36,164.51,65.49,166.13L65.49,166.13z"/>
			</g>
		</g>
		<g>
			<g>
				<path class="st8" d="M138.97,138.53c0.63-10.98-1.69-22.96-10.23-30.6c-4.55-4.07-10.26-6.56-16.22-7.72
					c-6.57-1.28-13.53-1.2-19.86,1.16c-6.87,2.55-12.46,7.29-16.39,13.45c-0.87,1.37-0.28,3.31,1.08,4.1
					c1.45,0.85,3.23,0.29,4.1-1.08c2.9-4.53,6.79-8.05,11.82-10.3c4.74-2.11,10.67-2.66,16.1-1.83c2.85,0.44,5.68,1.16,8.35,2.25
					c0.61,0.25,2.12,0.99,3.03,1.52c0.53,0.31,1.05,0.63,1.56,0.97c0.25,0.17,0.5,0.34,0.74,0.52c0.16,0.12,0.32,0.24,0.48,0.36
					c-0.22-0.17-0.19-0.14,0.09,0.08c0.83,0.68,1.61,1.4,2.35,2.17c1.01,1.06,1.39,1.54,2.05,2.5c0.65,0.94,1.23,1.93,1.75,2.94
					c0.26,0.51,0.51,1.03,0.74,1.56c0.38,0.87-0.2-0.53,0.14,0.35c0.14,0.36,0.28,0.73,0.41,1.09c1.94,5.51,2.26,10.56,1.92,16.49
					c-0.09,1.62,1.45,3,3,3C137.67,141.53,138.87,140.15,138.97,138.53L138.97,138.53z"/>
			</g>
		</g>
		<g>
			<g>
				<path class="st8" d="M34.57,159.89c5.65,1.35,11.29,2.7,16.94,4.05c10.61,2.53,21.21,5.07,31.82,7.6
					c6.05,1.44,12.1,3.13,18.2,4.35c2.81,0.56,6.07-1.48,8.3-2.87c4.04-2.52,7.52-5.76,10.4-9.54c1.33-1.74,2.48-3.58,3.48-5.53
					c0.86-1.65,1.64-3.36,2.71-4.88c0.03-0.05,0.35-0.44,0.09-0.12c0.13-0.16,0.26-0.31,0.4-0.45c0.27-0.29,0.56-0.58,0.87-0.82
					c-0.36,0.27,0.58-0.32,0.66-0.36c0.28-0.15,0.5-0.22,1.13-0.37c0.63-0.15,1.58-0.2,2.41-0.19c0.43,0,0.86,0.02,1.29,0.07
					c-0.13-0.02-0.49-0.09,0.11,0.02c0.29,0.05,0.57,0.12,0.85,0.19c0.35,0.1,0.71,0.21,1.05,0.35c-0.56-0.23,0.34,0.2,0.46,0.27
					c0.17,0.1,0.9,0.65,0.43,0.26c0.29,0.24,0.56,0.5,0.82,0.77c0.14,0.15,0.28,0.31,0.41,0.47c-0.08-0.11-0.29-0.46-0.03,0
					c0.17,0.3,0.36,0.57,0.52,0.88c0.08,0.15,0.15,0.31,0.23,0.46c-0.05-0.11-0.19-0.53,0,0.01c0.13,0.38,0.27,0.77,0.37,1.16
					c0.11,0.41,0.2,0.82,0.28,1.23c0.03,0.19,0.07,0.38,0.09,0.57c-0.02-0.14-0.04-0.52,0,0.08c0.05,0.87,0.1,1.74,0.07,2.62
					c-0.06,2.07-0.39,4.13-0.78,6.16c-1.71,8.85-5.96,17-13.38,22.15c-7.18,4.99-16.29,7.13-22.33,13.73
					c-1.73,1.89-3.86,4.56-4.07,7.21c-0.04,0.56-0.06,1.12-0.1,1.68c-0.4,7.08-0.8,14.16-1.19,21.24
					c-0.69,12.44-1.38,24.88-2.06,37.32c-0.79,14.5-1.58,28.99-2.34,43.49c-0.7,13.26-1.39,26.53-2.04,39.79
					c-0.13,2.66-0.26,5.32-0.38,7.99c-0.08,1.62,1.43,3,3,3c1.69,0,2.92-1.38,3-3c0.52-11.04,1.08-22.07,1.65-33.11
					c0.67-13,1.37-25.99,2.07-38.99c0.67-12.47,1.36-24.94,2.05-37.4c0.53-9.65,1.07-19.29,1.61-28.94
					c0.24-4.33,0.76-8.75,0.74-13.09c0-0.06,0.01-0.12,0.01-0.18c-0.14,0.5-0.27,1.01-0.41,1.51c3.66-8.54,13.71-10.97,21.08-15.33
					c8.69-5.14,14.83-13.04,17.72-22.72c1.33-4.46,2.33-9.41,2.15-14.08c-0.14-3.71-1.15-7.51-3.78-10.26
					c-2.79-2.93-7.01-3.9-10.92-3.53c-2.51,0.24-4.73,0.98-6.68,2.61c-1.5,1.25-2.6,2.95-3.53,4.64c-1.15,2.1-2.14,4.27-3.47,6.28
					c-1.39,2.1-3.04,4.01-4.87,5.73c-1.84,1.73-3.86,3.21-6.06,4.46c-0.57,0.33-1.15,0.64-1.74,0.93c-0.21,0.11-0.99,0.35-0.21,0.13
					c-0.1,0.03-0.2,0.05-0.3,0.07c-0.6,0.11-1.19,0.29-1.79,0.43c0.53,0,1.06,0,1.6,0c-7.58-1.81-15.17-3.62-22.75-5.43
					c-11.99-2.86-23.98-5.73-35.96-8.59c-2.76-0.66-5.53-1.32-8.29-1.98C32.42,153.21,30.81,158.99,34.57,159.89L34.57,159.89z"/>
			</g>
		</g>
		<g>
			<g>
				<path class="st8" d="M176,170c-10.2-1.13-20.4-2.27-30.61-3.4c-1.47-0.16-2.93-0.33-4.4-0.49c-1.61-0.18-3,1.51-3,3
					c0,1.77,1.38,2.82,3,3c10.2,1.13,20.4,2.27,30.61,3.4c1.47,0.16,2.93,0.33,4.4,0.49c1.61,0.18,3-1.51,3-3
					C179,171.23,177.62,170.18,176,170L176,170z"/>
			</g>
		</g>
		<g>
			<g>
				<path class="st8" d="M46.15,111.64c7.93,1.89,15.86,3.79,23.79,5.68c11.47,2.74,22.93,5.48,34.4,8.21
					c3.75,0.9,7.53,1.53,10.46,4.31c1.74,1.65,3.4,3.39,5.09,5.08c1.03,1.03,2.05,2.05,3.08,3.08c0.72,0.71,1.34,1.47,2.35,1.79
					c2.63,0.85,5.42,1.37,8.1,2.04c5.89,1.49,11.78,2.97,17.66,4.46c9.86,2.49,19.73,4.98,29.59,7.46c0.18,0.05,0.36,0.09,0.54,0.14
					c3.75,0.94,5.34-4.84,1.6-5.79c-6.3-1.59-12.59-3.18-18.89-4.76c-10.03-2.53-20.07-5.06-30.1-7.59c-2.3-0.58-4.6-1.16-6.91-1.74
					c0.44,0.26,0.88,0.51,1.32,0.77c-2.05-2.05-4.11-4.11-6.16-6.16c-2.97-2.97-5.81-5.72-9.85-7.24
					c-3.36-1.26-7.09-1.83-10.57-2.66c-14.05-3.36-28.1-6.71-42.15-10.07c-3.92-0.94-7.83-1.87-11.75-2.81
					C43.99,104.95,42.39,110.74,46.15,111.64L46.15,111.64z"/>
			</g>
		</g>
		<g>
			<g>
				<path class="st8" d="M26.82,129.73c-1.14,5.25-1.71,10.71-1.06,16.06c0.51,4.19,1.61,8.56,4.52,11.76
					c2.41,2.66,6.18,3.75,9.61,2.59c3.87-1.3,6.76-4.42,9.02-7.7c2.87-4.16,4.81-9.03,6.1-13.89c1.4-5.28,2.14-10.9,1.76-16.36
					c-0.51-7.22-3.86-18.24-13.25-16.46c-4.34,0.82-7.68,4.5-10.07,7.97C30.16,118.46,28.09,124.12,26.82,129.73
					c-0.36,1.58,0.48,3.25,2.1,3.69c1.51,0.41,3.33-0.51,3.69-2.1c0.98-4.32,2.41-8.53,4.62-12.38c0.95-1.65,1.78-2.88,2.9-4.13
					c0.52-0.57,1.06-1.12,1.65-1.63c0.14-0.12,0.28-0.24,0.42-0.35c-0.42,0.33-0.06,0.05,0.02-0.01c0.34-0.24,0.69-0.47,1.06-0.67
					c0.18-0.1,1.02-0.47,0.35-0.21c0.28-0.11,0.56-0.21,0.85-0.29c0.25-0.07,1.07-0.14,0.26-0.09c0.32-0.02,0.62-0.03,0.94-0.02
					c0.71,0.01-0.45-0.17,0.23,0.04c0.11,0.03,0.94,0.33,0.56,0.16c-0.39-0.18,0.41,0.25,0.5,0.31c0.09,0.05,0.47,0.33,0.15,0.09
					c-0.35-0.27,0.15,0.14,0.22,0.2c0.22,0.22,0.43,0.45,0.65,0.68c0.37,0.38,0.06,0.07-0.01-0.03c0.1,0.14,0.2,0.28,0.29,0.42
					c0.19,0.29,0.37,0.6,0.54,0.91c0.1,0.19,0.59,1.23,0.41,0.81c0.68,1.64,1.09,3.4,1.35,5.14c1.23,8.13-0.76,17.96-4.66,25.48
					c-0.44,0.86-0.92,1.7-1.43,2.52c-0.47,0.75-1.13,1.7-1.46,2.12c-0.5,0.63-1.05,1.24-1.62,1.81c-0.27,0.26-0.54,0.52-0.83,0.77
					c-0.14,0.12-0.28,0.24-0.42,0.35c0.33-0.26,0.06-0.04-0.13,0.08c-0.28,0.19-0.56,0.37-0.85,0.54c-0.1,0.06-0.94,0.48-0.6,0.33
					c0.34-0.15-0.48,0.16-0.6,0.2c-0.3,0.09-1.1,0.17-0.36,0.12c-0.28,0.02-0.56,0.03-0.84,0.03c-0.14,0-0.28-0.02-0.41-0.03
					c0.79,0.05,0.34,0.07,0.18,0.01c-0.26-0.11-0.56-0.16-0.82-0.25c0.75,0.26-0.22-0.19-0.43-0.3c-0.13-0.07-0.43-0.36,0.07,0.07
					c-0.14-0.12-0.29-0.25-0.43-0.38c-0.26-0.25-0.5-0.51-0.72-0.79c0.41,0.5-0.29-0.46-0.4-0.64c-0.21-0.35-0.4-0.71-0.58-1.08
					c-0.03-0.06-0.27-0.6-0.14-0.29c0.13,0.3-0.15-0.4-0.17-0.46c-0.18-0.48-0.33-0.98-0.47-1.47c-0.27-0.97-0.48-1.95-0.64-2.94
					c-0.72-4.53-0.23-9.99,0.8-14.73c0.34-1.58-0.47-3.24-2.1-3.69C29.01,127.22,27.17,128.14,26.82,129.73z"/>
			</g>
		</g>
		<g>
			<g>
				<path class="st8" d="M182.48,162.63c-0.39,1.84-0.9,3.52-1.68,5c-0.19,0.36-0.4,0.72-0.62,1.07c-0.1,0.17-0.68,0.93-0.36,0.55
					c-0.19,0.23-0.39,0.46-0.61,0.67c-0.11,0.11-0.24,0.22-0.35,0.33c-0.25,0.25,0.45-0.23-0.02,0.01c-0.2,0.1-0.98,0.43-0.19,0.16
					c-0.12,0.04-0.24,0.06-0.36,0.1c0.07-0.02,0.75-0.03,0.26-0.04c-0.5-0.01,0.69,0.21-0.01-0.02c-0.37-0.12,0.55,0.27,0.21,0.07
					c-0.2-0.12,0.29,0.47,0.06,0.06c-0.04-0.08-0.23-0.24-0.28-0.3c0.1,0.1,0.3,0.52,0.08,0.07c-0.07-0.14-0.41-0.77-0.29-0.5
					c0.16,0.35-0.06-0.17-0.08-0.25c-0.06-0.18-0.11-0.35-0.16-0.53c-0.12-0.43-0.21-0.87-0.28-1.31c0.07,0.46-0.06-0.73-0.06-0.82
					c-0.02-0.41-0.03-0.82-0.03-1.22c0.01-0.94,0.08-1.93,0.22-2.79c0.3-1.79,0.87-3.83,1.54-5.22c0.34-0.7,0.72-1.37,1.15-2.02
					c0.04-0.06,0.4-0.54,0.18-0.26c-0.21,0.27,0.14-0.16,0.19-0.22c0.25-0.27,0.52-0.53,0.79-0.78c-0.42,0.38-0.02,0.04,0.2-0.1
					c0.11-0.07,0.52-0.22,0.1-0.07c-0.43,0.15-0.01,0.01,0.1,0c0.4-0.05-0.65,0.04-0.26,0.03c0.09,0,0.18-0.01,0.27,0
					c-0.83-0.12-0.45-0.06-0.26-0.02c0.61,0.15-0.59-0.3-0.04,0.01c-0.53-0.3-0.15-0.07,0.14,0.2c-0.42-0.38-0.18-0.27-0.08-0.07
					c0.11,0.21,0.23,0.42,0.34,0.63c-0.27-0.53,0.09,0.3,0.16,0.52c0.12,0.43,0.21,0.86,0.29,1.29c0.09,0.51-0.03-0.39,0.02,0.15
					c0.03,0.28,0.05,0.55,0.07,0.83c0.03,0.53,0.03,1.06,0.02,1.58C182.81,160.55,182.69,161.55,182.48,162.63
					c-0.31,1.59,0.45,3.24,2.1,3.69c1.47,0.4,3.38-0.5,3.69-2.1c0.87-4.44,1.32-10.7-2.21-14.22c-1.52-1.52-3.7-2.08-5.75-1.44
					c-2.14,0.66-3.75,2.42-4.95,4.23c-2.76,4.15-4.05,9.89-3.58,14.83c0.41,4.23,2.65,9.8,7.93,8.73c2.31-0.47,4.04-2.28,5.33-4.13
					c1.64-2.35,2.64-5.21,3.23-7.99c0.34-1.58-0.47-3.24-2.1-3.69C184.67,160.13,182.81,161.04,182.48,162.63z"/>
			</g>
		</g>
		<g>
			<g>
				<path class="st8" d="M189.15,182.79c10.71,7.43,17.47,19.42,20.62,31.87c3.78,14.96,2.4,30.81,1.08,46
					c-1.44,16.59-4.22,32.98-6.28,49.49c-0.98,7.83-1.91,15.76-1.86,23.66c0.04,7.11,0.95,14.47,4.17,20.89
					c2.76,5.5,8.66,9.22,14.82,9.44c7.14,0.25,12.31-6.08,15.37-11.85c0.89-1.68,1.62-3.44,2.23-5.24c0.52-1.54-0.6-3.28-2.1-3.69
					c-1.64-0.45-3.17,0.55-3.69,2.1c-1.01,2.99-2.55,5.87-4.58,8.3c-0.97,1.16-2.3,2.64-3.35,3.39c0.03-0.02-0.46,0.27-0.62,0.36
					c-0.13,0.08-0.27,0.15-0.41,0.21c0.06-0.03,0.33-0.13,0.01-0.01c-0.29,0.11-0.58,0.19-0.88,0.27c-0.15,0.04-1.01,0.17-0.57,0.13
					c-2.52,0.27-4.74-0.45-6.94-1.8c-1.13-0.69-1.67-1.17-2.65-2.24c-0.35-0.38,0.03,0.1-0.26-0.32c-0.16-0.23-0.32-0.47-0.46-0.72
					c-0.43-0.72-0.81-1.47-1.15-2.23c-2.67-5.83-3.04-12.67-2.92-18.98c0.14-7.81,1.07-15.62,2.07-23.36
					c2.07-16.09,4.71-32.07,6.1-48.24c1.3-15.12,2.46-30.7-0.97-45.63c-2.93-12.79-9.44-25.29-19.6-33.81
					c-1.33-1.12-2.72-2.17-4.14-3.16c-1.33-0.92-3.33-0.25-4.1,1.08C187.21,180.17,187.82,181.86,189.15,182.79L189.15,182.79z"/>
			</g>
		</g>
		<g>
			<g>
				<path class="st8" d="M184.67,191.34c-2.02-1.45-4.21-2.54-6.56-3.34c-2.57-0.87-4.6,2.24-3.39,4.41
					c5.07,9.06,7.48,19.32,7.78,29.66c0.08,2.73,0.02,5.46-0.16,8.18c-0.17,2.56-0.47,5.11-0.39,7.68
					c0.15,5.08,1.81,10.17,6.38,12.9c4.09,2.45,9.51,2.24,12.54-1.74c2.55-3.35,2.64-8.09,2.62-12.14
					c-0.05-7.84-1.51-15.82-4.03-23.24C196.54,205.16,192.05,196.81,184.67,191.34c-1.3-0.96-3.35-0.22-4.1,1.08
					c-0.89,1.53-0.23,3.14,1.08,4.1c0.48,0.35,0.2,0.14,0.09,0.06c0.15,0.12,0.31,0.25,0.46,0.37c0.3,0.25,0.6,0.51,0.9,0.78
					c0.67,0.61,1.31,1.25,1.92,1.91c1.25,1.37,1.86,2.17,2.88,3.7c1.99,2.98,3.67,6.36,4.85,9.42c2.62,6.76,4.18,13.94,4.62,20.73
					c0.2,3.01,0.31,6.39-0.24,9.22c-0.17,0.9-0.37,1.7-0.8,2.43c-0.37,0.62-0.78,0.98-1.25,1.17c-0.52,0.2-0.77,0.22-1.64,0.13
					c-0.51-0.05,0.38,0.08-0.12-0.03c-0.2-0.05-0.41-0.1-0.61-0.16c-0.48-0.13-0.4-0.09-0.91-0.37c-1.46-0.78-2.32-1.64-2.98-3.27
					c-0.82-2.02-0.91-4.23-0.85-6.38c0.12-4.89,0.7-9.71,0.53-14.61c-0.38-11.25-3.07-22.38-8.59-32.24
					c-1.13,1.47-2.26,2.94-3.39,4.41c1.86,0.63,3.54,1.59,5.13,2.73c1.32,0.94,3.34,0.23,4.1-1.08
					C186.62,193.93,185.99,192.29,184.67,191.34z"/>
			</g>
		</g>
		<g>
			<g>
				<path class="st8" d="M213.01,149.44c-2.68-0.81-5.38-1.52-8.11-2.13c-0.53,1.93-1.06,3.86-1.6,5.79
					c5.97,1.22,11.88-0.73,17.86-0.74c5.74-0.01,11.48,0.55,17.11,1.73c5.8,1.22,11.52,3.04,16.8,5.76
					c2.22,1.14,4.37,2.42,6.39,3.88c0.37,0.26,0.73,0.54,1.09,0.81c-0.47-0.36,0.51,0.41,0.66,0.53c0.83,0.67,1.64,1.37,2.42,2.1
					c0.83,0.77,1.63,1.56,2.4,2.39c0.35,0.38,0.7,0.77,1.03,1.17c0.41,0.48,0.72,0.88,0.87,1.09c0.59,0.81,1.14,1.65,1.62,2.53
					c0.14,0.26,0.27,0.51,0.4,0.78c0.02,0.04,0.38,0.9,0.15,0.33c0.2,0.51,0.38,1.04,0.51,1.57c0.04,0.17,0.07,0.35,0.12,0.53
					c0.22,0.81,0-0.57,0.05,0.25c0.03,0.44,0.02,0.87,0.02,1.31c0.01,0.8,0.16-0.54-0.02,0.24c-0.04,0.17-0.07,0.34-0.11,0.51
					c-0.07,0.26-0.15,0.51-0.24,0.77c0.2-0.57-0.15,0.29-0.22,0.42c-0.48,0.87-0.8,1.3-1.74,2.1c0.36-0.31-0.09,0.07-0.2,0.13
					c-0.19,0.12-0.39,0.23-0.58,0.34c-0.65,0.4,0.48-0.08-0.23,0.1c-0.24,0.06-0.49,0.12-0.72,0.19c-0.67,0.19,0.51,0.09-0.18,0.01
					c-0.15-0.02-0.34,0-0.49,0c-0.15,0-0.91-0.14-0.19,0c-0.25-0.05-0.5-0.1-0.75-0.16c-0.43-0.11-0.85-0.25-1.25-0.42
					c0.52,0.22-0.04-0.03-0.16-0.09c-0.29-0.16-0.59-0.3-0.87-0.47c-2.05-1.17-3.2-2.19-4.95-3.81c-3.33-3.08-6.4-6.35-9.91-9.24
					C239.02,160.71,226.58,153.64,213.01,149.44c-3.7-1.14-5.28,4.65-1.6,5.79c12.26,3.79,23.7,10.12,33.66,18.19
					c3.84,3.11,7.17,6.66,10.81,9.99c3.42,3.13,7.77,6.65,12.68,6.49c5.25-0.16,9.5-4.86,10.15-9.89c0.65-5-2.13-9.61-5.2-13.3
					c-6.91-8.32-16.98-13.69-27.2-16.77c-6.84-2.06-14.01-3.17-21.14-3.49c-3.49-0.16-6.88-0.01-10.34,0.43
					c-1.8,0.23-3.59,0.47-5.4,0.59c-1.55,0.1-3.21,0.12-4.54-0.15c-1.59-0.32-3.24,0.46-3.69,2.1c-0.41,1.5,0.51,3.34,2.1,3.69
					c2.73,0.61,5.43,1.31,8.11,2.13C215.11,156.35,216.7,150.56,213.01,149.44z"/>
			</g>
		</g>
		<g>
			<g>
				<path class="st8" d="M226.98,359.46c0.93,3.86,1.4,7.87,2.79,11.61c1.53,4.11,4.05,7.47,7.88,9.7c7.15,4.16,15.6,4.91,23.2,1.56
					c7.15-3.15,12.36-9.57,15.1-16.76c1.57-4.1,2.1-8.53,2.39-12.89c0.32-4.74,0.19-9.5-0.19-14.22
					c-0.89-10.92-3.06-21.69-5.63-32.32c-0.9-3.75-6.69-2.16-5.79,1.6c2.06,8.53,3.9,17.15,4.93,25.88
					c0.99,8.43,1.6,17.44-0.16,25.81c-0.73,3.48-1.88,6.33-3.81,9.3c-0.91,1.4-1.68,2.37-2.93,3.64c-1.22,1.24-2.22,2.08-3.48,2.9
					c-0.66,0.44-1.35,0.84-2.05,1.21c-0.83,0.43-1.26,0.62-1.88,0.85c-0.74,0.27-1.49,0.5-2.26,0.69c-0.36,0.09-0.72,0.17-1.08,0.24
					c-0.21,0.04-0.42,0.08-0.62,0.11c-0.5,0.08-0.01,0.01-0.31,0.04c-3.49,0.36-6.31-0.06-9.59-1.38c-1.61-0.65-3.62-1.7-4.93-2.92
					c-1.24-1.16-2.27-2.78-2.84-4.14c-1.59-3.83-2.01-8.08-2.97-12.09C231.86,354.11,226.07,355.7,226.98,359.46L226.98,359.46z"/>
			</g>
		</g>
		<g>
			<g>
				<path class="st8" d="M203.27,166.07c13.33,5.06,24.27,14.76,33.26,25.62c9.85,11.9,17.8,25.49,24.73,39.26
					c7.5,14.89,13.52,30.42,18.48,46.32c2.59,8.28,5.02,16.62,7,25.08c1.97,8.4,3.15,16.87,4.46,25.39
					c1.2,7.82,2.49,15.95-0.14,23.63c-0.48,1.42-1.23,3.09-2.04,4.11c-0.75,0.94-1.67,1.7-2.66,2.26c-0.13,0.07-0.27,0.14-0.4,0.21
					c-0.06,0.03-0.61,0.3-0.32,0.17c0.13-0.06-0.47,0.18-0.62,0.22c-0.33,0.11-0.66,0.2-1,0.28c-0.14,0.03-0.29,0.06-0.44,0.09
					c-0.51,0.1,0.68-0.03-0.23,0.04c-0.64,0.04-1.28,0.05-1.92,0c-0.36-0.03,0,0,0.06,0.01c-0.15-0.02-0.3-0.05-0.44-0.08
					c-0.39-0.09-0.78-0.19-1.16-0.32c-0.14-0.05-0.29-0.1-0.43-0.15c0.06,0.03,0.32,0.15,0.01,0c-0.33-0.16-0.65-0.33-0.97-0.52
					c-0.73-0.44-0.84-0.55-1.46-1.15c-2.79-2.67-7.04,1.56-4.24,4.24c5.22,5,12.97,5.2,18.58,0.74c2.99-2.37,4.63-5.84,5.73-9.42
					c1.29-4.21,1.63-8.7,1.42-13.08c-0.22-4.39-0.93-8.75-1.6-13.09c-0.68-4.41-1.2-8.85-1.97-13.24
					c-1.58-9.02-3.81-17.92-6.35-26.71c-4.93-17.08-10.81-33.86-18.3-50c-7.05-15.18-15.33-30.02-25.49-43.36
					c-9.28-12.2-20.51-23.43-34.54-30.02c-1.78-0.84-3.6-1.6-5.44-2.3c-1.52-0.57-3.29,0.64-3.69,2.1
					C200.72,164.07,201.75,165.5,203.27,166.07L203.27,166.07z"/>
			</g>
		</g>
		<g>
			<path class="st8" d="M120.56,161.12c-0.04,0.11,0.01,0.35,0.15,0.68c0.14,0.33,0.41,0.74,0.63,1.12c0.46,0.77,1.02,1.5,1.61,2.21
				c1.2,1.41,2.65,2.66,4.28,3.7c3.25,2.08,7.23,3.33,11.38,3.25c-4.01,1.07-8.47,0.88-12.65-0.54c-2.09-0.71-4.13-1.72-5.99-3.06
				c-0.93-0.67-1.83-1.4-2.66-2.23c-0.42-0.43-0.82-0.79-1.25-1.32c-0.43-0.52-0.89-1.19-1.23-2.07L120.56,161.12z"/>
		</g>
		<g>
			<path class="st8" d="M111.82,170.38c0.38,4.15,0.9,8.22,2.06,12.15c1.15,3.92,3.02,7.69,5.82,10.94c-3.57-2.36-6.64-5.69-9-9.48
				c-2.38-3.79-4.14-7.93-5.7-12.02L111.82,170.38z"/>
		</g>
		<g>
			<path class="st8" d="M72.88,175.63c8.37,12.24,22.15,21.28,37.58,23.97c-15.64-0.7-31.3-7.96-42.29-20.25L72.88,175.63z"/>
		</g>
		<g>
			<path class="st8" d="M85.39,215.1c0.28-0.21,0.55-0.52,0.75-0.9c0.2-0.39,0.27-0.76,0.28-1.07c0.01-0.61-0.13-0.86-0.21-1.03
				c-0.09-0.17-0.16-0.24-0.23-0.31c-0.06-0.06-0.19-0.17-0.09-0.05c0.18,0.27,0.36,0.54,0.57,0.8c0.4,0.52,0.85,1.03,1.34,1.5
				c0.98,0.95,2.13,1.78,3.41,2.44c1.27,0.67,2.67,1.16,4.15,1.44c1.46,0.27,3,0.31,4.48-0.26c-1.22,1.01-2.87,1.54-4.5,1.76
				c-1.64,0.22-3.33,0.2-5.02-0.07c-1.69-0.27-3.38-0.79-4.99-1.55c-0.81-0.38-1.59-0.83-2.35-1.33c-0.38-0.25-0.75-0.52-1.12-0.81
				c-0.04-0.01-0.3-0.26-0.48-0.48c-0.18-0.23-0.35-0.47-0.52-0.82c-0.15-0.36-0.35-0.79-0.33-1.6c0.02-0.41,0.11-0.88,0.36-1.35
				c0.24-0.47,0.59-0.85,0.94-1.12L85.39,215.1z"/>
		</g>
		<g>
			<path class="st8" d="M85.65,223.2c0.22,1.01,0.77,2.09,1.59,3.13c0.81,1.04,1.86,2.03,2.98,2.99c1.13,0.96,2.27,1.87,3.52,2.61
				c1.25,0.74,2.62,1.32,4.14,1.52c-1.5,0.31-3.12,0.21-4.67-0.12c-1.56-0.33-3.07-0.86-4.52-1.44c-1.46-0.58-2.94-1.24-4.4-2.17
				c-1.45-0.93-2.9-2.17-4.02-3.86L85.65,223.2z"/>
		</g>
		<g>
			<path class="st8" d="M82.4,239.36c1.67,1.31,4.16,2.07,6.81,2.4c2.66,0.35,5.52,0.35,8.31,0.65c-2.71,0.7-5.29,1.68-8.14,2.35
				c-1.43,0.33-2.91,0.58-4.49,0.64c-1.57,0.06-3.24-0.07-4.93-0.55L82.4,239.36z"/>
		</g>
		<g>
			<path class="st8" d="M80.9,254.71c0.46,1.05,1.32,2.06,2.52,2.89c1.2,0.82,2.66,1.48,4.22,1.97c1.57,0.48,3.22,0.88,4.85,1
				c1.63,0.12,3.33-0.08,4.82-1c-1.16,1.32-2.92,2.11-4.7,2.49c-1.8,0.39-3.6,0.49-5.43,0.47c-1.83-0.03-3.73-0.25-5.66-0.85
				c-1.92-0.61-3.9-1.71-5.48-3.44L80.9,254.71z"/>
		</g>
		<g>
			<path class="st8" d="M78.97,278.41c0.19,0.4,0.5,0.79,0.98,1.15c0.48,0.35,1.12,0.66,1.83,0.91c1.43,0.49,3.17,0.73,4.92,0.94
				c3.46,0.39,6.98,0.44,10.45-0.56c-3.05,1.93-6.73,2.96-10.36,3.56c-1.81,0.29-3.65,0.59-5.74,0.51c-1.04-0.05-2.14-0.2-3.28-0.57
				c-1.14-0.38-2.31-1.03-3.31-1.97L78.97,278.41z"/>
		</g>
		<g>
			<path class="st8" d="M75.56,294.92c4.78,5.82,12.43,9.88,20.79,10.37c-8.24,1.51-17.48-0.48-24.88-5.98L75.56,294.92z"/>
		</g>
		<g>
			<path class="st8" d="M70.97,314.4c7.12,2.1,14.95,2.62,22.71,1.31c-7.18,3.22-15.3,4.88-23.62,4.62L70.97,314.4z"/>
		</g>
		<g>
			<path class="st8" d="M237.25,233.1c3.48,7.75,6.01,15.84,7.92,24.11c1.88,8.27,3.08,16.72,3.43,25.26
				c0.35,8.53-0.16,17.14-1.78,25.56c-1.64,8.4-4.36,16.65-8.66,23.99c1.56-8.35,2.68-16.51,3.21-24.7
				c0.55-8.19,0.57-16.37,0.24-24.56c-0.33-8.2-1.01-16.4-1.85-24.65C238.95,249.84,237.92,241.57,237.25,233.1z"/>
		</g>
		<g>
			<path class="st8" d="M243.37,222.69c2.54,1.75,4.75,3.98,6.7,6.41c1.94,2.45,3.59,5.11,5.03,7.86c2.8,5.52,5.03,11.18,6.82,17.05
				c1.78,5.86,3.09,11.86,3.82,17.93c0.74,6.07,0.96,12.21,0.29,18.32c-1.83-5.87-3.31-11.67-4.92-17.41
				c-1.57-5.75-3.22-11.43-4.93-17.1c-1.72-5.65-3.53-11.34-5.4-16.93C248.88,233.28,246.59,227.92,243.37,222.69z"/>
		</g>
		<g>
			<path class="st8" d="M197.41,177.58c4.5,0.79,8.71,2.91,12.4,5.65c3.69,2.76,6.86,6.17,9.49,9.9c2.64,3.73,4.74,7.78,6.35,11.98
				c1.59,4.21,2.74,8.57,3.13,13.11c-2.72-3.65-5.01-7.37-7.34-11c-2.31-3.63-4.61-7.19-7.03-10.63c-2.42-3.43-4.96-6.74-7.76-9.88
				C203.86,183.55,200.81,180.61,197.41,177.58z"/>
		</g>
		<g>
			<path class="st8" d="M202.42,172.02c2.78-0.41,5.49,0.01,8.05,0.81c2.55,0.83,4.96,2.09,7.11,3.68c2.15,1.6,4.05,3.54,5.58,5.75
				c1.51,2.22,2.69,4.69,3.08,7.48c-2.45-1.36-4.48-2.8-6.47-4.2c-1.98-1.41-3.88-2.8-5.76-4.22c-1.89-1.41-3.77-2.83-5.69-4.32
				C206.39,175.5,204.43,173.97,202.42,172.02z"/>
		</g>
		<g>
			<g>
				<path class="st8" d="M441.58,319.39c7.46,11.45,14.93,22.9,22.39,34.35c0.88,1.36,2.66,1.92,4.1,1.08
					c1.35-0.79,1.96-2.74,1.08-4.1c-7.46-11.45-14.93-22.9-22.39-34.35c-0.88-1.36-2.66-1.92-4.1-1.08
					C441.31,316.07,440.69,318.02,441.58,319.39L441.58,319.39z"/>
			</g>
		</g>
		<g>
			<g>
				<path class="st8" d="M544.1,199.98c1.44-0.27,2.71-0.42,4.47-0.38c0.37,0.01,0.73,0.03,1.1,0.06c0.18,0.02,0.35,0.03,0.53,0.05
					c-0.12-0.01-0.59-0.11-0.03,0c0.65,0.13,1.28,0.26,1.91,0.46c0.3,0.09,0.59,0.2,0.88,0.31c-0.68-0.26,0.14,0.07,0.32,0.17
					c0.56,0.29,1.08,0.62,1.6,0.98c0.27,0.19-0.17-0.13-0.18-0.14c0.11,0.09,0.23,0.18,0.33,0.28c0.21,0.19,0.43,0.38,0.63,0.59
					c0.2,0.2,0.4,0.41,0.59,0.63c0.09,0.11,0.18,0.22,0.28,0.33c0.37,0.42-0.21-0.31-0.01,0c0.31,0.46,0.62,0.91,0.89,1.39
					c0.15,0.26,0.29,0.52,0.42,0.79c0.07,0.15,0.45,0.99,0.32,0.67c-0.15-0.36,0.19,0.5,0.23,0.61c0.09,0.26,0.18,0.52,0.26,0.78
					c0.2,0.65,0.38,1.3,0.53,1.96c0.14,0.64,0.26,1.29,0.36,1.94c0.12,0.7-0.01-0.22,0.04,0.32c0.04,0.42,0.09,0.84,0.12,1.27
					c0.11,1.38,0.14,2.77,0.11,4.16c-0.03,1.41-0.13,2.82-0.28,4.22c-0.04,0.35-0.08,0.7-0.12,1.05c-0.07,0.54,0.06-0.38-0.05,0.37
					c-0.11,0.73-0.23,1.46-0.37,2.18c-0.59,3.14-1.46,6.23-2.43,9.28c-1.22,3.82-2.67,7.56-4.76,11c-1.87,3.08-4.64,6.38-8.07,7.44
					c-0.47,0.14-0.96,0.28-1.45,0.34c0.38-0.05-0.77,0.01-0.93,0.01c-0.21,0-0.41-0.02-0.61-0.03c-0.53-0.04,0.65,0.15-0.26-0.04
					c-0.45-0.09-0.88-0.21-1.32-0.36c-0.49-0.16-0.28-0.08-0.83-0.37c-0.42-0.22-0.81-0.47-1.2-0.73c-0.5-0.33-1.2-0.97-1.84-1.65
					c-2.54-2.71-4.22-6.89-4.58-10.6c-0.16-1.61-1.27-3-3-3c-1.5,0-3.16,1.38-3,3c0.84,8.6,6.09,18.6,15.58,19.69
					c4.83,0.55,9.38-2.01,12.66-5.37c3.38-3.47,5.61-7.84,7.43-12.28c2.81-6.86,4.76-14.25,5.31-21.65
					c0.45-6.09-0.04-12.83-3.2-18.22c-1.79-3.05-4.44-5.37-7.72-6.69c-3.89-1.58-8.21-1.37-12.26-0.61c-1.59,0.3-2.5,2.22-2.1,3.69
					C540.87,199.55,542.5,200.28,544.1,199.98L544.1,199.98z"/>
			</g>
		</g>
		<g>
			<g>
				<path class="st8" d="M413.05,355.32c11.45,11.3,22.13,23.34,32.81,35.35c3.92,4.42,7.73,8.94,13.06,11.72
					c4.45,2.31,10.16,3.46,14.52,0.27c4.3-3.14,5.83-8.73,7.64-13.52c2.16-5.73,4.26-11.47,6.37-17.21
					c2.81-7.65,5.6-15.3,8.39-22.95c3.05-8.35,6.1-16.7,9.17-25.05c2.83-7.69,5.66-15.38,8.53-23.06
					c2.18-5.83,4.37-11.65,6.65-17.44c0.39-0.99,0.79-1.98,1.19-2.97c0.17-0.42,0.34-0.83,0.51-1.25c0.04-0.11,0.09-0.21,0.13-0.32
					c0.16-0.4-0.32,0.75-0.16,0.37c0.08-0.18,0.15-0.35,0.23-0.53c0.23-0.53,0.46-1.06,0.72-1.58c0.09-0.18,0.19-0.35,0.27-0.53
					c0.33-0.67-0.09,0.39-0.26,0.29c0.06,0.04,1.95-1.43,2.13-1.54c1.44-0.92,2.95-1.73,4.49-2.49c2.99-1.47,6.08-2.74,9.03-4.3
					c5.74-3.04,10.6-7.56,14.19-12.96c1.67-2.51,3.08-5.18,4.52-7.83c1.84-3.4-3.34-6.43-5.18-3.03c-2.87,5.31-5.49,9.99-9.87,13.98
					c-4.92,4.48-11.15,6.57-16.96,9.59c-2.23,1.16-4.86,2.51-6.61,4.36c-0.39,0.41-0.65,0.87-0.9,1.37c-0.71,1.43-1.3,2.92-1.91,4.4
					c-4.91,11.97-9.28,24.18-13.75,36.32c-5.9,16.01-11.74,32.05-17.61,48.08c-3.76,10.27-7.32,20.64-11.45,30.77
					c-0.05,0.11-0.09,0.23-0.14,0.34c-0.22,0.54,0.4-0.78,0.16-0.37c-0.57,0.96-1.21,2.41-1.64,2.92c-0.36,0.43-0.77,0.84-1.21,1.2
					c0.49-0.4-0.19,0.11-0.25,0.15c-0.22,0.14-0.45,0.25-0.67,0.37c-0.66,0.37,0.52-0.09-0.21,0.08c-0.23,0.06-0.48,0.14-0.71,0.21
					c-0.12,0.04-0.94,0.16-0.17,0.07c-0.33,0.04-0.66,0.06-0.99,0.06c-0.25,0-0.51-0.01-0.76-0.02c-0.12-0.01-0.94-0.13-0.22-0.01
					c-0.52-0.09-1.04-0.2-1.55-0.35c-0.53-0.15-1.05-0.33-1.56-0.53c0.59,0.23-0.27-0.13-0.32-0.15c-0.35-0.16-0.69-0.33-1.02-0.52
					c-2.34-1.26-3.71-2.31-5.54-4.03c-2.4-2.26-4.5-4.86-6.69-7.32c-2.64-2.97-5.28-5.94-7.93-8.9
					c-5.32-5.94-10.69-11.83-16.21-17.58c-2.64-2.76-5.32-5.48-8.04-8.16C414.54,348.36,410.3,352.6,413.05,355.32L413.05,355.32z"
					/>
			</g>
		</g>
		<g>
			<g>
				<path class="st8" d="M460.95,367.96c8.66-11.71,13.16-26.05,18.3-39.51c5.56-14.55,11.13-29.1,16.66-43.67
					c1.35-3.56,2.74-7.1,4.1-10.65c1.27-3.31,2.25-6.91,1.84-10.48c-0.81-7.18-6.72-12.55-10.14-18.59
					c-5.85-10.33-7.06-24.07-2.04-34.96c1.1-2.38,2.57-4.84,4.77-6.25c2.2-1.41,4.87-1.67,7.24-0.72c2.47,0.99,4.04,3.19,4.59,5.68
					c0.24,1.1,0.15,2.26-0.05,3.43c-0.25,1.4-0.54,2.79-0.84,4.17c-0.54,2.48-1.11,5-1.16,7.55c-0.06,2.57,0.54,5.03,1.61,7.36
					c1.3,2.83,3.4,5.67,5.9,7.54c2.49,1.86,5.56,2.74,8.61,3.09c4.59,0.54,8.9-0.47,12.45-3.45c2.9-2.43,4.95-5.85,6.45-9.28
					c3.55-8.14,5.02-17.41,4.57-26.26c-0.18-3.63-0.65-7.41-2.03-10.8c-1.88-4.64-5.66-9.08-10.22-11.24
					c-4.8-2.28-10.05-2.06-14.78,0.32c-4.72,2.37-8.43,6.73-10.83,11.36c-1.27,2.45-1.69,5.02-2.27,7.68
					c-0.35,1.58,0.48,3.25,2.1,3.69c1.5,0.41,3.34-0.51,3.69-2.1c0.28-1.25,0.49-2.51,0.79-3.75c0.14-0.59,0.29-1.18,0.5-1.75
					c-0.25,0.68,0.19-0.38,0.22-0.42c0.16-0.32,0.32-0.63,0.5-0.94c1.27-2.32,2.48-3.98,4.34-5.75c0.99-0.94,1.32-1.22,2.37-1.89
					c0.45-0.29,0.91-0.56,1.38-0.81c0.25-0.13,0.51-0.26,0.77-0.38c0.64-0.3-0.27,0.09,0.32-0.13c0.52-0.19,1.05-0.36,1.58-0.49
					c0.27-0.07,0.54-0.11,0.8-0.17c0.84-0.2-0.37,0.02,0.14-0.03c0.49-0.05,0.99-0.08,1.49-0.08c0.27,0,0.54,0.01,0.81,0.03
					c0.2,0.01,0.82,0.11,0.29,0.02c0.55,0.09,1.09,0.21,1.62,0.37c0.27,0.08,0.54,0.17,0.8,0.27c0.85,0.31-0.28-0.14,0.22,0.09
					c0.87,0.4,2.21,1.24,2.65,1.59c1.88,1.51,3.5,3.45,4.65,5.57c0.17,0.31,0.31,0.63,0.46,0.94c0.29,0.58-0.23-0.67-0.02-0.04
					c0.05,0.15,0.11,0.3,0.17,0.45c0.26,0.73,0.48,1.48,0.66,2.23c0.2,0.83,0.36,1.66,0.5,2.5c0.03,0.19,0.06,0.38,0.09,0.58
					c-0.12-0.8,0,0.01,0.01,0.14c0.05,0.49,0.1,0.97,0.14,1.46c0.16,1.99,0.2,3.98,0.14,5.98c-0.03,1.05-0.09,2.1-0.18,3.14
					c-0.04,0.51-0.09,1.01-0.14,1.52c-0.03,0.28-0.06,0.55-0.09,0.83c-0.02,0.17-0.11,0.85-0.04,0.31
					c-0.56,4.16-1.53,8.31-3.06,12.23c-0.09,0.24-0.19,0.48-0.29,0.73c-0.32,0.8,0.26-0.54-0.1,0.23c-0.19,0.42-0.38,0.84-0.59,1.26
					c-0.41,0.84-0.86,1.66-1.34,2.46c-0.24,0.4-0.5,0.79-0.77,1.17c-0.13,0.19-0.27,0.37-0.4,0.56c-0.42,0.61,0.28-0.34-0.01,0.01
					c-0.53,0.64-1.07,1.26-1.68,1.82c-0.17,0.16-1.19,0.98-0.49,0.46c-0.3,0.22-0.59,0.43-0.91,0.63c-0.31,0.19-0.62,0.37-0.94,0.53
					c-0.17,0.09-0.35,0.17-0.53,0.25c0.76-0.35,0.19-0.08-0.01-0.02c-1.9,0.56-3.92,0.7-5.86,0.4c-2.52-0.39-4.69-1.21-6.25-2.92
					c-1.76-1.94-3.11-4.09-3.68-6.3c-0.07-0.28-0.12-0.55-0.18-0.83c-0.19-0.86,0.01,0.57-0.04-0.3c-0.03-0.5-0.06-1-0.06-1.51
					c0.01-0.51,0.04-1.02,0.09-1.52c0.01-0.06,0.13-0.98,0.03-0.33c0.04-0.29,0.09-0.58,0.14-0.87c0.44-2.53,1.08-5.02,1.53-7.54
					c0.59-3.38,0.47-6.48-1.02-9.62c-1.35-2.85-3.74-5.16-6.62-6.42c-3.06-1.33-6.63-1.63-9.83-0.58c-3.2,1.05-5.73,3.2-7.71,5.88
					c-3.71,5.01-5.33,11.59-5.98,17.69c-0.66,6.19,0.02,12.61,1.9,18.55c0.96,3.03,2.23,5.99,3.79,8.75
					c1.64,2.89,3.68,5.53,5.53,8.28c1.75,2.6,3.81,5.29,3.89,8.55c0.08,3.28-1.25,6.4-2.42,9.4c-5.49,14.07-10.77,28.22-16.16,42.32
					c-2.7,7.07-5.4,14.14-8.11,21.21c-2.4,6.27-4.86,12.54-8.06,18.46c-1.61,3-3.41,5.88-5.44,8.62c-0.96,1.3-0.22,3.35,1.08,4.1
					C458.37,369.92,459.99,369.26,460.95,367.96L460.95,367.96z"/>
			</g>
		</g>
		<g>
			<path class="st8" d="M507.67,206.43c9.66-4.58,20.88-3.63,28.98,1.53c-9-3.37-19.15-1.61-25.9,3.62L507.67,206.43z"/>
		</g>
		<g>
			<path class="st8" d="M508.52,217.36c2.24,0.6,4.53,1.2,6.8,1.95c2.27,0.76,4.54,1.61,6.68,2.76c2.14,1.13,4.16,2.53,5.84,4.25
				c1.7,1.68,3.03,3.68,3.96,5.79c-1.37-1.86-3.03-3.45-4.91-4.63c-1.86-1.21-3.91-2.05-6.02-2.63c-2.11-0.6-4.29-0.91-6.5-1.15
				c-2.21-0.22-4.46-0.32-6.75-0.42L508.52,217.36z"/>
		</g>
		<g>
			<path class="st8" d="M538.57,221.06c9.15,2.68,16.31,9.47,19.49,17.44c-4.94-7.02-12.92-11.19-20.56-11.54L538.57,221.06z"/>
		</g>
		<g>
			<path class="st8" d="M540.06,211.71c3.66,0.18,7.45,0.34,11.19,0.98c1.87,0.32,3.71,0.74,5.51,1.36
				c1.78,0.63,3.54,1.54,4.77,2.92c-1.56-0.99-3.33-1.34-5.08-1.45c-1.76-0.1-3.55-0.02-5.31,0.17c-3.52,0.37-6.99,1.18-10.55,2
				L540.06,211.71z"/>
		</g>
		<g>
			<path class="st8" d="M481.97,221.66c2.03-1.61,4.28-2.6,6.49-3.23c2.22-0.63,4.44-0.91,6.62-0.99c4.36-0.13,8.64,0.49,12.6,1.83
				c-4.16-0.36-8.31,0.08-12.15,1.14c-1.92,0.54-3.75,1.27-5.38,2.2c-1.62,0.93-3.03,2.07-3.99,3.35L481.97,221.66z"/>
		</g>
		<g>
			<path class="st8" d="M485.41,244.03c1.17-2.67,2.93-4.26,4.63-5.69c1.73-1.4,3.52-2.53,5.34-3.58c3.71-2.15,7.77-3.5,11.84-3.98
				c-3.83,1.45-7.25,3.67-10.04,6.38c-1.43,1.39-2.8,2.83-3.92,4.33c-1.11,1.47-2,3.12-2.12,4.34L485.41,244.03z"/>
		</g>
		<g>
			<path class="st8" d="M497.57,255.68c11.62-0.17,22.66,4.62,30.13,12.37c-8.77-6.24-19.81-8.41-29.52-6.41L497.57,255.68z"/>
		</g>
		<g>
			<path class="st8" d="M500.11,270.61c6.18,3.44,11.08,8.49,14.19,14.21c-4.7-4.51-10.5-7.45-16.34-8.61L500.11,270.61z"/>
		</g>
		<g>
			<path class="st8" d="M494.46,283.35c6.76,5.07,11.36,12.25,13.2,19.78c-3.71-6.81-9.66-11.96-16.21-14.58L494.46,283.35z"/>
		</g>
		<g>
			<path class="st8" d="M483.42,308.92c7.23,1.45,13.38,5.62,17.18,11.02c-5.25-4.01-11.75-5.69-17.55-5.03L483.42,308.92z"/>
		</g>
		<g>
			<path class="st8" d="M476.29,326.6c7.67,1.46,13.71,6.77,16.19,13.04c-4.21-5.27-10.87-7.75-16.53-7.05L476.29,326.6z"/>
		</g>
		<g>
			<path class="st8" d="M469.5,345.28c8.22,1.42,15.05,6.58,18.56,13.09c-5.13-5.33-12.43-7.8-18.86-7.1L469.5,345.28z"/>
		</g>
		<g>
			<path class="st8" d="M51.66,159.76c4.29-4.68,9.43-8.68,15.3-11.53l2.22-1.04c0.74-0.35,1.53-0.57,2.29-0.86
				c0.77-0.27,1.54-0.56,2.32-0.82l2.35-0.64c3.15-0.86,6.3-1.35,9.41-1.85c6.17-0.9,12.01-1.78,17.73-3.64
				c5.74-1.8,11.27-4.46,17.05-7.16c-4.28,4.69-9.42,8.69-15.3,11.54l-2.22,1.04c-0.74,0.34-1.53,0.57-2.29,0.86
				c-0.77,0.28-1.54,0.56-2.32,0.81l-2.35,0.64c-3.15,0.85-6.3,1.35-9.41,1.84c-6.17,0.89-12.01,1.78-17.73,3.64
				C62.98,154.4,57.45,157.07,51.66,159.76z"/>
		</g>
	</g>
</g>
<g id="對話框_2_">
	<g>
		<path class="st8" d="M551.06,31h-81.96c-10.46,0-18.94,8.48-18.94,18.94v81.96c0,10.46,8.48,18.94,18.94,18.94h19.47v24.27
			c0,4.27,5.17,6.42,8.19,3.39l27.66-27.66h26.64c10.46,0,18.94-8.48,18.94-18.94V49.94C570,39.48,561.52,31,551.06,31z"/>
	</g>
	<g>
		<polygon class="st8" points="548.11,69.19 530.93,69.19 530.93,52 488.92,52 488.92,69.19 471.74,69.19 471.74,111.19 
			488.92,111.19 488.92,128.38 530.93,128.38 530.93,111.19 548.11,111.19 		"/>
	</g>
	<g>
		<g>
			<g>
				<path class="st8" d="M550.91,28c-4.46,0-8.92,0-13.37,0c-9.7,0-19.4,0-29.11,0c-9.44,0-18.88,0-28.32,0c-2.9,0-5.8,0-8.7,0
					c-2.37,0-4.68,0.01-7.03,0.48c-7.49,1.52-13.63,7.16-16.17,14.3c-1.03,2.89-1.2,5.9-1.2,8.93c0,6.87,0,13.73,0,20.6
					c0,10.23,0,20.46,0,30.7c0,8.09,0,16.18,0,24.27c0,1.52-0.01,3.04,0,4.56c0.04,6.64,3.02,13.07,8.27,17.2
					c3.04,2.39,6.6,4.01,10.45,4.55c1.74,0.24,3.44,0.26,5.19,0.26c4.71,0,9.42,0,14.13,0c1.13,0,2.25,0,3.38,0c-1-1-2-2-3-3
					c0,4.95,0,9.9,0,14.86c0,2.72,0,5.45,0,8.17c0,0.52-0.02,1.04,0.01,1.55c0.14,2.65,1.54,5.08,3.85,6.42
					c3.29,1.91,7.12,1.09,9.74-1.5c1.23-1.22,2.45-2.45,3.68-3.68c4.6-4.6,9.19-9.19,13.79-13.79c3.3-3.3,6.6-6.6,9.91-9.91
					c-0.71,0.29-1.41,0.59-2.12,0.88c4.65,0,9.3,0,13.94,0c3.06,0,6.11,0,9.17,0c1.75,0,3.53,0.08,5.27-0.08
					c10.02-0.91,18.52-8.56,19.94-18.64c0.38-2.72,0.26-5.49,0.26-8.23c0-11.33,0-22.65,0-33.98c0-11.94,0-23.89,0-35.83
					c0-2.37,0.02-4.73,0-7.1c-0.07-9.34-5.98-17.66-14.78-20.79C555.79,28.39,553.33,28.02,550.91,28c-3.86-0.04-3.87,5.96,0,6
					c6.29,0.06,11.78,3.6,14.56,9.4c1.14,2.38,1.38,5.03,1.38,7.9c0,6.19,0,12.38,0,18.57c0,9.71,0,19.42,0,29.13
					c0,8.41,0,16.82,0,25.23c0,2.21,0,4.41,0,6.62c0,3.34-0.49,6.21-2.15,9.06c-2.87,4.95-8.17,7.91-13.86,7.94
					c-3.18,0.02-6.37,0-9.55,0c-4.59,0-9.17,0-13.76,0c-1.06,0-2.13-0.05-3.19,0c-1.34,0.06-2.04,0.73-2.88,1.56
					c-5.83,5.83-11.66,11.66-17.5,17.5c-2.69,2.69-5.39,5.39-8.08,8.08c-0.46,0.46-0.92,0.94-1.39,1.39c0,0-0.38,0.34-0.16,0.17
					c0.21-0.17-0.79,0.42-0.22,0.18c-0.19,0.08-1.13,0.21-0.53,0.18c-0.24,0.01-1.1-0.13-0.53,0.02c-0.23-0.06-1-0.4-0.53-0.14
					c-0.12-0.06-0.23-0.12-0.34-0.2c-0.38-0.25,0.31,0.3-0.03,0c-0.13-0.12-0.63-0.73-0.33-0.29c-0.1-0.15-0.19-0.31-0.28-0.47
					c0.15,0.26,0.04,0.18-0.02-0.06c-0.05-0.19-0.11-0.37-0.14-0.56c0.03,0.18,0,0.44,0.03-0.11c0-0.01,0-0.03,0-0.04
					c0-0.12,0-0.23,0-0.35c0-0.55,0-1.09,0-1.64c0-2.02,0-4.04,0-6.06c0-4.54,0-9.07,0-13.61c0-0.86,0-1.72,0-2.57
					c0-1.62-1.37-3-3-3c-3.54,0-7.07,0-10.61,0c-2.25,0-4.49,0-6.74,0c-0.61,0-1.22,0-1.83,0c-0.1,0-0.19,0-0.29,0
					c-0.29,0-0.59-0.01-0.88-0.02c-0.23-0.01-0.46-0.03-0.69-0.04c-0.06,0-0.73-0.07-0.4-0.03c-6.42-0.83-11.62-5.42-13.34-11.4
					c-0.65-2.25-0.63-4.19-0.63-6.6c0-6.89,0-13.78,0-20.68c0-10.08,0-20.16,0-30.24c0-7.99,0-15.97,0-23.96c0-1.6-0.01-3.2,0-4.8
					c0.03-5.04,2.41-10.08,6.43-12.96c2.72-1.94,5.7-3,8.81-3.12c0.51-0.02,1.02-0.01,1.52-0.01c2.18,0,4.37,0,6.55,0
					c8.59,0,17.19,0,25.78,0c9.92,0,19.83,0,29.75,0c6.06,0,12.12,0,18.19,0c0.29,0,0.58,0,0.88,0C554.77,34,554.77,28,550.91,28z"
					/>
			</g>
		</g>
		<g>
			<g>
				<path class="st8" d="M548.11,66.19c-5.73,0-11.46,0-17.18,0c1,1,2,2,3,3c0-5.73,0-11.46,0-17.18c0-1.62-1.37-3-3-3
					c-12.25,0-24.5,0-36.74,0c-1.75,0-3.51,0-5.26,0c-1.62,0-3,1.37-3,3c0,5.73,0,11.46,0,17.18c1-1,2-2,3-3
					c-5.73,0-11.46,0-17.18,0c-1.62,0-3,1.37-3,3c0,12.25,0,24.5,0,36.74c0,1.75,0,3.51,0,5.26c0,1.62,1.37,3,3,3
					c5.73,0,11.46,0,17.18,0c-1-1-2-2-3-3c0,5.73,0,11.46,0,17.18c0,1.62,1.37,3,3,3c12.25,0,24.5,0,36.74,0c1.75,0,3.51,0,5.26,0
					c1.62,0,3-1.37,3-3c0-5.73,0-11.46,0-17.18c-1,1-2,2-3,3c5.73,0,11.46,0,17.18,0c1.62,0,3-1.37,3-3c0-12.25,0-24.5,0-36.74
					c0-1.75,0-3.51,0-5.26c0-3.86-6-3.87-6,0c0,12.25,0,24.5,0,36.74c0,1.75,0,3.51,0,5.26c1-1,2-2,3-3c-5.73,0-11.46,0-17.18,0
					c-1.62,0-3,1.37-3,3c0,5.73,0,11.46,0,17.18c1-1,2-2,3-3c-12.25,0-24.5,0-36.74,0c-1.75,0-3.51,0-5.26,0c1,1,2,2,3,3
					c0-5.73,0-11.46,0-17.18c0-1.62-1.37-3-3-3c-5.73,0-11.46,0-17.18,0c1,1,2,2,3,3c0-12.25,0-24.5,0-36.74c0-1.75,0-3.51,0-5.26
					c-1,1-2,2-3,3c5.73,0,11.46,0,17.18,0c1.62,0,3-1.37,3-3c0-5.73,0-11.46,0-17.18c-1,1-2,2-3,3c12.25,0,24.5,0,36.74,0
					c1.75,0,3.51,0,5.26,0c-1-1-2-2-3-3c0,5.73,0,11.46,0,17.18c0,1.62,1.37,3,3,3c5.73,0,11.46,0,17.18,0
					C551.97,72.19,551.98,66.19,548.11,66.19z"/>
			</g>
		</g>
	</g>
</g>
<g id="_x2D_---------_9_">
</g>
<g id="雲_4_">
</g>
<g id="雲_3_">
</g>
<g id="卷軸_1_">
</g>
<g id="火箭_1_">
</g>
<g id="雜層_1_">
</g>
<g id="手_4_">
</g>
<g id="_x2D_---------_7_">
</g>
<g id="雲">
</g>
<g id="雲_2_">
</g>
<g id="卷軸">
</g>
<g id="火箭">
</g>
<g id="雜層">
</g>
<g id="手_6_">
</g>
<g id="_x2D_---------_4_">
</g>
<g id="雲_6_">
</g>
<g id="雲_5_">
</g>
<g id="卷軸_2_">
</g>
<g id="火箭_2_">
</g>
<g id="雜層_2_">
</g>
<g id="手_8_">
</g>
<g id="_x2D_---------_10_">
</g>
<g id="環_1_">
</g>
<g id="筆_1_">
</g>
<g id="星星_1_">
</g>
<g id="星球_4_">
</g>
<g id="星球_3_">
</g>
<g id="_x2D_---------_3_">
</g>
<g id="環">
</g>
<g id="筆">
</g>
<g id="星星">
</g>
<g id="星球_2_">
</g>
<g id="星球_1_">
</g>
<g id="_x2D_---------_2_">
</g>
<g id="圓餅">
</g>
<g id="方形">
</g>
<g id="三角">
</g>
<g id="手_1_">
</g>
<g id="尺">
</g>
<g id="量角器">
</g>
<g id="_x2D_---------_1_">
</g>
<g id="互動方塊_1_">
</g>
<g id="梯子_2_">
</g>
<g id="齒輪_1_">
</g>
<g id="手_2_">
</g>
<g id="雲_1_">
</g>
<g id="_x2D_---------">
</g>
<g id="塗鴉路徑">
</g>
<g id="手">
</g>
<g id="星球">
</g>
<g id="鉛筆">
</g>
<g id="參考線" class="st12">
</g>
</svg>
